<?xml version="1.0" encoding="UTF-8"?>
<svg width="166px" height="41px" version="1.1" viewBox="0 0 166 41" xmlns="http://www.w3.org/2000/svg">
 <title>Kampagnenlogo2020_pfade</title>
 <g fill-rule="evenodd">
  <g fill="#1a1919">
   <path d="m10.444 28.927c0-3.6111-1.8189-5.4172-5.4577-5.4172h-0.50147v11.116h0.50147c3.6389 0 5.4577-1.8988 5.4577-5.6986zm2.8091-0.05964c0 4.749-2.7315 7.1226-8.1938 7.1226h-4.7078c-0.013319-0.10655-0.019688-0.19399-0.019688-0.26058 0-0.37408 0.22352-0.62192 0.67288-0.74237l0.79159-0.20094v-11.477l-1.1674-0.28085c-0.18472-0.04054-0.27737-0.11408-0.27737-0.22063 0-0.04053 0.073542-0.26116 0.22063-0.66246h4.4872c5.4624 0 8.1938 2.2404 8.1938 6.7218z"/>
   <path d="m18.71 22.949c0 0.42793-0.14766 0.77248-0.44183 1.0331-0.29417 0.26116-0.65551 0.39145-1.0834 0.39145-0.42793 0-0.78232-0.13029-1.0632-0.39145-0.28085-0.26058-0.42156-0.60513-0.42156-1.0331 0-0.42793 0.14361-0.77595 0.43141-1.0435 0.2878-0.26753 0.63871-0.4013 1.0533-0.4013 0.42793 0 0.78927 0.13376 1.0834 0.4013s0.44183 0.61555 0.44183 1.0435zm-0.22062 11.918 1.1234 0.26058c0.18704 0.03996 0.28085 0.1274 0.28085 0.26116 0 0.26753-0.06717 0.46847-0.20036 0.60165h-4.9765c-0.01332-0.10655-0.01969-0.18009-0.01969-0.22005 0-0.29417 0.20731-0.51537 0.62192-0.66246l0.64219-0.24089v-7.364l-1.3649-0.24031c-0.01332-0.10713-0.01969-0.18704-0.01969-0.24089 0-0.37408 0.24726-0.58197 0.74237-0.62192l3.1704-0.30112v8.7683z"/>
   <path d="m25.171 27.162c-1.0435 0-1.5652 0.69546-1.5652 2.087 0 1.4315 0.50842 2.1472 1.5247 2.1472 1.0568 0 1.5855-0.71573 1.5855-2.1472 0-1.3915-0.51537-2.087-1.545-2.087zm-1.0035 8.9489c-0.20036 0-0.43488-0.01332-0.70241-0.03996-0.45457 0.33412-0.68214 0.769-0.68214 1.3041 0 1.0701 0.64856 1.6052 1.9468 1.6052 0.85587 0 1.5646-0.17025 2.1263-0.51132 0.56228-0.34107 0.84255-0.75974 0.84255-1.2543 0-0.736-0.42098-1.1037-1.2635-1.1037zm5.9997-8.6884h-1.5855c0.4013 0.52232 0.60223 1.124 0.60223 1.8067 0 1.0429-0.39145 1.8623-1.1738 2.4576-0.7829 0.59528-1.776 0.89292-2.9799 0.89292-0.30806 0-0.60223-0.01969-0.8825-0.06022-0.34802 0.20036-0.52174 0.48121-0.52174 0.84255 0 0.44183 0.3208 0.66246 0.96299 0.66246h2.3475c1.9926 0 2.9897 0.80896 2.9897 2.4275 0 1.0435-0.48874 1.926-1.465 2.6487-1.0429 0.76264-2.4147 1.1437-4.1131 1.1437-2.5149 0-3.7721-0.769-3.7721-2.307 0-0.5756 0.20036-1.0568 0.60165-1.4448 0.33412-0.33528 0.74237-0.5617 1.2242-0.68214v-0.03996c-0.58891-0.30806-0.8825-0.80954-0.8825-1.505 0-0.74932 0.50784-1.4176 1.5247-2.0071v-0.03996c-1.2711-0.53448-1.9063-1.5316-1.9063-2.9892 0-1.0307 0.39435-1.8391 1.1836-2.4286 0.72268-0.5478 1.659-0.82228 2.8091-0.82228 0.5756 0 1.124 0.08049 1.6457 0.24031h3.6117l-0.22062 1.2039z"/>
   <path d="m35.063 22.949c0 0.42793-0.14766 0.77248-0.44125 1.0331-0.29475 0.26116-0.65551 0.39145-1.084 0.39145-0.42793 0-0.78232-0.13029-1.0632-0.39145-0.28085-0.26058-0.42156-0.60513-0.42156-1.0331 0-0.42793 0.14419-0.77595 0.43199-1.0435 0.28722-0.26753 0.63814-0.4013 1.0527-0.4013 0.42851 0 0.78927 0.13376 1.084 0.4013 0.29359 0.26753 0.44125 0.61555 0.44125 1.0435zm-0.22062 11.918 1.1234 0.26058c0.18762 0.03996 0.28085 0.1274 0.28085 0.26116 0 0.26753-0.06717 0.46847-0.20036 0.60165h-4.9759c-0.0139-0.10655-0.02027-0.18009-0.02027-0.22005 0-0.29417 0.20731-0.51537 0.62192-0.66246l0.64219-0.24089v-7.364l-1.3643-0.24031c-0.0139-0.10713-0.02027-0.18704-0.02027-0.24089 0-0.37408 0.24726-0.58197 0.74237-0.62192l3.1704-0.30112v8.7683z"/>
   <path d="m43.409 27.422h-2.6689v5.438c0 1.2444 0.41461 1.8663 1.2444 1.8663 0.62829 0 1.1234-0.16098 1.4847-0.48179 0.14708 0.25421 0.22063 0.50842 0.22063 0.76206 0 0.20094-0.20036 0.43488-0.60165 0.70241-0.53564 0.34802-1.2311 0.52174-2.087 0.52174-1.8594 0-2.7888-0.98963-2.7888-2.9695v-5.8393h-1.465c-0.01332-0.13319-0.01969-0.22005-0.01969-0.26058 0-0.37408 0.20731-0.60802 0.62192-0.70241l0.96299-0.24089 0.52174-2.7286h1.9057v2.7286h2.8896l-0.22063 1.2039"/>
   <path d="m49.011 31.617c-1.3938 0.10771-2.0904 0.65319-2.0904 1.6365 0 0.39087 0.10308 0.70704 0.30864 0.94968 0.20557 0.24205 0.48121 0.36308 0.82633 0.36308 0.54375 0 0.99484-0.21368 1.3533-0.64219v-2.3267zm2.8861 2.1669c0 0.60165 0.19341 0.90277 0.58139 0.90277 0.34802 0 0.6225-0.14071 0.82286-0.42098 0.20094 0.227 0.30112 0.44125 0.30112 0.64161 0 0.24089-0.16735 0.4951-0.50147 0.76263-0.42851 0.36134-0.97052 0.54143-1.6254 0.54143-1.0168 0-1.6388-0.48121-1.8663-1.4442h-0.03996c-0.45457 0.96299-1.2907 1.4442-2.508 1.4442-0.77595 0-1.4147-0.25016-1.9161-0.75221-0.50147-0.50147-0.75221-1.1466-0.75221-1.9358 0-1.0168 0.46789-1.7795 1.4042-2.2879 0.80259-0.42793 1.8322-0.64219 3.0899-0.64219h0.52174v-0.82228c0-0.94968-0.13145-1.6081-0.39377-1.9764-0.2629-0.36829-0.6972-0.55185-1.3029-0.55185-0.22931 0-0.50553 0.05964-0.82865 0.18009-0.17488 0.41519-0.31617 1.0035-0.42446 1.7662-0.21136 0.02664-0.38971 0.04054-0.53506 0.04054-0.75337 0-1.1303-0.35497-1.1303-1.0638 0-0.62829 0.3515-1.1506 1.0539-1.5646 0.70183-0.41461 1.5878-0.6225 2.6585-0.6225 2.2601 0 3.391 1.1975 3.391 3.592v4.2133z"/>
   <path d="m57.755 34.867 1.1037 0.26058c0.18704 0.03996 0.28085 0.1274 0.28085 0.26116 0 0.26753-0.06717 0.46847-0.20094 0.60165h-4.9759c-0.01332-0.10655-0.02027-0.18009-0.02027-0.22005 0-0.30806 0.20731-0.52869 0.6225-0.66246l0.66188-0.24089v-12.039l-1.3846-0.22062c-0.01332-0.12045-0.02027-0.20731-0.02027-0.26058 0-0.37524 0.24784-0.58196 0.74295-0.6225l3.1901-0.30054v13.443"/>
   <path d="m65.353 29.896c0 0.69083-0.2212 1.2485-0.66419 1.6718s-1.007 0.63524-1.6932 0.63524c-0.66419 0-1.2172-0.21194-1.6602-0.63524-0.44299-0.4233-0.66419-0.98094-0.66419-1.6718s0.2212-1.2485 0.66419-1.6724c0.44299-0.4233 0.996-0.63524 1.6602-0.63524 0.6862 0 1.2502 0.21194 1.6932 0.63524 0.44299 0.42388 0.66419 0.98152 0.66419 1.6724"/>
   <path d="m74.041 23.892c-0.60165-0.44183-1.2838-0.66246-2.0464-0.66246-0.61555 0-1.117 0.16098-1.505 0.48121-0.38798 0.32138-0.58139 0.79622-0.58139 1.4245 0 0.49568 0.17314 0.92362 0.52116 1.2844 0.18762 0.20094 0.51537 0.43488 0.98326 0.70241l1.8061 1.0435c1.0296 0.60223 1.7586 1.1506 2.1871 1.6457 0.5617 0.65493 0.84255 1.4442 0.84255 2.3667 0 1.2045-0.41461 2.1744-1.2438 2.9098-0.86976 0.76264-2.054 1.1437-3.5514 1.1437-1.5525 0-2.8027-0.29359-3.7524-0.8825-0.06717-1.0435-0.10018-1.7662-0.10018-2.1669 0-0.80317 0.29069-1.2039 0.87266-1.2039 0.17546 0 0.33065 0.03301 0.46615 0.10018l0.487 2.1669c0.50611 0.44125 1.2114 0.66188 2.1171 0.66188 1.545 0 2.3174-0.62192 2.3174-1.8658 0-0.60165-0.2212-1.1037-0.66246-1.505-0.18762-0.1604-0.80259-0.55475-1.8461-1.1836l-1.2039-0.72268c-0.82923-0.50784-1.4245-0.99658-1.7853-1.4645-0.509-0.65551-0.76264-1.4714-0.76264-2.4483 0-1.15 0.43141-2.0731 1.2942-2.7685 0.86281-0.69546 1.9694-1.0435 3.3204-1.0435s2.4813 0.26058 3.391 0.7829c0.06717 0.8964 0.10018 1.5716 0.10018 2.0262 0 0.78927-0.2739 1.1842-0.82228 1.1842-0.20094 0-0.35439-0.02027-0.46152-0.0608l-0.38161-1.9457"/>
   <path d="m81.626 22.949c0 0.42793-0.14766 0.77248-0.44183 1.0331-0.29417 0.26116-0.65551 0.39145-1.0834 0.39145-0.42793 0-0.78232-0.13029-1.0632-0.39145-0.28085-0.26058-0.42156-0.60513-0.42156-1.0331 0-0.42793 0.14361-0.77595 0.43141-1.0435 0.2878-0.26753 0.63871-0.4013 1.0533-0.4013 0.42793 0 0.78927 0.13376 1.0834 0.4013 0.29417 0.26753 0.44183 0.61555 0.44183 1.0435zm-0.22062 11.918 1.1234 0.26058c0.18704 0.03996 0.28085 0.1274 0.28085 0.26116 0 0.26753-0.06717 0.46847-0.20036 0.60165h-4.9765c-0.01332-0.10655-0.01969-0.18009-0.01969-0.22005 0-0.29417 0.20731-0.51537 0.62192-0.66246l0.64219-0.24089v-7.364l-1.3649-0.24031c-0.01332-0.10713-0.01969-0.18704-0.01969-0.24089 0-0.37408 0.24726-0.58197 0.74237-0.62192l3.1704-0.30112v8.7683z"/>
   <path d="m90.514 29.109c-0.45515-1.2039-1.0904-1.8067-1.9069-1.8067-1.5114 0-2.2665 1.1715-2.2665 3.5121 0 2.5415 0.88192 3.812 2.6487 3.812 0.7748 0 1.5311-0.33412 2.2665-1.0029 0.24089 0.24089 0.36192 0.50784 0.36192 0.80201 0 0.3486-0.28201 0.71631-0.8437 1.1043-0.69546 0.46789-1.5589 0.70183-2.5879 0.70183-1.4181 0-2.5114-0.42098-3.2804-1.2641-0.76958-0.84255-1.1535-2.087-1.1535-3.7321s0.5009-2.9492 1.5038-3.9122c0.95025-0.8964 2.1541-1.3446 3.6122-1.3446 1.0441 0 1.8183 0.22757 2.3273 0.68214 0.37466 0.32138 0.56228 0.69546 0.56228 1.124 0 0.74874-0.41519 1.1906-1.2438 1.3243"/>
   <path d="m96.393 27.422h0.03996c0.78985-0.96299 1.8194-1.4442 3.0899-1.4442 2.0337 0 3.0505 1.157 3.0505 3.4709v5.4178l1.1031 0.26058c0.18704 0.03996 0.28085 0.1274 0.28085 0.26116 0 0.26753-0.0672 0.46847-0.20036 0.60165h-4.896c-0.01332-0.10655-0.02027-0.18009-0.02027-0.22005 0-0.29417 0.20731-0.52232 0.6225-0.68272l0.58197-0.22062v-4.9962c0-1.3909-0.56228-2.0864-1.6863-2.0864-0.76206 0-1.4176 0.25421-1.9659 0.76206v6.3205l1.0435 0.24089c0.18704 0.05385 0.28085 0.14014 0.28085 0.26058 0 0.28143-0.06717 0.48874-0.20094 0.62192h-4.9157c-0.01332-0.10655-0.01969-0.18009-0.01969-0.22005 0-0.30806 0.20673-0.52869 0.62192-0.66246l0.66188-0.24089v-12.039l-1.3846-0.22062c-0.01332-0.12045-0.01969-0.20731-0.01969-0.26058 0-0.37524 0.24726-0.58196 0.74237-0.6225l3.1901-0.30054v5.9986"/>
   <path d="m110.4 30.051c0.0672-0.30749 0.10076-0.60223 0.10076-0.88308 0-1.2844-0.43488-1.926-1.3046-1.926-1.0568 0-1.6318 0.93636-1.725 2.8091zm-2.9492 1.1836c0.0133 1.1373 0.28664 2.0001 0.81997 2.5884 0.46557 0.52232 1.0985 0.7829 1.8988 0.7829 0.98557 0 1.8252-0.30749 2.5184-0.92304 0.24089 0.20036 0.36134 0.46847 0.36134 0.80259s-0.32775 0.68851-0.9821 1.0632c-0.77364 0.45457-1.681 0.68214-2.7216 0.68214-2.9886 0-4.4832-1.6451-4.4832-4.936 0-1.6718 0.45399-2.9961 1.3614-3.9724 0.84023-0.8964 1.908-1.3446 3.2023-1.3446 1.161 0 2.0551 0.31444 2.6822 0.94272 0.5866 0.60223 0.88019 1.432 0.88019 2.4883 0 0.66883-0.0799 1.2774-0.24032 1.8258z"/>
   <path d="m118.02 27.864h0.0602c0.74468-1.2572 1.5299-1.886 2.3545-1.886 0.93172 0 1.3973 0.38798 1.3973 1.1639 0 0.4951-0.12566 0.90277-0.37871 1.2236-0.51885-0.17314-0.97168-0.26058-1.3573-0.26058-0.89177 0-1.5432 0.28085-1.9555 0.84255v5.9193l1.4477 0.26058c0.1853 0.03996 0.27795 0.1274 0.27795 0.26116 0 0.26753-0.0666 0.46847-0.20036 0.60165h-5.2973c-0.0139-0.10655-0.0203-0.18009-0.0203-0.22005 0-0.29417 0.2073-0.51537 0.62192-0.66246l0.64218-0.24089v-7.364l-1.3643-0.24031c-0.0139-0.10713-0.0197-0.18704-0.0197-0.24089 0-0.37408 0.24668-0.58197 0.74179-0.62192l3.1704-0.30112-0.12044 1.7656"/>
  </g>
  <path d="m127.87 29.896c0 0.69083-0.2212 1.2485-0.66419 1.6718s-1.007 0.63524-1.6932 0.63524c-0.6642 0-1.2172-0.21194-1.6602-0.63524-0.44299-0.4233-0.6642-0.98094-0.6642-1.6718s0.22121-1.2485 0.6642-1.6724c0.44298-0.4233 0.99599-0.63524 1.6602-0.63524 0.6862 0 1.2502 0.21194 1.6932 0.63524 0.44299 0.42388 0.66419 0.98152 0.66419 1.6724" fill="#d8232a"/>
  <g fill="#1a1919">
   <path d="m137.92 32.078c0-0.74874-0.24031-1.3377-0.7221-1.7656-0.52174-0.44183-1.2508-0.66246-2.1871-0.66246h-1.0232v4.9759h0.90277c2.0198 0 3.0297-0.8495 3.0297-2.5479zm-0.26058-6.1798c0-1.5919-0.96299-2.3881-2.8896-2.3881h-0.78232v4.8555h0.76206c0.97689 0 1.7192-0.24089 2.2277-0.7221 0.45457-0.42793 0.68214-1.0099 0.68214-1.7453zm2.7488-0.24089c0 1.5919-0.95026 2.6348-2.849 3.1299v0.03996c0.98963 0.20094 1.7656 0.58544 2.3273 1.1535 0.5617 0.56923 0.84255 1.2815 0.84255 2.1373 0 1.1639-0.4731 2.0933-1.4193 2.7888-0.99947 0.7221-2.4055 1.0834-4.2179 1.0834h-5.2377c-0.0133-0.10655-0.0203-0.19399-0.0203-0.26058 0-0.37408 0.22468-0.62192 0.67346-0.74237l0.79101-0.20094v-11.477l-1.1668-0.28085c-0.1853-0.04054-0.27737-0.11408-0.27737-0.22063 0-0.04053 0.0735-0.26116 0.22063-0.66246h4.8856c3.6319 0 5.4479 1.1709 5.4479 3.5115z"/>
   <path d="m149.14 23.892c-0.60223-0.44183-1.2844-0.66246-2.0464-0.66246-0.61613 0-1.1176 0.16098-1.5056 0.48121-0.38798 0.32138-0.58196 0.79622-0.58196 1.4245 0 0.49568 0.17429 0.92362 0.52232 1.2844 0.18704 0.20094 0.51421 0.43488 0.98326 0.70241l1.8055 1.0435c1.0296 0.60223 1.7586 1.1506 2.1866 1.6457 0.56228 0.65493 0.84313 1.4442 0.84313 2.3667 0 1.2045-0.41462 2.1744-1.2438 2.9098-0.86977 0.76264-2.054 1.1437-3.5514 1.1437-1.5519 0-2.8027-0.29359-3.7524-0.8825-0.0666-1.0435-0.10018-1.7662-0.10018-2.1669 0-0.80317 0.29069-1.2039 0.87266-1.2039 0.17488 0 0.33065 0.03301 0.46615 0.10018l0.487 2.1669c0.5061 0.44125 1.212 0.66188 2.1171 0.66188 1.5444 0 2.3168-0.62192 2.3168-1.8658 0-0.60165-0.22004-1.1037-0.66187-1.505-0.18704-0.1604-0.80259-0.55475-1.8461-1.1836l-1.2039-0.72268c-0.82923-0.50784-1.4245-0.99658-1.7858-1.4645-0.50843-0.65551-0.76206-1.4714-0.76206-2.4483 0-1.15 0.43141-2.0731 1.2942-2.7685 0.86282-0.69546 1.9694-1.0435 3.321-1.0435 1.351 0 2.4807 0.26058 3.3904 0.7829 0.0666 0.8964 0.10076 1.5716 0.10076 2.0262 0 0.78927-0.27448 1.1842-0.82286 1.1842-0.20094 0-0.35439-0.02027-0.46152-0.0608l-0.38103-1.9457"/>
   <path d="m157.06 23.31v11.477l1.3041 0.28143c0.18762 0.05327 0.28143 0.13376 0.28143 0.24089 0 0.10655-0.0736 0.33412-0.22063 0.68156h-5.518c-0.0139-0.10655-0.0203-0.19399-0.0203-0.26058 0-0.37408 0.22757-0.62192 0.68214-0.74237l0.80259-0.20094v-11.477l-1.1836-0.28085c-0.18704-0.04054-0.28085-0.11408-0.28085-0.22063 0-0.04053 0.0736-0.26116 0.22063-0.66246h5.4577c0.0133 0.10713 0.0197 0.19399 0.0197 0.26058 0 0.36134-0.22699 0.59586-0.68156 0.70241l-0.8634 0.20094"/>
  </g>
  <path d="m165.18 29.896c0 0.69083-0.22178 1.2485-0.66477 1.6718-0.44241 0.4233-1.007 0.63524-1.6926 0.63524-0.66478 0-1.2178-0.21194-1.6608-0.63524-0.44241-0.4233-0.66361-0.98094-0.66361-1.6718 0-0.69141 0.2212-1.2485 0.66361-1.6724 0.44299-0.4233 0.996-0.63582 1.6608-0.63582 0.68561 0 1.2502 0.21252 1.6926 0.63582 0.44299 0.42388 0.66477 0.98094 0.66477 1.6724" fill="#feda2e"/>
  <g fill="#1a1919">
   <path d="m2.7425 2.2034v9.5216h0.758c0.8466 0 1.5959-0.09381 2.2485-0.28201 0.65203-0.18762 1.1987-0.48526 1.6393-0.89061 0.44067-0.40535 0.77595-0.92593 1.0053-1.5606 0.22931-0.63466 0.34397-1.4042 0.34397-2.3099 0-0.83444-0.10887-1.5369-0.3266-2.1072-0.21715-0.5698-0.53738-1.0313-0.96068-1.384s-0.9491-0.60513-1.578-0.758-1.3492-0.22931-2.1599-0.22931zm-1.534 10.844v-12.167h2.5039c1.1396 0 2.1304 0.10887 2.9706 0.3266 0.84081 0.21715 1.534 0.55822 2.0812 1.0226 0.54664 0.46441 0.95199 1.0638 1.2166 1.798 0.26406 0.73542 0.39666 1.6197 0.39666 2.6539 0 1.0933-0.15635 2.043-0.46731 2.8479-0.31154 0.80549-0.76148 1.4668-1.3492 1.9839-0.58776 0.51711-1.3075 0.90219-2.1599 1.1547-0.85239 0.25305-1.8189 0.37929-2.9006 0.37929z"/>
   <path d="m15.843 5.5886c-0.59934 0-1.0875 0.20904-1.4633 0.62597-0.3764 0.41751-0.59355 1.014-0.65261 1.7899h3.7032c0.02316-0.10597 0.03532-0.20267 0.03532-0.29069v-0.27332c0-0.59934-0.14419-1.0585-0.43256-1.3753-0.2878-0.31791-0.68446-0.47657-1.19-0.47657zm2.9625 2.0985c0 0.28201-0.01506 0.54085-0.04401 0.77595-0.02953 0.2351-0.06775 0.45225-0.11466 0.65203h-4.9198c0.05907 0.98789 0.30864 1.7135 0.74932 2.1779 0.44125 0.46441 1.0493 0.69662 1.8252 0.69662 0.32891 0 0.62018-0.03243 0.87266-0.09728 0.25305-0.06428 0.4702-0.13782 0.65261-0.22005s0.32891-0.16793 0.44067-0.25595 0.19688-0.16098 0.25595-0.22005l0.42272 1.0226c-0.07007 0.07007-0.17314 0.16446-0.30806 0.28201-0.1355 0.11755-0.31212 0.23221-0.52927 0.34397-0.21773 0.11176-0.48758 0.20846-0.8107 0.29069-0.3237 0.08223-0.70878 0.12334-1.1552 0.12334-1.1993 0-2.1397-0.36424-2.8212-1.0933-0.68214-0.72847-1.0226-1.8802-1.0226-3.4559 0-0.74063 0.0996-1.384 0.29938-1.9312 0.20036-0.54606 0.4702-0.996 0.81128-1.3487 0.34107-0.35207 0.73194-0.61671 1.1726-0.79333 0.44067-0.17604 0.90219-0.26463 1.384-0.26463 0.88192 0 1.5751 0.28548 2.0806 0.85529 0.50553 0.57038 0.75858 1.3903 0.75858 2.4599z"/>
   <path d="m27.658 13.048h-1.3226v-0.95257h-0.03532c-0.07065 0.08281-0.17025 0.1882-0.29996 0.31791-0.12913 0.12913-0.29648 0.25537-0.50205 0.37871-0.20615 0.12334-0.45573 0.23221-0.7499 0.32602-0.29359 0.09439-0.64624 0.14129-1.0574 0.14129-0.88192 0-1.5519-0.27622-2.0105-0.82865-0.45862-0.55243-0.68794-1.4222-0.68794-2.6093v-5.2371h1.4286v5.0072c0 0.8466 0.12913 1.4581 0.38798 1.8339 0.25826 0.3764 0.67577 0.56459 1.2519 0.56459 0.29359 0 0.55533-0.03243 0.78464-0.09728 0.22931-0.06428 0.43199-0.14361 0.6086-0.238 0.17604-0.09381 0.32602-0.19399 0.44936-0.29996 0.12334-0.10539 0.23163-0.1992 0.32602-0.28143v-6.4891h1.4286v8.4637"/>
   <path d="m34.251 5.8005h-2.186v4.3726c0 0.67056 0.09381 1.1408 0.28201 1.4106 0.18762 0.271 0.51711 0.40593 0.98731 0.40593 0.2351 0 0.43488-0.02953 0.59992-0.0886 0.16446-0.05849 0.29359-0.11118 0.3874-0.15866l0.14129 1.1466c-0.08223 0.04691-0.24379 0.12045-0.48468 0.22005-0.24147 0.10018-0.58544 0.14998-1.0319 0.14998-0.83444 0-1.428-0.238-1.7806-0.71399-0.35265-0.476-0.52927-1.2021-0.52927-2.1779v-4.5665h-1.1639v-1.0053l1.1639-0.21136 0.15924-2.3626h1.2693v2.3626h2.3626l-0.17662 1.2166"/>
   <path d="m40.388 6.3472c-0.070646-0.059065-0.16504-0.13261-0.28201-0.22063-0.11755-0.088019-0.25595-0.17025-0.41461-0.24668s-0.3347-0.14129-0.52869-0.19399c-0.19399-0.052695-0.40882-0.079332-0.64392-0.079332-0.45804 0-0.79912 0.085123-1.0226 0.25595-0.22352 0.17025-0.3347 0.37871-0.3347 0.6254 0 0.34165 0.1025 0.60571 0.30806 0.7939 0.20557 0.18762 0.53216 0.39956 0.97863 0.63466l0.63524 0.31733c0.66998 0.34107 1.1784 0.7082 1.5247 1.102 0.34686 0.39377 0.52058 0.90219 0.52058 1.5253 0 0.31733-0.06196 0.62308-0.1853 0.91667-0.12334 0.29417-0.30864 0.55012-0.55533 0.76727-0.24668 0.21773-0.55822 0.39087-0.93462 0.52s-0.82286 0.19399-1.34 0.19399c-0.35265 0-0.66419-0.02953-0.93462-0.08802-0.27042-0.05907-0.50842-0.13492-0.71399-0.22931-0.20615-0.09381-0.38219-0.19051-0.52869-0.29069-0.14766-0.10018-0.26811-0.19688-0.36192-0.29127l0.52927-1.2519c0.18762 0.1882 0.44067 0.38219 0.758 0.58196 0.31733 0.20036 0.73426 0.29996 1.2519 0.29996 0.54027 0 0.9462-0.09091 1.2166-0.27332 0.27043-0.18183 0.40535-0.40824 0.40535-0.67867 0-0.20036-0.03243-0.3735-0.0967-0.52058-0.06486-0.1465-0.15866-0.28201-0.28201-0.40535-0.12392-0.12334-0.2797-0.238-0.46731-0.34397-0.1882-0.10539-0.40014-0.22352-0.63524-0.35265l-0.61671-0.3347c-0.6115-0.32949-1.0666-0.68504-1.3666-1.0672-0.29996-0.38161-0.44994-0.86687-0.44994-1.4546 0-0.31733 0.06775-0.6086 0.20267-0.87266 0.1355-0.26463 0.3237-0.49395 0.56459-0.68793 0.24089-0.19399 0.52927-0.34628 0.86397-0.45804s0.70241-0.16793 1.102-0.16793c0.34107 0 0.63756 0.029533 0.89061 0.088598 0.25248 0.058486 0.4731 0.13203 0.6613 0.22005 0.1882 0.088019 0.34339 0.17951 0.46731 0.27332 0.12334 0.094388 0.22005 0.17083 0.29069 0.22931l-0.476 1.1639"/>
   <path d="m48.622 6.2412c-0.04691-0.035323-0.11755-0.088019-0.21136-0.15867-0.09439-0.070646-0.21773-0.13782-0.3706-0.20267-0.15287-0.064277-0.32602-0.12392-0.52-0.17662-0.19399-0.052695-0.40882-0.079333-0.64335-0.079333-0.38798 0-0.7441 0.059065-1.0672 0.17662-0.32312 0.11755-0.60223 0.29996-0.83734 0.54664-0.2351 0.24668-0.4204 0.56401-0.55533 0.95199-0.1355 0.38798-0.20325 0.85239-0.20325 1.3932 0 0.61092 0.06196 1.1257 0.1853 1.5426 0.12334 0.41751 0.29417 0.75511 0.51132 1.014 0.21773 0.25884 0.48236 0.44704 0.7939 0.56401 0.31096 0.11813 0.65493 0.17662 1.0313 0.17662 0.44646 0 0.81359-0.06485 1.102-0.19399 0.2878-0.12971 0.50263-0.25247 0.64392-0.3706l0.42272 1.0759c-0.08223 0.07065-0.1882 0.14998-0.31733 0.238s-0.29069 0.17083-0.48468 0.24668c-0.19399 0.07644-0.42677 0.14129-0.69662 0.19399-0.27042 0.05327-0.58196 0.07933-0.93462 0.07933-0.55243 0-1.058-0.08512-1.5166-0.25537-0.45804-0.17024-0.85239-0.43777-1.1813-0.80259-0.32891-0.36424-0.58486-0.83154-0.76669-1.4019-0.18241-0.5698-0.27332-1.2548-0.27332-2.054 0-0.77595 0.12045-1.4396 0.36134-1.9926 0.24089-0.55243 0.55533-1.0053 0.9433-1.3579 0.38798-0.35207 0.82575-0.61092 1.3133-0.77537 0.48816-0.16503 0.97863-0.24726 1.4726-0.24726 0.31733 0 0.59644 0.026637 0.83791 0.079912 0.24031 0.052695 0.45225 0.11755 0.63466 0.19341 0.18183 0.077016 0.3347 0.15635 0.45804 0.23858 0.12392 0.082228 0.23221 0.15867 0.3266 0.22873l-0.45862 1.1286"/>
   <path d="m56.292 13.048v-5.0078c0-0.81128-0.13203-1.4135-0.39666-1.8073-0.26406-0.39377-0.69604-0.59065-1.2954-0.59065-0.28259 0-0.54143 0.032428-0.77595 0.096705-0.23568 0.064856-0.44415 0.14129-0.62598 0.22931-0.18241 0.088019-0.34107 0.1882-0.47657 0.29996-0.13492 0.11176-0.24958 0.20904-0.34339 0.29069v6.4891h-1.4286v-12.467l1.4286-0.15809v5.0252h0.03532c0.10539-0.10597 0.23452-0.22063 0.38798-0.34397 0.1523-0.12334 0.33181-0.24089 0.53738-0.35265s0.44125-0.20267 0.70531-0.27332c0.26464-0.070646 0.56112-0.10597 0.89061-0.10597 0.90509 0 1.5959 0.28259 2.0719 0.8466s0.71399 1.4286 0.71399 2.5919v5.2371h-1.4286"/>
   <path d="m61.688 10.967c0 0.41114 0.06486 0.69025 0.19399 0.83734 0.12913 0.14708 0.33528 0.22063 0.61729 0.22063 0.1523 0 0.27911-0.01158 0.37871-0.03532 0.10018-0.02374 0.17372-0.0469 0.22062-0.07065l0.0886 1.0226c-0.04748 0.02374-0.16793 0.07354-0.36192 0.14998s-0.46152 0.11466-0.80201 0.11466c-0.28201 0-0.53217-0.03532-0.74932-0.10597-0.21773-0.07007-0.39956-0.18762-0.54664-0.35265-0.14708-0.16446-0.26174-0.38798-0.34397-0.66998-0.08223-0.28201-0.12334-0.62887-0.12334-1.04v-10.457l1.428-0.15809v10.544"/>
   <path d="m66.854 12.042c0.28201 0 0.52869-0.02895 0.74005-0.08802 0.21194-0.05849 0.39724-0.12913 0.55591-0.21194 0.15866-0.08165 0.29069-0.17314 0.39666-0.27274 0.10597-0.10018 0.19978-0.19109 0.28201-0.27332v-1.8339l-0.81128 0.035323c-0.8107 0.035323-1.4048 0.15809-1.7806 0.37003-0.3764 0.21136-0.56401 0.54085-0.56401 0.98731 0 0.41172 0.12045 0.72905 0.36134 0.95257s0.51364 0.3347 0.81996 0.3347zm-2.6099-1.1987c0-0.43488 0.0996-0.81128 0.29996-1.1286 0.19978-0.31733 0.4731-0.57617 0.81996-0.77595 0.34628-0.19978 0.75511-0.34976 1.2253-0.44936 0.4702-0.10018 0.98094-0.15056 1.534-0.15056h0.70531v-0.65203c0-0.74063-0.14071-1.2664-0.4233-1.578-0.28201-0.31154-0.69952-0.46731-1.2519-0.46731-0.51711 0-0.9491 0.090914-1.296 0.27332-0.34686 0.18241-0.61439 0.34976-0.80201 0.50263l-0.52927-1.0585c0.10597-0.081649 0.24437-0.17893 0.41461-0.29069 0.17025-0.11118 0.37292-0.22005 0.60802-0.32602s0.50553-0.19399 0.81128-0.26463c0.30575-0.070646 0.6584-0.10597 1.058-0.10597 0.92825 0 1.6341 0.271 2.1159 0.81128 0.48179 0.54085 0.72326 1.3753 0.72326 2.5039v3.5972c0 0.36423 0.01158 0.72036 0.03532 1.0666 0.02316 0.34686 0.04633 0.57907 0.07007 0.69662h-1.3753l-0.0527-0.93462h-0.03532c-0.07065 0.11755-0.17082 0.24379-0.29996 0.37929-0.12913 0.13492-0.29069 0.25884-0.48468 0.37003-0.19399 0.11176-0.4233 0.20557-0.68794 0.28201s-0.56112 0.11466-0.89003 0.11466c-0.70531 0-1.2641-0.22294-1.6752-0.66998-0.41172-0.44646-0.61729-1.0284-0.61729-1.7453z"/>
   <path d="m78.156 13.048v-5.0078c0-0.81128-0.13203-1.4135-0.39666-1.8073-0.26464-0.39377-0.69662-0.59065-1.296-0.59065-0.28201 0-0.54085 0.032428-0.77595 0.096705-0.2351 0.064856-0.44415 0.14129-0.62597 0.22931-0.18241 0.088019-0.34107 0.1882-0.476 0.29996-0.1355 0.11176-0.25016 0.20904-0.34397 0.29069v6.4891h-1.428v-8.4637h1.322v0.95199h0.03532c0.08223-0.093809 0.19688-0.20557 0.34397-0.33528 0.14708-0.12913 0.32891-0.25537 0.54664-0.37871 0.21715-0.12334 0.4702-0.22931 0.758-0.31733 0.28838-0.088598 0.61439-0.13261 0.97863-0.13261 0.90509 0 1.5959 0.28259 2.0719 0.8466s0.71457 1.4286 0.71457 2.5919v5.2371h-1.4286"/>
   <path d="m85.474 11.99c0.28259 0 0.53159-0.03532 0.74932-0.10597s0.40303-0.15288 0.55533-0.24668c0.15288-0.09381 0.27969-0.19688 0.37929-0.30864 0.10076-0.11176 0.17951-0.20268 0.23858-0.27332v-4.9371c-0.15288-0.10597-0.34976-0.20267-0.59065-0.29069-0.24147-0.088598-0.54954-0.13261-0.92535-0.13261-0.82344 0-1.4818 0.24668-1.9752 0.74063-0.49395 0.49395-0.74063 1.311-0.74063 2.4512 0 0.56401 0.06138 1.0429 0.1853 1.4367 0.12276 0.39435 0.2878 0.71457 0.49337 0.96126 0.20615 0.24668 0.44936 0.4262 0.73194 0.53796 0.28201 0.11118 0.58196 0.16735 0.89872 0.16735zm-3.7906-2.9978c0-0.81128 0.11755-1.5073 0.35265-2.0893s0.54664-1.0551 0.93462-1.4193c0.38798-0.36423 0.82865-0.63177 1.322-0.80259 0.49395-0.17025 0.99947-0.25537 1.5166-0.25537 0.37582 0 0.69373 0.032428 0.95257 0.096705 0.25769 0.064856 0.46963 0.13261 0.63466 0.20267v-4.1438l1.4286-0.15809v12.625h-1.3226v-0.95257h-0.0359c-0.05907 0.08281-0.14361 0.1882-0.25595 0.31791-0.11176 0.12913-0.26464 0.25537-0.45804 0.37871s-0.43778 0.23221-0.73136 0.32602c-0.29417 0.09439-0.65261 0.14129-1.0759 0.14129-0.45862 0-0.88771-0.09091-1.2873-0.27332-0.39956-0.18183-0.74642-0.45515-1.04-0.81996-0.29417-0.36424-0.52348-0.81128-0.68794-1.34-0.16446-0.52869-0.24668-1.1402-0.24668-1.8339z"/>
  </g>
 </g>
</svg>
