<?xml version="1.0" encoding="UTF-8"?>
<svg width="74" height="74" version="1.1" viewBox="0 0 19.579 19.579" xmlns="http://www.w3.org/2000/svg">
 <g transform="translate(0 -277.42)">
  <circle cx="9.7896" cy="286.15" r="8.7312" fill="#e5eef8" stroke-width=".37042"/>
 </g>
 <g stroke="#004f80">
  <g fill="none">
   <path d="m9.0421 14.743v1.4667c0 0.73095 0.51422 0.9551 1.153 0.9551h3.1121l1.9862 1.3411-0.62843-1.3411h0.33415c0.63874 0 1.153-0.22416 1.153-0.9551v-3.4773c0-0.73095-0.51422-0.9551-1.153-0.9551h-3.8712" color="#000000" stroke-width=".36648"/>
   <path d="m4.6332 8.933h4.804c0.63874 0 1.153 0.22415 1.153 0.9551v3.4773c0 0.73095-0.51422 0.9551-1.153 0.9551h-3.1121l-1.9862 1.3411 0.62843-1.3411h-0.33415c-0.63874 0-1.153-0.22416-1.153-0.9551v-3.4773c0-0.73095 0.51422-0.9551 1.153-0.9551z" color="#000000" stroke-width=".36648"/>
   <g transform="matrix(1.2134 0 0 1.2162 -2.2156 -3.3171)" stroke-width=".30046" aria-label="?">
    <path d="m7.3334 13.983v-0.556m0.013134-0.32178v-0.3371c0-0.14739 0.02043-0.26852 0.061291-0.36337 0.040861-0.09486 0.12696-0.20503 0.2583-0.33054l0.19701-0.19482c0.083181-0.07734 0.13629-0.13501 0.1795-0.2189 0.033232-0.06452 0.056595-0.13757 0.056913-0.21014 5.636e-4 -0.12874-0.019659-0.27128-0.097701-0.37368-0.091107-0.11954-0.24268-0.19781-0.39039-0.22563-0.17877-0.03368-0.38447-0.01274-0.53949 0.08246-0.13311 0.08175-0.27729 0.24828-0.27268 0.38113" fill="none" stroke="#004f80" stroke-width=".30046"/>
   </g>
  </g>
  <path d="m10.125 15.728h4.7756" fill="#fff" stroke-dasharray="0.73, 0.73" stroke-width=".365"/>
 </g>
</svg>
