<?xml version="1.0" encoding="UTF-8"?>
<svg width="74" height="74" version="1.1" viewBox="0 0 19.579 19.579" xmlns="http://www.w3.org/2000/svg">
 <g transform="translate(0 -277.42)">
  <circle cx="9.7896" cy="286.15" r="8.7312" fill="#e5eef8" stroke-width=".37042"/>
 </g>
 <g fill="none">
  <g stroke="#03b8f2">
   <path d="m5.4484 11.955-0.011353 1.2397" stroke-width=".365"/>
   <path d="m5.8934 13.037-0.90139-0.011585" stroke-width=".265"/>
   <path d="m5.8934 12.512-0.90139-0.011585" stroke-width=".265"/>
  </g>
  <g stroke="#004f80">
   <g>
    <g stroke-width=".365">
     <path d="m8.6623 9.6294-3.2257 2.3301h8.7395l-3.0529-2.311"/>
     <path d="m9.6039 4.4097-2.1494 1.1438h4.9028l-2.17-1.1438"/>
     <path d="m9.905 3.0242-1.0471 5.4818-1.3961 7.309-0.34902 1.8273h5.5861l-2.0954-10.964-0.69846-3.6545"/>
     <path d="m11.328 10.323-3.0151 1.8536 3.3972 1.8067-3.8757 1.83 4.8647 1.8292"/>
     <path d="m11.175 10.208-2.2166-1.903"/>
     <path d="m8.9579 8.3047 1.6425-1.5134"/>
     <path d="m14.086 11.955-0.01135 1.2397"/>
    </g>
    <path d="m14.531 13.037-0.90139-0.01159" stroke-width=".265"/>
    <path d="m14.531 12.512-0.90139-0.01159" stroke-width=".265"/>
    <path d="m7.8507 5.6475-0.011353 1.2397" stroke-width=".365"/>
    <path d="m8.2958 6.7301-0.90139-0.011584" stroke-width=".265"/>
    <path d="m8.2958 6.2045-0.90139-0.011584" stroke-width=".265"/>
    <path d="m11.972 5.6475-0.01135 1.2397" stroke-width=".365"/>
    <path d="m12.417 6.7301-0.90139-0.011584" stroke-width=".265"/>
    <path d="m12.417 6.2045-0.90139-0.011584" stroke-width=".265"/>
   </g>
   <rect x="4.7126" y="17.723" width="10.154" height="1.095" stroke-linecap="square" stroke-width=".365"/>
  </g>
 </g>
</svg>
