<?xml version="1.0" encoding="UTF-8"?>
<svg width="74" height="74" version="1.1" viewBox="0 0 19.579 19.579" xmlns="http://www.w3.org/2000/svg">
 <g transform="translate(0 -277.42)">
  <circle cx="9.7896" cy="286.19" r="8.731" fill="#e5eef8"/>
  <g transform="translate(.50523)" fill="none">
   <g transform="matrix(.90903 0 0 .90886 -.95928 27.399)" stroke="#004f80" stroke-width=".40156">
    <path d="m3.4032 288.76c0.042547-0.30896 0.12056-0.62312 0.23599-0.71175 0.31397-0.25774 0.89115-0.40392 0.89115-0.40392 0.30172 0.34138 0.75359 0.34793 1.0641 2e-3 0 0 0.72856 0.14499 0.93902 0.40182 0.12204 0.14893 0.18889 0.48061 0.22213 0.78326" stroke-linecap="round"/>
    <ellipse cx="5.0547" cy="286.42" rx=".67058" ry=".65707"/>
   </g>
   <path d="m4.141 286.53c1.0191-2.0501 3.1351-3.4589 5.5802-3.4589 1.6457 0 3.1423 0.63821 4.2557 1.6806m1.7619 2.9365c0.13699 0.51334 0.21001 1.0528 0.21001 1.6093 1e-6 2.5591-1.5442 4.7576-3.7518 5.715m-4.0044 0.32252c-2.4673-0.6225-4.3488-2.7171-4.6552-5.2948" stroke="#004f80" stroke-width=".365"/>
   <g transform="matrix(.90903 0 0 .90886 10.293 25.295)" stroke="#004f80" stroke-width=".40156">
    <path d="m3.4032 288.76c0.042547-0.30896 0.12056-0.62312 0.23599-0.71175 0.31397-0.25774 0.89115-0.40392 0.89115-0.40392 0.30172 0.34138 0.75359 0.34793 1.0641 2e-3 0 0 0.72856 0.14499 0.93902 0.40182 0.12204 0.14893 0.18889 0.48061 0.22213 0.78326" stroke-linecap="round"/>
    <ellipse cx="5.0547" cy="286.42" rx=".67058" ry=".65707"/>
   </g>
   <g transform="matrix(.90903 0 0 .90886 5.6978 33.754)" stroke="#004f80" stroke-width=".40156">
    <path d="m3.4032 288.76c0.042547-0.30896 0.12056-0.62312 0.23599-0.71175 0.31397-0.25774 0.89115-0.40392 0.89115-0.40392 0.30172 0.34138 0.75359 0.34793 1.0641 2e-3 0 0 0.72856 0.14499 0.93902 0.40182 0.12204 0.14893 0.18889 0.48061 0.22213 0.78326" stroke-linecap="round"/>
    <ellipse cx="5.0547" cy="286.42" rx=".67058" ry=".65707"/>
   </g>
   <path d="m8.0875 286.43 0.52964 0.34197 0.40881-0.14254s0.10091-0.41047 0.17945-0.59544l0.58417-0.0431 0.26498 0.56263 0.42532 0.0809 0.47366-0.41605 0.48649 0.23491-0.03137 0.62961 0.32786 0.28273 0.61824-0.12351 0.30385 0.44666-0.342 0.52958 0.14255 0.40877 0.5955 0.17944 0.04314 0.5841-0.56268 0.26495-0.08096 0.42528 0.4161 0.47361-0.23493 0.48644-0.62968-0.0314-0.28277 0.32782 0.12352 0.61818-0.4467 0.30381-0.52964-0.34197-0.40881 0.14254-0.17945 0.59545-0.58417 0.0431-0.26498-0.56262-0.42532-0.0809-0.47366 0.41605-0.48649-0.2349 0.031367-0.62962-0.32786-0.28273-0.61824 0.12351-0.30385-0.44666 0.34201-0.52958-0.14255-0.40877-0.5955-0.17944-0.043139-0.5841 0.56268-0.26495 0.080955-0.42528-0.4161-0.47361 0.23493-0.48644 0.62968 0.0314 0.28276-0.32782s-0.10637-0.41625-0.12352-0.61817z" stroke="#004f80" stroke-width=".365"/>
   <g transform="matrix(.90903 0 0 .90886 5.0816 27.968)" stroke="#03b8f2" stroke-width=".40156">
    <path d="m3.4032 288.76c0.042547-0.30896 0.12056-0.62312 0.23599-0.71175 0.31397-0.25774 0.89115-0.40392 0.89115-0.40392 0.30172 0.34138 0.75359 0.34793 1.0641 2e-3 0 0 0.72856 0.14499 0.93902 0.40182 0.12204 0.14893 0.18889 0.48061 0.22213 0.78326" stroke-linecap="round"/>
    <ellipse cx="5.0547" cy="286.42" rx=".67058" ry=".65707"/>
   </g>
  </g>
 </g>
</svg>
