<?xml version="1.0" encoding="UTF-8"?>
<svg width="74" height="74" version="1.1" viewBox="0 0 19.579 19.579" xmlns="http://www.w3.org/2000/svg">
 <g transform="translate(0 -277.42)">
  <circle cx="9.7896" cy="286.15" r="8.7312" fill="#e5eef8" stroke-width=".37042"/>
 </g>
 <g>
  <g fill="none">
   <g transform="matrix(-.34288 .1745 -.1745 -.34288 14.349 14.446)" stroke="#004f80" stroke-width=".77976">
    <path d="m-5.0115 3.8839 0.7686-1.1395-0.6979-1.6849-1.3498-0.26016v-1.5967l1.3498-0.26226 0.6979-1.6849-0.7706-1.1385 1.1291-1.1291 1.14 0.76912 1.6849-0.6979 0.26093-1.3499h1.5968l0.26142 1.3499 1.6849 0.6979 1.1387-0.76937 1.1291 1.1291-0.76937 1.1387 0.6979 1.6849 1.3492 0.26016v1.5967l-1.3492 0.26225-0.6979 1.6849 0.77068 1.1386-1.1291 1.1291-1.1401-0.76919-1.6849 0.6979-0.26015 1.35h-1.5967l-0.26226-1.35-1.6849-0.6979-1.138 0.77008z"/>
    <circle r="2.6458"/>
   </g>
   <path d="m12.516 6.8034 0.10666 0.58117 0.72114 0.30759 0.49286-0.3261 0.48027 0.49044-0.33572 0.48656 0.29242 0.72742 0.57913 0.11791-0.0072 0.6864-0.58149 0.10666-0.30759 0.72114 0.32589 0.49311-0.49046 0.48029-0.48633-0.336-0.72742 0.29242-0.11835 0.57882-0.68642-0.0072-0.1062-0.58117-0.72114-0.30759-0.49265 0.32589-0.48027-0.49044 0.33551-0.48635-0.29242-0.72742-0.57918-0.11791 0.00719-0.6864 0.58153-0.10666 0.30759-0.72114-0.32615-0.4929 0.49044-0.48027 0.48661 0.33577 0.72742-0.29242 0.11791-0.57882z" stroke="#004f80" stroke-width=".3"/>
   <circle transform="matrix(-.71447 .69966 -.69966 -.71447 0 0)" cx="-2.0281" cy="-15.288" r="1.1374" stroke="#03b8f2" stroke-width=".3"/>
  </g>
  <g transform="matrix(.23496 -.40697 .40697 .23496 -5.0472 22.38)" stroke="#004f80" stroke-width=".6384">
   <ellipse cx="26.796" cy="13.955" rx="3.5394" ry="3.522" fill="none"/>
   <g transform="rotate(-60 27.106 -13.892)">
    <path d="m-0.71883-8.3223 0.82582 1.2125 1.6534-0.44303 0.10892-1.3985h1.931l0.10892 1.3985 1.6534 0.44303 0.82582-1.2125 1.6723 0.9655-0.63717 1.3214 1.2104 1.2104 1.3214-0.63717 0.9655 1.6723-1.2125 0.82582 0.44303 1.6534 1.3985 0.10892v1.931l-1.3985 0.10892-0.44303 1.6534 1.2125 0.82582-0.9655 1.6723-1.3214-0.63717-1.2104 1.2104 0.63717 1.3214-1.6723 0.9655-0.82582-1.2125-1.6534 0.44303-0.10892 1.3985h-1.931l-0.10892-1.3985-1.6534-0.44303-0.82582 1.2125-1.6723-0.9655 0.63717-1.3214-1.2104-1.2104-1.3214 0.63717-0.9655-1.6723 1.2125-0.82582-0.44303-1.6534-1.3985-0.10892v-1.931l1.3985-0.10892 0.44303-1.6534-1.2125-0.82582 0.9655-1.6723 1.3214 0.63717 1.2104-1.2104-0.63717-1.3214z" fill="none" stroke="#004f80" stroke-width=".6384"/>
   </g>
  </g>
 </g>
</svg>
