<?xml version="1.0" encoding="UTF-8"?>
<svg width="74" height="74" version="1.1" viewBox="0 0 19.579 19.579" xmlns="http://www.w3.org/2000/svg">
 <g transform="translate(0 -277.42)">
  <circle cx="9.7896" cy="286.19" r="8.731" fill="#e5eef8"/>
  <g transform="matrix(.23453 -.094536 .093898 .23393 9.6987 290.99)" fill="none" stroke-width="1.4457">
   <path d="m-2.0239-7.6772c0.64612-0.16987 1.3244-0.26034 2.0239-0.26034 3.0014 0 5.6137 1.6658 6.9628 4.1234" stroke="#03b8f2"/>
   <g stroke="#004f80">
    <path d="m-4.0444-15.355c1.2912-0.33917 2.6467-0.5198 4.0444-0.5198 5.8492 0 10.96 3.1634 13.714 7.8727"/>
    <path d="m-6.0945-23.025c1.9452-0.51352 3.9879-0.78706 6.0945-0.78706 8.8619 0 16.593 4.8408 20.694 12.022"/>
    <path d="m-8.269-30.663c2.6364-0.70923 5.4085-1.0875 8.269-1.0875 11.818 0 22.128 6.457 27.595 16.036"/>
   </g>
  </g>
  <g transform="matrix(1.2889 0 0 1.2889 .89878 -84.216)" fill="#004f80" aria-label="5G">
   <path d="m2.804 290.22h2.6486v0.56779h-2.0307v1.2224q0.14696-0.0501 0.29391-0.0735 0.14696-0.0267 0.29391-0.0267 0.83498 0 1.3226 0.45757t0.48763 1.2391q0 0.80493-0.50099 1.2525-0.50099 0.44421-1.4128 0.44421-0.31395 0-0.64127-0.0534-0.32397-0.0534-0.67132-0.16032v-0.678q0.30059 0.16365 0.62123 0.24381 0.32063 0.0802 0.678 0.0802 0.57781 0 0.91514-0.30393 0.33733-0.30394 0.33733-0.82497 0-0.52102-0.33733-0.82496-0.33733-0.30393-0.91514-0.30393-0.27053 0-0.54107 0.0601-0.26719 0.0601-0.54775 0.18703z"/>
   <path d="m10.535 294.54v-1.3393h-1.1022v-0.55442h1.7702v2.1409q-0.39077 0.27721-0.8617 0.42083-0.47093 0.14028-1.0053 0.14028-1.169 0-1.8303-0.68135-0.65796-0.68468-0.65796-1.9038 0-1.2224 0.65796-1.9038 0.6613-0.68469 1.8303-0.68469 0.48763 0 0.92516 0.12024 0.44087 0.12024 0.8116 0.35403v0.71809q-0.37407-0.3173-0.7949-0.47761-0.42083-0.16032-0.88508-0.16032-0.91514 0-1.376 0.51101-0.45757 0.51101-0.45757 1.523 0 1.0087 0.45757 1.5197 0.46091 0.51101 1.376 0.51101 0.35737 0 0.63793-0.0601 0.28055-0.0635 0.50433-0.19372z"/>
  </g>
 </g>
</svg>
