<?xml version="1.0" encoding="UTF-8"?>
<svg width="74" height="74" version="1.1" viewBox="0 0 19.579 19.579" xmlns="http://www.w3.org/2000/svg">
 <g transform="translate(0 -277.42)">
  <circle cx="9.7896" cy="286.15" r="8.7312" fill="#e5eef8" stroke-width=".37042"/>
 </g>
 <g transform="translate(0 -.068818)" fill="none">
  <g stroke="#004f80" stroke-miterlimit="10">
   <line class="st0" x1="10.126" x2="15.983" y1="12.452" y2="12.452" stroke-width=".365"/>
   <path class="st0" d="m13.391 12.452v-1.9864h1.2704v1.9864m-3.9637-3.1961v3.1961" stroke-width=".365"/>
   <polyline class="st0" transform="matrix(.12704 0 0 .12733 -1.5107 -4.7509)" points="89.7 115.6 114.4 94 121.9 100.6" stroke-width="2.8698"/>
   <g stroke-width=".365">
    <path class="st0" d="m15.335 12.452v-2.1647"/>
    <rect class="st0" x="11.486" y="10.466" width="1.0671" height="1.0696"/>
    <path class="st0" d="m13.493 9.3451c0 0.2674-0.21597 0.47114-0.47005 0.47114-0.26679 0-0.47005-0.21647-0.47005-0.47114 0-0.25467 0.21597-0.47114 0.47005-0.47114 0.26679 0 0.47005 0.21647 0.47005 0.47114z"/>
   </g>
   <polygon class="st0" transform="matrix(.12704 0 0 .12733 -1.5107 -4.7509)" points="103.4 97.7 103.4 103.6 98.1 108.3 98.1 97.7" stroke-width="2.8698"/>
   <path class="st0" d="m14.535 9.8671c-0.03811 0.038202-0.08893 0.038202-0.12704 0-0.03811-0.038197-0.03811-0.089134 0-0.12733 0.03811-0.038202 0.08893-0.038202 0.12704 0 0.02541 0.038197 0.02541 0.089134 0 0.12733z" stroke-width=".365"/>
  </g>
  <g stroke="#03b8f2" stroke-miterlimit="10" stroke-width=".365">
   <path class="st0" d="m14.408 9.205c0.36842 0 0.66062 0.29287 0.66062 0.66214"/>
   <path class="st0" d="m14.408 8.6829c0.64791 0 1.1815 0.53481 1.1815 1.1842"/>
   <path class="st0" d="m14.408 8.1736c0.9274 0 1.6897 0.76401 1.6897 1.6936"/>
  </g>
  <g stroke="#004f80">
   <g>
    <path d="m5.6974 14.177h-1.5276c-0.16294 0-0.29412-0.13125-0.29412-0.29428v-7.7984c0-0.16303 0.13118-0.29428 0.29412-0.29428h12.265c0.16294 0 0.29412 0.13125 0.29412 0.29428v7.7984c0 0.16303-0.13118 0.29428-0.29412 0.29428h-6.9775" stroke-width=".31123"/>
    <g stroke-miterlimit="10">
     <path class="st0" d="m6.3142 17.766 0.58665-0.37593 1.8424-0.67884c0.77602-0.23929 1.3108-1.0455 1.5127-1.7194 0.13238-0.42264 0.1654-0.6809 0.1654-0.6809" stroke-width=".28902"/>
     <path class="st0" d="m8.5186 15.43 1.0117-2.0674c0.22491-0.47101-0.16409-1.0023-0.69306-0.92681-0.20293 0.0229-0.37611 0.16886-0.48816 0.35218l-0.60599 1.2662s-0.9145-0.11802-1.4798 0.66953" stroke-width=".28902"/>
     <polyline class="st0" transform="matrix(-.059488 -.24612 -.24623 .059394 41.372 33.872)" points="90.3 123.4 91.9 118.8 109.8 124.9 108.2 129.5" stroke-width="1.1413"/>
     <line class="st0" x1="3.9974" x2="3.5653" y1="15.512" y2="15.773" stroke-width=".28902"/>
     <path class="st0" d="m5.8862 10.403c0 0.2674-0.21597 0.47114-0.47005 0.47114-0.26679 0-0.47005-0.21647-0.47005-0.47114s0.21597-0.47114 0.47005-0.47114c0.26679 0 0.47005 0.21647 0.47005 0.47114z" stroke-width=".365"/>
    </g>
   </g>
   <path d="m8.2682 7.7721v4.2995" stroke-dasharray="0.73000001, 0.365" stroke-width=".365"/>
  </g>
 </g>
</svg>
