<?xml version="1.0" encoding="UTF-8"?>
<svg width="74" height="74" version="1.1" viewBox="0 0 19.579 19.579" xmlns="http://www.w3.org/2000/svg">
 <g transform="translate(0 -277.42)">
  <circle cx="9.7896" cy="286.15" r="8.7312" fill="#e5eef8" stroke-width=".37042"/>
 </g>
 <g transform="translate(.39193 .20045)">
  <path d="m11.487 17.501h2.1078v-5.1868h-8.814v5.1868h3.2088z" fill="none" stroke="#004f80" stroke-linejoin="round" stroke-width=".29806"/>
  <path d="m11.708 18.671h2.3105v-0.79767h-2.4153l-1.2077 0.32975h-2.4153l-1.2077-0.32975h-2.4153v0.79767h3.5172z" fill="none" stroke="#004f80" stroke-linejoin="round" stroke-width=".31458"/>
  <g transform="matrix(.76955 0 0 .76436 1.0824 -5.9669)" stroke-width="1.3039">
   <g transform="translate(1.3024 1.4424)" fill="none" stroke="#004f80">
    <rect x=".1945" y="17.844" width="5.4807" height="3.5317" rx="0" ry="0" stroke-linecap="round" stroke-width=".34552"/>
    <path d="m0.14174 17.843 2.823 2.0907 2.6813-2.0907" stroke-width=".34498px"/>
    <path d="m0.14174 21.352 2.3678-1.7535m0.90164 0.01094 2.2349 1.7426" stroke-width=".34498px"/>
   </g>
  </g>
  <path d="m8.7138 7.2038v4.7976" fill="none" stroke="#03b8f2" stroke-dasharray="0.73000002, 0.36500001" stroke-miterlimit="0" stroke-width=".365"/>
  <g fill="none" stroke="#004f80">
   <rect x="10.115" y="7.9231" width="6.4632" height="3.1667" stroke-width=".23122"/>
   <g stroke-width=".16365">
    <rect x="12.17" y="8.3945" width=".85538" height=".58843"/>
    <rect x="13.669" y="8.3945" width=".85538" height=".58843"/>
    <rect x="15.167" y="8.3945" width=".85538" height=".58843"/>
    <rect x="10.671" y="8.3945" width=".85538" height=".58843"/>
    <rect x="12.17" y="9.2984" width=".85538" height=".58843"/>
    <rect x="13.669" y="9.2984" width=".85538" height=".58843"/>
    <rect x="15.167" y="9.2984" width=".85538" height=".58843"/>
    <rect x="10.671" y="9.2984" width=".85538" height=".58843"/>
    <rect x="12.17" y="10.202" width=".85538" height=".58843"/>
    <rect x="13.669" y="10.202" width=".85538" height=".58843"/>
    <rect x="15.167" y="10.202" width=".85538" height=".58843"/>
    <rect x="10.671" y="10.202" width=".85538" height=".58843"/>
   </g>
  </g>
  <path d="m2.5797 11.675v4.4979h1.9513" fill="none" stroke="#03b8f2" stroke-dasharray="0.73000001, 0.36500001" stroke-miterlimit="0" stroke-width=".365"/>
  <path d="m15.725 11.371v4.7976h-1.9513" fill="none" stroke="#03b8f2" stroke-dasharray="0.73000002, 0.36500001" stroke-miterlimit="0" stroke-width=".365"/>
  <g transform="matrix(-1 0 0 1 23.088 -3.7084)">
   <g transform="matrix(.66021 0 0 .65489 15.264 -6.0281)" fill="none" stroke="#004f80" stroke-width=".5551">
    <g stroke-linecap="round">
     <path d="m1.6259 23.862 0.086666 0.12963"/>
     <path d="m2.655 23.828 0.08667 0.12963"/>
     <path d="m2.0395 25.483 0.086668 0.12963"/>
     <path d="m3.5315 24.399 0.08667 0.12963"/>
    </g>
    <path d="m2.6144 27.019c-0.61234 0.02373-0.12039 0.09403-0.71143-0.07942-0.59104-0.17345-0.15711 0.0277-0.66915-0.31462-0.51205-0.3423-0.15116 0.01126-0.52914-0.47718-0.37798-0.48843-0.13143-0.0609-0.33899-0.63965-0.20756-0.57875-0.1111-0.08893-0.12603-0.70244-0.01492-0.61352-0.092854-0.10058 0.075448-0.69534 0.1683-0.59476-0.035879-0.13141 0.30613-0.64485 0.342-0.51344-0.00461-0.17575 0.48532-0.5495 0.48993-0.37375 0.024342-0.10421 0.60001-0.32362 0.57567-0.21942 0.12894-0.14409 0.74723-0.15762 0.61829-0.01352 0.11135-0.07906 0.7044 0.09405 0.59304 0.17312 0.13733-0.043 0.64146 0.30615 0.50414 0.34913 0.1307-0.0138 0.50311 0.47872 0.37241 0.49252 0.14071 0.0443 0.35276 0.624 0.21204 0.57971 0.12475 0.13064 0.14715 0.74814-0.29506 0.34004-0.69365 0.08166-1.0022 0.54604 0 0-0.52495 0.18871-0.63566 0.5555-0.13765 0.45606-0.11162 0.28498-0.28384 0.63166-0.27327 0.55012 0.3458 0.57624-0.26654 0.59997z"/>
    <path d="m0.47585 25.869c-0.23411 0.14039 0.0235 0.0552-0.48483 0.14171-0.60157 0.10239-0.11382 0.1008-0.71422-0.0024-0.6004-0.10324-0.13549 0.057-0.67353-0.22328-0.53804-0.28028-0.10976 0.02981-0.5361-0.40237-0.42634-0.43218-0.17283-0.05812-0.44774-0.60139-0.27492-0.54327-0.11857-0.07169-0.21859-0.67222-0.10002-0.60053-0.091931-0.09891-7.09e-5 -0.70163 0.091858-0.60272-0.053266-0.12837 0.21859-0.67018 0.27186-0.54182 0.02026-0.11578 0.44767-0.54792 0.42741-0.43215-0.00386-0.15132 0.53603-0.43367 0.53991-0.28234 0.075756-0.11952 0.67347-0.22328 0.59771-0.10376 0.11332-0.08785 0.71422 0.0025 0.6009 0.0903 0.12798-0.07832 0.67109 0.20238 0.5431 0.28071 0.4034 0.27987 0.58137 0.44765 0.11497 0.10839 0.20989 0.12258 0.31082 0.3579"/>
    <g stroke-linecap="round">
     <path d="m-0.27118 23.517-0.078968 0.13446"/>
     <path d="m-1.2476 22.763-0.078968 0.13446"/>
     <path d="m-0.78436 24.99-0.078968 0.13446"/>
    </g>
   </g>
  </g>
  <g transform="translate(-1.675 2.1162)" fill="none" stroke="#004f80" stroke-miterlimit="10" stroke-width=".365">
   <path class="st0" d="m13.995 12.986c-0.76031 0.56124-1.5953 1.5317-3.1159 1.5317s-2.3611-1.0838-3.1186-1.5317c0.75478-0.44789 1.5953-1.5317 3.1186-1.5317 1.5206 0 2.3611 1.0838 3.1159 1.5317z"/>
   <path class="st0" d="m12.294 12.986c0 0.78242-0.63313 1.4156-1.4156 1.4156s-1.4156-0.63313-1.4156-1.4156 0.63313-1.4156 1.4156-1.4156 1.4156 0.63313 1.4156 1.4156z"/>
   <path class="st0" d="m11.559 12.986c0 0.37617-0.30439 0.68056-0.68056 0.68056s-0.68056-0.30439-0.68056-0.68056 0.30439-0.68056 0.68056-0.68056 0.68056 0.30439 0.68056 0.68056z"/>
  </g>
 </g>
</svg>
