<?xml version="1.0" encoding="UTF-8"?>
<svg width="74" height="74" version="1.1" viewBox="0 0 19.579 19.579" xmlns="http://www.w3.org/2000/svg">
 <g transform="translate(0 -277.42)">
  <circle cx="9.7896" cy="286.15" r="8.7312" fill="#e5eef8" stroke-width=".37042"/>
 </g>
 <path id="Shape" d="m12.003 14.302c1.1631 0.18377 2.0481 1.1356 2.2274 2.3902 0.06167 0.43121 0.04538 0.86406 0.0244 1.2939-0.02604 0.53334-0.54934 1.0283-1.0633 1.0308-1.123 0.0056-2.2462 0.0017-3.3692 0.0017v0.0012l-1.6335-0.0076c-0.54447-0.0017-1.0888 4.76e-4 -1.6329 0.01634-0.61295 0.01795-1.2142-0.59898-1.1796-1.2662l0.00699-0.18499 0.00679-0.37029c0.00754-0.3699 0.028464-0.73742 0.16272-1.0917 0.37911-1.0005 1.0634-1.5927 2.0532-1.8169 0.34206-0.07752 0.64755-0.0028 0.95155 0.09911l0.26102 0.09124c0.81046 0.28478 1.6048 0.21203 2.3809-0.13842 0.2677-0.12088 0.53145-0.09152 0.80351-0.0485zm-6.3133-0.78965c0.21775 0.0497 0.41296 0.14772 0.59234 0.28768 0.1013 0.079 0.13124 0.13552 0.033582 0.21143l-0.042714 0.02946c-0.49524 0.30914-0.87361 0.74511-1.1619 1.2741-0.15976 0.29315-0.27235 0.60509-0.34487 0.93112l-0.038755 0.19728c-0.02633 0.15361-0.082938 0.20478-0.22829 0.20172-0.43794-0.0094-0.87616-7.92e-4 -1.3143-0.0044-0.44658-0.0034-0.76381-0.3402-0.76031-0.82036 0.00256-0.3506-0.030113-0.7022 0.031432-1.0522 0.12865-0.73119 0.70958-1.2721 1.4096-1.2946l0.15659-0.0034 0.6997 2e-3 0.121 4e-3 0.40618-0.0069c0.1433 3.92e-4 0.29235 9e-3 0.44065 0.04295zm10.314 5.54e-4c0.70325 0.11283 1.2016 0.75463 1.2197 1.5158 0.0066 0.27834 0.0063 0.55717 4.11e-4 0.8356-9e-3 0.42818-0.32102 0.76811-0.71987 0.77503-0.46538 8e-3 -0.93092-8.8e-5 -1.3963 0.0044-0.09713 8.52e-4 -0.15744-0.02859-0.17501-0.13541-0.18636-1.131-0.76492-1.9684-1.6942-2.5707 0.23935-0.28574 0.53655-0.43205 0.86053-0.44747l0.54469-0.02637c0.45445-0.0191 0.90954-0.02309 1.36 0.04918zm-6.1758-5.5903c1.4288 8.545e-4 2.5896 1.253 2.5861 2.7897-0.0033 1.5171-1.172 2.7593-2.5948 2.7585-1.4287-8.51e-4 -2.5887-1.2522-2.586-2.7898 0.00262-1.5162 1.1718-2.7592 2.5947-2.7584zm-5.1834 1.586c0.80227 0.00118 1.4785 0.72754 1.4773 1.5868-0.00114 0.85891-0.67955 1.5833-1.4817 1.582-0.80215-0.001178-1.4785-0.72763-1.4773-1.5868 0.00114-0.85917 0.67935-1.5833 1.4817-1.5821zm10.371-3.2e-6c0.80207 0.00578 1.4747 0.736 1.4694 1.5953-0.0054 0.85873-0.68749 1.5793-1.4897 1.5735-0.80186-0.0058-1.4747-0.73621-1.4694-1.5953 0.0053-0.85891 0.68729-1.5793 1.4896-1.5735z" fill="#004f80" fill-rule="evenodd"/>
</svg>
