<?xml version="1.0" encoding="UTF-8"?>
<svg width="74" height="74" version="1.1" viewBox="0 0 19.579 19.579" xmlns="http://www.w3.org/2000/svg">
 <g transform="translate(0 -277.42)">
  <circle cx="9.7896" cy="286.15" r="8.7312" fill="#e5eef8" stroke-width=".37042"/>
 </g>
 <g transform="scale(1)">
  <g transform="translate(-11.048,-23.335)" fill="none">
   <g transform="matrix(.88632 0 0 .89809 58.438 27.639)" stroke="#03b8f2" stroke-width=".40911">
    <path class="st0" d="m-42.442 14.764-0.1025-0.0574c-1.7548-0.99625-2.8453-2.8699-2.8453-4.887v-1.3078h0.205c0.87328 0 1.7097-0.26649 2.4189-0.77486l0.32389-0.22959 0.32389 0.22959c0.70928 0.50838 1.5457 0.77486 2.4189 0.77486h0.205v1.3078c0 2.0171-1.0906 3.8907-2.8453 4.887z"/>
    <path d="m-41.048 10.18-1.8163 1.8162-0.96758-0.97165"/>
   </g>
   <g stroke="#004f80" stroke-width=".365">
    <path d="m27.919 31.549c0-0.01659 0-0.03254-0.01656-0.06507v-0.01659c-0.01656-0.03254-0.01656-0.04912-0.03248-0.06508l-1.4026-1.9599c-0.21147-0.31069-0.55413-0.47401-0.89618-0.47401h-9.3274c-0.3586 0-0.68471 0.16332-0.89682 0.45744l-1.4026 1.9599c-0.01656 0.01659-0.03248 0.04912-0.03248 0.06508v0.01659c0 0.01659-0.01656 0.03254-0.01656 0.06507v9.6367c0 0.55504 0.45669 1.0125 1.0108 1.0125h11.985c0.55413 0 1.0108-0.45744 1.0108-1.0125l6.35e-4 -9.5876v-0.01659c0.01656 0 0.01656-0.01595 0.01656-0.01595z"/>
    <path d="m19.354 31.047 0.5707-2.009h1.7936l0.5707 2.009v2.6782l-1.4675-0.80002-1.4675 0.80002z"/>
    <path d="m13.957 31.485h5.0436m0.74414 0h2.1001m0.79375 0h5.209"/>
   </g>
  </g>
 </g>
</svg>
