<?xml version="1.0" encoding="UTF-8"?>
<svg width="74" height="74" version="1.1" viewBox="0 0 19.579 19.579" xmlns="http://www.w3.org/2000/svg">
 <g transform="translate(0 -277.42)">
  <circle cx="9.7896" cy="286.15" r="8.7312" fill="#e5eef8" stroke-width=".37042"/>
 </g>
 <g transform="matrix(.96807 0 0 .96803 21.224 -28.21)" fill="none" stroke-miterlimit="10" stroke-width="1.033">
  <g stroke="#004f80">
   <g stroke-width=".37705">
    <path class="st0" d="m-17.212 39.49h2.9181z"/>
    <path class="st0" d="m-16.517 38.098h3.6849z"/>
    <path class="st0" d="m-17.212 40.881h2.3345z"/>
    <path class="st0" d="m-17.212 43.664h2.3345z"/>
    <path class="st0" d="m-17.212 45.056h3.1217z"/>
    <path class="st0" d="m-17.212 46.447h4.8386z"/>
    <path class="st0" d="m-17.212 42.273h2.3345z"/>
    <path class="st0" d="m-13.066 39.87c-1.2724 1.2727-1.2724 3.3396 0 4.6123s3.3388 1.2727 4.6113 0c1.2724-1.2727 1.2724-3.3396 0-4.6123-1.2758-1.2761-3.3388-1.2761-4.6113 0z"/>
   </g>
   <polygon class="st0" transform="matrix(.33931 0 0 .33939 -50.017 5.7512)" points="130.35 125.61 123.22 118.36 126.67 114.86 133.8 122.1" stroke-width="1.1111"/>
   <g stroke-width=".37705">
    <path class="st0" d="m-8.4548 44.482 0.81096 0.82471z"/>
    <path class="st0" d="m-5.1635 47.791 0.85846 0.87562z"/>
    <path d="m-17.128 34.823v1.6486h-1.6482"/>
    <path class="st0" d="m-9.8053 46.688v1.0521c0 0.30884-0.25109 0.55999-0.55987 0.55999h-7.8585c-0.30878 0-0.55987-0.25115-0.55987-0.55999v-11.383l1.4964-1.4967h6.922c0.30878 0 0.55987 0.25114 0.55987 0.55999v2.2264-2.2264c0-0.30884-0.25109-0.55999-0.55987-0.55999h-6.922l-1.4964 1.4967v11.383c0 0.30884 0.25109 0.55999 0.55987 0.55999h7.8585c0.30878 0 0.55987-0.25115 0.55987-0.55999z"/>
   </g>
  </g>
  <polygon class="st0" transform="matrix(.33931 0 0 .33939 -50.017 5.7512)" points="113.05 110.71 110.12 107.78 113.05 110.71 120.54 103.21" stroke="#03b8f2" stroke-width="1.1111"/>
 </g>
</svg>
