<?xml version="1.0" encoding="UTF-8"?>
<svg width="74" height="74" version="1.1" viewBox="0 0 19.579 19.579" xmlns="http://www.w3.org/2000/svg">
 <g transform="translate(0 -277.42)">
  <circle cx="9.7896" cy="286.15" r="8.7312" fill="#e5eef8" stroke-width=".37042"/>
 </g>
 <g transform="matrix(1 0 0 1 1.2402e-8 -277.42)">
  <circle cx="9.7896" cy="286.15" r="8.7312" fill="#e5eef8" stroke-width=".37042"/>
 </g>
 <g transform="matrix(1.0518 0 0 1.0518 -.58838 -17.489)" fill="none">
  <g transform="matrix(.55327 0 0 .55883 33.332 26.271)" stroke="#004f80" stroke-width=".62412">
   <path class="st0" d="m-42.442 14.764-0.1025-0.0574c-1.7548-0.99625-2.8453-2.8699-2.8453-4.887v-1.3078h0.205c0.87328 0 1.7097-0.26649 2.4189-0.77486l0.32389-0.22959 0.32389 0.22959c0.70928 0.50838 1.5457 0.77486 2.4189 0.77486h0.205v1.3078c0 2.0171-1.0906 3.8907-2.8453 4.887z"/>
   <path d="m-41.048 10.18-1.8163 1.8162-0.96758-0.97165"/>
  </g>
  <path d="m9.85 27.209v1.2705" stroke="#03b8f2" stroke-width=".34704"/>
  <g stroke-width=".50884">
   <g transform="matrix(.68202 0 0 .68202 42.153 28.545)" stroke="#03b8f2">
    <path class="st0" d="m-48.552-7.2215 0.0053 0.06868c0.01594 0.21665 0.06374 0.3329 0.15404 0.40688l0.10092 0.07926v0.12682c0 0.52841 0.43025 0.95643 0.96142 0.95643s0.96142-0.42802 0.96142-0.95643v-0.07926l0.04249-0.06341c0.07968-0.12154 0.20184-0.35932 0.21247-0.47029l0.0053-0.06868-0.14342-0.03699v-0.39102c0-0.51784-0.42494-0.94057-0.94548-0.94057h-0.26027c-0.52055 0-0.94548 0.42273-0.94548 0.94057v0.39103z"/>
    <g transform="matrix(.99999 0 0 .99999 -34.323 -34.041)">
     <path class="st0" d="m-10.219 32.143v-2.1303c0-0.4008-0.26278-0.62183-0.61369-0.75252l-1.5755-0.41302-0.01239-0.48613m0.19697 3.7703 2.0046 0.01166"/>
     <path class="st0" d="m-15.796 32.143v-2.1303c0-0.4008 0.26278-0.62183 0.61369-0.75252l1.5755-0.41302 0.01239-0.48613m-0.19697 3.7703-2.0046 0.01166"/>
    </g>
    <path d="m-50.556-1.8943h6.383"/>
    <path d="m-48.918-3.4157v1.5048"/>
    <path d="m-45.784-3.4157v1.5048"/>
   </g>
   <g transform="matrix(.68202 0 0 .68202 47.206 28.545)" stroke="#004f80">
    <path class="st0" d="m-48.552-7.2215 0.0053 0.06868c0.01594 0.21665 0.06374 0.3329 0.15404 0.40688l0.10092 0.07926v0.12682c0 0.52841 0.43025 0.95643 0.96142 0.95643s0.96142-0.42802 0.96142-0.95643v-0.07926l0.04249-0.06341c0.07968-0.12154 0.20184-0.35932 0.21247-0.47029l0.0053-0.06868-0.14342-0.03699v-0.39102c0-0.51784-0.42494-0.94057-0.94548-0.94057h-0.26027c-0.52055 0-0.94548 0.42273-0.94548 0.94057v0.39103z"/>
    <g transform="matrix(.99999 0 0 .99999 -34.323 -34.041)">
     <path class="st0" d="m-10.219 32.143v-2.1303c0-0.4008-0.26278-0.62183-0.61369-0.75252l-1.5755-0.41302-0.01239-0.48613m0.19697 3.7703 2.0046 0.01166"/>
     <path class="st0" d="m-15.796 32.143v-2.1303c0-0.4008 0.26278-0.62183 0.61369-0.75252l1.5755-0.41302 0.01239-0.48613m-0.19697 3.7703-2.0046 0.01166"/>
    </g>
    <path d="m-50.556-1.8943h6.383"/>
    <path d="m-48.918-3.4157v1.5048"/>
    <path d="m-45.784-3.4157v1.5048"/>
   </g>
   <g transform="matrix(.68202 0 0 .68202 37.1 28.545)" stroke="#004f80">
    <path class="st0" d="m-48.552-7.2215 0.0053 0.06868c0.01594 0.21665 0.06374 0.3329 0.15404 0.40688l0.10092 0.07926v0.12682c0 0.52841 0.43025 0.95643 0.96142 0.95643s0.96142-0.42802 0.96142-0.95643v-0.07926l0.04249-0.06341c0.07968-0.12154 0.20184-0.35932 0.21247-0.47029l0.0053-0.06868-0.14342-0.03699v-0.39102c0-0.51784-0.42494-0.94057-0.94548-0.94057h-0.26027c-0.52055 0-0.94548 0.42273-0.94548 0.94057v0.39103z"/>
    <g transform="matrix(.99999 0 0 .99999 -34.323 -34.041)">
     <path class="st0" d="m-10.219 32.143v-2.1303c0-0.4008-0.26278-0.62183-0.61369-0.75252l-1.5755-0.41302-0.01239-0.48613m0.19697 3.7703 2.0046 0.01166"/>
     <path class="st0" d="m-15.796 32.143v-2.1303c0-0.4008 0.26278-0.62183 0.61369-0.75252l1.5755-0.41302 0.01239-0.48613m-0.19697 3.7703-2.0046 0.01166"/>
    </g>
    <path d="m-50.556-1.8943h6.383"/>
    <path d="m-48.918-3.4157v1.5048"/>
    <path d="m-45.784-3.4157v1.5048"/>
   </g>
  </g>
  <g stroke="#004f80" stroke-width=".34704">
   <path d="m4.6106 28.557 10.522 0.07016"/>
   <path d="m4.7918 27.318 0.00136 1.3191"/>
   <path d="m14.95 27.318 0.0014 1.3191"/>
   <path d="m9.8493 28.496 0.0014 1.3191"/>
  </g>
 </g>
</svg>
