<?xml version="1.0" encoding="UTF-8"?>
<svg width="74" height="74" version="1.1" viewBox="0 0 19.579 19.579" xmlns="http://www.w3.org/2000/svg">
 <g transform="translate(0 -277.42)">
  <circle cx="9.7896" cy="286.15" r="8.7312" fill="#e5eef8" stroke-width=".37042"/>
 </g>
 <g transform="matrix(1.0868 0 0 1.0867 -.73447 -1.627)" fill="none" stroke-width=".33587">
  <g stroke="#004f80">
   <path d="m12.159 11.179v3.5008c0 0.19013-0.17409 0.3432-0.39035 0.3432l-5.0088-0.0025-2.1402 2.0003 0.072788-1.996-1.0251-0.0017c-0.21625-4.59e-4 -0.39034-0.15316-0.39034-0.34329v-4.9435c0-0.19013 0.1741-0.3432 0.39035-0.3432l-5.3e-6 3.4e-5h7.1304"/>
   <path d="m6.9817 15.008v1.2589c0 0.19013 0.17409 0.3432 0.39035 0.3432l5.0088-0.0025 2.1402 2.0003-0.07279-1.996 1.0251-0.0017c0.21625-4.59e-4 0.39034-0.15316 0.39034-0.34329v-4.9435c0-0.19013-0.1741-0.3432-0.39035-0.3432"/>
   <path d="m5.0046 11.407h5.0046"/>
   <path d="m5.0046 12.994h5.0046"/>
  </g>
  <path class="st0" d="m13.619 11.645-0.08096-0.04601c-1.386-0.79868-2.2474-2.3007-2.2474-3.9178v-1.0485h0.16192c0.68977 0 1.3504-0.21364 1.9106-0.62119l0.25583-0.18406 0.25583 0.18406c0.56023 0.40756 1.2209 0.62119 1.9106 0.62119h0.16192v1.0485c0 1.6171-0.8614 3.1191-2.2474 3.9178z" stroke="#03b8f2"/>
  <path d="m14.72 7.9702-1.4346 1.456-0.76425-0.77896" stroke="#03b8f2"/>
 </g>
</svg>
