<?xml version="1.0" encoding="UTF-8"?>
<svg width="74" height="74" version="1.1" viewBox="0 0 19.579 19.579" xmlns="http://www.w3.org/2000/svg">
 <g transform="translate(0 -277.42)">
  <circle cx="9.7896" cy="286.15" r="8.7312" fill="#e5eef8" stroke-width=".37042"/>
 </g>
 <g transform="matrix(1.4878 0 0 1.4878 20.715 -10.746)" fill="none" stroke-width=".24533">
  <g stroke="#004f80">
   <path d="m-7.4159 10.802h-4.5313v4.5313h1.2997c-0.01671-0.07175-0.02538-0.14513-0.02584-0.2188-6.9e-5 -0.54782 0.44405-0.99195 0.99187-0.99188 0.54775 4.3e-5 0.99174 0.44413 0.99167 0.99188-2.605e-4 0.07364-0.00871 0.14702-0.025232 0.2188h1.2991"/>
   <path d="m-7.4 15.333v-1.2997c0.071749 0.01671 0.14514 0.02535 0.2188 0.02582 0.54783 7e-5 0.99194-0.44405 0.99187-0.99188-4.34e-5 -0.54775-0.44413-0.99174-0.99187-0.99167-0.073645 2.61e-4 -0.14703 0.0087-0.2188 0.02523v-1.2991h4.5313v4.5313"/>
   <path d="m-7.4 18.585v1.295h4.5313v-4.5313h-1.2997c0.016714 0.07175 0.025377 0.14513 0.025838 0.2188 6.91e-5 0.54782-0.44405 0.99195-0.99187 0.99188-0.54775-4.3e-5 -0.99174-0.44413-0.99167-0.99188 2.605e-4 -0.07364 0.00871-0.14702 0.025232-0.2188h-1.2991l-1.535e-4 1.2802"/>
   <path d="m-11.949 15.378-0.0092 4.5124 4.5497-0.0092 0.00922-1.2351c-0.071749 0.01671-0.14514 0.02535-0.2188 0.02582-0.54783 7e-5 -0.99194-0.44405-0.99187-0.99188 4.33e-5 -0.54774 0.44413-0.99174 0.99187-0.99167 0.073646 2.63e-4 0.14703 0.0087 0.2188 0.02523v-1.3448"/>
  </g>
  <path d="m-11.955 18.762-0.0023 1.1281 1.1374-0.0023" stroke="#03b8f2"/>
 </g>
</svg>
