<?xml version="1.0" encoding="UTF-8"?>
<svg width="74" height="74" version="1.1" viewBox="0 0 19.579 19.579" xmlns="http://www.w3.org/2000/svg">
 <g transform="translate(0 -277.42)">
  <circle cx="9.7896" cy="286.15" r="8.7312" fill="#e5eef8" stroke-width=".37042"/>
 </g>
 <g transform="matrix(.52031 0 0 .51974 -12.878 -8.8661)" fill="none" stroke-width="1.923">
  <g stroke="#004f80" stroke-linecap="round" stroke-linejoin="round">
   <path class="st0" d="m32.253 40.813s-0.33721-2.5342-0.59012-4.3081c-0.25291-1.8584-1.4331-2.2808-2.6977-2.2808l0.25291 9.7143 6.2384 6.251" stroke-width=".70189"/>
   <path class="st0" d="m40.308 50.144c0.33721-2.7876-0.13107-3.8404-1.3113-5.1075-1.0116-1.0137-1.686-1.436-3.1192-1.6894l-1.8546-1.8584c-0.33721-0.33789-1.4331-1.1826-2.8663 0.33789l3.8779 3.8857" stroke-width=".70189"/>
   <polyline class="st1" transform="matrix(.84302 0 0 .84472 -47.328 -47.207)" points="105.6 119 105.6 115.5 95.7 115.5 95.7 119" stroke-width=".83175"/>
  </g>
  <ellipse class="st2" cx="39.25" cy="52.386" rx=".50581" ry=".50683" stroke="#03b8f2" stroke-width=".70189"/>
  <g stroke="#004f80">
   <g stroke-linecap="round" stroke-linejoin="round">
    <path class="st0" d="m54.93 40.813s0.33721-2.5342 0.59012-4.3081c0.25291-1.8584 1.4331-2.2808 2.6977-2.2808l-0.25291 9.7143-6.2384 6.251" stroke-width=".70189"/>
    <path class="st0" d="m46.922 50.285c-0.33721-2.7876 0.0843-3.9807 1.2645-5.2478 1.0116-1.0137 1.686-1.436 3.1192-1.6894l1.8546-1.8584c0.33721-0.33789 1.4331-1.1826 2.8663 0.33789l-3.8779 3.8857" stroke-width=".70189"/>
    <polyline class="st1" transform="matrix(.84302 0 0 .84472 -47.328 -47.207)" points="110.1 119 110.1 115.5 119.9 115.5 119.9 119" stroke-width=".83175"/>
   </g>
   <g stroke-width=".70189">
    <path class="st2" d="m47.343 52.386c0 0.33789 0.25291 0.50684 0.50581 0.50684 0.33721 0 0.50581-0.25342 0.50581-0.50684 0-0.25342-0.25291-0.50684-0.50581-0.50684-0.25291-0.08447-0.50581 0.16894-0.50581 0.50684z"/>
    <path class="st3" d="m51.474 34.562c0 4.3926-3.5407 7.9404-7.9244 7.9404s-7.9244-3.5478-7.9244-7.9404 3.5407-7.9404 7.9244-7.9404 7.9244 3.5478 7.9244 7.9404z"/>
    <path class="st3" d="m46.5 34.562c0 4.3926-1.3488 7.9404-2.9506 7.9404-1.6017 0-2.9506-3.5478-2.9506-7.9404s1.3488-7.9404 2.9506-7.9404c1.686 0 2.9506 3.5478 2.9506 7.9404z"/>
    <line class="st3" x1="36.131" x2="50.968" y1="37.181" y2="37.181"/>
    <line class="st3" x1="36.131" x2="50.968" y1="31.859" y2="31.859"/>
   </g>
  </g>
 </g>
</svg>
