<?xml version="1.0" encoding="UTF-8"?>
<svg width="74" height="74" version="1.1" viewBox="0 0 19.579 19.579" xmlns="http://www.w3.org/2000/svg">
 <g transform="translate(0 -277.42)">
  <circle cx="9.7896" cy="286.15" r="8.7312" fill="#e5eef8" stroke-width=".37042"/>
 </g>
 <g transform="matrix(1.1305 0 0 1.1305 59.292 -40.828)" fill="none" stroke-linejoin="round">
  <g stroke="#004f80" stroke-linecap="round" stroke-width="1.2203">
   <polyline class="st0" transform="matrix(.26458 0 0 .26458 -73.152 22.055)" points="117.97 70.15 117.97 80.15 127.97 80.15"/>
   <polyline class="st0" transform="matrix(.26458 0 0 .26458 -73.152 22.055)" points="93.97 108.15 93.97 116.15 127.97 116.15 127.97 80.15 117.97 70.15 93.97 70.15 93.97 82.15"/>
   <polyline class="st0" transform="matrix(.26458 0 0 .26458 -73.152 22.055)" points="131.97 116.15 133.97 116.15 133.97 80.15 123.97 70.15"/>
  </g>
  <circle class="st1" cx="-46.966" cy="47.23" r="1.0583" stroke="#03b8f2" stroke-width=".32287"/>
  <g stroke="#004f80" stroke-width=".32287">
   <g stroke-linecap="round">
    <line class="st0" x1="-43.791" x2="-40.88" y1="44.849" y2="44.849"/>
    <line class="st0" x1="-43.262" x2="-40.88" y1="46.436" y2="46.436"/>
    <line class="st0" x1="-43.262" x2="-40.88" y1="48.024" y2="48.024"/>
    <line class="st0" x1="-43.791" x2="-40.88" y1="49.611" y2="49.611"/>
   </g>
   <path class="st1" d="m-44.087 47.651c0.03969-0.27781 0.03969-0.56092 0-0.84138l-0.59796-0.08467c-0.05821-0.26194-0.1614-0.51594-0.30956-0.75142l0.36248-0.48419c-0.08202-0.11112-0.17462-0.21696-0.27517-0.3175-0.10054-0.10054-0.20638-0.19315-0.3175-0.27517l-0.48419 0.36248c-0.23283-0.14817-0.48948-0.25135-0.75142-0.30956l-0.08467-0.59796c-0.27781-0.03969-0.56092-0.03969-0.84138 0l-0.08467 0.59796c-0.26194 0.05821-0.51858 0.1614-0.74877 0.30956l-0.48419-0.36248c-0.11112 0.08202-0.21696 0.17462-0.3175 0.27517-0.10054 0.10054-0.19315 0.20638-0.27517 0.3175l0.36248 0.48419c-0.14817 0.23283-0.25135 0.48948-0.30956 0.74877l-0.59796 0.08467c-0.03969 0.27781-0.03969 0.56092 0 0.84138l0.59796 0.08467c0.05821 0.26194 0.1614 0.51594 0.30956 0.75142l-0.36248 0.48419c0.08202 0.11112 0.17462 0.21696 0.27517 0.3175 0.10054 0.10054 0.20638 0.19315 0.3175 0.27517l0.48419-0.36248c0.23283 0.14817 0.48683 0.25135 0.75142 0.30956l0.08467 0.59796c0.27781 0.03969 0.56092 0.03969 0.84137 0l0.08467-0.59796c0.26194-0.05821 0.51858-0.1614 0.74877-0.30956l0.48419 0.36248c0.11112-0.08202 0.21696-0.17462 0.3175-0.27517 0.10054-0.10054 0.19315-0.20902 0.27517-0.3175l-0.36248-0.48419c0.14817-0.23283 0.25135-0.48948 0.30956-0.74877z"/>
  </g>
 </g>
</svg>
