<?xml version="1.0" encoding="UTF-8"?>
<svg width="74" height="74" version="1.1" viewBox="0 0 19.579 19.579" xmlns="http://www.w3.org/2000/svg">
 <g transform="translate(0 -277.42)">
  <circle cx="9.7896" cy="286.15" r="8.7312" fill="#e5eef8" stroke-width=".37042"/>
 </g>
 <g fill="none">
  <g stroke="#004f80">
   <path class="st2" d="m4.001 8.8738h2.548c0.2548 0 0.4368-0.18199 0.4368-0.43677v-2.5478c0-0.25478-0.182-0.43677-0.4368-0.43677h-2.548c-0.2548 0-0.4368 0.18199-0.4368 0.43677v2.5478c0.036403 0.25478 0.2184 0.43677 0.4368 0.43677z" stroke-width=".365"/>
   <polyline class="st1" transform="matrix(.364 0 0 .36397 -29.378 -19.916)" points="93 74.2 94.7 76.8 97.6 72.5" stroke-linecap="round" stroke-linejoin="round" stroke-width="1.0028"/>
   <path class="st2" d="m4.001 13.678h2.548c0.2548 0 0.4368-0.18199 0.4368-0.43677v-2.5478c0-0.25478-0.182-0.43677-0.4368-0.43677h-2.548c-0.2548 0-0.4368 0.18199-0.4368 0.43677v2.5478c0.036403 0.25478 0.2184 0.43677 0.4368 0.43677z" stroke-width=".365"/>
   <polyline class="st1" transform="matrix(.364 0 0 .36397 -29.378 -19.916)" points="93 87.5 94.7 90 97.6 85.7" stroke-linecap="round" stroke-linejoin="round" stroke-width="1.0028"/>
   <path class="st2" d="m4.001 18.483h2.548c0.2548 0 0.4368-0.18198 0.4368-0.43676v-2.5478c0-0.25478-0.182-0.43677-0.4368-0.43677h-2.548c-0.2548 0-0.4368 0.18199-0.4368 0.43677v2.5478c0.036403 0.25478 0.2184 0.43676 0.4368 0.43676z" stroke-width=".365"/>
  </g>
  <polyline class="st1" transform="matrix(.364 0 0 .36397 -29.378 -19.916)" points="93 100.7 94.7 103.2 97.6 98.9" stroke="#03b8f2" stroke-linecap="round" stroke-linejoin="round" stroke-width="1.0028"/>
  <g transform="matrix(1.0685 0 0 1.0665 -1.0886 -1.2532)" stroke="#004f80" stroke-width=".34192">
   <path class="st0" d="m12.121 18.828c-0.3276 0-0.6188-0.30863-0.6188-0.63621l-0.3276-4.2585c-0.4732-0.14559-1.0192-0.50956-1.092-1.0191l-0.2548-3.3121v-0.072794c0-0.80074 0.6552-1.4923 1.456-1.4923h3.4216c0.8008 0.036401 1.456 0.69155 1.456 1.5287l-0.2548 3.3849c-0.0364 0.47316-0.5824 0.90993-1.092 1.0555l-0.3276 4.2585c-0.0364 0.32757-0.2912 0.58235-0.6188 0.58235z"/>
   <g stroke-linecap="round" stroke-linejoin="round">
    <path class="st1" d="m13.031 7.5271c-0.6188 0-1.092-0.47316-1.092-1.0919s0.4732-1.0919 1.092-1.0919c0.6188 0 1.092 0.47316 1.092 1.0919s-0.5096 1.0919-1.092 1.0919z"/>
    <line class="st1" x1="13.031" x2="13.031" y1="13.387" y2="18.483"/>
    <path d="m14.541 13.334 0.31022-3.3681"/>
    <path d="m11.407 13.334-0.31022-3.3681"/>
   </g>
  </g>
 </g>
</svg>
