<?xml version="1.0" encoding="UTF-8"?>
<svg width="74" height="74" version="1.1" viewBox="0 0 19.579 19.579" xmlns="http://www.w3.org/2000/svg">
 <g transform="translate(0 -277.42)">
  <circle cx="9.7896" cy="286.15" r="8.7312" fill="#e5eef8" stroke-width=".37042"/>
 </g>
 <g transform="matrix(.88005 0 0 .9312 20.008 -.48016)" fill="none">
  <g stroke="#004f80" stroke-linejoin="round" stroke-miterlimit="10">
   <path class="st0" d="m-5.0551 10.923c0.30162-1.6325-0.78052-3.1988-2.413-3.5004-1.6325-0.30162-3.2015 0.77788-3.5004 2.413-0.30162 1.6325 0.78052 3.2015 2.413 3.5004 1.6325 0.30162 3.1988-0.78052 3.5004-2.413z" stroke-width=".365"/>
   <polyline class="st0" transform="matrix(.26458 0 0 .26458 -42.205 -15.898)" points="120.66 106.77 124.99 119.06 134.24 109.51" stroke-width="1.3795"/>
   <polyline class="st0" transform="matrix(.26458 0 0 .26458 -42.205 -15.898)" points="89 109.19 89 102.58 110.9 102.58 110.9 116.82 95.64 116.82" stroke-width="1.3795"/>
  </g>
  <g stroke="#03b8f2" stroke-linejoin="round" stroke-miterlimit="10" stroke-width=".365">
   <path class="st0" d="m-14.083 12.656c0-0.33073-0.26988-0.6006-0.6006-0.6006s-0.6006 0.26723-0.6006 0.6006c0 0.33073 0.26723 0.6006 0.6006 0.6006s0.6006-0.26988 0.6006-0.6006z"/>
   <path class="st0" d="m-13.673 14.349c0-0.4736-0.45244-0.74348-1.0107-0.74348s-1.0107 0.26988-1.0107 0.74348"/>
   <line class="st0" x1="-15.993" x2="-17.872" y1="12.407" y2="12.407"/>
   <line class="st0" x1="-15.993" x2="-17.813" y1="13.434" y2="13.434"/>
  </g>
  <g stroke="#004f80">
   <g>
    <path class="st0" d="m-18.869 17.379c1.0769-0.03175 1.9526-0.86254 1.9685-2.0373 0.01588-1.1245-0.76994-2.0849-1.5849-2.323-0.32808-0.09525-0.80169-0.0344-0.88371-0.01587-1.1324 0.254-1.1404 0.99748-1.1589 2.1855-0.01058 0.77523-0.03175 1.4764 0.32808 1.8521 0.22225 0.22754 0.65352 0.35983 1.3309 0.33867z" stroke-linejoin="round" stroke-miterlimit="10" stroke-width=".365"/>
    <path class="st1" d="m-2.486 20.951v-3.1406c-0.055563-2.4606-0.94985-3.9-2.7146-4.5561 0.6985-1.0451 0.97896-1.4049 1.1615-1.9394 0.85725-2.503-1.651-5.6568-3.0559-5.9161-1.4579-0.26723-4.8366 1.7992-4.9636 4.4397-0.03969 0.83344 0.1561 1.7939 0.54769 3.2888-0.20902 0-1.1007 0-1.352-0.0026" stroke-width=".365"/>
    <polyline class="st1" transform="matrix(.26458 0 0 .26458 -42.205 -15.898)" points="94.46 122.24 111.92 123.61 111.92 139.27" stroke-width="1.3795"/>
   </g>
   <line class="st1" x1="-5.7668" x2="-5.7668" y1="20.951" y2="18.271" stroke-width=".26458"/>
  </g>
 </g>
</svg>
