<?xml version="1.0" encoding="UTF-8"?>
<svg width="74" height="74" version="1.1" viewBox="0 0 19.579 19.579" xmlns="http://www.w3.org/2000/svg">
 <g transform="translate(0 -277.42)">
  <circle cx="9.7896" cy="286.15" r="8.7312" fill="#e5eef8" stroke-width=".37042"/>
 </g>
 <g transform="matrix(.91729 0 0 .91695 32.542 .39908)" fill="none" stroke-miterlimit="10" stroke-width="1.0904">
  <path class="st1" d="m-19.335 13.138-2.3918 2.8628c-0.32015 0.36777-0.74348 0.56356-1.1695 0.56885-0.38894 0.0053-0.78581-0.14288-1.1112-0.46038-0.62442-0.6059-0.67998-1.6404 0.05027-2.286l2.7649-2.4871" stroke-opacity="0"/>
  <g stroke="#03b8f2" stroke-linecap="round" stroke-linejoin="round" stroke-width=".39798">
   <line class="st0" x1="-28.029" x2="-26.655" y1="11.814" y2="11.814"/>
   <line class="st0" x1="-25.594" x2="-25.06" y1="11.814" y2="11.814"/>
   <line class="st0" x1="-30.91" x2="-30.151" y1="13.155" y2="13.155"/>
   <line class="st0" x1="-29.116" x2="-28.642" y1="13.155" y2="13.155"/>
   <line class="st0" x1="-27.611" x2="-26.88" y1="13.155" y2="13.155"/>
   <line class="st0" x1="-28.261" x2="-27.883" y1="14.494" y2="14.494"/>
   <line class="st0" x1="-26.822" x2="-26.441" y1="14.494" y2="14.494"/>
   <line class="st0" x1="-30.91" x2="-29.357" y1="14.494" y2="14.494"/>
   <line class="st0" x1="-27.611" x2="-26.613" y1="10.472" y2="10.472"/>
  </g>
  <g stroke="#004f80" stroke-width=".39798">
   <g stroke-linejoin="round">
    <path d="m-32.635 16.462h6.9029"/>
    <path class="st0" d="m-32.635 11.351v6.0457c0 0.33867 0.27781 0.61648 0.61648 0.61648h4.9689v1.1615" stroke-linecap="round"/>
    <line class="st1" x1="-23.348" x2="-28.201" y1="8.255" y2="8.255"/>
   </g>
   <path class="st2" d="m-23.348 10.501c0 1.4023 1.1377 2.5374 2.5374 2.5374 1.4023 0 2.54-1.1351 2.54-2.5374 0-1.4023-1.1377-2.5374-2.54-2.5374-1.3996-0.00265-2.5374 1.1351-2.5374 2.5374z"/>
   <path class="st2" d="m-25.491 20.317v-2.2066c0-0.50271 0.4101-0.91281 0.91281-0.91281h7.538c0.50271 0 0.91281 0.40746 0.91281 0.91281v2.2066"/>
   <path class="st2" d="m-25.203 17.42v-0.42069c0-1.6192 1.3123-2.9342 2.9342-2.9342h2.921c1.6219 0 2.9342 1.3123 2.9342 2.9342v0.42069"/>
   <g stroke-linejoin="round">
    <line class="st0" x1="-29.037" x2="-25.491" y1="19.174" y2="19.174" stroke-linecap="round"/>
    <path class="st1" d="m-30.958 7.448c-0.78052 0-1.3811 0.082021-1.7886 0.17727v1.2594c0 1.5452 1.1562 2.2119 1.7859 2.458v-3.8947z"/>
    <path class="st1" d="m-30.905 12.308c-0.55033-0.16404-2.7067-0.96308-2.7067-3.429l-0.0026-1.9288c0.58738-0.2196 1.3785-0.41275 2.6511-0.41275 1.0266 0 1.9526 0.14023 2.7622 0.41804l-0.0026 1.9209c0.0026 2.4262-2.1616 3.2094-2.7014 3.4316z"/>
   </g>
  </g>
 </g>
</svg>
