<?xml version="1.0" encoding="UTF-8"?>
<svg width="74" height="74" version="1.1" viewBox="0 0 19.579 19.579" xmlns="http://www.w3.org/2000/svg">
 <g transform="translate(0 -277.42)">
  <circle cx="9.7896" cy="286.15" r="8.7312" fill="#e5eef8" stroke-width=".37042"/>
 </g>
 <g transform="translate(0 -.02699)" fill="none">
  <g stroke="#004f80">
   <g stroke-linejoin="round">
    <path d="m12.174 7.5142h3.7288c0.38985 0 0.7037 0.31388 0.7037 0.70377v8.6675m-13.704 0v-8.6675c0-0.38989 0.31385-0.70377 0.7037-0.70377h3.6764" stroke-width=".365"/>
    <rect x="6.0193" y="11.838" width="7.4354" height="2.1716" stroke-width=".34368"/>
    <path d="m12.034 8.4303h3.1135c0.34195 0 0.61724 0.26839 0.61724 0.60177v7.8364m-12.02 0v-7.8364c0-0.33338 0.27529-0.60177 0.61724-0.60177h3.0414" stroke-width=".365"/>
    <path class="st0" d="m16.128 18.874h-12.747l-1.3223-0.79085v-1.2014h5.5137l0.86422 0.49266h2.5581l0.86422-0.49266h5.5915v1.2014z" stroke-width=".365"/>
   </g>
   <g stroke-width=".32592">
    <g transform="matrix(1.1199 0 0 1.12 17.328 1.8572)">
     <path d="m-9.2843 9.5933 0.64312 0.64312"/>
     <path d="m-8.6412 9.5933-0.64312 0.64312"/>
    </g>
    <g transform="matrix(1.1199 0 0 1.12 18.971 1.8572)">
     <path d="m-9.2843 9.5933 0.64312 0.64312"/>
     <path d="m-8.6412 9.5933-0.64312 0.64312"/>
    </g>
    <g transform="matrix(1.1199 0 0 1.12 20.615 1.8572)">
     <path d="m-9.2843 9.5933 0.64312 0.64312"/>
     <path d="m-8.6412 9.5933-0.64312 0.64312"/>
    </g>
    <g transform="matrix(1.1199 0 0 1.12 22.259 1.8572)">
     <path d="m-9.2843 9.5933 0.64312 0.64312"/>
     <path d="m-8.6412 9.5933-0.64312 0.64312"/>
    </g>
   </g>
  </g>
  <g stroke="#03b8f2">
   <rect x="7.386" y="6.6996" width="4.702" height="3.8826" ry="0" stroke-linejoin="round" stroke-width=".33607"/>
   <path d="m8.2472 6.5496c0-0.10251 0.010415-1.2132 0.03027-1.3098 0.019844-0.096667 0.049117-0.18991 0.086811-0.27874 0.037694-0.088828 0.08381-0.17324 0.13736-0.25224 0.05354-0.079001 0.11452-0.15259 0.18192-0.21977 0.2696-0.26872 0.64205-0.43493 1.0535-0.43493 0.4114 1e-7 0.78385 0.16621 1.0534 0.43493 0.0674 0.067182 0.12837 0.14077 0.18192 0.21977 0.05355 0.079001 0.09967 0.16341 0.13736 0.25224 0.03769 0.088828 0.06696 0.18207 0.08681 0.27874 0.01985 0.096667 0.03027 1.2073 0.03027 1.3098" stroke-linejoin="round" stroke-width=".365"/>
   <ellipse cx="9.737" cy="8.1399" rx=".52433" ry=".52438" stroke-linejoin="round" stroke-width=".265"/>
   <path d="m9.737 8.5288v1.2594" stroke-width=".365"/>
  </g>
 </g>
</svg>
