<?xml version="1.0" encoding="UTF-8"?>
<svg width="74" height="74" version="1.1" viewBox="0 0 19.579 19.579" xmlns="http://www.w3.org/2000/svg">
 <g transform="translate(0 -277.42)">
  <circle cx="9.7112" cy="286.19" r="8.7312" fill="#e5eef8" stroke-width=".37042"/>
 </g>
 <g>
  <g fill="none">
   <g stroke="#03b8f2">
    <line class="st1" x1="12.12" x2="13.432" y1="16.97" y2="16.97" stroke-width=".23753"/>
    <line class="st1" x1="5.9541" x2="7.2652" y1="16.97" y2="16.97" stroke-width=".23753"/>
    <g stroke-width=".365">
     <path class="st1" d="m12.12 17.842h0.58195c0.09739 0 0.14014 0.07601 0.09976 0.1639l-0.61521 0.80048c-0.06888 0.09026-0.13539 0.06889-0.21616 0.06889h-4.5582c-0.08076 0-0.12352 0.01663-0.16865-0.06176l-0.66272-0.80761c-0.04038-0.09026 0.0024-0.1639 0.09976-0.1639h0.58196"/>
     <path class="st0" d="m12.866 16.97v-1.1259c0-1.1568-0.86462-1.9264-2.0784-2.2114l-1.095 0.89075-1.1307-0.91688c-1.1948 0.2209-2.0428 0.86462-2.0428 2.2376v1.1259"/>
     <path class="st1" d="m7.2652 18.845v-3.2376c0-0.08076 0.06651-0.14727 0.14727-0.14727h4.5582c0.08076 0 0.14727 0.06651 0.14727 0.14727v3.2589"/>
    </g>
   </g>
   <g stroke="#004f80">
    <g stroke-width=".365">
     <path class="st0" d="m9.6192 4.968c-0.47031 0-0.76723 0.04988-1.0143 0.10689v0.76248c0 0.9335 0.63184 1.3373 1.0119 1.487z"/>
     <path class="st0" d="m9.7213 8.1271c-0.3753-0.11164-1.8433-0.65559-1.8433-2.3349l-0.0024-1.3136c0.39906-0.14965 0.93825-0.28029 1.8052-0.28029 0.69835 0 1.3302 0.095013 1.8813 0.28504v1.3088c0 1.6508-1.4727 2.1829-1.8409 2.3349z"/>
     <path class="st0" d="m5.3745 5.5428c-0.99764 0-1.8052 0.80761-1.8052 1.8052 0 0.99764 0.80761 1.8052 1.8052 1.8052 0.99764 0 1.8052-0.80761 1.8052-1.8052 0-0.99764-0.80998-1.8052-1.8052-1.8052z"/>
    </g>
    <line class="st1" x1="1.6357" x2="2.9469" y1="13.156" y2="13.156" stroke-width=".23753"/>
    <path class="st1" d="m6.631 15.063h-3.5369c-0.08076 0-0.12114 0.01663-0.16865-0.06176l-0.66272-0.80761c-0.04038-0.09026 0.0024-0.1639 0.09976-0.1639h0.58195" stroke-width=".365"/>
    <path class="st1" d="m7.7997 14.027" stroke-width=".23753"/>
    <path class="st0" d="m7.9731 10.607c-0.36818-0.37768-0.89312-0.64609-1.5036-0.78861l-1.095 0.89075-1.1307-0.91688c-1.1948 0.22091-2.0428 0.86462-2.0428 2.2376v1.1259" stroke-width=".365"/>
    <path class="st1" d="m2.9469 15.03v-3.2376c0-0.08076 0.06651-0.14727 0.14727-0.14727h4.8575" stroke-width=".23753"/>
    <path class="st0" d="m14.014 5.5428c0.99764 0 1.8052 0.80761 1.8052 1.8052 0 0.99764-0.80761 1.8052-1.8052 1.8052-0.99764 0-1.8052-0.80761-1.8052-1.8052 0-0.99764 0.80761-1.8052 1.8052-1.8052z" stroke-width=".365"/>
    <line class="st1" x1="17.752" x2="16.441" y1="13.156" y2="13.156" stroke-width=".23753"/>
    <path class="st1" d="m12.757 15.063h3.5369c0.08076 0 0.12352 0.01663 0.16865-0.06176l0.66272-0.80761c0.04038-0.09026-0.0024-0.1639-0.09976-0.1639h-0.58433" stroke-width=".365"/>
    <path class="st1" d="m11.588 14.027" stroke-width=".23753"/>
    <path class="st0" d="m11.415 10.607c0.36818-0.37768 0.89312-0.64609 1.5036-0.78861l1.095 0.89075 1.1307-0.91688c1.1948 0.22091 2.0428 0.86462 2.0428 2.2376v1.1259" stroke-width=".365"/>
    <path class="st1" d="m16.441 15.03v-3.2376c0-0.08076-0.06651-0.14727-0.14727-0.14727h-4.8575" stroke-width=".365"/>
   </g>
   <path class="st0" d="m9.6928 9.3576c-0.99764 0-1.8052 0.80761-1.8052 1.8052s0.80761 1.8052 1.8052 1.8052 1.8052-0.80761 1.8052-1.8052-0.80761-1.8052-1.8052-1.8052z" stroke="#03b8f2" stroke-width=".365"/>
  </g>
  <g stroke-width=".024259">
   <path class="st0" d="m5.325 13.143c-0.10189 0-0.18437 0.08248-0.18437 0.18437 0 0.10189 0.082484 0.18437 0.18437 0.18437 0.10189 0 0.18437-0.08248 0.18437-0.18437 0-0.10189-0.082484-0.18437-0.18437-0.18437z" fill="#004f80" stroke="#004f80"/>
   <path class="st0" d="m14.121 13.143c-0.10189 0-0.18437 0.08248-0.18437 0.18437 0 0.10189 0.08248 0.18437 0.18437 0.18437 0.10189 0 0.18437-0.08248 0.18437-0.18437 0-0.10189-0.08248-0.18437-0.18437-0.18437z" fill="#004f80" stroke="#004f80"/>
   <path class="st0" d="m9.783 17.065c-0.10189 0-0.18437 0.08248-0.18437 0.18437 0 0.10189 0.082484 0.18437 0.18437 0.18437 0.10189 0 0.18437-0.08248 0.18437-0.18437 0-0.10189-0.082484-0.18437-0.18437-0.18437z" fill="#03b8f2" stroke="#03b8f2"/>
  </g>
 </g>
</svg>
