<?xml version="1.0" encoding="UTF-8"?>
<svg width="74" height="74" version="1.1" viewBox="0 0 19.579 19.579" xmlns="http://www.w3.org/2000/svg">
 <g transform="translate(0 -277.42)">
  <circle cx="9.7896" cy="286.15" r="8.7312" fill="#e5eef8" stroke-width=".37042"/>
 </g>
 <g transform="matrix(1.2312 0 0 1.2319 41.309 -19.656)" fill="none" stroke-width=".81197">
  <g stroke="#004f80">
   <path d="m-30.176 26.621h-0.64187v-5.0305h10.27v5.0305h-0.64187m-3.5866 0h-1.8129" stroke-linecap="round" stroke-linejoin="round" stroke-miterlimit="10" stroke-width=".23032"/>
   <path class="st0" d="m-28.375 27.895c-0.60983 0-1.089-0.48351-1.089-1.0989s0.47915-1.0989 1.089-1.0989 1.089 0.48351 1.089 1.0989c0 0.57142-0.47915 1.0989-1.089 1.0989z" stroke-linecap="round" stroke-linejoin="round" stroke-miterlimit="10" stroke-width=".23032"/>
   <g stroke-linecap="square" stroke-miterlimit="10" stroke-width=".23032">
    <path class="st3" d="m-25.718 31.288v-1.5384c0-0.70329-0.56627-1.2747-1.2632-1.2747h-2.8749c-0.69695 0-1.2632 0.57142-1.2632 1.2747v1.5384"/>
    <line class="st4" x1="-29.943" x2="-29.943" y1="30.541" y2="31.288" stroke-linejoin="bevel"/>
    <line class="st4" x1="-26.85" x2="-26.85" y1="30.541" y2="31.288" stroke-linejoin="bevel"/>
   </g>
   <g stroke-linecap="round" stroke-linejoin="round" stroke-miterlimit="10" stroke-width=".23032">
    <line class="st0" x1="-29.943" x2="-29.943" y1="30.145" y2="31.068"/>
    <line class="st0" x1="-26.85" x2="-26.85" y1="30.145" y2="31.068"/>
    <path class="st0" d="m-23.017 27.895c-0.60983 0-1.089-0.48351-1.089-1.0989s0.47915-1.0989 1.089-1.0989c0.60983 0 1.089 0.48351 1.089 1.0989 0 0.57142-0.47915 1.0989-1.089 1.0989z"/>
   </g>
   <g stroke-linecap="square" stroke-miterlimit="10" stroke-width=".23032">
    <path class="st3" d="m-20.316 31.288v-1.5384c0-0.70329-0.56627-1.2747-1.2632-1.2747h-2.8749c-0.69695 0-1.2632 0.57142-1.2632 1.2747v1.5384"/>
    <line class="st4" x1="-24.585" x2="-24.585" y1="30.541" y2="31.288" stroke-linejoin="bevel"/>
    <line class="st4" x1="-21.449" x2="-21.449" y1="30.541" y2="31.288" stroke-linejoin="bevel"/>
   </g>
   <g stroke-linecap="round" stroke-linejoin="round" stroke-miterlimit="10">
    <line class="st0" x1="-24.585" x2="-24.585" y1="30.145" y2="31.068" stroke-width=".23032"/>
    <line class="st0" x1="-21.449" x2="-21.449" y1="30.145" y2="31.068" stroke-width=".23032"/>
    <polyline class="st0" transform="matrix(.33022 0 0 .33096 -59.25 -2.8013)" points="113.2 77.7 107.3 83.6 105 81.3 100.5 85.8" stroke-width=".6967"/>
    <polyline class="st0" transform="matrix(.33022 0 0 .33096 -59.25 -2.8013)" points="109.6 78.2 113.2 77.7 112.7 81.2" stroke-width=".6967"/>
   </g>
   <polyline class="st0" transform="matrix(.18948 0 0 .19035 -47.282 8.1707)" points="97 89.5 97 77.9 102 77.9 102 89.5" stroke-linejoin="round" stroke-miterlimit="9.3333" stroke-width="1.5605"/>
  </g>
  <path d="m-30.247 25.212v-1.3754h0.96636v1.3705" stroke="#03b8f2" stroke-linejoin="round" stroke-miterlimit="9.3333" stroke-width=".29637"/>
  <path d="m-27.575 25.207v-3.0265h0.96636v3.0257" stroke="#004f80" stroke-linejoin="round" stroke-miterlimit="9.3333" stroke-width=".29637"/>
 </g>
</svg>
