<?xml version="1.0" encoding="UTF-8"?>
<svg width="74" height="74" version="1.1" viewBox="0 0 19.579 19.579" xmlns="http://www.w3.org/2000/svg">
 <g transform="translate(0 -277.42)">
  <circle cx="9.7896" cy="286.15" r="8.7312" fill="#e5eef8" stroke-width=".37042"/>
 </g>
 <g fill="none" stroke-linejoin="round" stroke-miterlimit="10" stroke-width=".365">
  <path class="st0" d="m6.8842 14.49c-0.13538 0.11076-0.3249 0.17722-0.57104 0.17722v1.9692" stroke="#004f80"/>
  <path class="st0" d="m12.792 14.546c-0.67442 0-1.1938 0.06892-1.5458 0.15507l0.0024 1.0904c0 1.3366 0.99933 1.9101 1.5458 2.1267v-3.3722z" stroke="#03b8f2"/>
  <path class="st0" d="m12.794 18.847c-0.49474-0.14769-2.4319-0.86397-2.4319-3.0768l-0.0024-1.7304c0.52674-0.19692 1.2381-0.36922 2.3802-0.36922 0.92056 0 1.7525 0.12554 2.4786 0.3766l-0.0024 1.7255c0.0024 2.171-1.9371 2.875-2.422 3.0744z" stroke="#03b8f2"/>
  <g stroke="#004f80">
   <path class="st0" d="m4.7059 8.9442c0.75319 0 1.3636-0.61044 1.3636-1.3636 0-0.75321-0.61043-1.3637-1.3636-1.3637s-1.3636 0.61044-1.3636 1.3637c-0.00242 0.75321 0.61043 1.3636 1.3636 1.3636z"/>
   <path class="st0" d="m14.63 8.9442c0.75319 0 1.3636-0.61044 1.3636-1.3636 0-0.75321-0.61043-1.3637-1.3636-1.3637s-1.3636 0.61044-1.3636 1.3637c0 0.75321 0.61043 1.3636 1.3636 1.3636z"/>
   <path class="st0" d="m7.6645 17.227v-2.4442c-0.65227 0-1.0018-0.39383-1.0018-0.88859l-0.00735-3.0842c0-1.595 0.68919-2.2399 1.9937-2.3236l1.0215 0.86151 1.0215-0.86151c1.3021 0.081229 1.9937 0.72859 1.9937 2.3236v2.1464"/>
   <path class="st0" d="m9.6681 7.7503c0.93533 0 1.6934-0.75813 1.6934-1.6935 0-0.93536-0.75811-1.6935-1.6934-1.6935-0.93533 0-1.6934 0.75813-1.6934 1.6935-0.00241 0.93536 0.75811 1.6935 1.6934 1.6935z"/>
   <path class="st0" d="m6.7144 10.067c-0.27075-0.29291-0.66704-0.43814-1.1889-0.47014l-0.82211 0.69413-0.82211-0.69413c-1.0486 0.06646-1.6048 0.58583-1.6048 1.8707v2.5156s0 0.68182 0.81226 0.68182v1.9692"/>
   <path class="st0" d="m12.619 10.067c0.27075-0.29291 0.6695-0.43814 1.1889-0.47014l0.82211 0.69413 0.82211-0.69413c1.0486 0.06646 1.6048 0.58583 1.6048 1.8707v2.5058s0 0.69413-0.81718 0.69413v1.9692"/>
  </g>
 </g>
</svg>
