<?xml version="1.0" encoding="UTF-8"?>
<svg width="74" height="74" version="1.1" viewBox="0 0 19.579 19.579" xmlns="http://www.w3.org/2000/svg">
 <g transform="translate(0 -277.42)">
  <circle cx="9.7896" cy="286.15" r="8.7312" fill="#e5eef8" stroke-width=".37042"/>
 </g>
 <g transform="translate(0 -.017338)" fill="none">
  <g transform="matrix(.43976 0 0 .4386 -39.195 -27.978)" stroke="#03b8f2" stroke-width=".8311">
   <path class="st0" d="m115.58 94.89h-8.25c-0.8 0-1.46-0.65-1.46-1.46v-3.34l-0.63-0.38c-1.41-0.85-2.28-2.39-2.28-4.04v-0.76c0-4.68 3.81-8.49 8.49-8.49s8.49 3.81 8.49 8.49v0.76c0 1.64-0.87 3.19-2.28 4.04l-0.63 0.38v3.34c0.01 0.8-0.65 1.46-1.45 1.46z" fill="none" stroke="#03b8f2" stroke-width=".8311"/>
   <path class="st0" d="m108.49 85.57c-1.2 0-2.17-0.97-2.17-2.17s0.97-2.17 2.17-2.17l0.26 0.02 1.89 1.89 0.01 0.25c0.01 1.21-0.96 2.18-2.16 2.18z" fill="none" stroke="#03b8f2" stroke-width=".8311"/>
   <path class="st0" d="m114.42 85.57c-1.2 0-2.17-0.97-2.17-2.17l0.02-0.26 1.88-1.88 0.27-0.02c1.2 0 2.17 0.97 2.17 2.17 0 1.19-0.98 2.16-2.17 2.16z" fill="none" stroke="#03b8f2" stroke-width=".8311"/>
   <polygon class="st0" points="109.72 88.22 108.72 88.22 108.71 87.22 109.72 87.22" fill="none" stroke="#03b8f2" stroke-width=".8311"/>
   <polygon class="st0" points="111.99 88.22 110.99 88.22 110.97 87.22 111.99 87.22" fill="none" stroke="#03b8f2" stroke-width=".8311"/>
   <polygon class="st0" points="114.25 88.22 113.25 88.22 113.24 87.22 114.25 87.22" fill="none" stroke="#03b8f2" stroke-width=".8311"/>
   <rect class="st0" x="108.35" y="92.26" width="1" height="1.71" fill="none" stroke="#03b8f2" stroke-width=".8311"/>
   <rect class="st0" x="110.98" y="92.26" width="1" height="1.71" fill="none" stroke="#03b8f2" stroke-width=".8311"/>
   <rect class="st0" x="113.61" y="92.26" width="1" height="1.71" fill="none" stroke="#03b8f2" stroke-width=".8311"/>
  </g>
  <g stroke="#004f80" stroke-width=".365">
   <path class="st0" d="m15.903 18.864h-12.176l-1.263-0.82608v-1.2549h5.2665l0.82547 0.51461h2.4434l0.82547-0.51461h5.3408v1.2549z" stroke-linejoin="round"/>
   <path d="m3.1235 16.732v-7.4793c0-0.026644 0.0063-0.051991 0.017691-0.075021 0.011395-0.023031 0.027899-0.043748 0.048306-0.061135 0.020411-0.017387 0.044728-0.031442 0.071764-0.041151 0.027036-0.00971 0.056789-0.015071 0.088066-0.015071h2.1748m8.5829 0h2.1748c0.12511 0 0.22583 0.085801 0.22583 0.19238v7.4793"/>
   <path d="m3.7004 16.793v-7.0353c0-0.024336 0.00575-0.047488 0.016165-0.068526 0.010415-0.021039 0.025492-0.03996 0.044141-0.055841 0.018649-0.015883 0.040871-0.028718 0.065578-0.037587 0.024706-0.00887 0.051893-0.013767 0.080474-0.013767h1.179m9.4595 0h1.179c0.11432 0 0.20636 0.078372 0.20636 0.17572v7.0353"/>
  </g>
 </g>
</svg>
