<?xml version="1.0" encoding="UTF-8"?>
<svg width="74" height="74" version="1.1" viewBox="0 0 19.579 19.579" xmlns="http://www.w3.org/2000/svg">
 <g transform="translate(0 -277.42)">
  <circle cx="9.7896" cy="286.15" r="8.7312" fill="#e5eef8" stroke-width=".37042"/>
 </g>
 <g transform="matrix(.37965 .3132 -.3132 .37965 21.481 -1.6853)" fill="none">
  <g transform="matrix(1.0265 0 0 1.0265 26.451 -37.592)" stroke="#004f80" stroke-width=".72244">
   <circle cx="-30.162" cy="73.686" r="9.7896"/>
   <circle cx="-30.162" cy="73.686" r="8.2311"/>
  </g>
  <path d="m8.7796 35.669h6.5245c1.6245 0 2.9324 1.0485 2.9324 2.3509v0.05877c0 1.3024-1.3078 2.3509-2.9324 2.3509h-6.5245z" stroke="#004f80" stroke-width=".74161"/>
  <g transform="matrix(.76394 0 0 1 7.3424 -4.3498)" stroke="#004f80" stroke-width=".84849">
   <path d="m-2.1828 41.407h3.9627"/>
   <path d="m-2.1828 43.524h3.9627"/>
  </g>
  <g transform="translate(52.382 10.715)" stroke-width=".74161">
   <path class="st0" d="m-56.268 33.004h-1.2471c-0.38138 0-0.67122-0.30892-0.67122-0.717v-0.31655c0-0.14112-0.0839-0.26697-0.21357-0.30892-0.16018-0.05721-0.31654-0.11823-0.46909-0.19069-0.13348-0.06484-0.29366-0.03432-0.40045 0.07246l-0.24408 0.24408c-0.26315 0.25934-0.68648 0.26316-0.94963 0l-0.88098-0.881c-0.27078-0.27078-0.25552-0.69412 0.03433-0.98397l0.2212-0.2212c0.09916-0.09916 0.12585-0.2479 0.06865-0.36994-0.07246-0.15255-0.1373-0.30892-0.1945-0.4691-0.04958-0.1373-0.18306-0.23264-0.33561-0.23264h-0.34324c-0.36994 0-0.67122-0.30129-0.67122-0.67124v-1.2471c0-0.36994 0.30129-0.67124 0.67122-0.67124h0.34324c0.15255 0 0.28603-0.09153 0.33561-0.23264 0.05339-0.15255 0.11823-0.30511 0.18688-0.45003 0.06483-0.13348 0.03432-0.29367-0.07246-0.40045l-0.24408-0.24409c-0.26315-0.26315-0.26315-0.68649 0-0.94964l0.88098-0.881c0.27078-0.27078 0.6941-0.25553 0.98395 0.03432l0.2212 0.22502c0.09916 0.09916 0.2479 0.12585 0.36994 0.06865 0.14874-0.07246 0.30892-0.1373 0.46909-0.19451 0.1373-0.04957 0.23264-0.18306 0.23264-0.33562v-0.34324c0-0.36994 0.30129-0.67124 0.67122-0.67124h1.2471c0.38138 0 0.67122 0.30892 0.67122 0.717v0.31655c0 0.14112 0.0839 0.26697 0.21357 0.30892 0.16018 0.05721 0.31654 0.11823 0.46909 0.19069 0.13348 0.06483 0.29366 0.03432 0.40044-0.07246l0.24408-0.24408c0.25171-0.25171 0.6941-0.25553 0.94963 0l0.88098 0.881c0.27078 0.27078 0.25552 0.69412-0.03433 0.98397l-0.22501 0.22502c-0.09916 0.09916-0.12585 0.2479-0.06865 0.36994 0.07246 0.15255 0.14111 0.30892 0.1945 0.46529 0.04958 0.1373 0.18306 0.23264 0.33561 0.23264h0.34324c0.36994 0 0.67122 0.30129 0.67122 0.67124v1.2471c0 0.36994-0.30129 0.67124-0.67122 0.67124h-0.34324c-0.15255 0-0.28603 0.09153-0.33561 0.23264-0.05339 0.15255-0.11823 0.30511-0.18688 0.45003-0.06483 0.13348-0.03433 0.29367 0.07246 0.40046l0.24408 0.24408c0.26315 0.26316 0.26315 0.68649 0 0.94965l-0.88098 0.881c-0.27078 0.27078-0.6941 0.25553-0.98395-0.03432l-0.2212-0.22121c-0.09916-0.09916-0.2479-0.12585-0.36994-0.06866-0.15255 0.07246-0.30892 0.1373-0.46909 0.19451-0.1373 0.04958-0.23264 0.18306-0.23264 0.33562v0.34325c0.0038 0.36613-0.29747 0.66742-0.66741 0.66742z" stroke="#004f80"/>
   <path class="st0" d="m-56.894 30.002c-0.70936 0-1.3806-0.2746-1.8878-0.78184-0.60639-0.6064-0.88098-1.4493-0.75131-2.3074 0.17162-1.1327 1.0831-2.0442 2.2158-2.2158 0.86191-0.13348 1.7009 0.14112 2.3111 0.75133 0.60639 0.6064 0.88098 1.4493 0.7475 2.3074-0.17162 1.1327-1.0831 2.0442-2.2158 2.2158-0.1373 0.02289-0.2784 0.03051-0.41951 0.03051z" stroke="#03b8f2"/>
  </g>
 </g>
</svg>
