<?xml version="1.0" encoding="UTF-8"?>
<svg width="74" height="74" version="1.1" viewBox="0 0 19.579 19.579" xmlns="http://www.w3.org/2000/svg">
 <g transform="translate(0 -277.42)">
  <circle cx="9.7112" cy="286.19" r="8.7312" fill="#e5eef8" stroke-width=".37042"/>
 </g>
 <g fill="none" stroke-miterlimit="10">
  <g stroke="#004f80">
   <g stroke-width=".365">
    <line class="st0" x1="15.4" x2="14.211" y1="15.336" y2="15.336"/>
    <path class="st0" d="m12.059 12.786v-4.3347c0-0.19124 0.14157-0.31872 0.28315-0.31872h4.9268c0.16989 0 0.28315 0.15936 0.28315 0.31872v7.3944c0 0.19124-0.14157 0.31872-0.28315 0.31872h-4.9268c-0.16989 0-0.28315-0.15936-0.28315-0.31872v-0.3506"/>
    <line class="st0" x1="4.2726" x2="3.1966" y1="13.169" y2="13.169"/>
    <line class="st0" x1="5.3486" x2="2.1207" y1="12.34" y2="12.34"/>
    <path class="st0" d="m5.3486 13.679c0 0.19124-0.14157 0.31872-0.28315 0.31872h-2.6616c-0.16989 0-0.28315-0.15936-0.28315-0.31872v-6.1514c0-0.19124 0.14157-0.31872 0.28315-0.31872h2.6616c0.16989 0 0.28315 0.15936 0.28315 0.31872z"/>
    <line class="st0" x1="3.7629" x2="2.9701" y1="8.0371" y2="8.0371"/>
    <line class="st0" x1="4.131" x2="4.4991" y1="8.0371" y2="8.0371"/>
    <path class="st0" d="m10.105 18.842h5.125c0.48135 0 0.87776-0.44622 0.87776-0.98805v-0.38247h-1.8688"/>
   </g>
   <polyline class="st0" transform="matrix(.28315 0 0 .31873 -21.012 -22.847)" points="126.5 122.4 126.5 126.5 109.9 126.5" stroke-width="1.215"/>
   <line class="st0" x1="10.105" x2="12.059" y1="10.619" y2="10.619" stroke-width=".365"/>
   <path class="st0" d="m8.4915 17.471h-5.125c-0.48135 0-0.87776-0.44622-0.87776-0.98805v-0.41434h2.6899" stroke-width=".365"/>
   <polyline class="st0" transform="matrix(.28315 0 0 .31873 -21.012 -22.847)" points="87.7 115.6 87.7 122.1 104.2 122.1" stroke-width="1.215"/>
   <line class="st0" x1="8.4915" x2="5.3486" y1="8.9933" y2="8.9933" stroke-width=".365"/>
  </g>
  <g stroke="#03b8f2">
   <path class="st1" d="m12.795 13.838-0.25483 0.28685c-1.0476 1.1793-3.0014 1.1793-4.0207 0l-0.25483-0.28685" stroke-linecap="square" stroke-width=".365"/>
   <polyline class="st0" transform="matrix(.28315 0 0 .31873 -21.012 -22.847)" points="116.4 114.4 120.1 114.4 120.1 118.1" stroke-width="1.215"/>
   <path class="st1" d="m6.5378 12.85 0.25483-0.28685c1.0476-1.1793 2.7182-1.1793 3.7376 0l0.25483 0.28685" stroke-linecap="square" stroke-width=".365"/>
   <polyline class="st0" transform="matrix(.28315 0 0 .31873 -21.012 -22.847)" points="100.5 112.8 96.6 112.8 96.6 108.9" stroke-width="1.215"/>
  </g>
  <g stroke="#004f80" stroke-width=".365">
   <line class="st1" x1="8.9445" x2="9.9072" y1="12.914" y2="13.774" stroke-linecap="square"/>
   <line class="st0" x1="9.3126" x2="9.3126" y1="10.906" y2="10.3"/>
   <line class="st0" x1="9.3126" x2="9.3126" y1="9.6944" y2="9.0889"/>
   <line class="st0" x1="9.3126" x2="9.3126" y1="19.001" y2="18.396"/>
   <line class="st0" x1="9.3126" x2="9.3126" y1="17.758" y2="17.153"/>
  </g>
 </g>
 <style type="text/css">.st0{fill:#231F20;}</style>
 <style type="text/css">.st0{fill:#231F20;}</style>
 <style type="text/css">.st0{fill:#231F20;}</style>
 <style type="text/css">.st0{fill:#231F20;}</style>
 <style type="text/css">.st0{fill:#231F20;}</style>
 <style type="text/css">.st0{fill:#231F20;}</style>
 <style type="text/css">.st0{fill:none;stroke:#343844;stroke-miterlimit:10;}</style>
 <style type="text/css">.st0{fill:none;stroke:#343844;stroke-miterlimit:10;}</style>
 <style type="text/css">.st0{fill:none;stroke:#343844;stroke-miterlimit:10;}</style>
 <style type="text/css">.st0{fill:#231F20;}</style>
 <style type="text/css">.st0{fill:#231F20;}</style>
 <style type="text/css">.st0{fill:#231F20;}</style>
 <style type="text/css">.st0{fill:#231F20;}</style>
 <style type="text/css">.st0{fill:#231F20;}</style>
 <style type="text/css">.st0{fill:#231F20;}</style>
 <style type="text/css">.st0{fill:#231F20;}</style>
 <style type="text/css">.st0{fill:#231F20;}</style>
 <style type="text/css">.st0{fill:#231F20;}</style>
 <style type="text/css">.st0{fill:none;stroke:#343844;stroke-miterlimit:10;}</style>
 <style type="text/css">.st0{fill:none;stroke:#343844;stroke-miterlimit:10;}</style>
 <style type="text/css">.st0{fill:none;stroke:#343844;stroke-miterlimit:10;}</style>
 <style type="text/css">.st0{fill:none;stroke:#343844;stroke-miterlimit:10;}</style>
 <style type="text/css">.st0{fill:none;stroke:#343844;stroke-miterlimit:10;}</style>
 <style type="text/css">.st0{fill:none;stroke:#343844;stroke-miterlimit:10;}</style>
 <style type="text/css">.st0{fill:none;stroke:#343844;stroke-miterlimit:10;}</style>
 <style type="text/css">.st0{fill:none;stroke:#343844;stroke-miterlimit:10;}</style>
 <style type="text/css">.st0{fill:none;stroke:#343844;stroke-miterlimit:10;}</style>
 <style type="text/css">.st0{fill:none;stroke:#343844;stroke-miterlimit:10;}</style>
 <style type="text/css">.st0{fill:none;stroke:#343844;stroke-miterlimit:10;}</style>
 <style type="text/css">.st0{fill:none;stroke:#343844;stroke-miterlimit:10;}</style>
 <style type="text/css">.st0{fill:none;stroke:#343844;stroke-miterlimit:10;}</style>
 <style type="text/css">.st0{fill:none;stroke:#343844;stroke-miterlimit:10;}</style>
 <style type="text/css">.st0{fill:none;stroke:#343844;stroke-miterlimit:10;}
	.st1{fill:none;stroke:#343844;stroke-linecap:square;stroke-miterlimit:10;}</style>
</svg>
