<?xml version="1.0" encoding="UTF-8"?>
<svg width="74" height="74" version="1.1" viewBox="0 0 19.579 19.579" xmlns="http://www.w3.org/2000/svg">
 <g transform="translate(0 -277.42)">
  <circle cx="9.7896" cy="286.15" r="8.7312" fill="#e5eef8" stroke-width=".37042"/>
 </g>
 <g transform="matrix(1.5192 0 0 1.5213 49.558 -36.102)" fill="none" stroke-miterlimit="10" stroke-width=".24009">
  <g stroke="#004f80">
   <path class="st0" d="m-28.028 29.096c-1.6669 0-3.0427 1.1377-3.0427 2.5135 0 1.0319 0.74083 1.905 1.7992 2.3019v1.2965l1.0848-1.0848h0.15875c1.6669 0 3.0427-1.1377 3.0427-2.5135-0.02646-1.4023-1.3758-2.5135-3.0427-2.5135z"/>
   <path class="st0" d="m-26.441 34.334c0.55562 0.42333 1.2965 0.68792 2.0902 0.68792 0.23812 0 0.47625-0.02646 0.68792-0.07937l1.0054 1.0054v-1.3758c0.82021-0.44979 1.3494-1.2171 1.3494-2.0902 0-1.4023-1.3494-2.5135-3.0427-2.5135-0.21167 0-0.39688 0.02646-0.60854 0.05292"/>
   <path class="st0" d="m-26.123 30.445c-0.76729 0.44979-1.27 1.2171-1.27 2.0638 0 0.3175 0.07937 0.60854 0.18521 0.87312"/>
   <path class="st0" d="m-22.022 30.154c0.02646-0.13229 0.05292-0.29104 0.05292-0.42333 0-1.4023-1.3494-2.5135-3.0427-2.5135-1.1642 0-2.196 0.55562-2.6988 1.3758"/>
  </g>
  <path class="st0" d="m-24.589 32.218c0.29104-0.02646 0.58208-0.10583 0.84667-0.21167l0.89958 0.89958v-1.4288c0.13229-0.10583 0.23812-0.21167 0.34396-0.34396" stroke="#03b8f2"/>
  <path class="st0" d="m-26.679 31.821c0.3175 0.18521 0.68792 0.3175 1.0583 0.37042" stroke="#004f80"/>
  <path class="st0" d="m-28.028 29.731c0 0.50271 0.18521 0.97896 0.47625 1.3758" stroke="#004f80"/>
 </g>
</svg>
