<?xml version="1.0" encoding="UTF-8"?>
<svg width="74" height="74" version="1.1" viewBox="0 0 19.579 19.579" xmlns="http://www.w3.org/2000/svg">
 <g transform="translate(0 -277.42)">
  <circle cx="9.7896" cy="286.15" r="8.7312" fill="#e5eef8" stroke-width=".37042"/>
 </g>
 <g transform="matrix(1.1561 0 0 1.1561 39.45 -22.392)" fill="none" stroke-miterlimit="10" stroke-width=".365">
  <g stroke="#004f80">
   <path class="st0" d="m-28.199 35.645h5.0721z"/>
   <path class="st0" d="m-21.926 26.879h1.0213c0.36512 0 0.66146 0.29633 0.66146 0.66146v5.8341c0 0.36512-0.29633 0.66146-0.66146 0.66146h-9.5197c-0.36512 0-0.66146-0.29633-0.66146-0.66146v-5.8341c0-0.36512 0.29633-0.66146 0.66146-0.66146h1.0213-1.0213c-0.36512 0-0.66146 0.29633-0.66146 0.66146v5.8341c0 0.36512 0.29633 0.66146 0.66146 0.66146h9.5197c0.36512 0 0.66146-0.29633 0.66146-0.66146v-5.8341c0-0.36512-0.29633-0.66146-0.66146-0.66146z"/>
   <path class="st0" d="m-31.086 32.679h10.845z"/>
   <rect class="st0" x="-26.466" y="34.036" width="1.6087" height="1.6087"/>
   <path class="st0" d="m-29.4 31.885v-1.1456c0-0.4736 0.32544-0.86519 0.82021-0.93927l0.44185-0.08202c0.50006-0.09525 1.016-0.04498 1.487 0.14288 0.3175 0.12436 0.65352 0.18786 0.98954 0.18786s0.67204-0.0635 0.98954-0.18786c0.4736-0.18785 0.9869-0.23548 1.487-0.14288l0.44185 0.08202c0.47096 0.0635 0.82021 0.46302 0.82021 0.93927v1.1456-1.1456c0-0.4736-0.3519-0.87577-0.82021-0.93927l-0.44185-0.08202c-0.50006-0.09525-1.016-0.04498-1.487 0.14288-0.3175 0.12436-0.65352 0.18786-0.98954 0.18786s-0.67204-0.0635-0.98954-0.18786c-0.4736-0.18785-0.9869-0.23548-1.487-0.14288l-0.44185 0.08202c-0.49477 0.07408-0.82021 0.46302-0.82021 0.93927z"/>
   <path class="st0" d="m-27.641 25.638v1.2435c0 0.5424 0.21431 1.061 0.59531 1.4446 0.36512 0.37042 0.86254 0.57679 1.3811 0.57679s1.0134-0.20638 1.3785-0.57415c0.38365-0.38629 0.6006-0.91017 0.6006-1.4526v-1.2409 1.2409c0 0.54504-0.21431 1.0663-0.6006 1.4526-0.36512 0.36777-0.86254 0.57415-1.3785 0.57415-0.51858 0-1.016-0.20902-1.3811-0.57679-0.381-0.38365-0.59531-0.90488-0.59531-1.4446z"/>
   <path class="st0" d="m-23.686 24.683c0-1.0239-0.88635-1.8547-1.9764-1.8547-1.0927 0-1.9764 0.83079-1.9764 1.8547 0-1.0239 0.88635-1.8547 1.9764-1.8547 1.0901 0 1.9764 0.83079 1.9764 1.8547z"/>
  </g>
  <path class="st0" d="m-23.686 26.771c0 0.22225-0.11642 0.42598-0.30692 0.53975-0.23283 0.13758-0.58473 0.2884-1.0001 0.2884 0 0-0.45244-0.0344-0.67204-0.254-0.2196 0.2196-0.67204 0.254-0.67204 0.254-0.4154 0-0.76465-0.15081-1.0001-0.2884-0.1905-0.11377-0.30692-0.3175-0.30692-0.53975 0-0.3466 0.28046-0.62706 0.62706-0.62706h2.7014c0.34925 0 0.62971 0.28046 0.62971 0.62706z" stroke="#03b8f2"/>
  <g stroke="#004f80">
   <path class="st1" d="m-24.887 26.847z" stroke-linecap="round"/>
   <path class="st1" d="m-26.403 26.847z" stroke-linecap="round"/>
   <path class="st0" d="m-26.985 24.582c-0.33602 0.0635-0.64294 0.13758-0.94456 0.28575v0.86519c0.26723-0.12965 0.60854-0.22225 0.94456-0.28575 0.87048-0.16933 1.7701-0.16933 2.6405 0 0.33602 0.0635 0.67733 0.1561 0.94456 0.28575v-0.86519c-0.26723-0.12965-0.60854-0.22225-0.94456-0.28575-0.86783-0.16669-1.7674-0.16669-2.6405 0z"/>
  </g>
 </g>
</svg>
