<?xml version="1.0" encoding="UTF-8"?>
<svg width="74" height="74" version="1.1" viewBox="0 0 19.579 19.579" xmlns="http://www.w3.org/2000/svg">
 <g transform="translate(0 -277.42)">
  <circle cx="9.7896" cy="286.15" r="8.7312" fill="#e5eef8" stroke-width=".37042"/>
 </g>
 <g transform="matrix(1.1078 0 0 1.1101 35.941 -26.994)" fill="none" stroke-miterlimit="10" stroke-width=".32915">
  <g stroke="#004f80">
   <path class="st0" d="m-23.48 33.971v2.1034z"/>
   <path class="st0" d="m-28.081 35.879 1.487 1.487z"/>
   <path class="st0" d="m-20.365 37.366 1.487-1.487z"/>
  </g>
  <circle class="st0" cx="-23.48" cy="40.48" r=".81492" stroke="#03b8f2"/>
  <path class="st0" d="m-22.905 39.906 1.8494-2.1669z" stroke="#03b8f2"/>
  <g stroke="#004f80">
   <path class="st0" d="m-18.167 39.387c-0.07144-0.3519-0.17992-0.69321-0.31485-1.0186-0.13758-0.32544-0.30427-0.63235-0.50006-0.92075 0.19579 0.2884 0.36248 0.59796 0.50006 0.92075 0.13758 0.32544 0.24342 0.6641 0.31485 1.0186z"/>
   <path class="st0" d="m-20.448 35.982c-0.2884-0.19579-0.59796-0.36248-0.92075-0.50006-0.32544-0.13758-0.6641-0.24342-1.0186-0.31485 0.3519 0.07144 0.69321 0.17992 1.0186 0.31485 0.32544 0.13758 0.63235 0.30692 0.92075 0.50006z"/>
   <path class="st0" d="m-24.572 35.167c-0.3519 0.07144-0.69321 0.17992-1.0186 0.31485-0.32544 0.13758-0.63235 0.30427-0.92075 0.50006 0.2884-0.19579 0.59796-0.36248 0.92075-0.50006 0.32544-0.13758 0.6641-0.24342 1.0186-0.31485z"/>
   <path class="st0" d="m-27.978 37.448c-0.19579 0.2884-0.36248 0.59796-0.50006 0.92075-0.13758 0.32544-0.24342 0.6641-0.31485 1.0186 0.07144-0.3519 0.17992-0.69321 0.31485-1.0186 0.13758-0.32279 0.30427-0.63235 0.50006-0.92075z"/>
   <path class="st0" d="m-27.885 40.48h-2.1034c0-3.5957 2.9131-6.5088 6.5088-6.5088s6.5088 2.9131 6.5088 6.5088h-2.1034 2.1034c0-3.5957-2.9131-6.5088-6.5088-6.5088s-6.5088 2.9131-6.5088 6.5088z"/>
   <path class="st0" d="m-20.434 40.48c0-0.5715-0.15875-1.1086-0.43127-1.5663 0.27517 0.45773 0.43127 0.99483 0.43127 1.5663z"/>
   <path class="st0" d="m-22.08 37.773c-0.41804-0.21696-0.89429-0.33867-1.3996-0.33867-1.6828 0-3.0454 1.3626-3.0454 3.0454 0-1.6828 1.3626-3.0454 3.0454-3.0454 0.50535 0 0.97896 0.12171 1.3996 0.33867z"/>
  </g>
 </g>
</svg>
