<?xml version="1.0" encoding="UTF-8"?>
<svg width="74" height="74" version="1.1" viewBox="0 0 19.579 19.579" xmlns="http://www.w3.org/2000/svg">
 <g transform="translate(0 -277.42)">
  <circle cx="9.7896" cy="286.15" r="8.7312" fill="#e5eef8" stroke-width=".37042"/>
 </g>
 <g fill="none" stroke="#004f80">
  <g>
   <g>
    <g stroke-width=".365">
     <path d="m6.3953 9.6294-3.2257 2.3301h8.7395l-3.0529-2.311"/>
     <path d="m7.3369 4.4097-2.1494 1.1438h4.9028l-2.17-1.1438"/>
     <path d="m7.6381 3.0242-1.0471 5.4818-1.3961 7.309-0.34902 1.8273h5.5861l-2.0954-10.964-0.69846-3.6545"/>
     <path d="m9.0608 10.323-3.0151 1.8536 3.3972 1.8067-3.8757 1.83 4.8647 1.8292"/>
     <path d="m8.9076 10.208-2.2166-1.903"/>
     <path d="m6.6909 8.3047 1.6425-1.5134"/>
     <path d="m3.1814 11.955-0.011353 1.2397"/>
    </g>
    <path d="m3.6264 13.037-0.90139-0.011585" stroke-width=".265"/>
    <path d="m3.6264 12.512-0.90139-0.011585" stroke-width=".265"/>
    <path d="m11.819 11.955-0.01135 1.2397" stroke-width=".365"/>
    <path d="m12.264 13.037-0.90139-0.01159" stroke-width=".265"/>
    <path d="m12.264 12.512-0.90139-0.01159" stroke-width=".265"/>
    <path d="m5.5838 5.6475-0.011353 1.2397" stroke-width=".365"/>
    <path d="m6.0288 6.7301-0.90139-0.011584" stroke-width=".265"/>
    <path d="m6.0288 6.2045-0.90139-0.011584" stroke-width=".265"/>
    <path d="m9.7049 5.6475-0.011353 1.2397" stroke-width=".365"/>
    <path d="m10.15 6.7301-0.90139-0.011584" stroke-width=".265"/>
    <path d="m10.15 6.2045-0.90139-0.011584" stroke-width=".265"/>
   </g>
   <rect x="2.4456" y="17.723" width="10.154" height="1.095" stroke-linecap="square" stroke-width=".365"/>
  </g>
  <g>
   <g stroke-width=".10228px">
    <path d="m15.185 9.9049-1.0572 0.60495h2.9163l-0.97397-0.60495"/>
    <path d="m15.518 7.9905-0.71724 0.38169h1.636l-0.72412-0.38169"/>
    <path d="m15.619 7.5282c-0.31058 1.626-0.93173 4.8779-0.93173 4.8779h1.864s-0.62152-3.2519-0.93229-4.8779"/>
    <path d="m14.802 11.804 1.4642-0.61856-1.1784-0.60288 1.0061-0.61855"/>
    <path d="m16.094 9.9636-0.7908-0.67336"/>
    <path d="m15.303 9.2902 0.54808-0.50502"/>
   </g>
   <path d="m14.132 10.508-0.0038 0.41368" stroke-width=".102"/>
   <path d="m14.28 10.869-0.30079-0.0035" stroke-width=".10228px"/>
   <path d="m14.28 10.694-0.30079-0.0035" stroke-width=".102"/>
   <g stroke-width=".10228px">
    <path d="m17.014 10.508-0.0038 0.41368"/>
    <path d="m17.162 10.869-0.30079-0.0035"/>
    <path d="m17.162 10.694-0.30079-0.0035"/>
    <path d="m14.933 8.4035-0.0038 0.41368"/>
    <path d="m15.082 8.7648-0.30079-0.00348"/>
    <path d="m15.082 8.5894-0.30079-0.00348"/>
    <path d="m16.308 8.4035-0.0038 0.41368"/>
    <path d="m16.457 8.7648-0.30079-0.00348"/>
    <path d="m16.457 8.5894-0.30079-0.00348"/>
   </g>
  </g>
  <g>
   <rect x="13.886" y="12.4" width="3.3883" height=".36541" stroke-linecap="square" stroke-width=".14109"/>
   <g stroke-width=".075298">
    <path d="m12.264 13.037c1.688-0.71652 3.7436-1.1232 4.8984-2.1678"/>
    <path d="m10.15 6.7301c2.0019 1.0281 4.003 1.6973 6.3071 2.0347"/>
    <path d="m3.6264 13.037c3.6232-0.72162 7.6962-1.1201 10.654-2.1678"/>
   </g>
  </g>
 </g>
</svg>
