<?xml version="1.0" encoding="UTF-8"?>
<svg width="50px" height="34px" viewBox="0 0 50 34" version="1.1" xmlns="http://www.w3.org/2000/svg" xmlns:xlink="http://www.w3.org/1999/xlink">
    <title>Logo/Smal</title>
    <g id="Logo/Smal" stroke="none" stroke-width="1" fill="none" fill-rule="evenodd">
        <g id="Bundesamt_für_Sicherheit_in_der_Informationstechnik_Logo" fill-rule="nonzero">
            <polygon id="path110" fill="#F2CF04" points="46.9088999 22 49.0909091 22 49.0909091 33 44 33 44 22"></polygon>
            <polygon id="path114" fill="#ED1C24" points="46.9088999 12 49.0909091 12 49.0909091 22 44 22 44 12"></polygon>
            <path d="M21,12 C21.0434268,11.6354792 21.0705409,11.260632 21.0705409,10.879877 C21.0705409,10.6688375 21.0728277,10.4238593 21.0465293,10.1464092 C24.3365683,10.1035547 27.2172276,7.77039024 27.2172276,5.08888283 C27.2172276,3.72377797 26.3159901,2.69367774 25.8031393,2.08122677 L26.1525394,2 C26.632399,2.41469726 28,3.87720298 28,5.72931587 C28,8.94653362 24.730954,11.9320553 21,12 M18.2710859,0.987329659 C18.2304117,0.740074012 18.1390183,0.519053992 18,0.327304086 C18.0071425,0.104267914 18.0983062,-0.110695955 18.4518107,0.0638987029 C18.2591708,0.265742194 18.4071639,0.618966379 18.4071639,0.618966379 C18.4071639,0.618966379 18.8023749,0.433272625 18.7209507,0.169867241 C19.3048289,0.312164991 18.8838016,1.10944537 18.2711263,0.987329659 M16.7357684,3 C16.6480754,2.55560421 16.4519231,2.09890561 16.2061528,1.75296015 C15.9857677,1.44257122 15.6165374,1.06927806 15.1180756,1.06927806 C14.8907694,1.06927806 14.509999,1.19644539 14.2688476,1.31677319 C14.1765386,1.12260764 14,0.650864151 14,0.438925554 C14,0.220147425 14.3115386,0 14.90577,0 C16.2153848,0 17,0.701458614 17,1.87739236 C17,2.29033603 16.8626919,2.66773013 16.7357684,3 M22.2389972,24.0001329 C22.4283779,24.0001329 22.5223462,24.0306985 22.6322172,24.0698469 C23.1035028,25.3624814 24.9250308,27.8010613 25.0030964,27.9056342 L25.0204395,27.9274878 L25.046454,27.9216922 C25.488826,27.8476776 26.6352328,27.6776876 27.5893672,27.6776876 L27.609613,27.6776876 L27.9059729,27.748797 C27.9680808,27.8097991 28,27.9216331 28,28.0770379 C28,28.3137813 27.8973014,28.7204518 27.7759223,28.8947424 C27.4434213,28.5301882 26.8984058,28.3646133 26.0339039,28.3646133 C25.7722374,28.3646133 25.4614225,28.4445564 25.295172,28.4880681 L25.2242751,28.5012099 L25.1477123,28.5244663 L25.6508032,29.0255433 C26.4242321,29.8025785 27.0935699,30.4735864 27.0935699,30.918021 C27.0935699,31.1881687 26.8304594,31.5367424 26.5904826,31.6921509 C26.5399417,30.8744502 25.7173019,29.7822457 24.9192988,29.1707855 L24.8512972,29.1198907 L24.8368202,29.4089205 C24.825246,29.6020894 24.8092992,29.8940207 24.8092992,30.2077392 C24.8092992,31.7618059 24.6502762,32 24.1139359,32 L23.8291429,31.9462038 C24.1283945,31.5714832 24.2498287,31.0733114 24.2498287,30.2076802 L24.24406,29.8039148 L24.24406,29.4829351 C24.24406,29.1256421 24.2773865,28.8627592 24.3061678,28.6507083 L24.3235109,28.5301586 L24.2382765,28.5185304 C23.9867292,28.4836826 23.5183354,28.4182545 23.1627042,28.4182545 C22.3979504,28.4182545 21.8804045,28.4908774 21.5016432,28.8452615 C21.2573271,28.6448314 21,28.2948033 21,28.076942 C21,27.753057 21.2023916,27.7269138 21.4655021,27.7269138 C21.601395,27.7269138 21.725721,27.7458512 21.8948632,27.7689748 C22.2244725,27.8154508 22.7188882,27.8909752 23.7380773,27.8909752 L23.8030732,27.8909752 L23.7842237,27.8270716 C23.5240049,27.0848953 22.8156307,26.004308 21.677899,24.612911 C21.7762031,24.2440008 21.8802906,24 22.2388135,24 M11.2166847,27.8270219 L11.1978226,27.8909268 L11.2600824,27.8909268 C12.2799588,27.8909268 12.7761512,27.8154008 13.1045366,27.7689238 C13.2795759,27.7456669 13.4039889,27.726862 13.5370756,27.726862 C13.8003626,27.726862 14,27.7529984 14,28.0768974 C14,28.2947633 13.7453903,28.6447987 13.4994653,28.8452329 C13.1218949,28.4908414 12.6040019,28.418217 11.8387351,28.418217 C11.4799718,28.418217 11.0141574,28.4836355 10.762445,28.518495 L10.7234412,28.5242908 L10.6800435,28.5300866 L10.6916255,28.6506388 C10.7234301,28.8626941 10.756779,29.1255824 10.756779,29.4828828 L10.7545729,29.8038692 L10.7523668,30.207643 C10.7523668,31.0732921 10.8709925,31.5714743 11.1733385,31.9462026 L10.8854572,32 C10.3516508,32 10.1925211,31.7618009 10.1925211,30.207702 C10.1925211,29.893977 10.1737693,29.6020396 10.1650919,29.4088667 L10.150642,29.1183801 L10.0827088,29.1706676 C9.2827254,29.7821406 8.45814398,30.8743678 8.41040765,31.6920855 C8.16737262,31.5366737 7.90697926,31.1880928 7.90697926,30.9179395 C7.90697926,30.4734956 8.57676966,29.8024738 9.34782006,29.0254262 L9.79483111,28.5809824 L9.85420094,28.5242797 L9.70374858,28.4880284 C9.53738657,28.4444567 9.22925688,28.364571 8.96741485,28.364571 C8.09654577,28.364571 7.55695205,28.5301493 7.22133435,28.8947111 C7.10271235,28.720417 7,28.313738 7,28.0769897 C7,27.9215817 7.03184138,27.8097453 7.0911965,27.748742 L7.3877552,27.6776311 L7.41091925,27.6776311 C8.36569367,27.6776311 9.50997945,27.8475655 9.95554183,27.9216407 L9.98157381,27.9274365 L9.99892847,27.9055824 C10.0741528,27.8010073 11.8969063,25.3623768 12.3742917,24.0697154 C12.478449,24.0304408 12.575374,24 12.7648817,24 C13.1236451,24 13.2220151,24.2440059 13.3232788,24.6129238 C12.184784,26.0043533 11.4788283,27.0849594 11.2184349,27.8271511 M7.00012431,5.72931587 C7.00012431,3.87720298 8.35180784,2.41469726 8.82608237,2 L9.16845115,2.08122677 C8.664534,2.69367774 7.77082136,3.72377797 7.77082136,5.08888283 C7.77082136,7.79695446 10.6787222,10.1508391 13.9704854,10.1508391 C13.9497292,10.3825351 13.9392946,10.627517 13.9392946,10.879877 C13.9392946,11.2783402 13.9585063,11.6487613 14,12 C10.2769438,11.9779069 7,8.97168372 7,5.72937588 M31.3196939,12.4054781 C32.8952025,14.9311035 34.133199,14.8885619 36,14.8885619 C34.4539033,13.6931101 33.4329737,12.1573143 32.9470176,11.374527 L30.0634872,6.70474173 C29.7819975,5.2611225 29.0467614,3.91251283 27.9446048,2.91134048 C28.3157254,2.76811247 28.6224232,2.61779479 28.8114843,2.47598688 C26.9264801,2.47598688 25.061078,1.50742631 24.0359482,1.50742631 C23.3763365,1.50742631 22.949197,1.90732793 22.949197,2.43486172 C22.9925549,3.0219531 23.5920045,3.62322383 24.6941611,3.62322383 C24.9490402,3.62322383 25.2655444,3.58919916 25.6184583,3.53110492 C26.217851,4.37345342 26.6996069,5.13780469 26.6996069,6.22406395 C26.6996069,8.27179051 24.2838259,9.86573103 21.847044,9.86573103 C21.7069968,9.86573103 21.5795573,9.85891889 21.4395101,9.84871869 C21.2210408,9.34246114 20.4844022,8.49160286 20.4844022,7.52588249 C20.4844022,5.89932658 21.5319423,4.57057305 21.5319423,2.96245678 C21.5319423,1.96128082 21.0515853,1.34441065 20.8653255,1.08773343 C21.163623,0.805534098 21.4941301,0.458100392 21.5683521,0.222699404 C21.3932975,0.29643995 21.1874287,0.309145138 20.8863335,0.309145138 C19.7197577,0.309145138 18.7674511,0 17.8375513,0 C17.3095829,0 17.1639331,0.16591713 17.1639331,0.323324487 L17.1891341,0.470805579 C16.9916727,0.389917689 16.805413,0.340344031 16.5869401,0.296382281 C16.3138543,0.243968428 16.0183581,0.216968554 15.7032564,0.216968554 C14.5772941,0.216968554 14.1753664,0.696283905 14.1753664,1.10894838 C14.1753664,1.4549656 14.4456509,2.09027181 14.7523522,2.57100366 C15.1892909,2.34694543 15.7172629,2.19521125 15.9609404,2.19521125 C16.5603331,2.19521125 17.0911028,2.77379286 17.3753938,3.45731391 C16.9706648,3.50552874 16.8908402,3.52401885 16.4861076,3.52401885 C15.3867558,3.52401885 14.6431158,3.12695381 14.4862644,3.12695381 L14.4427962,3.15816712 C14.4427962,3.31557448 14.7522953,3.72823896 15.3670934,3.95513378 C16.176555,4.25435265 17.3879445,4.37914462 17.5938098,4.41318011 C17.5938098,4.45004858 17.3837408,4.83435436 17.1554687,4.9109315 L17.0140226,4.91659026 C16.1653498,4.74783654 15.932874,4.67409599 14.8643295,4.26284801 L14.80977,4.30538966 C14.80977,4.73507368 15.906324,5.68235802 16.8880389,6.04539118 C16.0673755,7.10754482 15.0422458,8.19238759 14.5576886,9.84871869 C14.423244,9.85891889 14.2902019,9.86573103 14.1501582,9.86573103 C11.7161741,9.86573103 9.30039667,8.27179051 9.30039667,6.22406395 C9.30039667,5.13780469 9.78214902,4.37345342 10.3829441,3.53110492 C10.7330568,3.58918835 11.0509598,3.62322383 11.3030412,3.62322383 C12.4079955,3.62322383 13.0073882,3.0219531 13.050803,2.43486172 C13.050803,1.90732793 12.6264648,1.50742631 11.9612505,1.50742631 C10.9333194,1.50742631 9.07352344,2.47598688 7.19131704,2.47598688 C7.37477547,2.61779479 7.68427459,2.76811247 8.05539518,2.91134048 C6.95043731,3.91251283 6.21520115,5.2611225 5.93651277,6.70474173 L3.05298235,11.374527 C2.5656274,12.1573143 1.54329541,13.6931101 0,14.8885619 C1.86399973,14.8885619 3.09919846,14.9311035 4.68030608,12.4054781 L6.15778341,10.0089014 C6.26701986,10.3208831 6.40146088,10.6215185 6.56251248,10.9193172 L3.62156787,15.6826956 C3.13281049,16.471156 2.12028127,17.9913524 0.567183089,19.1967305 C2.43538299,19.1967305 3.67198415,19.2407499 5.24748917,16.7164869 L7.77950454,12.6125204 C7.96856557,12.8181462 8.16742936,13.0166787 8.37889723,13.2081216 L4.80634676,18.9953614 C4.31619052,19.7866584 3.30786503,21.3026017 1.75336441,22.5079798 C3.62156787,22.5079798 4.85536417,22.5533616 6.43367049,20.0277362 L9.91659361,14.3837208 C10.1462681,14.5297854 10.378744,14.6730134 10.621019,14.8091482 L6.37065015,21.6911606 C5.88189277,22.4824541 4.87496971,23.9955608 3.32187152,25.2023589 C5.18727012,25.2023589 6.42246885,25.2449042 8.00077517,22.7206952 L12.3743834,15.6288075 C12.6348687,15.729548 12.8967528,15.8245035 13.1656385,15.9138435 L8.22064694,23.9246568 C7.73608973,24.7046075 6.70675983,26.24466 5.17046589,27.4358587 C7.03306319,27.4358587 8.27246564,27.4784004 9.85077196,24.9541951 L15.120668,16.417268 L15.2775194,16.4456339 C15.4189654,16.9065133 15.519798,17.3376138 15.519798,17.7658777 C15.519798,20.4489141 13.7804365,22.8185486 11.6937673,24.64647 C11.8282083,24.7088678 12.0578828,24.7272462 12.2763522,24.7272462 C12.7062929,24.7272462 12.9849813,24.704539 13.179645,24.6691592 C12.6950877,25.7823642 11.6587564,27.2203103 11.1335857,27.9633925 C10.4487658,27.8386006 9.45584567,27.7407508 8.8060367,27.7407508 C8.12401456,27.7407508 8.04839015,28.1463256 8.04839015,28.5065222 C8.04839015,29.1304856 8.33828373,29.628237 8.67439341,29.9075997 C8.8004341,29.5871118 9.05391434,29.1588479 10.3129223,29.1588479 L10.438963,29.1656601 C10.0720426,29.5797446 8.92087218,30.5213594 8.92087218,31.2800375 C8.92087218,31.7820456 9.46424957,32.5378871 10.181279,32.5378871 C10.1407225,32.3762266 10.1463251,32.2259089 10.1463251,32.1167128 C10.1463251,31.497006 10.681295,30.7808696 11.1392417,30.2788651 C11.122441,30.4263462 11.1280293,30.4135834 11.1280293,30.5865902 C11.1280293,32.0387192 11.2610715,32.7080609 12.1699633,32.7080609 C12.6181072,32.7080609 12.9248086,32.4570568 13.0312401,32.3847328 C12.4402513,31.8317346 12.4080417,31.4020505 12.4080417,30.5866478 C12.4101774,30.3725159 12.4101774,30.1654736 12.4158726,29.8790176 C12.4158726,29.6932479 12.4158726,29.4479171 12.3822712,29.2692371 C12.7113794,29.2210222 12.8416203,29.2210222 13.0937017,29.2210222 C13.0937017,29.2210222 14.387717,29.1189194 14.700021,29.7996038 C15.0501336,29.4748629 15.5584965,29.0125635 15.5584965,28.5063023 C15.5584965,28.1716314 15.4016451,27.7901659 14.7378332,27.7901659 C14.4829505,27.7901659 13.690293,27.9475732 13.0250787,27.9475732 C13.2029381,27.544835 13.9997922,26.3692357 14.6888158,25.5141244 C14.7924496,25.8473787 14.9535012,26.2047351 15.314819,26.4968643 C15.3638898,25.9480615 15.6845372,24.2108966 16.5318075,23.1969578 C16.6298423,23.8818989 16.7642834,24.5866926 16.7642834,26.0700169 C16.7642834,29.6819015 15.9058078,32.3479184 14.0838205,32.8570161 C14.3218989,33.2739337 14.8218579,33.6497297 15.3442273,33.6497297 C16.0066404,33.6497297 16.3707559,32.8867949 16.7404777,32.1692384 C16.9337389,32.6981887 17.4673099,34 17.9980832,34 C18.5316543,34 19.062424,32.6981887 19.2556852,32.1692384 C19.625407,32.8867949 19.9895225,33.6497297 20.653338,33.6497297 C21.174305,33.6497297 21.6770653,33.2739337 21.9123424,32.8570161 C20.0931564,32.3479184 19.2346808,29.6819015 19.2346808,26.0700169 C19.2346808,24.5866926 19.3691219,23.8818989 19.4643554,23.1969578 C20.314427,24.2108966 20.63233,25.9480615 20.6813439,26.4968643 C21.0426617,26.2047351 21.2065146,25.8473787 21.3101484,25.5141244 C21.9963707,26.3692357 22.7932248,27.544835 22.9738855,27.9475732 C22.3058698,27.9475732 21.5132124,27.7901659 21.261131,27.7901659 C20.5945178,27.7901659 20.4348651,28.1716314 20.4348651,28.5063023 C20.4348651,29.0125635 20.9488306,29.4748629 21.2989432,29.7996038 C21.6112436,29.1189194 22.9052625,29.2210222 22.9052625,29.2210222 C23.1573439,29.2210222 23.2875848,29.2210222 23.6166894,29.2692371 C23.5830881,29.4479171 23.5830881,29.6932479 23.5830881,29.8790176 C23.5852237,30.1654736 23.5852237,30.3725159 23.5852237,30.5866478 C23.5852237,31.4020505 23.5585633,31.8317346 22.9648266,32.3847905 C23.0712582,32.4571686 23.3807573,32.7081149 23.8261035,32.7081149 C24.7363942,32.7081149 24.8652362,32.0387768 24.8652362,30.5866478 C24.8652362,30.413641 24.873067,30.4264039 24.8596478,30.2789192 C25.317598,30.7809273 25.8553692,31.4970637 25.8553692,32.1167705 C25.8553692,32.2259089 25.8585727,32.3762807 25.817614,32.5379447 C26.5346434,32.5379447 27.0780208,31.7820996 27.0780208,31.2800952 C27.0780208,30.5214135 25.9268504,29.5797987 25.5571287,29.1657177 L25.6859707,29.1589056 C26.9449751,29.1589056 27.1956576,29.5871695 27.3244996,29.907661 C27.6606057,29.6282947 27.9477016,29.1305433 27.9477016,28.5065834 C27.9477016,28.1463869 27.8748749,27.7408121 27.1928563,27.7408121 C26.540246,27.7408121 25.5473259,27.8386042 24.862506,27.9634538 C24.3401366,27.2203716 23.301004,25.7824255 22.8164467,24.6692204 C23.0111104,24.7046147 23.2926001,24.7274192 23.7225408,24.7274192 C23.9382089,24.7274192 24.1678834,24.7089291 24.3051257,24.6465313 C22.2184565,22.8186063 20.4762937,20.4489717 20.4762937,17.765939 C20.4762937,17.337675 20.5799276,16.9065745 20.7213736,16.4456952 L20.8838241,16.4173293 L26.148121,24.9542527 C27.7236261,27.4784617 28.9630285,27.43592 30.8256258,27.43592 C29.2907307,26.2447213 28.2572007,24.7046688 27.7754448,23.9247181 L22.8304532,15.9138471 C23.1021402,15.824453 23.3640243,15.7294939 23.6217083,15.6288111 L27.9981143,22.7206989 C29.5764242,25.2449078 30.8088216,25.2023625 32.6742202,25.2023625 C31.121122,23.9955644 30.1169967,22.4824577 29.6254416,21.6911642 L25.377874,14.8091518 C25.6173477,14.673017 25.8554262,14.529789 26.0822994,14.3837244 L29.5624212,20.0277398 C31.1435288,22.5533652 32.3773251,22.5079834 34.2427273,22.5079834 C32.691028,21.3026053 31.6813036,19.786662 31.1925462,18.995365 L27.6199958,13.2081252 C27.8300612,13.0166823 28.0331287,12.8181498 28.2193885,12.612524 L30.7486025,16.7164905 C32.3269089,19.2406958 33.56351,19.1967341 35.4289086,19.1967341 C33.8786082,17.991356 32.8660825,16.4711596 32.3773251,15.6826992 L29.4419796,10.9193208 C29.5946308,10.6215221 29.7318731,10.3208867 29.8411096,10.008905 L31.3185869,12.4054817" id="path118" fill="#231F20"></path>
            <polygon id="path120" fill="#231F20" points="44 1 49.0909091 1 49.0909091 12 44 12"></polygon>
        </g>
    </g>
</svg>