<?xml version="1.0" encoding="UTF-8"?>
<svg width="168px" height="81px" viewBox="0 0 168 81" version="1.1" xmlns="http://www.w3.org/2000/svg" xmlns:xlink="http://www.w3.org/1999/xlink">
    <title>BSI_2017_DTP_CMYK_de</title>
    <g id="Symbols" stroke="none" stroke-width="1" fill="none" fill-rule="evenodd">
        <g id="Header/BSI-Top" transform="translate(-117.000000, -54.000000)">
            <g id="BSI_2017_DTP_CMYK_de" transform="translate(117.000000, 54.000000)">
                <path d="M59.5376494,3.23705722 C59.5376494,3.62232495 59.4898809,3.95909745 59.3956708,4.24737471 C59.3001338,4.53565196 59.1714243,4.78486361 59.0082153,4.99231546 C58.8450062,5.20111441 58.6565861,5.36950066 58.4403009,5.49747421 C58.2240158,5.62544775 58.0010961,5.72243823 57.7688882,5.78575146 L57.7688882,5.81808162 C58.0528453,5.87196522 58.3195528,5.97299697 58.5663567,6.12252396 C58.8131606,6.27205094 59.0294457,6.45929645 59.2138852,6.68426048 C59.3983246,6.9092245 59.5456108,7.17325414 59.6557438,7.47769648 C59.7672036,7.78213881 59.8216066,8.11621713 59.8216066,8.47993142 C59.8216066,8.91773566 59.7486269,9.31782139 59.6013407,9.68153568 C59.4527277,10.04525 59.2245004,10.360469 58.9140052,10.6271928 C58.6035099,10.8952638 58.2107468,11.1027156 57.7370425,11.2522426 C57.2633383,11.4031167 56.7007315,11.4772066 56.0478954,11.4772066 L53.8213527,11.4772066 L53.8213527,0.416250804 L55.9218397,0.416250804 C56.5640606,0.416250804 57.1133983,0.483605303 57.5711797,0.616967211 C58.030288,0.750329119 58.4058014,0.940268806 58.7003738,1.18543918 C58.9949462,1.43195665 59.2085776,1.72831644 59.3399409,2.07586566 C59.4713043,2.42341487 59.5376494,2.8100297 59.5376494,3.23705722 Z M58.1483823,3.28555246 C58.1483823,2.77231118 57.9692505,2.35067201 57.6109868,2.01928788 C57.252723,1.68790374 56.6901163,1.52221168 55.9218397,1.52221168 L55.194697,1.52221168 L55.194697,5.3371705 L55.9059168,5.3371705 C56.6423478,5.3371705 57.2009738,5.15531335 57.5791411,4.79294615 C57.9586353,4.42923185 58.1483823,3.92676729 58.1483823,3.28555246 Z M58.3527253,8.38294094 C58.3527253,7.78483299 58.1616514,7.31200441 57.7768496,6.96445519 C57.3933747,6.61690598 56.8427101,6.44313137 56.1261827,6.44313137 L55.194697,6.44313137 L55.194697,10.3227505 L56.0478954,10.3227505 C56.8586329,10.3227505 57.4451239,10.1597526 57.8086953,9.83375685 C58.1722666,9.50776108 58.3527253,9.02415577 58.3527253,8.38294094 Z M66.8170374,11.4772066 L65.6480362,11.4772066 L65.6480362,10.6110278 L65.6161905,10.6110278 C65.5856718,10.6756881 65.5166728,10.7686373 65.4118475,10.8925696 C65.3056953,11.0151548 65.1716781,11.1323516 65.0084691,11.2441601 C64.8452601,11.3573156 64.6488785,11.4556532 64.4166705,11.5418669 C64.1857894,11.6267336 63.9270434,11.6698405 63.6430863,11.6698405 C63.306053,11.6698405 63.0035192,11.6186511 62.7354848,11.5176193 C62.4661236,11.4152405 62.2378963,11.2522426 62.0481493,11.0286257 C61.8584022,10.8036616 61.7137698,10.5126902 61.6142521,10.1543643 C61.5134075,9.79738542 61.4643121,9.35553991 61.4643121,8.83152191 L61.4643121,3.78262866 L62.7434463,3.78262866 L62.7434463,8.73587852 C62.7434463,9.37709335 62.8456178,9.83375685 63.0512877,10.1072161 C63.2556307,10.3793283 63.5740873,10.5153844 64.0066576,10.5153844 C64.3742096,10.5153844 64.6847049,10.4224352 64.9381433,10.2351897 C65.1902548,10.0479442 65.3906171,9.86339283 65.5379033,9.68153568 L65.5379033,3.78262866 L66.8170374,3.78262866 L66.8170374,11.4772066 Z M72.9115014,11.4772066 L72.9115014,6.52395677 C72.9115014,5.87196522 72.8040222,5.404525 72.5877371,5.1216361 C72.3727789,4.83740012 72.043707,4.69595567 71.6018484,4.69595567 C71.2223543,4.69595567 70.9065514,4.79294615 70.6544399,4.98423292 C70.4010015,5.17686679 70.2006392,5.3641123 70.053353,5.54596945 L70.053353,11.4772066 L68.7742189,11.4772066 L68.7742189,3.78262866 L69.9432201,3.78262866 L69.9432201,4.64880752 L69.9750658,4.64880752 C70.0069114,4.5841472 70.0745835,4.49119799 70.1807357,4.36726571 C70.285561,4.24468053 70.422232,4.1274837 70.5907486,4.01567523 C70.7592652,3.90251967 70.9596275,3.8041821 71.1905086,3.71796834 C71.4227166,3.63310167 71.6854433,3.5899948 71.9800157,3.5899948 C72.317049,3.5899948 72.6222366,3.64118421 72.8955785,3.74221596 C73.1702474,3.8445948 73.4011284,4.00759269 73.5908755,4.23120963 C73.7806226,4.45617365 73.9279088,4.74714509 74.0327341,5.10547102 C74.1375594,5.46379696 74.1906355,5.90429538 74.1906355,6.42831338 L74.1906355,11.4772066 L72.9115014,11.4772066 Z M75.7537269,7.74172611 C75.7537269,6.96176101 75.8545715,6.30976946 76.0536069,5.78575146 C76.2539692,5.26308055 76.5113883,4.8400943 76.8271911,4.51948688 C77.142994,4.19887947 77.5012577,3.97256835 77.9019823,3.83920644 C78.30138,3.70449744 78.7007777,3.63849003 79.1015023,3.63849003 C79.3429986,3.63849003 79.5539761,3.65734929 79.733108,3.69506781 C79.9122398,3.73143924 80.059526,3.7772403 80.1749665,3.8311239 L80.1749665,0.144138628 L81.4541007,0 L81.4541007,11.4772066 L80.2850995,11.4772066 L80.2850995,10.659523 L80.2545807,10.659523 C80.222735,10.7241833 80.1643513,10.8117442 80.0807564,10.9235526 C79.9958347,11.0367082 79.8803941,11.1485167 79.733108,11.2603251 C79.5858218,11.3734807 79.4013823,11.4691241 79.1797895,11.5499495 C78.9595237,11.6294278 78.7007777,11.6698405 78.4062053,11.6698405 C78.0492685,11.6698405 77.7095814,11.5970976 77.3884709,11.452959 C77.0673605,11.3088204 76.7860571,11.078468 76.543234,10.7632489 C76.3017377,10.4480299 76.1093368,10.0425558 75.9673582,9.54547959 C75.8253796,9.04840339 75.7537269,8.44760126 75.7537269,7.74172611 Z M78.7538538,10.5153844 C78.9542161,10.5153844 79.1333479,10.4884426 79.2912494,10.4359061 C79.4491508,10.3820225 79.5858218,10.314668 79.7012623,10.2351897 C79.8180297,10.1543643 79.9148936,10.0721918 79.9931809,9.98597802 C80.072795,9.90111135 80.1338326,9.82567431 80.1749665,9.76236108 L80.1749665,5.01656308 C80.059526,4.94247313 79.9255088,4.87781282 79.772915,4.82527631 C79.6203212,4.77139271 79.4279203,4.74445091 79.1957124,4.74445091 C78.90114,4.74445091 78.6251442,4.79564033 78.3677251,4.89667208 C78.1089791,4.99770382 77.8860594,5.16609007 77.6963124,5.40183082 C77.5065653,5.63622447 77.3566253,5.9420139 77.2464924,6.31515782 C77.1350325,6.68964884 77.0806295,7.14900652 77.0806295,7.69457796 C77.0806295,8.22802559 77.1257442,8.67391238 77.2146467,9.03223831 C77.3035492,9.39056425 77.428278,9.6788415 77.5861794,9.89841717 C77.7440809,10.1179928 77.9232127,10.2742553 78.1222481,10.3712458 C78.3226104,10.4668891 78.5335879,10.5153844 78.7538538,10.5153844 Z M88.2757073,6.37981814 C88.2757073,6.71120228 88.2650921,6.99678535 88.2438616,7.23656737 C88.2226312,7.47769648 88.2014007,7.6891896 88.1814972,7.87104675 L84.312249,7.87104675 C84.3547099,8.7789854 84.5457839,9.44714203 84.8881248,9.87416955 C85.2304657,10.3011971 85.7227466,10.5153844 86.3649675,10.5153844 C86.5865602,10.5153844 86.7855956,10.4884426 86.9647275,10.4359061 C87.1438593,10.3820225 87.2991069,10.3173622 87.4304703,10.2432722 C87.5618337,10.1678352 87.6732935,10.0937452 87.762196,10.0183082 C87.8524253,9.94421823 87.9174436,9.88494627 87.9599045,9.84183939 L88.4336087,10.7565135 C88.3805326,10.80905 88.3022454,10.8871812 88.1960931,10.988213 C88.0912678,11.0892447 87.9492892,11.1916235 87.7701574,11.2926553 C87.5910255,11.393687 87.3707597,11.482595 87.1067061,11.558032 C86.8439793,11.632122 86.5334841,11.6698405 86.1752204,11.6698405 C85.7015161,11.6698405 85.2729266,11.5890151 84.8881248,11.4287114 C84.5046499,11.2684077 84.1782319,11.0205431 83.9101975,10.6837706 C83.6408363,10.3469981 83.4338395,9.91997061 83.2865533,9.40134097 C83.1379402,8.88271132 83.0649605,8.26035575 83.0649605,7.53427426 C83.0649605,6.84995255 83.140594,6.25992713 83.2931878,5.76285093 C83.4471085,5.26577473 83.6541053,4.85625938 83.916832,4.53565196 C84.1808857,4.21504455 84.4860733,3.97795671 84.8337218,3.82304136 C85.1813703,3.66812601 85.5542299,3.5899948 85.9549545,3.5899948 C86.6807703,3.5899948 87.2486846,3.82304136 87.6600245,4.2877874 C88.0700374,4.75253345 88.2757073,5.45032606 88.2757073,6.37981814 Z M85.8753404,4.64880752 C85.4228666,4.64880752 85.0592952,4.8400943 84.7859533,5.22536203 C84.5126113,5.61062976 84.3547099,6.16563084 84.312249,6.89305943 L87.0761873,6.89305943 C87.0854756,6.83917583 87.093437,6.76104461 87.0987446,6.66001286 C87.1040522,6.55898111 87.1067061,6.44851973 87.1067061,6.3313229 C87.1067061,5.79652818 87.0018807,5.38297156 86.7909032,5.08930594 C86.5812526,4.79564033 86.276065,4.64880752 85.8753404,4.64880752 Z M93.2489385,5.3371705 C93.1653436,5.24152711 93.0127498,5.11085938 92.7911571,4.94516731 C92.5708912,4.77947525 92.2802995,4.69595567 91.9233627,4.69595567 C91.5863294,4.69595567 91.3289103,4.77678107 91.1497785,4.93708477 C90.9706466,5.09738848 90.8804172,5.29002235 90.8804172,5.51363929 C90.8804172,5.80191654 90.9626852,6.04035147 91.1258942,6.22759698 C91.2891032,6.41484248 91.5385609,6.6142118 91.8755942,6.82839911 L92.3492985,7.11667636 C92.8654636,7.42650706 93.2701689,7.76058537 93.5647413,8.11891131 C93.8606406,8.47723724 94.0079268,8.9392891 94.0079268,9.5050669 C94.0079268,10.1152987 93.7996031,10.6271928 93.3842825,11.0447907 C92.9676351,11.4610415 92.3705289,11.6698405 91.5916371,11.6698405 C91.2864494,11.6698405 91.0184151,11.6375103 90.7862071,11.57285 C90.5539992,11.5095368 90.35231,11.4340997 90.1784857,11.3492331 C90.0046615,11.2630193 89.8600291,11.1700701 89.7445885,11.0690384 C89.6278211,10.9666595 89.533611,10.8737103 89.4593045,10.7874966 L90.0749873,9.76236108 C90.1386786,9.82567431 90.215639,9.90111135 90.3045415,9.98597802 C90.3947708,10.0721918 90.50225,10.1543643 90.6283057,10.2351897 C90.7543615,10.314668 90.8963401,10.3820225 91.0542415,10.4359061 C91.2121429,10.4884426 91.3965824,10.5153844 91.6075599,10.5153844 C91.9857271,10.5153844 92.2763188,10.4305177 92.4753542,10.2594373 C92.6757165,10.0883569 92.7752342,9.87955791 92.7752342,9.63438753 C92.7752342,9.45253039 92.7526769,9.29492086 92.7049084,9.16021186 C92.6571399,9.02684995 92.586814,8.90695894 92.4912771,8.80053884 C92.397067,8.69277164 92.2802995,8.59173989 92.1436286,8.4960965 C92.0069576,8.39910602 91.8490562,8.29268591 91.6699243,8.17548909 L91.1962201,7.87104675 C90.7225158,7.55986896 90.35231,7.23522028 90.0842756,6.89305943 C89.8149144,6.55089857 89.6808972,6.11309433 89.6808972,5.57829961 C89.6808972,5.29002235 89.7366271,5.02464562 89.84676,4.78486361 C89.956893,4.5437345 90.1121406,4.33628264 90.3125029,4.15981386 C90.5128652,3.98334507 90.7464001,3.8445948 91.0157613,3.74221596 C91.2837956,3.64118421 91.5704066,3.5899948 91.8755942,3.5899948 C92.1701666,3.5899948 92.423605,3.61963077 92.6332556,3.67890273 C92.8442332,3.7368276 93.0260188,3.81226464 93.1786126,3.90251967 C93.3312064,3.99412179 93.4572622,4.08437682 93.5567799,4.17463185 C93.6576245,4.26623397 93.7385656,4.34301809 93.8022569,4.40767841 L93.2489385,5.3371705 Z M95.0654682,9.52123198 C95.0654682,9.07265101 95.1490631,8.69816 95.3175797,8.39910602 C95.4860964,8.10005205 95.7129967,7.85757585 95.9969539,7.67033034 C96.2809111,7.48308484 96.6152905,7.34972293 97.0000923,7.26889753 C97.3835672,7.18941922 97.7922532,7.14900652 98.2234966,7.14900652 L98.6175867,7.14900652 L98.6175867,6.4121483 C98.6175867,5.76015675 98.5047999,5.31157579 98.2792265,5.06505832 C98.0523261,4.81988795 97.7338695,4.69595567 97.3238566,4.69595567 C96.9443624,4.69595567 96.6285596,4.77947525 96.3764481,4.94516731 C96.1230096,5.11085938 95.9239742,5.25769219 95.7753611,5.38566574 L95.2392925,4.51948688 C95.3228873,4.43462021 95.4316934,4.33897682 95.5630567,4.23120963 C95.6944201,4.12478952 95.8549753,4.02241068 96.0447224,3.92676729 C96.2344695,3.8311239 96.4494277,3.7502985 96.6922509,3.68698527 C96.9337472,3.62232495 97.2070891,3.5899948 97.5122767,3.5899948 C98.2911686,3.5899948 98.8816403,3.80957046 99.281038,4.24737471 C99.6817626,4.68517895 99.880798,5.3910541 99.880798,6.36365306 L99.880798,9.87416955 C99.880798,10.2055537 99.8914132,10.5288553 99.9126437,10.8440743 C99.9338741,11.1592934 99.9551045,11.3707865 99.976335,11.4772066 L98.7608921,11.4772066 L98.7131236,10.6271928 L98.681278,10.6271928 C98.6388171,10.7241833 98.5764527,10.8332976 98.4915309,10.9558828 C98.407936,11.078468 98.3017838,11.1916235 98.1757281,11.2926553 C98.0496723,11.393687 97.8970785,11.482595 97.7179466,11.558032 C97.5388148,11.632122 97.3291642,11.6698405 97.086341,11.6698405 C96.8023838,11.6698405 96.5370033,11.6159569 96.2888725,11.5095368 C96.0420686,11.4031167 95.8257834,11.2522426 95.641344,11.0609558 C95.4569045,10.868322 95.3149259,10.6406637 95.2154082,10.3793283 C95.1158905,10.1179928 95.0654682,9.83106267 95.0654682,9.52123198 Z M97.3543753,10.5638796 C97.5335072,10.5638796 97.6914086,10.5369378 97.8280796,10.4830542 C97.9660774,10.4305177 98.0841718,10.3658574 98.1836895,10.2904204 C98.2845341,10.2163304 98.368129,10.1328108 98.4371279,10.0425558 C98.5047999,9.95230077 98.5658374,9.87416955 98.6175867,9.80950923 L98.6175867,8.11082877 L98.2075737,8.12699385 C97.5971985,8.14854729 97.1341095,8.25496739 96.8183066,8.44760126 C96.5025038,8.64023513 96.3446024,8.95006582 96.3446024,9.37709335 C96.3446024,9.7731378 96.4335049,10.0694976 96.6126367,10.2675198 C96.7917686,10.464195 97.0385725,10.5638796 97.3543753,10.5638796 Z M105.786842,11.4772066 L105.786842,6.52395677 C105.786842,5.89351866 105.697939,5.43954934 105.518807,5.16070171 C105.339676,4.88320118 105.050411,4.74445091 104.649686,4.74445091 C104.440036,4.74445091 104.252942,4.77139271 104.089733,4.82527631 C103.926524,4.87781282 103.781892,4.94516731 103.654509,5.02464562 C103.528453,5.10547102 103.41832,5.19303187 103.32411,5.29002235 C103.228573,5.38566574 103.150286,5.47053241 103.086595,5.54596945 L103.086595,11.4772066 L101.807461,11.4772066 L101.807461,3.78262866 L102.976462,3.78262866 L102.976462,4.64880752 L103.008308,4.64880752 C103.060057,4.56259376 103.139671,4.45886783 103.244496,4.33628264 C103.349322,4.21235037 103.482012,4.09515354 103.639913,3.98334507 C103.797815,3.87018951 103.980927,3.7772403 104.191905,3.70315035 C104.402882,3.62771331 104.639071,3.5899948 104.903125,3.5899948 C105.765611,3.5899948 106.375987,3.93215565 106.73425,4.61647736 C106.80723,4.50871016 106.908074,4.39420751 107.03413,4.27162232 C107.160186,4.14903714 107.307472,4.03588158 107.475989,3.93484983 C107.644505,3.83381808 107.834253,3.7502985 108.04523,3.68698527 C108.254881,3.62232495 108.487089,3.5899948 108.7392,3.5899948 C110.27708,3.5899948 111.045357,4.49928053 111.045357,6.31515782 L111.045357,11.4772066 L109.766223,11.4772066 L109.766223,6.52395677 C109.766223,5.89351866 109.65609,5.43954934 109.434497,5.16070171 C109.212904,4.88320118 108.886486,4.74445091 108.455243,4.74445091 C108.096979,4.74445091 107.799753,4.83201176 107.563564,5.00848054 C107.326049,5.18494933 107.138956,5.35333558 107.002285,5.51363929 C107.023515,5.63083611 107.039438,5.75746257 107.050053,5.89082448 C107.060668,6.02418639 107.065976,6.16563084 107.065976,6.31515782 L107.065976,11.4772066 L105.786842,11.4772066 Z M116.192412,4.8400943 L114.535111,4.8400943 L114.535111,9.10498117 C114.535111,9.64920552 114.602783,10.0210024 114.739454,10.2190246 C114.876125,10.4170468 115.108333,10.5153844 115.434751,10.5153844 C115.624498,10.5153844 115.787707,10.4884426 115.924378,10.4359061 C116.061049,10.3820225 116.160567,10.3335272 116.224258,10.2904204 L116.398082,11.333068 C116.345006,11.3761749 116.21895,11.4421823 116.018588,11.5337844 C115.818226,11.6240394 115.550192,11.6698405 115.213158,11.6698405 C114.560322,11.6698405 114.070695,11.4852892 113.745604,11.1161865 C113.419186,10.7484309 113.255977,10.135505 113.255977,9.28144996 L113.255977,4.8400943 L112.339087,4.8400943 L112.339087,3.97526253 L113.255977,3.78262866 L113.397955,1.63402015 L114.535111,1.63402015 L114.535111,3.78262866 L116.350314,3.78262866 L116.192412,4.8400943 Z M56.7431924,21.0051741 L55.194697,21.0051741 L55.194697,27.6422864 L53.9168897,27.6422864 L53.9168897,21.0051741 L53,21.0051741 L53,20.1403423 L53.9168897,19.9638735 L53.9168897,18.4254967 C53.9168897,18.0078988 53.9739466,17.6495729 54.0893871,17.3505189 C54.2061545,17.051465 54.3587483,16.8062946 54.5471685,16.6136607 C54.7369156,16.4210268 54.9585083,16.2822766 55.2106198,16.1960628 C55.4640582,16.1111962 55.7320926,16.0680893 56.0160498,16.0680893 C56.2893917,16.0680893 56.5215997,16.1058078 56.7113467,16.1812448 C56.9010938,16.2553348 57.0271496,16.3146067 57.089514,16.3563665 L56.8214797,17.4313443 C56.7591152,17.3882375 56.6688859,17.3424364 56.5534453,17.2939412 C56.4366779,17.246793 56.2946993,17.2225454 56.1261827,17.2225454 C55.8209951,17.2225454 55.590114,17.3181888 55.4322126,17.5108226 C55.2743112,17.7034565 55.194697,18.0563941 55.194697,18.5696354 L55.194697,19.9477084 L56.9010938,19.9477084 L56.7431924,21.0051741 Z M63.3113606,27.6422864 L62.1423593,27.6422864 L62.1423593,26.7761075 L62.1118406,26.7761075 C62.0799949,26.8407678 62.010996,26.933717 61.9061707,27.0576493 C61.8013454,27.1802345 61.6660013,27.2974313 61.5027923,27.4092398 C61.3395832,27.5223954 61.1432016,27.6207329 60.9109937,27.7069467 C60.6801126,27.7918134 60.4213666,27.8349202 60.1374094,27.8349202 C59.8003761,27.8349202 59.4978423,27.7837308 59.229808,27.6826991 C58.9617737,27.5803202 58.7322195,27.4173224 58.5424724,27.1937054 C58.3527253,26.9687414 58.208093,26.67777 58.1085753,26.319444 C58.0090576,25.9611181 57.9586353,25.5206197 57.9586353,24.9966017 L57.9586353,19.9477084 L59.2377694,19.9477084 L59.2377694,24.9009583 C59.2377694,25.5421731 59.3399409,25.9988366 59.5456108,26.2722959 C59.7512807,26.544408 60.0684105,26.6804641 60.5009808,26.6804641 C60.8698597,26.6804641 61.179028,26.5875149 61.4324664,26.4002694 C61.6845779,26.2130239 61.8849402,26.0284726 62.0322264,25.8466154 L62.0322264,19.9477084 L63.3113606,19.9477084 L63.3113606,27.6422864 Z M60.1692551,17.7357867 C60.1692551,17.980957 60.0949485,18.1789793 59.9476623,18.3285063 C59.8003761,18.4780332 59.6212443,18.5534703 59.4115937,18.5534703 C59.2006161,18.5534703 59.0214843,18.4780332 58.8741981,18.3285063 C58.7269119,18.1789793 58.6526053,17.980957 58.6526053,17.7357867 C58.6526053,17.4892692 58.7269119,17.2925941 58.8741981,17.14172 C59.0214843,16.992193 59.2006161,16.9181031 59.4115937,16.9181031 C59.6212443,16.9181031 59.8003761,16.992193 59.9476623,17.14172 C60.0949485,17.2925941 60.1692551,17.4892692 60.1692551,17.7357867 Z M62.6014677,17.7357867 C62.6014677,17.980957 62.5271611,18.1789793 62.3798749,18.3285063 C62.2325887,18.4780332 62.0534569,18.5534703 61.8424793,18.5534703 C61.6328287,18.5534703 61.4536969,18.4780332 61.3064107,18.3285063 C61.1591245,18.1789793 61.0848179,17.980957 61.0848179,17.7357867 C61.0848179,17.4892692 61.1591245,17.2925941 61.3064107,17.14172 C61.4536969,16.992193 61.6328287,16.9181031 61.8424793,16.9181031 C62.0534569,16.9181031 62.2325887,16.992193 62.3798749,17.14172 C62.5271611,17.2925941 62.6014677,17.4892692 62.6014677,17.7357867 Z M68.6003946,21.0859994 C68.5698758,21.064446 68.5008769,21.0375042 68.3960516,21.0051741 C68.2898994,20.974191 68.1479208,20.9580259 67.9701158,20.9580259 C67.5693912,20.9580259 67.2562422,21.0671402 67.0306688,21.2867159 C66.8037684,21.5049444 66.6432132,21.7433794 66.5490031,21.9993265 L66.5490031,27.6422864 L65.2698689,27.6422864 L65.2698689,19.9477084 L66.4375433,19.9477084 L66.4375433,20.9903561 L66.4693889,20.9903561 C66.522465,20.839482 66.5901371,20.6926492 66.6750588,20.5485105 C66.7586537,20.4043719 66.8648059,20.2763984 66.9908617,20.1645899 C67.1169174,20.0514343 67.2668574,19.9638735 67.4406817,19.8992132 C67.6145059,19.8358999 67.8215027,19.8035698 68.0643259,19.8035698 C68.2434578,19.8035698 68.3880902,19.8197349 68.4982231,19.852065 C68.6096829,19.8830481 68.6959316,19.9099899 68.7596229,19.9315433 L68.6003946,21.0859994 Z M77.2385309,18.280011 C77.1960701,18.2382512 77.1257442,18.1762851 77.0248996,18.0954597 C76.9253819,18.0159814 76.7993262,17.9391973 76.6467324,17.8637602 C76.4928116,17.7896703 76.3150067,17.72501 76.1093368,17.6711264 C75.9036669,17.6185898 75.6754396,17.591648 75.4220012,17.591648 C74.9482969,17.591648 74.5913601,17.7196216 74.3485369,17.9755687 C74.1070407,18.2328629 73.9849656,18.5319168 73.9849656,18.8740777 C73.9849656,19.0869179 74.0141575,19.2849401 74.0725412,19.4667973 C74.129598,19.6486544 74.2198274,19.8278174 74.3405755,20.0042862 C74.4613237,20.180755 74.6112637,20.3558767 74.7903955,20.5323455 C74.9695274,20.7088143 75.1858125,20.8987539 75.437924,21.1021645 L76.3229681,21.8390227 C76.5750796,22.0532101 76.815249,22.2714386 77.0408224,22.4964027 C77.2677228,22.7213667 77.4614506,22.9584545 77.6246596,23.2103603 C77.7878686,23.4609191 77.9179051,23.7330313 78.0121152,24.0266969 C78.1063253,24.3217096 78.1540938,24.6503995 78.1540938,25.0127667 C78.1540938,25.8573922 77.8966747,26.5390197 77.3805095,27.0576493 C76.8643444,27.5749319 76.1119906,27.8349202 75.1221212,27.8349202 C74.7333387,27.8349202 74.388344,27.7972017 74.088464,27.7231118 C73.788584,27.6476747 73.5271842,27.5574197 73.3069184,27.4496525 C73.0853256,27.3432324 72.9008861,27.2341181 72.7535999,27.1209626 C72.6063137,27.0091541 72.4961808,26.9162049 72.4218743,26.8407678 L72.9751927,25.6229985 C73.0375571,25.6863117 73.1330941,25.7725255 73.2591499,25.8789456 C73.3852056,25.9853657 73.5377994,26.0931329 73.7169313,26.199553 C73.8960631,26.3059731 74.0990792,26.3975752 74.3246527,26.4716652 C74.5515531,26.5471022 74.8063184,26.5848207 75.0902755,26.5848207 C75.6276711,26.5848207 76.0403378,26.4474176 76.3309295,26.1753054 C76.6201943,25.9031932 76.7648267,25.5798916 76.7648267,25.2054006 C76.7648267,24.9710069 76.7356348,24.7568196 76.6772511,24.5641858 C76.6201943,24.3715519 76.5352725,24.1883477 76.4251396,24.0118789 C76.3150067,23.8354101 76.174355,23.6616355 76.0071653,23.4905551 C75.8386486,23.3194746 75.6382863,23.1376175 75.4060784,22.9449836 L74.5223612,22.1919603 C74.2171736,21.9360132 73.9491392,21.6921899 73.7169313,21.4618376 C73.4860502,21.2328323 73.2883417,20.9917032 73.1251327,20.7411444 C72.9619237,20.4905857 72.8385217,20.2171264 72.7535999,19.9234608 C72.6700051,19.6297952 72.6275442,19.2903285 72.6275442,18.9064079 C72.6275442,18.5534703 72.6938893,18.2220862 72.8252527,17.9122555 C72.9566161,17.6024248 73.1437093,17.3343539 73.3852056,17.1107369 C73.6280288,16.8857729 73.9199474,16.7093041 74.2622883,16.5813306 C74.6046292,16.453357 74.9907578,16.3886967 75.4220012,16.3886967 C75.7802649,16.3886967 76.0960678,16.423721 76.3694097,16.4937697 C76.6440786,16.5624713 76.8776134,16.6432967 77.0726681,16.7335517 C77.2677228,16.8238068 77.4229704,16.9181031 77.5384109,17.0137464 C77.6538515,17.1107369 77.7440809,17.1794385 77.8064453,17.2225454 L77.2385309,18.280011 Z M79.6853395,27.6422864 L80.9644736,27.6422864 L80.9644736,19.9477084 L79.6853395,19.9477084 L79.6853395,27.6422864 Z M80.332868,18.0887242 C80.0701412,18.0887242 79.8591637,18.0025105 79.7012623,17.8314301 C79.5433609,17.6603496 79.4650736,17.4367327 79.4650736,17.1578851 C79.4650736,16.8911613 79.5433609,16.6715856 79.7012623,16.5005052 C79.8591637,16.3307718 80.0701412,16.2445581 80.332868,16.2445581 C80.5863064,16.2445581 80.7906494,16.3307718 80.9485508,16.5005052 C81.1064522,16.6715856 81.1860664,16.8911613 81.1860664,17.1578851 C81.1860664,17.4367327 81.1064522,17.6603496 80.9485508,17.8314301 C80.7906494,18.0025105 80.5863064,18.0887242 80.332868,18.0887242 Z M87.1385517,21.438937 C87.1067061,21.4066069 87.0576107,21.3581116 86.9886117,21.2947984 C86.9196128,21.2301381 86.8333641,21.1654778 86.7285388,21.1021645 C86.6223866,21.0375042 86.4963308,20.9809264 86.3490446,20.9337783 C86.2017584,20.885283 86.0332418,20.8610354 85.8434947,20.8610354 C85.5701528,20.8610354 85.3153875,20.9122248 85.0778719,21.0132566 C84.8416832,21.1156354 84.6360133,21.2786333 84.462189,21.5022503 C84.2883648,21.7272143 84.1516938,22.0181857 84.0521761,22.3765116 C83.9513315,22.7348376 83.9022361,23.1699476 83.9022361,23.6831889 C83.9022361,24.2489667 83.9460239,24.7244895 84.0362533,25.1097572 C84.1251558,25.4936779 84.2485577,25.8008144 84.4064591,26.0311668 C84.5643605,26.2615192 84.7567614,26.4272112 84.9836618,26.528243 C85.2092352,26.6292747 85.4600198,26.6804641 85.7333618,26.6804641 C86.1234712,26.6804641 86.4206974,26.6104155 86.6250404,26.4716652 C86.8307103,26.3329149 86.9753427,26.2211065 87.0602645,26.1348927 L87.5804103,27.0334017 C87.5286611,27.0967149 87.4517007,27.1748462 87.352183,27.2651012 C87.2513384,27.3567033 87.1226289,27.4442642 86.9647275,27.5304779 C86.806826,27.6153446 86.6144252,27.6880874 86.3888517,27.7460123 C86.1619514,27.8052843 85.9018784,27.8349202 85.607306,27.8349202 C85.185351,27.8349202 84.7912609,27.7648716 84.422382,27.6261213 C84.0548299,27.487371 83.7337195,27.2570186 83.4590506,26.9364112 C83.1857087,26.6158038 82.9707504,26.199553 82.8115221,25.6863117 C82.6549476,25.1730704 82.5753335,24.537244 82.5753335,23.7788323 C82.5753335,23.0419741 82.6695435,22.4169243 82.8592906,21.9036831 C83.0490377,21.3904418 83.2958416,20.9768852 83.6010292,20.660319 C83.9075437,20.3464471 84.2459039,20.1160947 84.6200905,19.971956 C84.994277,19.8278174 85.3697905,19.7550745 85.7492846,19.7550745 C86.0332418,19.7550745 86.2840264,19.7820163 86.4989846,19.8358999 C86.7152698,19.8884365 86.8997092,19.955791 87.052303,20.0352693 C87.2048968,20.1160947 87.3309526,20.2009613 87.4304703,20.2925635 C87.5313149,20.3828185 87.612256,20.4609497 87.6759473,20.5242629 L87.1385517,21.438937 Z M93.1547284,27.6422864 L93.1547284,22.6890365 C93.1547284,22.037045 93.0472493,21.5696048 92.8309641,21.2867159 C92.614679,21.0024799 92.2856071,20.8610354 91.8437486,20.8610354 C91.4655813,20.8610354 91.1497785,20.9580259 90.8963401,21.1493127 C90.6442286,21.3419465 90.4438662,21.5291921 90.2965801,21.7110492 L90.2965801,27.6422864 L89.0174459,27.6422864 L89.0174459,16.3092184 L90.2965801,16.1650798 L90.2965801,20.7330619 L90.3284257,20.7330619 C90.3708866,20.6697486 90.4359048,20.5835349 90.5261342,20.4771148 C90.6150367,20.3693476 90.7384386,20.2629275 90.8963401,20.1565074 C91.0542415,20.0487402 91.2466424,19.955791 91.4735427,19.8749656 C91.6991162,19.7954872 91.9658236,19.7550745 92.2710112,19.7550745 C92.9331356,19.7550745 93.459916,19.9746502 93.8500254,20.4124545 C94.2388079,20.8502587 94.4338626,21.5776873 94.4338626,22.5933931 L94.4338626,27.6422864 L93.1547284,27.6422864 Z M101.207701,22.5448979 C101.207701,22.876282 101.197085,23.1618651 101.175855,23.4016471 C101.154625,23.6427762 101.133394,23.8542694 101.113491,24.0361265 L97.2442424,24.0361265 C97.2867033,24.9440652 97.4791042,25.6122218 97.8214451,26.0392493 C98.162459,26.4662768 98.6547399,26.6804641 99.2969608,26.6804641 C99.5185536,26.6804641 99.717589,26.6535223 99.8967208,26.6009858 C100.075853,26.5471022 100.2311,26.4824419 100.362464,26.408352 C100.495154,26.3329149 100.605287,26.258825 100.694189,26.1833879 C100.784419,26.109298 100.849437,26.050026 100.891898,26.0069191 L101.365602,26.9215932 C101.312526,26.9741297 101.234239,27.052261 101.128086,27.1532927 C101.023261,27.2543245 100.881283,27.3567033 100.702151,27.4577351 C100.523019,27.5587668 100.302753,27.6476747 100.038699,27.7231118 C99.7759727,27.7972017 99.4654775,27.8349202 99.1072137,27.8349202 C98.6335095,27.8349202 98.2049199,27.7540948 97.8214451,27.5937911 C97.4366433,27.4334874 97.1102252,27.1856229 96.8421909,26.8488504 C96.5728296,26.5120779 96.3658328,26.0850504 96.2185466,25.5664207 C96.0712604,25.0477911 95.9969539,24.4254355 95.9969539,23.699354 C95.9969539,23.0150323 96.0739142,22.4250069 96.2265081,21.9279307 C96.3791019,21.4308545 96.5860987,21.0213391 96.8501523,20.7007317 C97.112879,20.3801243 97.4180666,20.1430365 97.7657151,19.9881211 C98.1133636,19.8332058 98.4862233,19.7550745 98.8869479,19.7550745 C99.6127636,19.7550745 100.182005,19.9881211 100.592018,20.4528672 C101.002031,20.9176132 101.207701,21.6154058 101.207701,22.5448979 Z M98.8073337,20.8138873 C98.3548599,20.8138873 97.9912886,21.0051741 97.7179466,21.3904418 C97.4446047,21.7757095 97.2867033,22.3307106 97.2442424,23.0581392 L100.008181,23.0581392 C100.018796,23.0042556 100.02543,22.9261244 100.032065,22.8250926 C100.036046,22.7240609 100.038699,22.6135995 100.038699,22.4964027 C100.038699,21.9616079 99.9338741,21.5480513 99.7228966,21.2543857 C99.513246,20.9607201 99.2080583,20.8138873 98.8073337,20.8138873 Z M106.244623,21.0859994 C106.212777,21.064446 106.145105,21.0375042 106.038953,21.0051741 C105.934128,20.974191 105.792149,20.9580259 105.613017,20.9580259 C105.21362,20.9580259 104.900471,21.0671402 104.67357,21.2867159 C104.44667,21.5049444 104.287442,21.7433794 104.191905,21.9993265 L104.191905,27.6422864 L102.912771,27.6422864 L102.912771,19.9477084 L104.081772,19.9477084 L104.081772,20.9903561 L104.113617,20.9903561 C104.165367,20.839482 104.234366,20.6926492 104.31796,20.5485105 C104.402882,20.4043719 104.507708,20.2763984 104.633763,20.1645899 C104.759819,20.0514343 104.909759,19.9638735 105.083583,19.8992132 C105.257408,19.8358999 105.465731,19.8035698 105.708554,19.8035698 C105.886359,19.8035698 106.030992,19.8197349 106.142452,19.852065 C106.252585,19.8830481 106.34016,19.9099899 106.402525,19.9315433 L106.244623,21.0859994 Z M111.645117,27.6422864 L111.645117,22.6890365 C111.645117,22.037045 111.537638,21.5696048 111.321353,21.2867159 C111.105068,21.0024799 110.775996,20.8610354 110.334137,20.8610354 C109.95597,20.8610354 109.640167,20.9580259 109.386729,21.1493127 C109.134617,21.3419465 108.934255,21.5291921 108.786969,21.7110492 L108.786969,27.6422864 L107.507834,27.6422864 L107.507834,16.3092184 L108.786969,16.1650798 L108.786969,20.7330619 L108.818814,20.7330619 C108.861275,20.6697486 108.926293,20.5835349 109.016523,20.4771148 C109.105425,20.3693476 109.228827,20.2629275 109.386729,20.1565074 C109.54463,20.0487402 109.737031,19.955791 109.963931,19.8749656 C110.189505,19.7954872 110.454885,19.7550745 110.7614,19.7550745 C111.423524,19.7550745 111.950305,19.9746502 112.339087,20.4124545 C112.729196,20.8502587 112.924251,21.5776873 112.924251,22.5933931 L112.924251,27.6422864 L111.645117,27.6422864 Z M119.698089,22.5448979 C119.698089,22.876282 119.687474,23.1618651 119.666244,23.4016471 C119.645013,23.6427762 119.623783,23.8542694 119.603879,24.0361265 L115.734631,24.0361265 C115.777092,24.9440652 115.968166,25.6122218 116.310507,26.0392493 C116.652848,26.4662768 117.145129,26.6804641 117.787349,26.6804641 C118.008942,26.6804641 118.207978,26.6535223 118.387109,26.6009858 C118.566241,26.5471022 118.721489,26.4824419 118.852852,26.408352 C118.984216,26.3329149 119.095675,26.258825 119.184578,26.1833879 C119.274807,26.109298 119.339826,26.050026 119.382286,26.0069191 L119.855991,26.9215932 C119.802915,26.9741297 119.724627,27.052261 119.618475,27.1532927 C119.51365,27.2543245 119.371671,27.3567033 119.192539,27.4577351 C119.013407,27.5587668 118.793142,27.6476747 118.529088,27.7231118 C118.266361,27.7972017 117.955866,27.8349202 117.597602,27.8349202 C117.123898,27.8349202 116.695309,27.7540948 116.310507,27.5937911 C115.927032,27.4334874 115.600614,27.1856229 115.332579,26.8488504 C115.063218,26.5120779 114.856221,26.0850504 114.707608,25.5664207 C114.560322,25.0477911 114.487343,24.4254355 114.487343,23.699354 C114.487343,23.0150323 114.562976,22.4250069 114.71557,21.9279307 C114.86949,21.4308545 115.076487,21.0213391 115.339214,20.7007317 C115.603268,20.3801243 115.908455,20.1430365 116.256104,19.9881211 C116.603752,19.8332058 116.976612,19.7550745 117.377337,19.7550745 C118.103152,19.7550745 118.671067,19.9881211 119.082406,20.4528672 C119.492419,20.9176132 119.698089,21.6154058 119.698089,22.5448979 Z M117.297722,20.8138873 C116.845249,20.8138873 116.481677,21.0051741 116.208335,21.3904418 C115.934993,21.7757095 115.777092,22.3307106 115.734631,23.0581392 L118.497242,23.0581392 C118.507858,23.0042556 118.515819,22.9261244 118.521127,22.8250926 C118.526434,22.7240609 118.529088,22.6135995 118.529088,22.4964027 C118.529088,21.9616079 118.424263,21.5480513 118.213285,21.2543857 C118.003635,20.9607201 117.698447,20.8138873 117.297722,20.8138873 Z M121.403159,27.6422864 L122.682293,27.6422864 L122.682293,19.9477084 L121.403159,19.9477084 L121.403159,27.6422864 Z M122.050688,18.0887242 C121.787961,18.0887242 121.576983,18.0025105 121.419082,17.8314301 C121.261181,17.6603496 121.181566,17.4367327 121.181566,17.1578851 C121.181566,16.8911613 121.261181,16.6715856 121.419082,16.5005052 C121.576983,16.3307718 121.787961,16.2445581 122.050688,16.2445581 C122.302799,16.2445581 122.508469,16.3307718 122.666371,16.5005052 C122.824272,16.6715856 122.903886,16.8911613 122.903886,17.1578851 C122.903886,17.4367327 122.824272,17.6603496 122.666371,17.8314301 C122.508469,18.0025105 122.302799,18.0887242 122.050688,18.0887242 Z M127.877117,21.0051741 L126.219816,21.0051741 L126.219816,25.2700609 C126.219816,25.8142853 126.287488,26.1860821 126.424159,26.3841043 C126.56083,26.5821266 126.793038,26.6804641 127.119456,26.6804641 C127.309203,26.6804641 127.472412,26.6535223 127.609083,26.6009858 C127.745754,26.5471022 127.845272,26.498607 127.908963,26.4555001 L128.082787,27.4981478 C128.029711,27.5412546 127.903655,27.607262 127.703293,27.6988642 C127.502931,27.7891192 127.234896,27.8349202 126.897863,27.8349202 C126.245027,27.8349202 125.7554,27.6503689 125.430309,27.2812663 C125.103891,26.9135107 124.940682,26.3005848 124.940682,25.4465297 L124.940682,21.0051741 L124.025119,21.0051741 L124.025119,20.1403423 L124.940682,19.9477084 L125.08266,17.7990999 L126.219816,17.7990999 L126.219816,19.9477084 L128.035019,19.9477084 L127.877117,21.0051741 Z M132.677851,27.6422864 L133.956985,27.6422864 L133.956985,19.9477084 L132.677851,19.9477084 L132.677851,27.6422864 Z M133.32538,18.0887242 C133.061326,18.0887242 132.851675,18.0025105 132.693774,17.8314301 C132.535873,17.6603496 132.456258,17.4367327 132.456258,17.1578851 C132.456258,16.8911613 132.535873,16.6715856 132.693774,16.5005052 C132.851675,16.3307718 133.061326,16.2445581 133.32538,16.2445581 C133.577491,16.2445581 133.783161,16.3307718 133.941062,16.5005052 C134.098964,16.6715856 134.177251,16.8911613 134.177251,17.1578851 C134.177251,17.4367327 134.098964,17.6603496 133.941062,17.8314301 C133.783161,18.0025105 133.577491,18.0887242 133.32538,18.0887242 Z M140.051449,27.6422864 L140.051449,22.6890365 C140.051449,22.037045 139.94397,21.5696048 139.727685,21.2867159 C139.5114,21.0024799 139.182328,20.8610354 138.740469,20.8610354 C138.362302,20.8610354 138.046499,20.9580259 137.793061,21.1493127 C137.540949,21.3419465 137.340587,21.5291921 137.193301,21.7110492 L137.193301,27.6422864 L135.914167,27.6422864 L135.914167,19.9477084 L137.083168,19.9477084 L137.083168,20.8138873 L137.115014,20.8138873 C137.145532,20.749227 137.214531,20.6562777 137.319357,20.5323455 C137.425509,20.4097603 137.56218,20.2925635 137.730696,20.180755 C137.899213,20.0675994 138.098248,19.9692619 138.330456,19.8830481 C138.561338,19.7981814 138.825391,19.7550745 139.119964,19.7550745 C139.456997,19.7550745 139.762184,19.806264 140.035526,19.9072957 C140.308868,20.0096746 140.541076,20.1726724 140.730823,20.3962894 C140.92057,20.6212534 141.067857,20.9122248 141.172682,21.2705508 C141.277507,21.6288767 141.330583,22.0693751 141.330583,22.5933931 L141.330583,27.6422864 L140.051449,27.6422864 Z M146.24145,23.9068059 C146.24145,23.1268408 146.340968,22.4748492 146.54133,21.9508312 C146.741692,21.4281603 146.999112,21.0051741 147.314914,20.6845666 C147.630717,20.3639592 147.988981,20.1376481 148.388379,20.0042862 C148.789103,19.8695772 149.188501,19.8035698 149.589226,19.8035698 C149.830722,19.8035698 150.041699,19.822429 150.220831,19.8601476 C150.399963,19.896519 150.545922,19.9423201 150.66269,19.9962037 L150.66269,16.3092184 L151.941824,16.1650798 L151.941824,27.6422864 L150.772823,27.6422864 L150.772823,26.8246028 L150.740977,26.8246028 C150.709131,26.8892631 150.652075,26.9768239 150.567153,27.0886324 C150.483558,27.201788 150.368117,27.3135964 150.220831,27.4254049 C150.073545,27.5385605 149.889106,27.6342038 149.667513,27.7150292 C149.447247,27.7945075 149.188501,27.8349202 148.893929,27.8349202 C148.535665,27.8349202 148.195978,27.7621774 147.876194,27.6180388 C147.555084,27.4739001 147.272454,27.2435477 147.030957,26.9283287 C146.788134,26.6131096 146.59706,26.2076356 146.453755,25.7105593 C146.311776,25.2134831 146.24145,24.612681 146.24145,23.9068059 Z M149.241577,26.6804641 C149.441939,26.6804641 149.619744,26.6535223 149.777646,26.6009858 C149.935547,26.5471022 150.073545,26.4797477 150.188986,26.4002694 C150.304426,26.319444 150.402617,26.2372715 150.480904,26.1510578 C150.560518,26.0661911 150.620229,25.9907541 150.66269,25.9274408 L150.66269,21.1816428 C150.545922,21.1075529 150.411905,21.0428926 150.259311,20.9903561 C150.106718,20.9364725 149.914317,20.9095307 149.683436,20.9095307 C149.388863,20.9095307 149.112867,20.9607201 148.854121,21.0617518 C148.596702,21.1627836 148.372456,21.3311698 148.184036,21.5669106 C147.994289,21.8013042 147.844349,22.1070937 147.732889,22.4802376 C147.622756,22.8547286 147.567026,23.3140863 147.567026,23.8596577 C147.567026,24.3931053 147.612141,24.8403392 147.70237,25.1973181 C147.791272,25.555644 147.914674,25.8439213 148.072576,26.0634969 C148.230477,26.2817255 148.409609,26.439335 148.609971,26.5363255 C148.810334,26.6319689 149.019984,26.6804641 149.241577,26.6804641 Z M158.762104,22.5448979 C158.762104,22.876282 158.752815,23.1618651 158.731585,23.4016471 C158.710354,23.6427762 158.689124,23.8542694 158.667894,24.0361265 L154.799972,24.0361265 C154.841106,24.9440652 155.033507,25.6122218 155.375848,26.0392493 C155.718189,26.4662768 156.21047,26.6804641 156.852691,26.6804641 C157.072957,26.6804641 157.273319,26.6535223 157.452451,26.6009858 C157.631583,26.5471022 157.78683,26.4824419 157.918194,26.408352 C158.049557,26.3329149 158.15969,26.258825 158.249919,26.1833879 C158.338822,26.109298 158.405167,26.050026 158.447628,26.0069191 L158.920005,26.9215932 C158.868256,26.9741297 158.788642,27.052261 158.683816,27.1532927 C158.578991,27.2543245 158.437013,27.3567033 158.257881,27.4577351 C158.078749,27.5587668 157.857156,27.6476747 157.594429,27.7231118 C157.331703,27.7972017 157.01988,27.8349202 156.662944,27.8349202 C156.189239,27.8349202 155.759323,27.7540948 155.375848,27.5937911 C154.991046,27.4334874 154.664628,27.1856229 154.396594,26.8488504 C154.12856,26.5120779 153.920236,26.0850504 153.77295,25.5664207 C153.625663,25.0477911 153.551357,24.4254355 153.551357,23.699354 C153.551357,23.0150323 153.628317,22.4250069 153.780911,21.9279307 C153.933505,21.4308545 154.141829,21.0213391 154.404555,20.7007317 C154.667282,20.3801243 154.97247,20.1430365 155.320118,19.9881211 C155.667767,19.8332058 156.041953,19.7550745 156.441351,19.7550745 C157.168494,19.7550745 157.736408,19.9881211 158.146421,20.4528672 C158.557761,20.9176132 158.762104,21.6154058 158.762104,22.5448979 Z M156.363064,20.8138873 C155.91059,20.8138873 155.547019,21.0051741 155.273677,21.3904418 C154.999008,21.7757095 154.841106,22.3307106 154.799972,23.0581392 L157.562584,23.0581392 C157.573199,23.0042556 157.58116,22.9261244 157.586468,22.8250926 C157.591776,22.7240609 157.594429,22.6135995 157.594429,22.4964027 C157.594429,21.9616079 157.489604,21.5480513 157.278626,21.2543857 C157.067649,20.9607201 156.762461,20.8138873 156.363064,20.8138873 Z M163.800353,21.0859994 C163.768507,21.064446 163.699508,21.0375042 163.594683,21.0051741 C163.489858,20.974191 163.346552,20.9580259 163.168747,20.9580259 C162.768023,20.9580259 162.454874,21.0671402 162.2293,21.2867159 C162.0024,21.5049444 161.841845,21.7433794 161.747635,21.9993265 L161.747635,27.6422864 L160.4685,27.6422864 L160.4685,19.9477084 L161.636175,19.9477084 L161.636175,20.9903561 L161.66802,20.9903561 C161.721097,20.839482 161.788769,20.6926492 161.87369,20.5485105 C161.957285,20.4043719 162.063437,20.2763984 162.189493,20.1645899 C162.315549,20.0514343 162.465489,19.9638735 162.639313,19.8992132 C162.813137,19.8358999 163.020134,19.8035698 163.262957,19.8035698 C163.442089,19.8035698 163.586722,19.8197349 163.696855,19.852065 C163.808314,19.8830481 163.894563,19.9099899 163.958254,19.9315433 L163.800353,21.0859994 Z M54.3746712,33.7082326 L53.2215927,33.7082326 L53.2215927,32.7464103 L56.9010938,32.7464103 L56.9010938,33.7082326 L55.7480154,33.7082326 L55.7480154,42.7970486 L56.9316126,42.7970486 L56.9316126,43.8073661 L53.1897471,43.8073661 L53.1897471,42.7970486 L54.3746712,42.7970486 L54.3746712,33.7082326 Z M62.5855448,43.8073661 L62.5855448,38.8541163 C62.5855448,38.2021247 62.4767388,37.7346845 62.2617806,37.4517956 C62.0454955,37.1675596 61.7164236,37.0261152 61.274565,37.0261152 C60.8950708,37.0261152 60.579268,37.1231057 60.3271565,37.3157395 C60.0737181,37.5070263 59.8746827,37.6942718 59.7273965,37.876129 L59.7273965,43.8073661 L58.4482623,43.8073661 L58.4482623,36.1127882 L59.6159367,36.1127882 L59.6159367,36.978967 L59.6477823,36.978967 C59.679628,36.9143067 59.7486269,36.8213575 59.8534523,36.6974252 C59.9582776,36.57484 60.0949485,36.4576432 60.2634652,36.3444876 C60.4319818,36.2326792 60.6323441,36.1343416 60.8632252,36.0481279 C61.0954331,35.9632612 61.3581599,35.9201543 61.6527323,35.9201543 C61.9897655,35.9201543 62.2949532,35.9713437 62.569622,36.0723755 C62.842964,36.1747543 63.073845,36.3377522 63.2635921,36.5613691 C63.4533392,36.7863332 63.6006254,37.0773046 63.7067776,37.4356305 C63.8116029,37.7926094 63.8633521,38.2344549 63.8633521,38.7571258 L63.8633521,43.8073661 L62.5855448,43.8073661 Z M68.9639659,37.1702538 L67.4167974,37.1702538 L67.4167974,43.8073661 L66.1376633,43.8073661 L66.1376633,37.1702538 L65.2221004,37.1702538 L65.2221004,36.305422 L66.1376633,36.1289532 L66.1376633,34.5905765 C66.1376633,34.1729786 66.196047,33.8146527 66.3114875,33.5155987 C66.426928,33.2165447 66.5795219,32.9713743 66.7692689,32.7787405 C66.959016,32.5861066 67.1792819,32.4473563 67.4327203,32.3611426 C67.6848318,32.2762759 67.954193,32.233169 68.2381502,32.233169 C68.5114921,32.233169 68.7437001,32.2708875 68.9321203,32.3463246 C69.1218674,32.4204145 69.2479231,32.4796865 69.3116144,32.5214463 L69.0435801,33.5964241 C68.9798888,33.5533172 68.8909863,33.5075161 68.7742189,33.460368 C68.6587783,33.4118728 68.5167997,33.3876251 68.3482831,33.3876251 C68.0430955,33.3876251 67.8108875,33.4832685 67.654313,33.6759024 C67.4950847,33.8685363 67.4167974,34.2214738 67.4167974,34.7347151 L67.4167974,36.1127882 L69.1218674,36.1127882 L68.9639659,37.1702538 Z M69.7375502,39.9600772 C69.7375502,39.254202 69.8198182,38.6453173 69.9830272,38.132076 C70.1462362,37.6201819 70.3665021,37.1998898 70.6464785,36.873894 C70.9251281,36.5478982 71.2462385,36.3081162 71.6084829,36.1532009 C71.9720543,35.9982855 72.3595099,35.9201543 72.7695228,35.9201543 C73.1901509,35.9201543 73.5802603,35.9982855 73.938524,36.1532009 C74.2954608,36.3081162 74.6059561,36.5478982 74.8700097,36.873894 C75.1327364,37.1998898 75.3410601,37.6201819 75.4936539,38.132076 C75.6462478,38.6453173 75.7218812,39.254202 75.7218812,39.9600772 C75.7218812,40.6753819 75.6435939,41.2910021 75.4856925,41.8042433 C75.3277911,42.3161375 75.1088522,42.7364296 74.8302026,43.0624254 C74.5515531,43.3884211 74.2277888,43.625509 73.8589099,43.775036 C73.4900309,43.924563 73.1012484,44 72.6912355,44 C72.2692805,44 71.880498,43.924563 71.5222343,43.775036 C71.1639706,43.625509 70.8534753,43.3884211 70.5907486,43.0624254 C70.3280219,42.7364296 70.1196982,42.3188317 69.9671044,41.8109788 C69.8145105,41.304473 69.7375502,40.6861587 69.7375502,39.9600772 Z M74.3963054,39.9600772 C74.3963054,38.9335946 74.2490192,38.1886538 73.9544469,37.7239078 C73.6598745,37.2591617 73.2485346,37.0261152 72.7217543,37.0261152 C72.1963008,37.0261152 71.7876148,37.2591617 71.49835,37.7239078 C71.2090852,38.1886538 71.0644529,38.9335946 71.0644529,39.9600772 C71.0644529,40.9865597 71.2117391,41.7234179 71.5063114,42.1719989 C71.8008838,42.6205799 72.2122237,42.8455439 72.7376771,42.8455439 C73.2644575,42.8455439 73.6718166,42.6205799 73.9624083,42.1719989 C74.2516731,41.7234179 74.3963054,40.9865597 74.3963054,39.9600772 Z M80.6645936,37.2510792 C80.632748,37.2295258 80.5650759,37.202584 80.4589237,37.1702538 C80.3540984,37.1392707 80.2121198,37.1231057 80.032988,37.1231057 C79.6335903,37.1231057 79.3204412,37.2322199 79.0935409,37.4517956 C78.8666405,37.6700242 78.7074122,37.9084591 78.6118752,38.1644062 L78.6118752,43.8073661 L77.332741,43.8073661 L77.332741,36.1127882 L78.5017423,36.1127882 L78.5017423,37.1554358 L78.5335879,37.1554358 C78.5853371,37.0045617 78.6543361,36.8577289 78.737931,36.7135903 C78.8228527,36.5694517 78.927678,36.4414781 79.0537338,36.3296697 C79.1797895,36.2165141 79.3297295,36.1289532 79.5035538,36.0642929 C79.677378,36.0009797 79.8857018,35.9686495 80.1285249,35.9686495 C80.3063299,35.9686495 80.4509623,35.9848146 80.5624221,36.0171448 C80.672555,36.0481279 80.7601306,36.0750697 80.822495,36.0966231 L80.6645936,37.2510792 Z M85.907186,43.8073661 L85.907186,38.8541163 C85.907186,38.2236782 85.8169567,37.7697088 85.6391517,37.4908612 C85.4600198,37.2133607 85.1707551,37.0746104 84.7700305,37.0746104 C84.5590529,37.0746104 84.3732866,37.1015522 84.2100775,37.1554358 C84.0468685,37.2079723 83.9022361,37.2753268 83.7748535,37.3548051 C83.6487977,37.4356305 83.5386648,37.5231914 83.4444547,37.6201819 C83.3489177,37.7158252 83.2706305,37.802039 83.2069391,37.876129 L83.2069391,43.8073661 L81.927805,43.8073661 L81.927805,36.1127882 L83.0968062,36.1127882 L83.0968062,36.978967 L83.127325,36.978967 C83.1804011,36.8927533 83.2600152,36.7890273 83.3648405,36.6664422 C83.4696659,36.5425099 83.6010292,36.425313 83.7602575,36.3135046 C83.916832,36.200349 84.1012715,36.1073998 84.312249,36.0333099 C84.5232266,35.9578728 84.7594152,35.9201543 85.022142,35.9201543 C85.8859556,35.9201543 86.4963308,36.2623152 86.8545945,36.9466369 C86.9275742,36.8388697 87.0284188,36.724367 87.1544745,36.6017818 C87.2805303,36.4791966 87.4278165,36.3660411 87.5963331,36.2650093 C87.7648498,36.1639776 87.9545969,36.080458 88.1655744,36.0171448 C88.375225,35.9524845 88.607433,35.9201543 88.8595445,35.9201543 C90.3974247,35.9201543 91.1657013,36.8280929 91.1657013,38.6453173 L91.1657013,43.8073661 L89.8865671,43.8073661 L89.8865671,38.8541163 C89.8865671,38.2236782 89.7751073,37.7697088 89.5548415,37.4908612 C89.3332487,37.2133607 89.0068307,37.0746104 88.5755873,37.0746104 C88.2173236,37.0746104 87.9200974,37.1635184 87.6839087,37.3386401 C87.4463931,37.5151088 87.2592999,37.6834951 87.1226289,37.8437988 C87.1438593,37.9609956 87.1597822,38.0876221 87.1703974,38.220984 C87.1810126,38.3543459 87.1863202,38.4957903 87.1863202,38.6453173 L87.1863202,43.8073661 L85.907186,43.8073661 Z M92.6332556,41.8513915 C92.6332556,41.4028105 92.7181774,41.0283195 92.8866941,40.7292655 C93.0552107,40.4302116 93.2807841,40.1877354 93.5647413,40.0004899 C93.8500254,39.8132443 94.183078,39.6798824 94.5678797,39.599057 C94.9526815,39.5195787 95.3600406,39.479166 95.791284,39.479166 L96.186701,39.479166 L96.186701,38.7423078 C96.186701,38.0903163 96.0739142,37.6417353 95.8470139,37.3952178 C95.6201135,37.1487004 95.3016569,37.0261152 94.891644,37.0261152 C94.5121498,37.0261152 94.196347,37.1096348 93.9442355,37.2753268 C93.692124,37.4410189 93.4917617,37.5878517 93.3444755,37.7158252 L92.8070799,36.8496464 C92.8920017,36.7647797 92.9994808,36.6691363 93.1308441,36.5613691 C93.2622075,36.454949 93.4227627,36.3525702 93.6125098,36.2569268 C93.8022569,36.1612834 94.0172151,36.080458 94.2600383,36.0171448 C94.5028615,35.9524845 94.7762034,35.9201543 95.0813911,35.9201543 C95.8602829,35.9201543 96.4494277,36.13973 96.8501523,36.5775342 C97.24955,37.0153385 97.4499123,37.7212136 97.4499123,38.6938126 L97.4499123,42.2043291 C97.4499123,42.5357132 97.4605275,42.8590148 97.481758,43.1742338 C97.5016615,43.4894529 97.522892,43.700946 97.5441224,43.8073661 L96.3286796,43.8073661 L96.2809111,42.9573524 L96.2490654,42.9573524 C96.2079314,43.0543428 96.1442401,43.1634571 96.0606452,43.2860423 C95.9757235,43.4086275 95.8708981,43.5217831 95.7448424,43.6228148 C95.6174597,43.7238466 95.4648659,43.8127545 95.2857341,43.8881915 C95.1079291,43.9622815 94.8969516,44 94.6554553,44 C94.3701712,44 94.1047907,43.9461164 93.8579868,43.8396963 C93.609856,43.7319291 93.3935709,43.5824021 93.2104583,43.3911153 C93.0260188,43.1984815 92.8840402,42.9708233 92.7831956,42.7094878 C92.6836779,42.4481523 92.6332556,42.1612222 92.6332556,41.8513915 Z M94.9234896,42.8940391 C95.1026215,42.8940391 95.2605229,42.8670973 95.3971939,42.8132137 C95.5338649,42.7593301 95.6519592,42.6960169 95.7528038,42.6205799 C95.8523215,42.5464899 95.9359164,42.4629703 96.0049153,42.3727153 C96.0739142,42.2824603 96.1336249,42.2043291 96.186701,42.1396687 L96.186701,40.4409883 L95.7753611,40.4571534 C95.1649859,40.4787068 94.7018969,40.5851269 94.3860941,40.7777608 C94.0702912,40.9703946 93.9123898,41.2802253 93.9123898,41.7072529 C93.9123898,42.1032973 94.0026192,42.3996571 94.1804241,42.5976793 C94.359556,42.7943545 94.6076868,42.8940391 94.9234896,42.8940391 Z M102.612891,37.1702538 L100.955589,37.1702538 L100.955589,41.4351407 C100.955589,41.979365 101.023261,42.3511619 101.159932,42.5491841 C101.296603,42.7472063 101.528811,42.8455439 101.855229,42.8455439 C102.044976,42.8455439 102.208185,42.8186021 102.344856,42.7660656 C102.481527,42.712182 102.581045,42.6636867 102.644736,42.6205799 L102.81856,43.6632275 C102.765484,43.7063344 102.639429,43.7723418 102.439066,43.8639439 C102.238704,43.9541989 101.97067,44 101.633636,44 C100.9808,44 100.4925,43.8154487 100.166082,43.446346 C99.839664,43.0785905 99.676455,42.4656645 99.676455,41.6116095 L99.676455,37.1702538 L98.7608921,37.1702538 L98.7608921,36.305422 L99.676455,36.1127882 L99.8184336,33.9641797 L100.955589,33.9641797 L100.955589,36.1127882 L102.770792,36.1127882 L102.612891,37.1702538 Z M104.065849,43.8073661 L105.344983,43.8073661 L105.344983,36.1127882 L104.065849,36.1127882 L104.065849,43.8073661 Z M104.713377,34.253804 C104.449324,34.253804 104.239673,34.1675902 104.081772,33.9965098 C103.92387,33.8254294 103.844256,33.6018124 103.844256,33.3229648 C103.844256,33.056241 103.92387,32.8366653 104.081772,32.6655849 C104.239673,32.4958516 104.449324,32.4096378 104.713377,32.4096378 C104.965489,32.4096378 105.171159,32.4958516 105.32906,32.6655849 C105.486962,32.8366653 105.565249,33.056241 105.565249,33.3229648 C105.565249,33.6018124 105.486962,33.8254294 105.32906,33.9965098 C105.171159,34.1675902 104.965489,34.253804 104.713377,34.253804 Z M106.955843,39.9600772 C106.955843,39.254202 107.036784,38.6453173 107.199993,38.132076 C107.363202,37.6201819 107.584795,37.1998898 107.863444,36.873894 C108.142094,36.5478982 108.463204,36.3081162 108.826776,36.1532009 C109.190347,35.9982855 109.576476,35.9201543 109.986489,35.9201543 C110.408444,35.9201543 110.797226,35.9982855 111.15549,36.1532009 C111.513754,36.3081162 111.824249,36.5478982 112.086976,36.873894 C112.349702,37.1998898 112.558026,37.6201819 112.71062,38.132076 C112.863214,38.6453173 112.940174,39.254202 112.940174,39.9600772 C112.940174,40.6753819 112.86056,41.2910021 112.702658,41.8042433 C112.544757,42.3161375 112.327145,42.7364296 112.047169,43.0624254 C111.768519,43.3884211 111.444755,43.625509 111.077203,43.775036 C110.708324,43.924563 110.318214,44 109.908201,44 C109.487573,44 109.097464,43.924563 108.7392,43.775036 C108.382263,43.625509 108.071768,43.3884211 107.807714,43.0624254 C107.544988,42.7364296 107.336664,42.3188317 107.18407,41.8109788 C107.031476,41.304473 106.955843,40.6861587 106.955843,39.9600772 Z M111.613271,39.9600772 C111.613271,38.9335946 111.465985,38.1886538 111.171413,37.7239078 C110.87684,37.2591617 110.465501,37.0261152 109.940047,37.0261152 C109.413267,37.0261152 109.005908,37.2591617 108.716643,37.7239078 C108.426051,38.1886538 108.281419,38.9335946 108.281419,39.9600772 C108.281419,40.9865597 108.428705,41.7234179 108.723277,42.1719989 C109.01785,42.6205799 109.42919,42.8455439 109.95597,42.8455439 C110.481423,42.8455439 110.890109,42.6205799 111.179374,42.1719989 C111.468639,41.7234179 111.613271,40.9865597 111.613271,39.9600772 Z M118.686989,43.8073661 L118.686989,38.8541163 C118.686989,38.2021247 118.57951,37.7346845 118.363225,37.4517956 C118.148267,37.1675596 117.819195,37.0261152 117.377337,37.0261152 C116.997842,37.0261152 116.68204,37.1231057 116.429928,37.3157395 C116.17649,37.5070263 115.977454,37.6942718 115.828841,37.876129 L115.828841,43.8073661 L114.549707,43.8073661 L114.549707,36.1127882 L115.718708,36.1127882 L115.718708,36.978967 L115.750554,36.978967 C115.7824,36.9143067 115.850072,36.8213575 115.956224,36.6974252 C116.061049,36.57484 116.19772,36.4576432 116.366237,36.3444876 C116.534753,36.2326792 116.735116,36.1343416 116.965997,36.0481279 C117.198205,35.9632612 117.460931,35.9201543 117.755504,35.9201543 C118.092537,35.9201543 118.397725,35.9713437 118.671067,36.0723755 C118.945735,36.1747543 119.176617,36.3377522 119.366364,36.5613691 C119.556111,36.7863332 119.703397,37.0773046 119.808222,37.4356305 C119.913047,37.7926094 119.966124,38.2344549 119.966124,38.7571258 L119.966124,43.8073661 L118.686989,43.8073661 Z M125.145025,37.66733 C125.06143,37.5716866 124.908836,37.4410189 124.687243,37.2753268 C124.466977,37.1096348 124.177713,37.0261152 123.819449,37.0261152 C123.482416,37.0261152 123.224997,37.1069406 123.045865,37.2672443 C122.866733,37.427548 122.776503,37.6201819 122.776503,37.8437988 C122.776503,38.132076 122.858771,38.370511 123.02198,38.5577565 C123.185189,38.745002 123.434647,38.9443713 123.77168,39.1585586 L124.245385,39.4468359 C124.76155,39.7566666 125.166255,40.0907449 125.460828,40.4490708 C125.7554,40.8073967 125.904013,41.2694486 125.904013,41.8352264 C125.904013,42.4441111 125.695689,42.9573524 125.280369,43.3749502 C124.863721,43.7912011 124.266615,44 123.487723,44 C123.182536,44 122.913174,43.9676698 122.682293,43.9030095 C122.450085,43.8396963 122.248396,43.7642593 122.074572,43.6793926 C121.900748,43.5931788 121.756115,43.5002296 121.640675,43.3991979 C121.523907,43.296819 121.429697,43.2038698 121.355391,43.1176561 L121.971074,42.0925206 C122.034765,42.1558338 122.111725,42.2312709 122.200628,42.3161375 C122.28953,42.4023513 122.398336,42.4845238 122.524392,42.5653492 C122.650448,42.6448275 122.792426,42.712182 122.950328,42.7660656 C123.108229,42.8186021 123.292669,42.8455439 123.503646,42.8455439 C123.881813,42.8455439 124.172405,42.7593301 124.37144,42.5895968 C124.571803,42.4185164 124.67132,42.2097174 124.67132,41.964547 C124.67132,41.7826899 124.648763,41.6250804 124.600995,41.4903714 C124.553226,41.3570095 124.4829,41.2371185 124.387363,41.1306983 C124.293153,41.0229311 124.177713,40.9218994 124.039715,40.826256 C123.903044,40.7292655 123.745142,40.6228454 123.566011,40.5056486 L123.092306,40.1998592 C122.618602,39.8900285 122.248396,39.5640327 121.980362,39.2232189 C121.711001,38.8810581 121.576983,38.4432538 121.576983,37.9084591 C121.576983,37.6201819 121.632713,37.3548051 121.742846,37.1150231 C121.852979,36.873894 122.008227,36.6664422 122.208589,36.4899734 C122.408951,36.3135046 122.642486,36.1747543 122.911848,36.0723755 C123.179882,35.9713437 123.466493,35.9201543 123.77168,35.9201543 C124.066253,35.9201543 124.319691,35.9497903 124.529342,36.0090622 C124.740319,36.0669871 124.922105,36.1424241 125.074699,36.2326792 C125.227293,36.3242813 125.353348,36.4145363 125.452866,36.5047914 C125.553711,36.5963935 125.634652,36.6731776 125.698343,36.7378379 L125.145025,37.66733 Z M130.641056,37.1702538 L128.982427,37.1702538 L128.982427,41.4351407 C128.982427,41.979365 129.051426,42.3511619 129.188097,42.5491841 C129.324768,42.7472063 129.556976,42.8455439 129.882067,42.8455439 C130.071814,42.8455439 130.235023,42.8186021 130.371694,42.7660656 C130.508365,42.712182 130.60921,42.6636867 130.671574,42.6205799 L130.845399,43.6632275 C130.793649,43.7063344 130.666267,43.7723418 130.467231,43.8639439 C130.266869,43.9541989 129.998835,44 129.661801,44 C129.008965,44 128.519338,43.8154487 128.19292,43.446346 C127.866502,43.0785905 127.703293,42.4656645 127.703293,41.6116095 L127.703293,37.1702538 L126.78773,37.1702538 L126.78773,36.305422 L127.703293,36.1127882 L127.845272,33.9641797 L128.982427,33.9641797 L128.982427,36.1127882 L130.798957,36.1127882 L130.641056,37.1702538 Z M136.845652,38.7099777 C136.845652,39.0413618 136.835037,39.3269449 136.813807,39.5667269 C136.793903,39.807856 136.772673,40.0193491 136.751442,40.1998592 L132.882194,40.1998592 C132.924655,41.1091449 133.117056,41.7773015 133.459397,42.2043291 C133.801738,42.6313566 134.294019,42.8455439 134.934913,42.8455439 C135.156505,42.8455439 135.356868,42.8186021 135.535999,42.7660656 C135.715131,42.712182 135.869052,42.6475217 136.001742,42.5734317 C136.133106,42.4979947 136.243239,42.4239047 136.333468,42.3484677 C136.42237,42.2743777 136.488716,42.2151058 136.52985,42.1719989 L137.003554,43.086673 C136.951805,43.1392095 136.87219,43.2173407 136.767365,43.3183725 C136.661213,43.4194042 136.519234,43.5217831 136.341429,43.6228148 C136.162298,43.7238466 135.940705,43.8127545 135.677978,43.8881915 C135.413924,43.9622815 135.103429,44 134.746492,44 C134.272788,44 133.842872,43.9191746 133.459397,43.7588709 C133.074595,43.5985672 132.748177,43.3507026 132.480143,43.0139301 C132.212108,42.6771576 132.003785,42.2501301 131.856498,41.7315005 C131.709212,41.2128708 131.634906,40.5905153 131.634906,39.8644338 C131.634906,39.1801121 131.711866,38.5887396 131.86446,38.0930104 C132.017054,37.5959342 132.225377,37.1864189 132.488104,36.8658115 C132.750831,36.5452041 133.056018,36.3081162 133.403667,36.1532009 C133.751315,35.9982855 134.125502,35.9201543 134.5249,35.9201543 C135.250715,35.9201543 135.819957,36.1532009 136.22997,36.6179469 C136.641309,37.082693 136.845652,37.7804856 136.845652,38.7099777 Z M134.445285,36.978967 C133.992812,36.978967 133.630567,37.1702538 133.355898,37.5555215 C133.082556,37.9407893 132.924655,38.4957903 132.882194,39.2232189 L135.646132,39.2232189 C135.656748,39.1693353 135.664709,39.0912041 135.670017,38.9901724 C135.675324,38.8891406 135.677978,38.7786792 135.677978,38.6614824 C135.677978,38.1266877 135.571826,37.7131311 135.362175,37.4194655 C135.151198,37.1257998 134.84601,36.978967 134.445285,36.978967 Z M142.767619,37.6040168 C142.735773,37.5716866 142.685351,37.5231914 142.617679,37.4598781 C142.54868,37.3952178 142.462431,37.3305575 142.356279,37.2672443 C142.251454,37.202584 142.125398,37.1473533 141.978112,37.098858 C141.830826,37.0503628 141.662309,37.0261152 141.472562,37.0261152 C141.19922,37.0261152 140.943128,37.0773046 140.706939,37.1783363 C140.469424,37.2807152 140.265081,37.4437131 140.091256,37.66733 C139.917432,37.892294 139.780761,38.1832655 139.679916,38.5415914 C139.580399,38.8999173 139.529976,39.3350274 139.529976,39.8482687 C139.529976,40.4140465 139.575091,40.8895692 139.665321,41.274837 C139.754223,41.6587576 139.877625,41.9658941 140.035526,42.1962465 C140.193428,42.4265989 140.385829,42.592291 140.611402,42.6933227 C140.838302,42.7943545 141.08776,42.8455439 141.362429,42.8455439 C141.751212,42.8455439 142.048438,42.7754952 142.254108,42.6367449 C142.459778,42.4979947 142.60441,42.3861862 142.688005,42.2999724 L143.209478,43.1984815 C143.156401,43.2617947 143.080768,43.3399259 142.979923,43.4301809 C142.880406,43.5217831 142.751696,43.6093439 142.593795,43.6955577 C142.435893,43.7804243 142.243492,43.8531672 142.017919,43.9110921 C141.791019,43.970364 141.530946,44 141.235046,44 C140.814418,44 140.420328,43.9299513 140.051449,43.7912011 C139.68257,43.6524508 139.36146,43.4220984 139.088118,43.101491 C138.814776,42.7808836 138.598491,42.3646328 138.440589,41.8513915 C138.282688,41.3381502 138.204401,40.7023237 138.204401,39.9439121 C138.204401,39.2070539 138.298611,38.5820041 138.488358,38.0687628 C138.678105,37.5555215 138.924909,37.1419649 139.230096,36.8267459 C139.535284,36.5101797 139.874971,36.2811744 140.249158,36.1370358 C140.622017,35.9928972 140.998858,35.9201543 141.378352,35.9201543 C141.662309,35.9201543 141.911767,35.9470961 142.128052,36.0009797 C142.344337,36.0535162 142.52745,36.1208707 142.680043,36.200349 C142.832637,36.2811744 142.96002,36.3660411 143.059538,36.4576432 C143.159055,36.5478982 143.241323,36.6260295 143.303688,36.6893427 L142.767619,37.6040168 Z M148.783796,43.8073661 L148.783796,38.8541163 C148.783796,38.2021247 148.67499,37.7346845 148.460031,37.4517956 C148.243746,37.1675596 147.914674,37.0261152 147.472816,37.0261152 C147.093322,37.0261152 146.777519,37.1231057 146.525407,37.3157395 C146.273296,37.5070263 146.072933,37.6942718 145.925647,37.876129 L145.925647,43.8073661 L144.646513,43.8073661 L144.646513,32.4742981 L145.925647,32.3301595 L145.925647,36.8981416 L145.957493,36.8981416 C145.998627,36.8348284 146.064972,36.7486146 146.153875,36.6421945 C146.244104,36.5344273 146.367506,36.4280072 146.525407,36.3215871 C146.683309,36.2138199 146.87571,36.1208707 147.101283,36.0400453 C147.328183,35.960567 147.593564,35.9201543 147.898752,35.9201543 C148.562203,35.9201543 149.088983,36.13973 149.477766,36.5775342 C149.867875,37.0153385 150.06293,37.742767 150.06293,38.7571258 L150.06293,43.8073661 L148.783796,43.8073661 Z M156.109625,43.8073661 L156.109625,38.8541163 C156.109625,38.2021247 156.002146,37.7346845 155.785861,37.4517956 C155.570903,37.1675596 155.241831,37.0261152 154.799972,37.0261152 C154.420478,37.0261152 154.104675,37.1231057 153.852564,37.3157395 C153.599125,37.5070263 153.40009,37.6942718 153.251477,37.876129 L153.251477,43.8073661 L151.97367,43.8073661 L151.97367,36.1127882 L153.141344,36.1127882 L153.141344,36.978967 L153.17319,36.978967 C153.205035,36.9143067 153.272707,36.8213575 153.37886,36.6974252 C153.483685,36.57484 153.620356,36.4576432 153.788872,36.3444876 C153.957389,36.2326792 154.157751,36.1343416 154.388632,36.0481279 C154.62084,35.9632612 154.883567,35.9201543 155.17814,35.9201543 C155.515173,35.9201543 155.82036,35.9713437 156.093702,36.0723755 C156.368371,36.1747543 156.599252,36.3377522 156.788999,36.5613691 C156.978746,36.7863332 157.126033,37.0773046 157.230858,37.4356305 C157.335683,37.7926094 157.388759,38.2344549 157.388759,38.7571258 L157.388759,43.8073661 L156.109625,43.8073661 Z M159.299499,43.8073661 L160.578633,43.8073661 L160.578633,36.1127882 L159.299499,36.1127882 L159.299499,43.8073661 Z M159.947028,34.253804 C159.684301,34.253804 159.473323,34.1675902 159.315422,33.9965098 C159.157521,33.8254294 159.079233,33.6018124 159.079233,33.3229648 C159.079233,33.056241 159.157521,32.8366653 159.315422,32.6655849 C159.473323,32.4958516 159.684301,32.4096378 159.947028,32.4096378 C160.199139,32.4096378 160.404809,32.4958516 160.562711,32.6655849 C160.720612,32.8366653 160.800226,33.056241 160.800226,33.3229648 C160.800226,33.6018124 160.720612,33.8254294 160.562711,33.9965098 C160.404809,34.1675902 160.199139,34.253804 159.947028,34.253804 Z M165.39529,39.6394697 L168,43.8073661 L166.468754,43.8073661 L164.336422,40.2160242 L163.814949,40.2160242 L163.814949,43.8073661 L162.537142,43.8073661 L162.537142,32.4742981 L163.814949,32.3301595 L163.814949,39.1100634 L164.352345,39.1100634 L166.38914,36.1127882 L167.90579,36.1127882 L165.39529,39.6394697 L165.39529,39.6394697 Z" id="Fill-2" fill="#1A1919"></path>
                <polyline id="Fill-3" fill="#F1CC1F" points="42.2857143 54 44 54 44 81 40 81 40 54 42.2857143 54"></polyline>
                <polyline id="Fill-4" fill="#D8232A" points="42.2857143 27 44 27 44 54 40 54 40 27 42.2857143 27"></polyline>
                <path d="M26.9713539,10.579462 C28.3306072,12.7347595 29.3938512,12.6988156 31,12.6988156 C29.6712769,11.6764139 28.7925409,10.3691241 28.3730838,9.70083548 L25.8908538,5.71772861 C25.6492678,4.48765149 25.0134452,3.3374495 24.0643573,2.48145428 C24.3829323,2.36031032 24.6497388,2.2325101 24.8090263,2.11136614 C23.1882761,2.11136614 21.5821273,1.28598972 20.6980817,1.28598972 C20.1299563,1.28598972 19.7635951,1.6267903 19.7635951,2.07675358 C19.8007622,2.57730444 20.3157917,3.08850533 21.2675345,3.08850533 C21.4825726,3.08850533 21.7586709,3.06054903 22.0613171,3.00996144 C22.5763467,3.73016893 22.9918215,4.3811513 22.9918215,5.31036541 C22.9918215,7.05430591 20.9131198,8.41351451 18.8145072,8.41351451 C18.6950415,8.41351451 18.5822129,8.4081895 18.4640747,8.40020198 C18.2729297,7.96754499 17.6410893,7.24068123 17.6410893,6.41663606 C17.6410893,5.03080242 18.542391,3.89923797 18.542391,2.5253856 C18.542391,1.67338414 18.1269162,1.14487697 17.9676287,0.925220345 C18.2264708,0.685594932 18.5078787,0.390056923 18.5729211,0.189037826 C18.4242528,0.252937936 18.2463818,0.262256702 17.9875396,0.262256702 C16.9813736,0.262256702 16.1610431,0 15.3619508,0 C14.9053267,0 14.7818789,0.141112743 14.7818789,0.275569225 C14.7818789,0.32482556 14.7898433,0.375413147 14.8031172,0.399375689 C14.6332106,0.332813074 14.4739231,0.288881748 14.2827781,0.252937936 C14.0478291,0.20900661 13.7929691,0.186375321 13.5235078,0.186375321 C12.5518541,0.186375321 12.2067312,0.595069776 12.2067312,0.943857877 C12.2067312,1.24072714 12.4390254,1.78121557 12.7031772,2.19257253 C13.081485,2.00220345 13.5367817,1.87307198 13.7438554,1.87307198 C14.258885,1.87307198 14.7181639,2.36563533 14.9610773,2.94872383 C14.614627,2.98999266 14.5482573,3.00596768 14.1978248,3.00596768 C13.2513916,3.00596768 12.6076047,2.66649835 12.4748651,2.66649835 C12.4615912,2.66649835 12.4363706,2.67315461 12.4363706,2.69312339 C12.4363706,2.82757988 12.705832,3.17903048 13.2341355,3.37206206 C13.9296908,3.6276625 14.9743513,3.73416269 15.1482401,3.76345024 C15.1482401,3.79406904 14.9716965,4.12421961 14.7739145,4.18678847 C14.7314379,4.20143224 14.6995804,4.2027635 14.6504667,4.19211348 C13.9230539,4.04833823 13.7199623,3.98710062 12.7974223,3.63431877 C12.7682196,3.625 12.7522908,3.64230628 12.7522908,3.67159383 C12.7522908,4.03768821 13.6973966,4.84575835 14.5442751,5.15460889 C13.8367731,6.0611917 12.954055,6.9877433 12.5372527,8.40020198 C12.4191145,8.4081895 12.3049585,8.41351451 12.1868202,8.41351451 C10.0882076,8.41351451 8.00817847,7.05430591 8.00817847,5.31036541 C8.00817847,4.3811513 8.42498073,3.73016893 8.94001028,3.00996144 C9.2426565,3.06054903 9.51742742,3.08850533 9.73379293,3.08850533 C10.6855357,3.08850533 11.2005652,2.57730444 11.2377323,2.07675358 C11.2377323,1.6267903 10.8726985,1.28598972 10.3019183,1.28598972 C9.41920014,1.28598972 7.8130513,2.11136614 6.19097371,2.11136614 C6.35158859,2.2325101 6.61706774,2.36031032 6.93564272,2.48145428 C5.98655477,3.3374495 5.3520596,4.48765149 5.10914618,5.71772861 L2.62824356,9.70083548 C2.2101139,10.3691241 1.32872313,11.6764139 0,12.6988156 C1.60614884,12.6988156 2.67072022,12.7347595 4.02997345,10.579462 L5.30161857,8.53732097 C5.39719106,8.80224018 5.51267449,9.06050312 5.64939625,9.31344106 L3.11805258,13.3750918 C2.69594074,14.0487055 1.82384174,15.3453452 0.489809026,16.373072 C2.09595787,16.373072 3.16052925,16.410347 4.51845508,14.2563808 L6.69803888,10.7578498 C6.86130856,10.9322438 7.03254261,11.1026441 7.21306843,11.2650569 L4.1388199,16.2013404 C3.71670806,16.8762853 2.84859125,18.1689313 1.51057635,19.1966581 C3.11672519,19.1966581 4.18262396,19.2352644 5.5405498,17.0799669 L8.53780937,12.2674899 C8.73559133,12.3926276 8.93735549,12.5137716 9.14575662,12.6282593 L5.48745397,18.4990819 C5.06534213,19.1753581 4.19722531,20.4653415 2.86053781,21.4943996 C4.46668665,21.4943996 5.53125803,21.5330059 6.89051126,19.3790397 L10.6576604,13.3311605 C10.8806628,13.4163606 11.1063201,13.4988983 11.3359596,13.5721172 L7.07900146,20.4054352 C6.66352659,21.0710613 5.77549884,22.3836761 4.45341269,23.4007528 C6.05823414,23.4007528 7.12413291,23.4366967 8.48205875,21.2840617 L13.0190974,14.0021116 C13.0655562,14.0087679 13.1106877,14.0167554 13.1558191,14.0260742 C13.2792669,14.4201249 13.3655477,14.7862192 13.3655477,15.1536449 C13.3655477,17.4420676 11.8682453,19.4629086 10.0709514,21.0231362 C10.1864349,21.0737238 10.3855442,21.0910301 10.5713796,21.0910301 C10.941723,21.0910301 11.1819817,21.0710613 11.3505609,21.0417738 C10.9337587,21.9909567 10.0390939,23.2157088 9.5877794,23.8507161 C8.99841569,23.7442159 8.14357284,23.660347 7.58341184,23.660347 C6.99670292,23.660347 6.93033313,24.0051414 6.93033313,24.3126607 C6.93033313,24.8464928 7.17855614,25.2711623 7.4692558,25.5081252 C7.57810225,25.2352185 7.79712255,24.8704554 8.88027747,24.8704554 C8.9015158,24.8704554 8.93868288,24.8731179 8.98912392,24.8757804 C8.67187634,25.2298935 7.68031172,26.0339699 7.68031172,26.6809585 C7.68031172,27.1096217 8.15020981,27.7526166 8.76744883,27.7526166 C8.73028175,27.6141664 8.73559133,27.4863661 8.73559133,27.3918472 C8.73559133,26.8673338 9.19885244,26.2536265 9.59043419,25.8249633 C9.57848763,25.9527635 9.58379721,25.939451 9.58379721,26.0885512 C9.58379721,27.3279471 9.69662585,27.8977231 10.4811167,27.8977231 C10.8660615,27.8977231 11.1315406,27.686054 11.2231309,27.6221539 C10.713411,27.1522218 10.6868631,26.7821337 10.6868631,26.08722 C10.6881905,25.9061697 10.6881905,25.7291131 10.6908453,25.4854939 C10.6935,25.3257437 10.6908453,25.1154058 10.6642973,24.963643 C10.9457052,24.9250367 11.0598613,24.9250367 11.2748994,24.9250367 C11.2748994,24.9250367 12.3899118,24.8358428 12.6580457,25.4176001 C12.960692,25.1393683 13.4000599,24.7466489 13.4000599,24.3139919 C13.4000599,24.0277727 13.2646656,23.7042784 12.6912306,23.7042784 C12.4735377,23.7042784 11.7899289,23.8374036 11.2178214,23.8374036 C11.3717993,23.4939405 12.0554081,22.4901763 12.648754,21.7633125 C12.7376895,22.045538 12.8783934,22.3503948 13.189004,22.6006702 C13.2328081,22.1320694 13.5062516,20.6503856 14.2363193,19.7837404 C14.3212726,20.3694914 14.4354286,20.9698862 14.4354286,22.2359071 C14.4354286,25.3150936 13.6973966,27.5915351 12.1297422,28.0255233 C12.3341612,28.3809677 12.7642374,28.7017995 13.2128971,28.7017995 C13.7850047,28.7017995 14.0982701,28.0508171 14.4168451,27.4371098 C14.5827695,27.8897356 15.0407211,29 15.5,29 C15.9592789,29 16.4172305,27.8897356 16.5831549,27.4371098 C16.9017299,28.0508171 17.2149953,28.7017995 17.7884302,28.7017995 C18.2357626,28.7017995 18.6671662,28.3809677 18.8715852,28.0255233 C17.3039308,27.5915351 16.5645714,25.3150936 16.5645714,22.2359071 C16.5645714,20.9698862 16.6787274,20.3694914 16.7636807,19.7837404 C17.4937484,20.6503856 17.7685193,22.1320694 17.810996,22.6006702 C18.122934,22.3503948 18.2636379,22.045538 18.3525734,21.7633125 C18.9445919,22.4901763 19.6295281,23.4939405 19.783506,23.8374036 C19.2100711,23.8374036 18.5264623,23.7042784 18.3100968,23.7042784 C17.7366618,23.7042784 17.6012674,24.0277727 17.6012674,24.3139919 C17.6012674,24.7466489 18.0406354,25.1393683 18.3432817,25.4176001 C18.6100882,24.8358428 19.726428,24.9250367 19.726428,24.9250367 C19.9414661,24.9250367 20.0556222,24.9250367 20.3370301,24.963643 C20.3104821,25.1154058 20.3091547,25.3257437 20.3104821,25.4854939 C20.3118095,25.7291131 20.3131369,25.9061697 20.3131369,26.08722 C20.3131369,26.7821337 20.2879164,27.1522218 19.7781965,27.6221539 C19.8697868,27.686054 20.1352659,27.8977231 20.5202107,27.8977231 C21.3047016,27.8977231 21.4175302,27.3279471 21.4175302,26.0885512 C21.4175302,25.939451 21.4215124,25.9527635 21.4108932,25.8249633 C21.802475,26.2536265 22.2657361,26.8673338 22.2657361,27.3918472 C22.2657361,27.4863661 22.2710456,27.6141664 22.2325512,27.7526166 C22.8511176,27.7526166 23.3210157,27.1096217 23.3210157,26.6809585 C23.3210157,26.0339699 22.3294511,25.2298935 22.0108761,24.8757804 C22.0626445,24.8731179 22.0998116,24.8704554 22.1197225,24.8704554 C23.2042048,24.8704554 23.4232251,25.2352185 23.5320716,25.5081252 C23.8214439,25.2711623 24.0709943,24.8464928 24.0709943,24.3126607 C24.0709943,24.0051414 24.0046245,23.660347 23.4179156,23.660347 C22.8577546,23.660347 22.0015843,23.7442159 21.413548,23.8507161 C20.9609061,23.2157088 20.0675687,21.9909567 19.6507665,21.0417738 C19.8180183,21.0710613 20.0596044,21.0910301 20.4286204,21.0910301 C20.6157832,21.0910301 20.8148925,21.0737238 20.930376,21.0231362 C19.1330821,19.4629086 17.6344523,17.4420676 17.6344523,15.1536449 C17.6344523,14.7862192 17.7220605,14.4201249 17.8455083,14.0260742 C17.8893123,14.0167554 17.9357712,14.0087679 17.98223,14.0021116 L22.5192686,21.2840617 C23.8771945,23.4366967 24.9430933,23.4007528 26.5479147,23.4007528 C25.2258286,22.3836761 24.3378008,21.0710613 23.9223259,20.4054352 L19.6640404,13.5721172 C19.8950073,13.4988983 20.1206646,13.4163606 20.343667,13.3311605 L24.1108161,19.3790397 C25.4700694,21.5330059 26.5346407,21.4943996 28.1407896,21.4943996 C26.8041021,20.4653415 25.9359853,19.1753581 25.5138734,18.4990819 L21.8555708,12.6282593 C22.0626445,12.5137716 22.2657361,12.3926276 22.4621906,12.2674899 L25.4607776,17.0799669 C26.8200308,19.2352644 27.8832748,19.1966581 29.4894237,19.1966581 C28.1527361,18.1689313 27.2846193,16.8762853 26.8625075,16.2013404 L23.788259,11.2650569 C23.9687848,11.1026441 24.1413462,10.9322438 24.3019611,10.7578498 L26.4815449,14.2563808 C27.8407982,16.410347 28.9053695,16.373072 30.5115184,16.373072 C29.1761583,15.3453452 28.3053867,14.0487055 27.8832748,13.3750918 L25.3519311,9.31344106 C25.4886529,9.06050312 25.6041363,8.80224018 25.6997088,8.53732097 L26.9713539,10.579462 Z M6.65423482,5.90277268 C6.65423482,4.38514506 7.75464589,3.18568674 8.14091804,2.84754866 C8.23516314,2.87017995 8.32808084,2.89147999 8.42099854,2.91144877 C8.00817847,3.41466214 7.282093,4.26000734 7.282093,5.37825927 C7.282093,7.5987881 9.6475122,9.52644142 12.3261968,9.52644142 C12.3089407,9.7168105 12.2996489,9.91649835 12.2996489,10.1215112 C12.2996489,10.4503305 12.3182324,10.7551873 12.3500899,11.0427378 C9.32097285,11.0241003 6.65423482,8.55862101 6.65423482,5.90277268 Z M10.7585424,24.1049853 L10.7412863,24.1569041 L10.7943821,24.1569041 C11.6439154,24.1569041 12.0580629,24.0969978 12.3328338,24.055729 C12.4761925,24.0384227 12.5797294,24.0224477 12.6912306,24.0224477 C12.9102509,24.0224477 13.0788302,24.0424165 13.0788302,24.3139919 C13.0788302,24.4963735 12.8664469,24.7852552 12.6593731,24.952993 C12.3461077,24.6561238 11.9120493,24.5975487 11.2748994,24.5975487 C10.9775627,24.5975487 10.5873084,24.65213 10.3789073,24.6814176 L10.3457224,24.6854113 L10.3085553,24.6907363 L10.3205018,24.7905802 C10.3457224,24.9676368 10.3762525,25.1872934 10.3762525,25.4841627 L10.3722703,25.7530757 L10.3682881,26.08722 C10.3682881,26.8114212 10.4678428,27.2241094 10.720048,27.5369537 C10.6550056,27.5609163 10.5501413,27.5808851 10.4811167,27.5808851 C10.032457,27.5808851 9.90237218,27.3838597 9.90237218,26.0885512 C9.90237218,25.8276258 9.88777083,25.5840066 9.87980646,25.4215938 L9.8665325,25.1806372 L9.80945448,25.2245685 C9.14310182,25.7344381 8.45683823,26.6450147 8.41568896,27.3252846 C8.21525221,27.1961531 7.9975593,26.9046089 7.9975593,26.6809585 C7.9975593,26.3095391 8.55506551,25.7517444 9.19885244,25.1047558 L9.57052325,24.7333364 L9.6169821,24.6854113 L9.49618909,24.6547925 C9.35681254,24.6188487 9.09929776,24.5536173 8.88027747,24.5536173 C8.15684679,24.5536173 7.70420485,24.6907363 7.42545174,24.9955931 C7.32456967,24.8504866 7.24094374,24.5110173 7.24094374,24.3126607 C7.24094374,24.1835292 7.26616425,24.093004 7.31660529,24.0410852 C7.38032029,23.9798476 7.47854757,23.9798476 7.56482829,23.9798476 L7.58341184,23.9798476 C8.37984928,23.9798476 9.33291941,24.1236228 9.70459022,24.1835292 L9.72582855,24.1888542 L9.7404299,24.1702167 C9.8041449,24.0836853 11.324013,22.0535255 11.7182496,20.9778737 C11.8098399,20.9432611 11.8881562,20.9179673 12.0461163,20.9179673 C12.3461077,20.9179673 12.4297337,21.1203177 12.514687,21.4304994 C11.565599,22.5873577 10.9735805,23.4872842 10.7585424,24.1049853 Z M18.9538837,20.9179673 C19.1131712,20.9179673 19.1901601,20.9432611 19.2830778,20.9778737 C19.6773144,22.0535255 21.1971825,24.0836853 21.2595701,24.1702167 L21.2741714,24.1888542 L21.2967372,24.1835292 C21.668408,24.1236228 22.6214781,23.9798476 23.4179156,23.9798476 L23.4364991,23.9798476 C23.5227798,23.9798476 23.6210071,23.9798476 23.6833947,24.0410852 C23.7351631,24.093004 23.7603837,24.1835292 23.7603837,24.3126607 C23.7603837,24.5110173 23.6767577,24.8504866 23.5758757,24.9955931 C23.2971225,24.6907363 22.8444806,24.5536173 22.1197225,24.5536173 C21.9020296,24.5536173 21.6445149,24.6188487 21.5051383,24.6547925 L21.4480603,24.668105 L21.3830179,24.6854113 L21.8011476,25.1047558 C22.4462619,25.7517444 23.0037681,26.3095391 23.0037681,26.6809585 C23.0037681,26.9046089 22.7860752,27.1961531 22.5856384,27.3252846 C22.5431618,26.6450147 21.8582256,25.7344381 21.1905455,25.2245685 L21.1334675,25.1819684 L21.1228483,25.4215938 C21.1135566,25.5840066 21.0989552,25.8276258 21.0989552,26.0885512 C21.0989552,27.3838597 20.967543,27.5808851 20.5202107,27.5808851 C20.4511861,27.5808851 20.3463218,27.5609163 20.2812794,27.5369537 C20.5334846,27.2241094 20.6330393,26.8114212 20.6330393,26.08722 L20.6290571,25.7530757 L20.6250749,25.4841627 C20.6250749,25.1872934 20.655605,24.9676368 20.6794982,24.7905802 L20.6927721,24.6907363 L20.6224201,24.6814176 C20.4126916,24.65213 20.0237647,24.5975487 19.726428,24.5975487 C19.0879507,24.5975487 18.6552197,24.6561238 18.3419543,24.952993 C18.1348805,24.7852552 17.9224972,24.4963735 17.9224972,24.3139919 C17.9224972,24.0424165 18.0897491,24.0224477 18.3100968,24.0224477 C18.421598,24.0224477 18.5251349,24.0384227 18.6684936,24.055729 C18.9432645,24.0969978 19.3560846,24.1569041 20.2069453,24.1569041 L20.2587137,24.1569041 L20.242785,24.1049853 C20.0277469,23.4872842 19.4357284,22.5873577 18.4866404,21.4304994 C18.5715937,21.1203177 18.6552197,20.9179673 18.9538837,20.9179673 Z M15.436285,3.21098054 C15.3407125,2.81826111 15.1402758,2.41222916 14.8840884,2.10737238 C14.6504667,1.83180316 14.2641946,1.50298384 13.7438554,1.50298384 C13.5062516,1.50298384 13.1080329,1.61480903 12.8545003,1.72130922 C12.7602552,1.54957767 12.5744198,1.1328957 12.5744198,0.943857877 C12.5744198,0.750826295 12.9009592,0.555132207 13.5235078,0.555132207 C14.8920528,0.555132207 15.7110559,1.17682703 15.7110559,2.21786632 C15.7110559,2.58262945 15.5663698,2.91677378 15.436285,3.21098054 Z M16.0508692,1.85709695 C16.0017556,1.56422145 15.8902543,1.29797099 15.7203477,1.06899559 C15.7283121,0.800082629 15.8384859,0.543150936 16.2712169,0.754820051 C16.0375953,0.994445465 16.2181211,1.41778369 16.2181211,1.41778369 C16.2181211,1.41778369 16.6946562,1.19546456 16.5964289,0.879957767 C17.3052582,1.05035806 16.7955382,2.00486596 16.0508692,1.85709695 Z M18.7162799,11.0427378 C18.7521196,10.7445373 18.7733579,10.437018 18.7733579,10.1215112 C18.7733579,9.95111091 18.7746853,9.75142306 18.7534469,9.52511017 C21.3989466,9.48783511 23.7192344,7.57615681 23.7192344,5.37825927 C23.7192344,4.26000734 22.9918215,3.41466214 22.5803289,2.91144877 C22.6732466,2.89147999 22.7661643,2.87017995 22.859082,2.84754866 C23.2466815,3.18568674 24.3470926,4.38514506 24.3470926,5.90277268 C24.3470926,8.53998347 21.718849,10.9881564 18.7162799,11.0427378 L18.7162799,11.0427378 Z" id="Fill-5" fill="#1A1919"></path>
                <polygon id="Fill-6" fill="#1A1919" points="40 28 44 28 44 1 40 1"></polygon>
            </g>
        </g>
    </g>
</svg>