<svg width="24" height="24" viewBox="0 0 24 24" xmlns="http://www.w3.org/2000/svg"><path d="M20.7 19.297l-4.414-4.42a7.367 7.367 0 00-.665-9.704A7.334 7.334 0 0010.392 3a7.33 7.33 0 00-5.228 2.173 7.412 7.412 0 000 10.468 7.334 7.334 0 005.228 2.173 7.27 7.27 0 004.465-1.506l4.438 4.396a.987.987 0 00.715.296c.247 0 .518-.098.715-.296.37-.37.37-1.013-.024-1.407zm-10.284-3.482c-1.454 0-2.787-.568-3.823-1.58-2.096-2.099-2.096-5.53 0-7.654a5.367 5.367 0 013.823-1.58c1.455 0 2.787.568 3.823 1.58 1.036 1.013 1.578 2.37 1.578 3.827 0 1.456-.567 2.79-1.578 3.827-1.012 1.037-2.392 1.58-3.823 1.58z" fill="#004f80" fill-rule="evenodd"/></svg>