<?xml version="1.0" encoding="UTF-8"?>
<svg width="24px" height="24px" viewBox="0 0 24 24" version="1.1" xmlns="http://www.w3.org/2000/svg" xmlns:xlink="http://www.w3.org/1999/xlink">
    <title>Icon/Search-Lupe</title>
    <g id="Icon/Search-Lupe" stroke="none" stroke-width="1" fill="none" fill-rule="evenodd">
        <path d="M20.7004428,19.2967428 L16.2862732,14.8766292 C18.5059361,11.9880744 18.2843644,7.81462013 15.6205716,5.17297146 C14.1658539,3.71662035 12.2910773,3 10.392279,3 C8.4934807,3 6.61860544,3.71563272 5.16398635,5.17297146 C2.27867122,8.06152626 2.27867122,12.7527427 5.16398635,15.6412975 C6.61870409,17.0976486 8.4934807,17.814269 10.392279,17.814269 C11.9703113,17.814269 13.5493795,17.3204567 14.856761,16.3077465 L19.2951002,20.7039102 C19.492596,20.9016277 19.7392301,21 20.0099303,21 C20.2565596,21 20.5282463,20.9016227 20.7247605,20.7039102 C21.0956661,20.333551 21.0956661,19.6912 20.7006746,19.2967428 L20.7004428,19.2967428 Z M10.4162514,15.8148725 C8.96153361,15.8148725 7.62909464,15.2467909 6.59349858,14.2350684 C4.49715029,12.1363663 4.49715029,8.70486487 6.59349858,6.58097835 C7.60507295,5.56826817 8.96153361,5.00117418 10.4162514,5.00117418 C11.8709691,5.00117418 13.2034081,5.5692558 14.2390041,6.58097835 C15.2746495,7.59368853 15.8170365,8.95167224 15.8170365,10.4080234 C15.8170365,11.8643745 15.249592,13.1983095 14.2390041,14.2350684 C13.2274297,15.2718766 11.8468981,15.8148725 10.4162514,15.8148725 Z" id="Icon/Search" fill="#FFFFFF"></path>
    </g>
</svg>