<?xml version="1.0" encoding="UTF-8"?>
<svg width="35" height="35" version="1.1" viewBox="0 0 35 35" xmlns="http://www.w3.org/2000/svg">
 <g fill="none" stroke="#004f80">
  <g stroke-width="1.7235">
   <path d="m5.3315 14.484c-0.98593 0-1.7793 0.79336-1.7793 1.7793v12.014c0 0.98593 0.79337 1.7793 1.7793 1.7793h16.461c0.98593 0 1.7812-0.79336 1.7812-1.7793v-2.8887c0.64673 0.38257 1.1894 0.6948 1.3867 0.80859 0.70468 0.40629 6.4871 3.332 6.4873 2.8145v-13.482c0.03685-0.55459-5.7826 2.4101-6.4873 2.8164-0.19736 0.11379-0.74004 0.4241-1.3867 0.80664v-2.8887c0-0.98593-0.79532-1.7793-1.7812-1.7793z"/>
   <rect x="14.707" y="10.891" width="6.875" height="3.4691" rx="1.125" ry="1.125"/>
   <rect x="4.7065" y="10.891" width="6.875" height="3.4691" rx="1.125" ry="1.125"/>
  </g>
  <path transform="matrix(.58613 0 0 .60343 5.5387 8.774)" d="m9.8816 27.093v-9.9363c-0.20552-0.21492 4.1387 2.1702 4.3968 2.3193 0.25815 0.14904 4.2083 2.3508 4.2083 2.6489s-3.7428 2.3167-4.001 2.4658-4.6713 2.7152-4.6042 2.5024z" stroke-width="2.898"/>
 </g>
</svg>
