<?xml version="1.0" encoding="UTF-8"?>
<svg width="35" height="35" version="1.1" viewBox="0 0 35 35" xmlns="http://www.w3.org/2000/svg">
 <g transform="translate(-.29661 -.92956)">
  <path d="m17.818 22.545a0.95459 0.95459 0 1 1 0-1.9087 0.95459 0.95459 0 0 1 0 1.9087zm0.80478-7.2401a0.4797 0.4797 0 0 0-0.35725-0.16038h-0.89505a0.4797 0.4797 0 0 0-0.35677 0.16038 0.48114 0.48114 0 0 0-0.11764 0.37262l0.44753 3.8198a0.47826 0.47826 0 0 0 0.94883 0l0.44752-3.8198a0.48114 0.48114 0 0 0-0.11716-0.37262z" fill="#1f4e7c" fill-rule="evenodd" stroke-width=".48018"/>
  <g fill="none" stroke="#004f80">
   <rect x="4.2267" y="9.6398" width="27.14" height="17.5" ry="1.7797" stroke-width="2"/>
   <path d="m4.0042 30.847h27.585" stroke-linecap="round" stroke-width="2"/>
   <path d="m11.941 13.425c2.2347 0.3988 3.8542 3e-4 5.8138-0.96019 1.9624 1.0439 3.5994 1.2439 5.8976 0.95085 0 5.8004 0.02452 8.4942-5.8526 11.207-5.8249-2.6886-5.8587-5.3344-5.8587-11.198z" stroke-linecap="round" stroke-width=".84227"/>
  </g>
 </g>
</svg>
