<?xml version="1.0" encoding="UTF-8"?>
<svg width="35" height="35" version="1.1" viewBox="0 0 35 35" xmlns="http://www.w3.org/2000/svg">
 <g transform="translate(0 .20393)" fill="none" stroke="#004f80">
  <path d="m30.085 4.2737h2.0473v25.624l-14.632-0.289h-14.632v-25.335h1.8366" stroke-width="1.6"/>
  <path d="m28.539 3.3577c0.55962 0.077712 1.1235 0.17039 1.6919 0.27879v23.926c-4.8548-0.87098-8.8238-0.59264-12.731-1.5e-4 -4.0034-0.59556-8.2687-0.75955-12.731 1.5e-4v-23.926c0.525-0.090755 1.051-0.17421 1.5783-0.24875"/>
  <g transform="matrix(.99447 0 0 1.1305 40.186 -12.029)">
   <path d="m-33.813 12.817c3.5828-0.6193 7.2221-0.84457 11-1.29e-4 3.4862-0.63187 7.1222-0.7394 11 1.29e-4v20.671c-4.1949-0.75248-7.6243-0.51201-11-1.29e-4 -3.4591-0.51454-7.1447-0.65622-11 1.29e-4z" stroke-width=".94312"/>
   <path d="m-22.812 12.817v20.671" stroke-width=".94312px"/>
  </g>
 </g>
</svg>
