<?xml version="1.0" encoding="UTF-8"?>
<svg width="35" height="35" version="1.1" viewBox="0 0 35 35" xmlns="http://www.w3.org/2000/svg">
 <g>
  <g transform="matrix(1.6517 0 0 1.6532 1.3304 -459.55)" fill="none" stroke="#004f80" stroke-width="2.2872">
   <g transform="translate(.56675 -1.0583)" stroke-width=".83483">
    <path d="m7.7212 295.02c-0.023296-0.0189-8.1926-0.76185-0.84137-9.2419 1.3614-1.5705 1.4314-3.4548 1.4314-3.4548 11.73 7.4024 3.5404 12.992 3.5404 12.992"/>
    <path d="m7.4156 294.4c-1.0079-1.7873-0.27744-3.2434 0.52959-4.685 0.15602-0.27869 1.0934 0.96376 1.0934 0.96376 1.4191 0.25445 0.17853-3.5884 0.17853-3.5884 6.8836 4.3581 2.0775 7.6488 2.0775 7.6488"/>
   </g>
   <g transform="matrix(1 0 0 .62877 17.066 117.09)" stroke-width="1.0528">
    <path d="m-6.6146 283.77h1.3229v-1.3229h1.3229v1.3229h1.3229v-1.3229h1.3229v2.6458m-10.583-2.6458v1.3229h1.3229v-1.3229h1.3229v1.3229h1.3229v-1.4848"/>
    <path d="m-1.3229 285.09h-11.906v-2.6458h1.3229" stroke-linecap="square"/>
   </g>
   <path d="m8.9569 294.71 1.456-1e-3 -0.0034 0.9079" stroke-width=".83483"/>
  </g>
 </g>
</svg>
