<?xml version="1.0" encoding="UTF-8"?>
<svg width="35" height="35" version="1.1" viewBox="0 0 35 35" xmlns="http://www.w3.org/2000/svg">
 <g transform="translate(57.601 -20.454)" fill="none" stroke="#004f80">
  <path d="m-48.679 50.372c-2.2347 6.12e-4 -4.0469-1.1189-4.0469-2.5s1.8121-2.5006 4.0469-2.5c2.234 5.6e-5 4.0449 1.1193 4.0449 2.5s-1.8109 2.4999-4.0449 2.5zm4.0449-2.4609-0.0078-18.246z" stroke-width="2"/>
  <path d="m-31.522 44.674c-2.2347 6.12e-4 -4.0469-1.1189-4.0469-2.5s1.8121-2.5006 4.0469-2.5c2.234 5.6e-5 4.0449 1.1193 4.0449 2.5s-1.8109 2.4999-4.0449 2.5zm4.0449-2.4609-0.0078-18.246z" stroke-width="2"/>
  <rect transform="matrix(.99276 -.12008 0 1 0 0)" x="-44.96" y="20.851" width="17.271" height="4.7436" stroke-width="2.0073"/>
 </g>
</svg>
