<?xml version="1.0" encoding="UTF-8"?>
<svg width="35" height="35" version="1.1" viewBox="0 0 35 35" xmlns="http://www.w3.org/2000/svg">
 <path d="m32.152 10.005a12.203 12.203 0 0 1-3.4514 0.95692 6.1259 6.1259 0 0 0 2.6826-3.3206 12.219 12.219 0 0 1-3.8195 1.464 6.0196 6.0196 0 0 0-10.42 4.0894 5.3244 5.3244 0 0 0 0.16358 1.3577 17.069 17.069 0 0 1-12.456-6.2568 5.995 5.995 0 0 0 1.8729 8.007 5.9378 5.9378 0 0 1-2.7317-0.76063v0.07361a6.0278 6.0278 0 0 0 4.8173 5.8887 6.633 6.633 0 0 1-1.5867 0.20447 6.4285 6.4285 0 0 1-1.1205-0.1145 5.995 5.995 0 0 0 5.6515 4.1548 11.974 11.974 0 0 1-7.459 2.5681c-0.49891 0-0.97328 0-1.4476-0.07361a17.175 17.175 0 0 0 9.1848 2.6745c11.082 0 17.126-9.1193 17.126-17.028v-0.77698a12.08 12.08 0 0 0 2.9934-3.1079z" fill="#004f80" stroke-width=".81788"/>
</svg>
