<?xml version="1.0" encoding="UTF-8"?>
<svg width="35" height="35" version="1.1" viewBox="0 0 35 35" xmlns="http://www.w3.org/2000/svg">
 <path id="Shape" d="m21.333 23.156c2.0452 0.30174 3.6015 1.8648 3.9168 3.9249 0.10845 0.70809 0.0798 1.4189 0.0429 2.1247-0.04579 0.87578-0.96599 1.6885-1.8698 1.6926-1.9748 9e-3 -3.9498 0.0028-5.9246 0.0028v0.0019l-2.8724-0.01228c-0.95742-0.0028-1.9146 7.78e-4 -2.8713 0.0269-1.0778 0.02937-2.135-0.98357-2.0742-2.0793l0.01229-0.30376 0.01193-0.60804c0.01326-0.6074 0.05006-1.2109 0.28614-1.7927 0.66664-1.643 1.8699-2.6153 3.6104-2.9834 0.60149-0.12728 1.1387-0.0047 1.6732 0.16276l0.45898 0.14983c1.4251 0.46762 2.8219 0.34818 4.1867-0.2273 0.47073-0.19851 0.93452-0.15026 1.4129-0.07964zm-11.101-1.2967c0.38291 0.0816 0.72617 0.24256 1.0416 0.4724 0.17812 0.1297 0.23078 0.22254 0.05905 0.3472l-0.07511 0.04837c-0.87086 0.50763-1.5362 1.2235-2.0431 2.0921-0.28093 0.48138-0.47892 0.9936-0.60644 1.529l-0.06815 0.32394c-0.0463 0.25226-0.14584 0.33625-0.40143 0.33126-0.77008-0.01534-1.5407-0.0013-2.311-7e-3 -0.78528-0.0058-1.3431-0.55863-1.337-1.3471 0.0045-0.5757-0.05295-1.1531 0.05527-1.7278 0.22622-1.2007 1.2478-2.0888 2.4787-2.1259l0.27535-0.0056 1.2304 0.0033 0.21277 0.0066 0.71424-0.01148c0.25199 6.41e-4 0.51408 0.01494 0.77485 0.07051zm18.137 9.11e-4c1.2366 0.18527 2.113 1.2392 2.1448 2.4891 0.0116 0.45706 0.01101 0.91491 7.23e-4 1.3721-0.01577 0.7031-0.56449 1.2613-1.2658 1.2726-0.81834 0.01323-1.637-1.44e-4 -2.4554 7e-3 -0.1708 0.0014-0.27686-0.04694-0.30774-0.22237-0.32771-1.857-1.3451-3.2321-2.9791-4.2211 0.42089-0.46921 0.94349-0.70946 1.5132-0.73478l0.95781-0.04331c0.79912-0.03144 1.5994-0.03792 2.3916 0.08078zm-10.86-9.1797c2.5125 0.0014 4.5536 2.0575 4.5475 4.5809-0.0059 2.4911-2.0608 4.531-4.5627 4.5296-2.5123-0.0014-4.5521-2.0563-4.5474-4.581 0.0046-2.4897 2.0606-4.5309 4.5626-4.5295zm-9.1147 2.6044c1.4107 2e-3 2.5998 1.1947 2.5978 2.6056-2e-3 1.4104-1.195 2.5998-2.6055 2.5978-1.4105-2e-3 -2.5998-1.1948-2.5978-2.6056 2e-3 -1.4108 1.1946-2.5999 2.6055-2.5979zm18.236-3e-6c1.4104 0.0093 2.5932 1.2086 2.5839 2.6196-0.0094 1.4101-1.2089 2.5933-2.6195 2.5839-1.41-0.0094-2.5932-1.2089-2.5838-2.6196 0.0094-1.4104 1.2086-2.5933 2.6194-2.5839z" fill="#004f80" fill-rule="evenodd"/>
</svg>
