<?xml version="1.0" encoding="UTF-8"?>
<svg width="35" height="35" version="1.1" viewBox="0 0 35 35" xmlns="http://www.w3.org/2000/svg">
 <g>
  <g transform="rotate(-7.3478 16.533 14.316)" fill="none" stroke="#004f80">
   <path d="m16.124 12.415c1.2299 3.2682 1.1404 6.5415 0.03791 9.8188" stroke-width="1px"/>
   <g>
    <path d="m7.1842 12.164 6.8125-0.0186 1.9888-0.0077c4.6848-1.7135 14.558-7.696 14.583-6.6698 0.03399 1.2544 0.10359 15.249 0.09267 24.004 0.0065 1.0328-9.813-5.4144-14.747-6.7645l-1.8765 0.0072-6.8125 0.0186c-4.1186-0.76141-4.1109-9.6609-0.040803-10.57z" stroke-width="1.3795"/>
    <path d="m9.9539 23.777 1.9154-0.0074 1.1552 5.2181-1.9154 0.0074z" stroke-linecap="round" stroke-width="2.3"/>
    <path d="m4.8571 20.348c-4.1186-0.40181-4.1109-5.0982-0.04081-5.5778h3e-6" stroke-width="1.0016"/>
   </g>
  </g>
 </g>
</svg>
