<?xml version="1.0" encoding="UTF-8"?>
<svg width="35" height="35" version="1.1" viewBox="0 0 35 35" xmlns="http://www.w3.org/2000/svg">
 <g transform="matrix(1.2618 0 0 1.2249 1.9303 1.7045)" fill="none" stroke="#004b80">
  <path class="st0" d="m18.091 20.077-5.1049 2.948c-0.39981 0.23093-0.88739 0.23093-1.2872 0l-5.1049-2.948c-1.9991-1.1546-3.2326-3.292-3.2326-5.6012v-12.038c0-0.67804 0.61922-1.1939 1.2872-1.0662l4.2468 0.80088c1.1385 0.21373 2.2916 0.42048 3.4447 0.42048 1.1531 0 2.3062-0.20675 3.4447-0.42048l4.2468-0.80088c0.66798-0.12774 1.2872 0.38816 1.2872 1.0662v12.038c0.0048 2.3093-1.2287 4.4466-3.2277 5.6012z" stroke-width="1.287"/>
  <path class="st0" d="m3.3659 3.278 4.9586 0.93354c2.6573 0.50116 5.3828 0.50116 8.0401 0l4.9586-0.93354-4.9586 0.93354c-2.6573 0.50116-5.3828 0.50116-8.0401 0z" stroke-width=".64349"/>
  <g transform="matrix(.85348 0 0 .84924 68.77 6.7419)" stroke-width=".75584">
   <path class="st0" d="m-61.867 12.232h-8.5019c-0.20709 0-0.38148-0.17438-0.38148-0.38148v-5.4064c0-0.20709 0.17438-0.38148 0.38148-0.38148h8.5019c0.20709 0 0.38148 0.17438 0.38148 0.38148v5.4063c0 0.21801-0.17438 0.38148-0.38148 0.38148z"/>
   <path class="st0" d="m-66.118 8.3846v1.5369z"/>
   <path class="st0" d="m-63.273 6.063h-5.6897v-3.8586c0-0.77389 0.6322-1.4061 1.4061-1.4061h2.8776c0.77389 0 1.4061 0.63219 1.4061 1.4061z"/>
  </g>
 </g>
</svg>
