<?xml version="1.0" encoding="UTF-8"?>
<svg width="35" height="35" version="1.1" viewBox="0 0 35 35" xmlns="http://www.w3.org/2000/svg">
 <g transform="translate(-5.2e-6 .059563)" fill="#004f80">
  <g fill-rule="evenodd">
   <path id="Path" d="m26.539 16.119c1.071 1.7246 1.9088 1.6959 3.1744 1.6959-1.047-0.81811-1.7394-1.8642-2.0699-2.3989l-1.9559-3.1872c-0.19036-0.98428-0.69136-1.9047-1.4392-2.5896 0.25102-0.096937 0.46125-0.1992 0.58676-0.29614-1.2771 0-2.5426-0.66045-3.2392-0.66045-0.44766 0-0.73633 0.2727-0.73633 0.63275 0.02928 0.40053 0.4351 0.80958 1.185 0.80958 0.16944 0 0.38699-0.02237 0.62546-0.06285 0.40582 0.5763 0.73319 1.0972 0.73319 1.8407 0 1.3955-1.6379 2.4831-3.2915 2.4831-0.09414 0-0.18304-0.0043-0.27612-0.01065-0.15061-0.3462-0.64848-0.92783-0.64848-1.5872 0-1.1089 0.71018-2.0144 0.71018-3.1137 0-0.68175-0.32738-1.1047-0.45289-1.2804 0.20396-0.19174 0.42569-0.42823 0.47694-0.58908-0.11714 0.051131-0.2573 0.058588-0.46125 0.058588-0.79281 5e-7 -1.4392-0.20985-2.0688-0.20985-0.3598 0-0.45707 0.11292-0.45707 0.2205 0 0.039414 0.0063 0.079893 0.01674 0.099068-0.13388-0.053262-0.25939-0.088415-0.41-0.11718-0.18513-0.035153-0.38595-0.053262-0.59827-0.053262-0.76562 0-1.0376 0.32703-1.0376 0.60612 0 0.23755 0.18304 0.67004 0.39118 0.9992 0.29809-0.15233 0.65684-0.25566 0.82001-0.25566 0.40582 0 0.76771 0.39414 0.95911 0.86072-0.27299 0.03302-0.32528 0.0458-0.60141 0.0458-0.74575 0-1.253-0.27164-1.3576-0.27164-0.01046 0-0.03033 0.00532-0.03033 0.021305 0 0.10759 0.21232 0.38881 0.6286 0.54327 0.54806 0.20453 1.3712 0.28975 1.5082 0.31318 0 0.0245-0.13911 0.28868-0.29495 0.33875-0.03347 0.01171-0.05857 0.01278-0.09727 0.0043-0.57317-0.11505-0.73319-0.16405-1.4601-0.44634-0.02301-0.0075-0.03556 0.0064-0.03556 0.02983 0 0.29294 0.7447 0.93954 1.412 1.1867-0.55748 0.72543-1.253 1.4668-1.5814 2.5971-0.09309 0.0064-0.18304 0.01065-0.27612 0.01065-1.6536 0-3.2926-1.0876-3.2926-2.4831 0-0.74354 0.32842-1.2644 0.73424-1.8407 0.23847 0.04048 0.45498 0.06285 0.62546 0.06285 0.74993 0 1.1557-0.40905 1.185-0.80958 0-0.36005-0.28763-0.63275-0.73738-0.63275-0.69554 0-1.9611 0.66045-3.2392 0.66045 0.12656 0.096937 0.33574 0.1992 0.58676 0.29614-0.74784 0.68495-1.2478 1.6053-1.4392 2.5896l-1.9548 3.1872c-0.32947 0.53475-1.024 1.5808-2.0709 2.3989 1.2656 0 2.1044 0.02876 3.1754-1.6959l1.002-1.6341c0.075307 0.21198 0.1663 0.41864 0.27403 0.62104l-1.9946 3.2501c-0.3326 0.53901-1.0198 1.5766-2.0709 2.3989 1.2656 0 2.1044 0.02983 3.1744-1.6937l1.7174-2.7995c0.12865 0.13955 0.26357 0.2759 0.40582 0.40586l-2.4224 3.9499c-0.3326 0.54008-1.0166 1.5744-2.0709 2.3968 1.2656 0 2.1054 0.03089 3.1754-1.6937l2.3617-3.8508c0.15584 0.10013 0.31482 0.19707 0.47903 0.28868l-2.8826 4.6977c-0.3326 0.54114-1.0166 1.5734-2.0699 2.3968 1.2656 0 2.1044 0.03089 3.1754-1.6927l2.9683-4.8394c0.17572 0.06818 0.35352 0.13422 0.53447 0.19281l-3.3543 5.4679c-0.32738 0.53262-1.0271 1.5829-2.0688 2.3968 1.2645 0 2.1044 0.02876 3.1744-1.6937l3.575-5.8269c0.03661 0.0053 0.07217 0.01171 0.10773 0.01917 0.09727 0.31531 0.16526 0.60825 0.16526 0.90226 0 1.8312-1.1798 3.4482-2.596 4.6966 0.091 0.04048 0.24788 0.05432 0.39431 0.05432 0.29181 0 0.48113-0.01599 0.61396-0.03941-0.32842 0.75952-1.0334 1.7395-1.389 2.2477-0.46439-0.08522-1.138-0.15233-1.5793-0.15233-0.4623 0-0.5146 0.2759-0.5146 0.52197 0 0.42716 0.19559 0.76698 0.42464 0.95659 0.08577-0.21838 0.25834-0.51025 1.1118-0.51025 0.01674 0 0.04602 0.0022 0.08577 0.0042-0.24998 0.28335-1.0313 0.92676-1.0313 1.4445 0 0.34301 0.37026 0.85752 0.85661 0.85752-0.02929-0.11079-0.0251-0.21305-0.0251-0.28868 0-0.4197 0.36503-0.91078 0.67358-1.2538-0.0094 0.10226-0.0052 0.09161-0.0052 0.21092 0 0.99174 0.0889 1.4477 0.70705 1.4477 0.30332 0 0.5125-0.16937 0.58467-0.2205-0.40164-0.37603-0.42255-0.67217-0.42255-1.2282 1e-3 -0.14487 1e-3 -0.28655 0.0031-0.48149 0.0021-0.12783 0-0.29614-0.02092-0.41758 0.22174-0.03089 0.31169-0.03089 0.48113-0.03089 0 0 0.87858-0.07137 1.0899 0.39414 0.23847-0.22264 0.58467-0.53688 0.58467-0.88308 0-0.22903-0.10668-0.48788-0.55852-0.48788-0.17153 0-0.71018 0.10653-1.161 0.10653 0.12133-0.27483 0.65998-1.078 1.1275-1.6596 0.07008 0.22583 0.18094 0.46977 0.42569 0.67004 0.03452-0.37496 0.24998-1.5606 0.82524-2.2541 0.06694 0.46871 0.15689 0.94913 0.15689 1.9622 0 2.4639-0.58154 4.2855-1.8168 4.6327 0.16107 0.28442 0.49995 0.54114 0.85348 0.54114 0.45079 0 0.69763-0.5209 0.94866-1.012 0.13074 0.36223 0.49158 1.2506 0.85347 1.2506 0.36189 0 0.72273-0.88841 0.85348-1.2506 0.25102 0.49108 0.49786 1.012 0.9497 1.012 0.35248 0 0.6924-0.25672 0.85348-0.54114-1.2352-0.34727-1.8178-2.1688-1.8178-4.6327 0-1.013 0.08995-1.4935 0.15689-1.9622 0.57526 0.69347 0.79177 1.8791 0.82524 2.2541 0.24579-0.20027 0.35666-0.4442 0.42674-0.67004 0.46648 0.58162 1.0062 1.3848 1.1275 1.6596-0.45184 0-0.99049-0.10653-1.161-0.10653-0.45184 0-0.55852 0.25885-0.55852 0.48788 0 0.3462 0.3462 0.66045 0.58467 0.88308 0.21023-0.46551 1.0899-0.39414 1.0899-0.39414 0.16944 0 0.25939 0 0.48112 0.03089-0.02091 0.12144-0.02197 0.28975-0.02091 0.41758 1e-3 0.19494 2e-3 0.33662 2e-3 0.48149 0 0.55606-0.01987 0.85219-0.42151 1.2282 0.07217 0.05113 0.28136 0.22051 0.58467 0.22051 0.61814 0 0.70705-0.45592 0.70705-1.4477 0-0.11931 0.0031-0.10866-0.0053-0.21092 0.30855 0.34301 0.67358 0.83408 0.67358 1.2538 0 0.07563 0.0042 0.1779-0.02615 0.28868 0.4874 0 0.85766-0.51451 0.85766-0.85752 0-0.51771-0.78131-1.1611-1.0323-1.4445 0.04079-0.0022 0.07008-0.0042 0.08576-0.0042 0.85452 0 1.0271 0.29188 1.1129 0.51025 0.22801-0.18961 0.42465-0.52942 0.42465-0.95659 0-0.24607-0.0523-0.52197-0.5146-0.52197-0.44138 0-1.116 0.06711-1.5793 0.15233-0.35666-0.50812-1.0606-1.4881-1.389-2.2477 0.13178 0.02344 0.32214 0.03941 0.61291 0.03941 0.14748 0 0.30436-0.01384 0.39536-0.05432-1.4162-1.2485-2.597-2.8655-2.597-4.6966 0-0.29401 0.06903-0.58695 0.1663-0.90226 0.03451-0.0074 0.07112-0.01385 0.10774-0.01918l3.575 5.8269c1.07 1.7225 1.9099 1.6937 3.1744 1.6937-1.0416-0.81389-1.7414-1.8642-2.0687-2.3968l-3.3553-5.4679c0.18199-0.05859 0.3598-0.12463 0.53551-0.19281l2.9683 4.8394c1.071 1.7236 1.9099 1.6927 3.1754 1.6927-1.0532-0.82343-1.7373-1.8557-2.0699-2.3968l-2.8826-4.6977c0.16316-0.09161 0.32319-0.18855 0.47799-0.28868l2.3627 3.8508c1.071 1.7246 1.9088 1.6937 3.1744 1.6937-1.0532-0.82237-1.7373-1.8567-2.0699-2.3968l-2.4223-3.9499c0.14225-0.12996 0.27822-0.26631 0.40477-0.40586l1.7174 2.7995c1.071 1.7236 1.9099 1.6937 3.1754 1.6937-1.0522-0.82237-1.7383-1.8599-2.0709-2.3989l-1.9946-3.2501c0.10774-0.2024 0.19873-0.40905 0.27403-0.62104z" fill="#004f80"/>
   <path d="m17.934 9.1392c-0.0387-0.23435-0.12656-0.4474-0.26044-0.63062 0.0063-0.21518 0.09309-0.42077 0.43406-0.2514-0.18408 0.19174-0.04184 0.53049-0.04184 0.53049s0.37549-0.1779 0.29809-0.43036c0.55852 0.13635 0.15689 0.90013-0.42988 0.78189z" fill="#fff"/>
  </g>
 </g>
</svg>
