<?xml version="1.0" encoding="UTF-8"?>
<svg width="35" height="35" version="1.1" viewBox="0 0 9.2604 9.2604" xmlns="http://www.w3.org/2000/svg">
 <g transform="matrix(1.1124 0 0 1.1124 1.186 -322.18)">
  <g clip-rule="evenodd" fill="#004f80" fill-rule="evenodd">
   <path d="m2.4121 290.81c0.038742 0.0416 0.068773 0.0657 0.11005 0.0149 0.070497-0.0378-0.018153 0.0526 0.028069 0.0223 0.028843-0.0116 0.060022-0.0452 0.087684-0.0529-0.040469 0.0589 0.084707 0.0397 0.10287 0.0764 0.054569 0.0654 0.04204-0.0392 0.083223 2e-3 0.00132 0.0421 0.069975 0.0933 0.023218 0.0751-0.00805-0.0165-0.014024 3.4e-4 -0.034902 0.0164 0.00241 0.043-0.019223 0.0241-0.048478 0.0542-0.021693 0.0222-0.051985 0.0426-0.041188 0.0276-0.019115 0.039-0.044125 0.041-0.076197 0.0383 0.00594-0.0116-0.051335 0.0137-0.035485 0.0169 0.01261 0.0405 0.00306-0.0122 0.043566-8e-3 0.045229 0.0307 0.030325-9e-3 0.056396-0.028 0.027558-0.0349 0.11259-0.0439 0.10433-0.10242 0.065654-0.0327 0.068684 0.10662 0.010331 0.13372-0.027278 0.013-0.10129 0.0364-0.036879 0.0428 0.045861-0.0104 0.13565-0.0506 0.16349 4e-3 -0.015905 0.0217 0.00747 0.0607-0.031318 0.0644 0.00439 0.0205-0.00258 0.0702 0.019694 0.0176 0.00962-0.0273 0.036882-0.0638 0.060655-0.0626 0.065256-0.0179 0.12968 0.0442 0.19325 0.0628 0.041806 0.0797 0.11971-3e-3 0.17061-0.0308 0.090868 0.0145-0.029768-3e-3 0.024353 0.013 0.023785 0.0112 0.092878-0.0481 0.061968 3e-3 -0.052671 9e-3 0.00367 0.0905-0.00976 0.14104-0.053489 0.0153-0.087664 0.0876-0.14128 0.0886-0.033772-0.0285-0.066761 0.0851-0.00387 0.0749 0.061246-1e-3 0.011555 0.0386 0.020039 0.0662-0.040169 0.0161-0.059478 0.0252-0.016399 0.0166 0.020109-0.0188 0.042815-0.0316 0.047358-3e-3 0.05338-0.0119-0.012071-0.0568-0.00919-0.0341-0.028839-0.0138-0.00192-6e-3 0.043454-0.0394 0.047412-0.0231 0.1062-0.0333 0.13945 6e-3 -0.00221 0.04 0.03786 0.025 0.071133 0.038 0.026005-0.0102 0.044651 0.0589 0.052691 9e-3 0.019533-0.0248 0.046054-0.0505 0.020586-0.0451-0.0041-0.026 0.00719-0.0448 0.039221-0.045 0.016381-0.0185 0.03789-0.0783-0.00103-0.037-0.025432 0.0233-0.051468 0.0436-0.015157-7e-3 0.052111-0.0497 0.11018-0.0603 0.18092-0.051 0.03854-9e-3 0.13874-0.0616 0.11431 0.0144 0.037954 0.0619 0.00621 0.02 0.011097-0.0163 0.048546-0.0201-0.034425-0.0165 0.00744-0.0255 0.037122-0.0727 0.13607-0.0758 0.15787-0.16147 0.049353-0.0666 0.043465-0.0983 0.12015-0.0545 0.049084 0.0168 0.12367-0.0182 0.15874 0.0151-0.037979 0.0155-0.083487 0.0153-0.11456-1e-3 -0.038298-5e-5 -0.068605 0.0287-0.070149 0.0317-0.032933 0.0241-0.095873-0.0186-0.093742 0.0447-0.027973-0.0128-0.021839 0.0713-0.020379 0.0525 0.037437 0.0338 0.029979 0.0205 0.034162-0.0207 0.016146-0.0168 0.04274-0.0747 0.052386-0.0547 0.021629-0.0299 0.021159 0.025 0.050698-0.0112 0.019517-0.0177 0.051451-0.0439 0.034568-7e-3 -0.013102 5e-3 0.044641 0.0242 0.033615 0.0121 0.029987-0.043 0.017869 0.0592 0.0687 4e-3 -0.00988-0.0525 0.061557-0.0372 0.078098-0.0462-3.602e-4 0.0427 0.04881 0.0303 0.033224 0.0806 0.018467 0.0213 0.015007 0.0553 0.049654 0.0444-0.049824 0.0253 0.025477-0.0119 0.022939 0.0258 0.035629-0.0125 0.083507 0.0516 0.0541 0.0644 0.048314-0.032 0.063199-0.0143 0.050754 4e-3 0.00925 0.044 0.057577 0.0868 0.045092 0.0247 0.037006 0.0199 0.13569-0.0641 0.10972-0.0197 0.029375 0.0106 0.059588 0.0767 0.054323 0.0507 0.00635 0.0381-0.054483 0.046 6.641e-4 0.077 0.017384 0.018 0.074295 0.0461 0.051332 0.0676-0.018215 0.0159-0.071275 0.0543-0.020992 0.0565 0.040799 0.0509 0.12374 0.0958 0.18636 0.0813 0.080682-0.0469-0.022037 0.0601 0.038867 0.0367 8.965e-4 0.0383 0.039776 0.0777 0.019644 0.12395 0.035203 0.0632 0.049698 0.13983 0.059965 0.21335 0.035726 0.0345-0.052057 0.0891-0.023927 0.14424 0.0039 0.0907-0.16469 0.0829-0.11311 0.17705-0.060769 0.0687 0.076716 0.0667 0.10581 0.11824 0.038865 0.0607 0.10458 0.0881 0.15189 0.13644-0.00255 0.0627-0.043279 0.10659-0.048007 0.16211 0.0066 0.0554 0.017143 0.0955 0.080886 0.10182 0.016518 0.0496-0.039346 0.11174 0.028611 0.14536-0.015398 0.0489-0.015034 0.0994-0.038892 0.14551-0.033523 0.0256-0.072147 0.0698-0.015086 0.0917-0.010348 0.0663 0.10561 0.10352 0.042248 0.1661-0.031716 0.0511 0.045298 0.0469 0.066702 0.075 0.046192-3e-3 0.075459 0.0432 0.060807 0.0798 0.0034 0.0354 0.021366 0.0626 0.041477 0.0987-0.00733 0.043-0.025784 0.0865-0.030568 0.12634-0.013357 0.0504-0.025479 0.0881-0.048807 0.13982-0.030069 0.0228-0.044209 0.0729-0.057978 0.0977-0.04948 9e-3 -0.091462-0.0609-0.086868-0.0412 0.023227-0.043 0.00719-0.0522-0.033645-0.0384 0.02261-0.0291 0.01563-0.0753-0.016384-0.0743-0.029367-0.0295-0.01743-0.0215-0.069668-7e-3 -0.03164-0.0294-0.067233-0.0351-0.080334 0.0105 0.00407 0.039 0.038444 0.01 0.034325 0.0465 0.071519-6e-3 0.035439 0.0612-0.012755 0.052-0.043974-0.0196-0.050546 0.0487-0.10377 0.0461-0.038823 0.0265-0.071658 0.0124-0.11108 0.0319 0.00473 0.0507-0.029945 0.0588-0.07822 0.0469-0.028657 0.0237-0.055427-3e-3 -0.088059 0.0207-0.048525-0.0139-0.022254 0.0364-0.042882 0.0515-0.0096 0.0536-0.053162 0.0393-0.075259 0.0158-0.031398 0.0385-0.046406 0.0341-0.074905 0.0448-0.0093 0.0246-0.026595 0.0813-0.061324 0.0458-0.030106 0.0242-0.062666-7e-3 -0.057679 0.0453-0.00783 0.0513-0.068377 0.0495-0.098112 9e-3 -0.02918-0.0198-0.099283 0.074-0.088379 0.0326-0.034706 2e-3 -0.10401 2e-3 -0.10646 0.0524-0.039982 0.0103-0.047033 0.0408-0.070418 0.0734-0.012168 9e-3 -0.00501 0.10065-0.040494 0.051 0.00394-0.0463-0.019145-0.0459-0.043469-0.0775-0.019502-0.0557-0.042628 0.0502-0.045827 0.0215-0.028461 0.0247 0.056395 0.0374 0.055301 0.0819-0.035797 0.0472 0.037706 0.0567 0.036656 0.0848 0.029211 0.0104 0.052125 0.0351 0.081363 0.0496 0.046959-0.01-0.00404 0.0604 0.056208 0.0583 0.013338 0.0489-0.053449 0.0618-0.038552 0.11259-0.078412 0.02 0.00309 0.0807 0.028596 0.0893-0.00456 0.0356 0.011146 0.0375 0.022929 0.0655 0.0022 0.0505 0.052328 0.0651 0.048083 0.11022 0.035442 0.0298 0.058255 0.0973 0.1094 0.10173 0.022319-8e-3 0.06672-5e-3 0.097037 0.0342-0.0016 0.039 0.042336 0.0531 0.058556 0.0879 0.020177 0.055 0.061925 0.055 0.11026 0.0837 0.039026 0.0243 0.024495 0.0607 0.046161 0.0944 0.041815 0.0381 0.035746 2e-3 0.074306 3e-3 0.02943 0.0114 0.034517 0.0301 0.054627 0.0595 0.02925 0.0132 0.047315 0.0141 0.067143 0.0519 0.027299 0.046 0.018153 0.0617 0.014478 0.10196 0.00618 0.0439 0.00831 0.0967-0.028221 0.12146-0.00222 3e-3 -0.036351 0.065-0.060583 3e-3 -0.037917-9.5e-4 -0.064277-0.0446-0.091294-0.0181-0.049841 0.0114 0.00368 0.0673-0.03071 0.0992 0.014704 0.0697-0.072656 0.14105-0.14193 0.13249-0.049916 8e-3 -0.087348 0.0317-0.11998 0.0694-0.048987-7e-3 -0.06235 0.0445-0.088911 0.0696-0.039667-0.0113-0.00433 0.0688 0.023912 0.0734 0.020404 0.0332 0.074602 0.0996 0.061912 0.081 0.047137 0.0448 0.042298 0.0919 0.00299 0.13565-0.062571 0.077 0.077077 7e-3 0.075366 0.0797 0.018089 0.0597-0.042118 0.0739-0.019015 0.13157-0.018572 0.0569-0.089734-2e-3 -0.10952-0.0349-0.056697-0.0145-0.013958-0.0611-0.037305-0.10019-0.033897-9.4e-4 -0.096806-0.0252-0.11165 0.0305-0.063038 0.0413-0.054049-0.0799-0.11297-0.0434-0.091925 0.0481-0.034009-0.0782-0.08697-0.0193-0.056962 3e-3 0.038712 0.0787-0.024774 0.0784-0.058718 4e-3 -0.1097-0.0157-0.16928 0.0109-0.022612 0.0282-0.10049-4e-3 -0.13257 0.0155 0.00175 0.0881-0.088589 0.0283-0.11829 0.0787 0.047499 0.0492-0.036513 6e-3 -0.054186 0.0547-0.041639 0.0465-0.010575-0.0564-0.080723-2e-3 -0.018915 0.0264-0.10625 0.0324-0.089744-0.015-0.032551-0.0489-0.065776-0.034-0.040539-0.0752-0.044119-3.1e-4 -0.084289 0.0218-0.11847-0.0236-0.043886-0.0223-0.107 0.0616-0.11756-0.0104-0.02222-0.0356 0.017912 0.12263-0.00259 0.098 0.00539 0.0442-0.055249 0.0687-0.0701 0.11521-0.053365 0.0272-0.1068 0.0489-0.072187-0.0154 0.044795-0.0677-0.071354-0.01-0.049517-0.0279-0.033256-0.0282 0.00886-0.0677-0.033843-0.0981-0.054347-0.0111-0.027865-0.061-0.086138-0.0476-0.039668 0.0238-0.058673-0.0901-0.084055 5e-3 -0.11586 0.0594-0.19308-0.13063-0.30636-0.0909-0.044241-0.051-0.10428-0.0136-0.1509-4e-3 -0.00889-0.0305-0.039244-0.0815-0.063194-0.0426 0.044153 0.0428-0.058216 6e-3 -0.027207-0.0304-0.012286 4e-3 -0.042585-0.0711-0.047611-0.0148-0.016788-0.0572-0.038427-0.019-0.073277-9e-3 -0.028731 0.0219-0.080563 0.0941-0.018275 0.0975 0.00673 0.026 0.038703-0.0176 0.068137-0.0165 0.027378 0.0368-0.00785 8e-3 -0.00107 0.0584-0.011672-0.0153-0.058486-0.0422-0.071026 7e-3 0.032606 0.021-0.058591 0.0172-0.07308 0.0138-0.015368-0.0331-0.048995-0.0362-0.073054-0.0332-0.033112 0.025-0.055033 0.041-0.089403 0.0506-0.031762-6e-3 -0.065558 0.02-0.072461-0.0259-0.046807-0.0136-0.059857 0.0392-0.10928 0.0379-0.040587 7e-3 -0.030144-0.0273-0.015963-0.0395 0.00777-0.0508-0.06188 0.0557-0.054206-0.0237-0.05003-0.0509-0.00923-0.10325-0.012724-0.16276-2.581e-4 -0.0534 0.040302-0.0973 0.034385-0.14903-0.053686-0.0622 0.00972-0.14174 0.037863-0.19843-0.012159-0.0499 0.052906-0.0547 0.030082-0.0984 0.00261-0.071 0.045587-0.12038 0.039901-0.19036 0.020977-0.0512 0.086165-0.0768 0.092414-0.13366 0.030873 5e-3 0.027025-0.0349 0.05925-0.0329 0.023253-0.046 0.034693-0.11302 0.079629-0.1381-0.051058-1e-3 -0.12051-0.0413-0.16309-0.0689-0.032936 0.0402-0.065297-0.0288-0.096074 7e-3 -0.030685-9e-3 -0.060093 4e-3 -0.088602-0.0293-0.044636 3e-3 -0.048003-0.0571-0.058556-0.069-0.02967-0.0115-0.054457-5e-3 -0.083994 0.0186-0.021914 0.0407-0.065487 8e-3 -0.099972 0.0147-0.031676-0.0393-0.021749-2e-3 -0.052934 8e-3 -0.00883-0.0453-0.00208-0.0691-0.0508-0.0741-0.020247-0.0125-0.083696-0.0179-0.051738 0.0203 0.012804 0.0682-0.15009-0.0555-0.07868-3e-3 0.00938-0.0265-0.016487-0.036-0.029048-0.0592 0.00974-0.0272-0.076396-0.0679-0.040053-0.075 0.008406-0.0288-0.042474-0.0892-0.036697-0.0699-0.037477-0.0462-0.096352 6e-3 -0.085711-0.0659 0.012395-0.0375-0.006753-0.0522 0.03007-0.0796-4.2428e-4 -0.0412 0.023696-0.0538 0.040737-0.0883 0.008039-1e-3 0.002972-0.0744 0.007513-0.0561 0.028246-0.0281-0.02779-0.0161-0.045725-0.0202-0.036242-0.0335-0.053377-0.0133-0.074078-0.0479-0.038634-0.0157-0.030048-0.0677-0.06652-0.0814-0.008575-0.0301-0.023972-0.0553-0.026452-0.0971 0.013781-0.0196 0.015168-0.0483 0.018696-0.0708 0.047167 6e-3 -0.013267-0.0477 0.028403-0.0543 0.035691-0.0146 0.043612-0.0414 0.069648-0.0623 0.082224 0.0226-0.017553-0.0438 0.019481-0.0697-0.001831-0.0281-0.004494-0.0719-0.041989-0.0721-0.036234 4e-3 -0.050993-0.02-0.061638-0.0499 0.04267-0.0235 0.070826-0.0663 0.002555-0.0581 0.00397-0.0238-0.034606-0.0944-0.07861-0.0743 0.018543-0.0385-0.063386-0.0701-0.008572-0.0781-0.017812-0.0414 0.057974-0.023 0.029321-0.0597 0.02211-0.0405-0.066001-0.0368-0.026492-0.0786-0.053326-2e-3 -0.075691 0.017-0.07972-0.042-0.003348-0.0565 0.052953 0.0338 0.065932-0.0426 0.027215-0.0238 0.066395-0.0418 0.091643-0.0623 0.012027-0.0415-0.069799 0.0179-0.052103-0.063 0.034129-0.0448 0.077035-0.0821 0.085494-0.13122-0.020692-0.024 0.012119-0.11464-0.051448-0.14255-0.044782-0.0288 0.019906-0.0806-0.056914-0.0791 0.037097-0.0497-0.060648-0.0409-0.026918-0.0721 0.001377-0.033-0.044326-0.0655 0.021418-0.0646 0.019629-0.0387 0.075528 0.0234 0.075832-0.0187-0.051722-0.0409 0.013024-0.0378 0.033158-3e-3 0.037327-0.0139 0.05219 0.0164 0.079781 0.0258 0.051625 0.0236-0.013574-0.0577 0.039176-0.0205 0.04051 9e-3 0.087262-0.0425 0.13854-0.0425 0.028514 0.0441 0.091862-0.0797 0.073698-0.0529-0.00345-0.0371-0.12439-0.0611-0.050237-0.0832 0.00779-0.0499 0.081369-0.0226 0.096038-0.0819 0.021657-0.0242 0.060204-0.0907 0.070302-0.0658-0.00349-0.0596 0.034643-0.11042-0.021524-0.15678-0.027749 5e-3 -0.11006 8e-3 -0.16211-0.0258 0.00153-0.0729 0.00827-0.0658 0.025636-0.13288 0.055163-0.01 0.11361 0.0136 0.16326 5e-3 0.00662-0.0898 0.00464-0.17806 0.07092-0.24613 0.039132-0.0696-0.019641-0.15115 0.019304-0.21126 0.00896-0.0665 0.026036-0.10917-0.014949-0.12384-0.052769 0.0398-0.13443 9e-3 -0.095753-0.0673 0.00495-0.0775 0.045977-0.0536 0.06776-0.087-0.028004-2e-4 -0.02023-0.0654 0.040387-0.0915 0.077118-0.0612 0.17507 0.0122 0.25885-0.0386 0.0548 5e-3 0.15263-0.0364 0.18088 6e-3 -0.00138 0.045 0.11964 0.0961 0.049157 0.14331-0.058141 0.0201 0.00867 0.0517 0.047794 0.0917 0.093424 7e-3 0.059519-0.11305 0.01572-0.11737 0.012647-0.10769 0.088399-0.0129 0.14031-4e-3 0.077409 0.01-0.045561 0.0923 0.00471 0.15764 0.0039-0.0491 3.9e-6 -0.10661 0.041488-0.13964-0.022312-0.0602-0.077345-0.12563-0.020521-0.19294 0.00523-0.0624 0.06425-0.13675 0.11065-0.0689 0.032353 0.0352 0.1783 0.0112 0.15417 0.012 0.075851-0.0462 0.1749-0.0173 0.20171 0.0697 0.05905 0.0561 0.087235 0.15793 0.17661 0.16415 0.066031 0.0268 0.082849-7e-3 0.00236-0.0126-0.034565-0.0102-0.10609-0.043-0.095379-0.0765 0.025478 0.0721-2.864e-4 -0.0716-0.048473-0.0573-0.0268-0.0671-0.079686-0.13906-0.16397-0.12733-0.026197-0.0139-0.091413 0.0149-0.11309-0.019-0.037164-0.0353-0.027712-0.0606-0.05813-0.0959 0.059495-9e-3 0.10936-3e-3 0.051413-0.0829-0.040881 0.0219-0.084566-0.0262-0.056989-0.0666-0.00626-0.0537 0.067274-0.0262 0.071766-0.0823-0.039635 0.0428-0.058071 0.0232-0.09982 0.0245-0.032073-0.0269-0.07402 0.0467-0.095831-0.0245 0.00822 0.0264-0.015751-0.021-0.00612 0.0135-0.024673-0.0552 0.024869-0.0414 0.057344-0.0513-0.00484-0.0204-0.08421-1e-3 -0.021266-0.0327 0.040872-0.0212 0.12838 0.0163 0.16093-0.0429 0.039364-0.0265 0.053245-4e-3 0.030203-0.0415-0.031919-0.0438-0.039212 0.0735-0.099278 0.0303-0.044771-0.0247 0.076152-0.0773 0.00601-0.0704-0.064945 6e-3 0.066545-0.0144 0.019162-0.0409-0.060086 6e-3 0.00169-4e-3 -0.0234-0.0366-0.043719-0.0348-0.054006-0.0907-0.075939-0.022-0.00354 0.0226-0.10715 0.0513-0.072294 0.0279 0.068245 9e-3 0.1339-0.12559 0.085925-0.082-0.00915-0.0466-0.063379-0.0697-0.059854-0.11782-0.057047-0.0154-0.10632 0.0599-0.14445 3e-3 -0.037594 0.0255-0.018791 0.077-0.026437 0.11561-0.021533-0.083 0.00595-0.19769 0.067762-0.25736 0.063257 0.0148-0.0499-5e-4 0.012298 0.0252-0.038025 0.0152-0.061411 0.0643-0.033554 0.10555 0.042154 0.0244 0.10492 2e-3 0.14406-3e-3 0.032198-5e-3 0.08191-0.0188 0.11154 5e-3 0.061447-0.0213 0.1294 0.0206 0.19278 0.0277z"/>
   <path transform="matrix(.0050693 0 0 .0050693 .39721 290.61)" d="m340.27 1193.4-0.218-0.215 0.314-0.759 0.065-0.157 0.265-0.958-0.116-0.667 0.104-1.229 0.201-0.063 0.554-0.174 0.894-0.05 0.704-0.017 1.073 0.067 0.585 0.594 0.259 0.944 0.656 1.323 0.108 0.216 0.038 0.295-0.939 0.098-0.993-0.487-0.76-0.054-1.249 0.579-0.605 0.279z"/>
   <path transform="matrix(.0050693 0 0 .0050693 .39721 290.61)" d="m904.59 199.59-0.841 1.592-0.092 0.842-1.068 0.607-1.577 0.345-0.823-0.072-0.316 0.228-0.209-0.125-0.495-0.304-1.631-0.291-0.432-0.388-0.477-0.43-0.561-0.193-2.072-0.071-0.492-0.819 0.611-0.648 0.352-1.038 0.206-0.612 0.396-0.229 2.031 0.103 1.804-0.876 1.619 0.031 0.927-0.474 0.611-1.02 1.321-0.255 0.951-0.693 0.641-1.19 0.251-0.469-0.137-1.011 0.539-0.729-0.769-2.062 0.2-1.793-0.993-2.344-2.311-1.717-0.352-0.582-0.023-1.297 0.721-1.968 0.907-1.033 2.224 0.268 1.106-0.568 0.236 0.041 1.568 0.268 0.34 0.322 0.34 1.069-0.48 1.655 1.177 0.291-2.116 1.771 0.572 1.234-0.68 1.235 0.224 1.717 0.796-0.04-0.108-0.895 1.08-1.829-0.569-0.863 0.283-0.309 1.732-0.55 0.558 0.237 0.22-0.062 0.597-0.161 1.013 0.273 1.041-0.354 0.742 0.067-0.012 0.479-1.362 0.621-0.173 0.43 0.724 0.948 2.505 1.109 0.382-0.447-0.197-0.828-0.656-0.098 9e-3 -0.81 1.053-1.57-0.29-1.135 0.596-1.942-0.229-1.279 0.301-0.823-0.343-1.028-0.122-0.058-0.275-0.125-0.149-2.009-0.798-0.702-0.901-0.152-0.406-0.478-0.42 0.035v0.738l-0.477 0.881-0.76 0.08-0.278-2.352-0.411-0.443 0.48-0.549-0.48-0.559-0.021-0.927-2.162-2.701 0.051-0.25 0.045-0.224-0.289-0.085-0.442-0.125-0.673 0.787-1.736-0.188-0.355-0.38-0.092-0.103-1.067 0.206-1.903-0.206-0.355 2.818 0.447 0.112 0.618 0.827 0.125 0.751-1.512 1.57-0.983 2.093-1.429 0.063-0.498 0.362-0.82-0.148-0.283 0.309-0.68 0.09-0.429 0.483-9e-3 0.85-0.683-0.247-0.415-0.774-0.021-0.965 0.35-0.519 1.353-2.03-0.197-0.868 0.555-0.47 0.325 0.841 0.722-0.859-0.174-1.825 0.403-1.002 2.093-0.778-0.047-0.335-0.662-0.058-2.01 0.782-0.298 0.421 0.05 1.954-0.28 0.081-0.152-0.479-0.614-0.496-0.856-0.188-0.948 0.25-0.104 0.586-0.406 0.13-2.284 0.747-0.399 0.59-0.808 0.524-0.877 1.882-1.381 0.032-0.548 0.434-0.767-0.622-0.724 0.125-0.486-1.301 0.784-1.928 0.835 0.107 1.017-2.017-0.033-0.823v-0.031l0.841-0.814 0.024-0.09 0.477-1.788 0.405-0.667 0.513-0.845-0.149-0.935 0.531-1.024-0.632-2.236-0.51-0.305-1.237-0.178-0.868-1.257-0.838-0.366-9e-3 -0.305-0.039-1.176-1.103-1.391-0.516 0.514-0.42-0.317-0.254-1.181-0.435-0.631 0.069-1.399 0.53-1.025 1.771-1.252 0.141-0.022 2.716-0.403 0.635 0.318 0.829 0.845 1.863 4.777 1.432 2.562 2.171 2.331 0.557 0.272 0.635 1.051 3.119 1.919 0.268 0.166 1.509 0.93 0.041 0.013 1.861 0.559 0.883 0.703 4.776 1.417 2.287 1.239 6.405 6.566 0.855 0.881 1.703 1.185 3.864 3.453 2.764 3.068 0.552 0.612 0.161 0.18 1.78 1.976 0.182 0.116 0.674 0.43 0.423 0.268 3.146 1.999-1.918 1.619-2.569 0.247 1.496 0.764 1.312 1.266 0.426 1.369 0.036 0.577 0.051 0.872-0.015 0.684-0.035 2.545-0.916-0.121-0.563-0.532-1.373-0.385-3.133 0.152-3.483 0.175-0.825 0.295-3.152-0.836-0.936 0.174-1.461 0.756-2.144-0.93-0.82-0.112-1.643 0.926-0.641 0.129-1.243 1.812-0.999 0.353-0.394 0.93-1.097-0.245-0.919 0.219-3.738 0.885-0.88-0.336-0.185-0.572 1.783 0.045 0.599-0.501 0.43-0.885-0.227-0.945-0.62-0.425-1.175-0.286-0.489-0.822-0.22 0.093z"/>
   <path d="m4.6995 291.04c-0.00554 9e-4 -0.013393-5e-3 -0.01051-0.0114 0.00138-8e-3 -0.00772-0.0137-0.00831-0.0219-0.00702 1e-3 -0.00879 5e-3 -0.011925 0.0105-0.00295 5e-3 -0.014955 3e-3 -0.010286 0.0108 0.0057 7e-3 -0.00663 7e-3 -0.010072 8e-3 -0.00217 8e-3 -0.010484 3e-3 -0.014721 8e-3 -0.00621 6e-3 -0.016634 1e-3 -0.0223 8e-3 -0.00119-7e-3 0.00533-0.0136 0.00596-0.021 7.859e-4 -0.01 0.00966-0.0156 0.013711-0.0238-7.972e-4 -7e-3 0.00682-0.0119 0.00317-0.0184-2.5e-5 -8e-3 -0.00457-9e-3 -0.011424-6e-3 -0.00624 6e-3 -0.015319 9e-3 -0.020769 0.0162 2.464e-4 8e-3 0.00292 0.0145 0.00576 0.0214-0.00482 3e-3 -0.00552 9e-3 -0.012225 0.0106-0.00478 3e-3 -0.00827 6e-3 -0.012847 9e-3 -0.00635 7.9e-4 -0.00796 8e-3 -0.011104 0.0108-0.00703 4e-3 -0.00756-8e-3 -0.00233-0.0101 0.013291-6e-3 0.026887-0.0146 0.031596-0.0289 7.675e-4 -8e-3 -0.00381-0.0165-0.00291-0.0242 7e-3 -0.0101 0.016044-0.0186 0.027425-0.0236 0.00739-5e-3 0.01582-8e-3 0.024768-6e-3 0.011584 2e-3 0.022034-4e-3 0.033002-6e-3 0.010089-4e-4 0.020179-7.9e-4 0.030266-1e-3 0.00791 7e-3 6.436e-4 6e-3 0.00117 0.0129 9.674e-4 8e-3 -0.00848 0.0113-0.014919 0.0118-0.00662 1.9e-4 -0.012117 3e-3 -0.012693 0.0104-0.00365 7e-3 -0.00123 0.0157 3.188e-4 0.0231 0.0046 0.0103 0.011349 0.0202 0.020952 0.0264 0.00649 6e-3 0.016085 6e-3 0.024456 7e-3 0.00139-7e-3 0.011191 8.9e-4 0.016354-3e-3 0.0066-9.7e-4 0.013415-6.6e-4 0.019659-4e-3 0.017406-4e-3 0.035319-5e-3 0.052979-6e-3 0.00783-7.8e-4 0.011709 7e-3 0.018726 9e-3 0.00371 5e-3 0.00997 8e-3 0.00733 0.0148 0.00269 8e-3 0.00308 0.0171-0.00224 0.0243-0.00298 8e-3 -0.01463 7e-3 -0.020106 0.0129-0.0049 6e-3 -0.015852 4e-3 -0.017389 0.013-0.0034 8e-3 -0.017201 8e-3 -0.017612 0.0185-7.548e-4 9e-3 0.00298 0.0173 0.00396 0.026 0.00573 0.0108 0.01079 0.0226 0.019953 0.031 0.00617 3e-3 0.011656-2.4e-4 0.018094 6.3e-4 0.00566 2e-3 0.012063-6e-3 0.015499 1e-3 0.00647 7e-3 0.017152 0.0114 0.0193 0.0217 0.00391 8e-3 0.00961 0.0166 0.017274 0.0214 0.00581 2e-3 0.016005 4e-3 0.00471 7e-3 -0.00672 3e-3 -0.011639 9e-3 -0.012866 0.016-0.00746 1e-3 -0.00642 0.01-0.0087 0.0154 0.00119 7e-3 0.00386 0.0137 0.00718 0.0201-0.00485 3e-3 -0.010073 7e-3 -0.0127-8e-4 -0.00393-1e-3 -0.012659-9e-3 -0.00553-9e-3 0.00193 6e-3 0.012901 8e-3 0.00882-2.3e-4 2.523e-4 -0.01-0.00599-6e-3 -0.011043-4e-3 -0.00672-3e-3 -0.011634 3e-3 -0.017198 2e-3 -0.00722-3e-3 -0.0045-0.0103 0.00121-0.0127 0.00616 4.7e-4 0.00993-5e-3 0.014556-7e-3 0.00225-1e-3 0.015245-8e-3 0.00614-0.01-0.00705 2e-3 -0.00988-6e-3 -0.01639-3e-3 -0.00935 4.1e-4 -0.015636 0.01-0.025248 0.01-0.01112 4e-3 -0.00229-5e-3 0.00415-3e-3 0.00969-4e-3 0.020264-8e-3 0.028124-0.0155 0.00394-8e-3 -0.00408-9e-3 -0.010304-7e-3 -8e-3 3e-3 -0.00382-9e-3 -0.0023-0.0121-0.00816-4e-3 -0.00626 5e-3 -0.00531 0.011-0.00673 4e-3 -0.00305 9e-3 -0.0099 0.0105-0.00131 6e-3 -0.00905 9e-3 -0.010026 5.7e-4 -0.00144-9e-3 -0.012615-0.0124-0.020475-0.0124-0.00347 4e-3 -0.00826 0.0112-0.01421 9e-3 -0.00672-4e-3 -0.015586 4e-3 -0.02188-3e-3 -0.00443 5e-3 -0.011418 5e-3 -0.015619 0.01-0.00613 6e-3 -0.010661-6e-3 -0.01499-8.8e-4 0.00249 5e-3 0.011288 5e-3 0.00568 0.0128-0.00633 1e-3 -0.01248 3e-3 -0.01679 8e-3 -0.00678 2e-3 -0.010369 9e-3 -0.010752 0.0152-0.00463 6e-3 -0.00688 0.0135-0.013495 0.0171-0.0012-4e-3 0.00402-0.0112-0.00603-9e-3 -0.00127 2e-3 -0.00213 7e-3 -0.0099 6e-3 -0.00657 2e-3 0.00255 0.01-4.258e-4 0.0158-2.845e-4 0.0106 0.013073-5e-3 0.0038-3e-3 -0.0042-7e-3 0.00547-9e-3 0.00704-1e-3 0.00533 7e-3 0.00754-8e-3 0.013154-5e-3 0.00517 2e-3 0.010967 7e-3 0.011554 0.0132 0.00319 6e-3 0.00209 0.0128-0.00446 0.0157-0.00614-3e-3 -0.00981 0.0117-0.012583 5e-3 -0.00229-6e-3 -0.011041-4e-3 -0.015813-8e-3 -0.00778-3e-3 -0.017384-1e-3 -0.024539-5e-3 -0.00296-5e-3 -0.00757-9e-3 -0.013936-8e-3 3.06e-5 -8e-3 0.010189 4.7e-4 0.014062 2e-3 0.00404-7.4e-4 0.0053-0.0106 0.00487-0.0149 0.00474-2e-3 0.00692-0.0161 9.726e-4 -8e-3 -0.00126 5e-3 -0.014611 4e-3 -0.00759 0.01 0.00432 8e-3 -0.00811 2e-3 -0.012149 3e-3 -0.00617-5.8e-4 -0.01169 8e-3 -0.01764 3e-3 -0.00764-4.5e-4 -0.00803-0.01-0.015279-0.0102-0.00629 7.3e-4 -0.00683-0.0144-0.0091-4e-3 -0.00429 5e-3 -0.012405-1.9e-4 -0.00904-6e-3 0.00372-4e-3 0.00383-0.015-0.00367-0.0129-0.0016 7e-3 -0.00825 6e-3 -0.013548 7e-3 -0.00465 1.9e-4 -0.013302 9e-3 -0.014713 2e-3 -0.00116-0.01 0.0059-6e-3 0.00684-0.0116 0.00113-7e-3 0.00809-2e-3 0.012079-1e-5 0.00803 7e-3 0.00463-4e-3 3.105e-4 -7e-3 -0.00515-4e-3 -0.013757-1e-4 -0.016995-7e-3 -0.00362-5e-3 -0.00696-0.01-0.01302-0.0112-0.00641-3e-3 -3.145e-4 -0.0112 8.389e-4 -0.0161 0.0026-6e-3 -6.059e-4 -0.0139 0.00623-0.0177 0.00483-2e-3 0.012903-4e-3 0.017445-1.8e-4 0.00608 2e-3 0.012023-5e-3 0.018343-1e-3 0.00363 3e-3 0.010116 4e-3 0.014861 4e-3 0.00744 2e-3 0.00947-1e-3 0.00771-6e-3 0.00363-2e-3 0.018551-2e-3 0.011727-7e-3 -0.0051-2e-3 -0.00949 4e-3 -0.01349-4e-3 -0.00386-5e-3 -0.00414-0.0134 0.00412-0.0118 0.00738 6e-3 0.00812-6e-3 -2.912e-4 -3e-3 -0.00466-3e-3 -0.00818-1e-3 -0.01361-7e-3 -0.00218-4e-3 -0.00169-0.0168-0.00838-8e-3 -0.00756 4e-3 -0.017011-2e-3 -0.024346 3e-3 -0.00837-1.7e-4 -0.00171-0.01 0.00268-0.0118-0.00177-9e-3 0.00757-0.0115 0.013662-0.0147 0.00361 5e-3 0.00915 7e-3 0.010048-2e-3 0.00251-3e-3 0.01063-4e-3 0.014091-5e-3 0.00405-2.7e-4 0.016093-2e-3 0.00532-3e-3 -0.00864-3e-3 0.00623-5e-3 0.00902-6e-3 0.00874-4e-3 0.00635-5e-3 -7.217e-4 -5e-3 -0.00151-9e-3 -0.00962-2e-3 -0.015041-4e-3 -3.283e-4 -5e-3 -0.0029-0.0127 0.00158-0.0167-1.01e-5 -8e-3 -0.010296-2e-3 -0.014501-4e-4 -0.00678 3e-3 -0.014772-3.5e-4 -0.021065-3e-3 -0.00469-8e-3 -0.00174-0.0181-0.00753-0.0251-0.00737 1e-3 -0.011907-1e-3 -0.00317-5e-3 0.012056 3e-3 0.024353-2e-3 0.036526-3e-3 0.00602-3e-3 0.012096-2e-3 0.01839-6.2e-4 0.00755 2e-5 0.011993 9e-3 0.019869 7e-3 0.00855 4e-3 -0.00122 0.0111 0.00182 0.0156 0.0038 6e-3 0.011871 8e-3 0.01147-1e-3 -0.00762-2e-3 1.66e-4 -0.0107-0.00399-0.0158-0.00709-6e-3 3.6e-5 -9e-3 0.00459-0.0134 0.00626-6e-3 0.015508-7e-3 0.020986-0.0135 0.00221-5e-3 0.016442-2e-3 0.00939 4e-3 -0.0033 5e-3 -0.0076 0.0112-0.00677 0.0174-0.01078-2e-3 -0.0056 4e-3 0.00206 5e-3 0.00577 4e-3 -0.00285 0.0106-0.00488 0.0152-0.00345 0.0105 0.00434 1e-3 0.010016 3e-3 0.00619 2e-3 0.0081-7e-3 0.012287-0.0101 0.00106-6e-3 -0.00676-6e-3 -0.0106-9e-3 -0.00959 2.7e-4 -0.00781-6e-3 -0.00162-0.01 0.00837-7e-3 0.00302 6e-3 0.00804 9e-3 0.00292 6e-3 0.00842 7e-3 0.012174 0.0125 0.00276 5e-3 0.010608 0.0104 0.00395 0.0153-0.00396 5e-3 3.185e-4 0.0107 0.00287 0.0153 0.00471 4e-3 0.015085-3e-5 0.015939 9e-3 0.00116 7e-3 0.00398 0.0108 0.00809 3e-3 0.00642-3e-3 0.013814-6e-3 0.020463-2e-3 0.00785-5.7e-4 -0.00246-9e-3 0.00415-0.0133-0.00183-6e-3 0.00661-0.01 0.00375-0.0161-0.00271-7e-3 0.00132-0.0103-0.00418-0.0158 0.00159-8e-3 -0.0047-0.01-0.0062-0.0156-5.854e-4 -6e-3 0.011676 3e-3 0.00926-6e-3 -0.00269-2e-3 -0.013881 6.1e-4 -0.012782 6e-3 0.00663 7e-3 -0.00693 8.1e-4 -0.010735 2e-3 -0.00554-3.4e-4 -0.012927 5e-3 -0.016059-2e-3 -0.00423-5e-3 -0.00688-0.0121-0.014356-0.0121-0.00116-2.9e-4 -0.00233-5.9e-4 -0.00349-8.8e-4z"/>
   <path transform="matrix(.0050693 0 0 .0050693 .39721 290.61)" d="m812.37 102.73-0.34-0.17-0.417-0.881 0.221-0.537-0.09-1.221 0.531-3.408 0.048-0.313 2.045-4.424 0.054-1.395 0.754-1.199 0.811-3.479 0.042-2.952-0.427-0.806 2.314-2.003 0.925-0.335 1.317-0.081 0.099 0.054 0.504 0.286 0.84 3.269-0.73-0.353-0.071 1.601-0.329 0.171-0.548-2.241 0.298-0.864-0.236-0.608-1.651 2.125-1.667 0.165 1.142 1.27-1.017 0.882 0.742 1.015 0.292 0.872-0.321 1.525 0.05 1.628-0.665 0.724-0.477 0.112-0.074 0.153-0.188 0.379-0.918 0.3-0.257 1.31-0.82-0.035-0.033 0.966-0.56 0.953 0.274 0.648-0.924 0.814 0.328 2.205-0.224 2.272-0.226 0.165-0.239 1.535z"/>
   <path transform="matrix(.0050693 0 0 .0050693 .39721 290.61)" d="m829.5 100.77-0.328 1.154-0.704 0.278-0.283-0.537-1.461-0.152-6.044 3.493-0.939 0.541-1.399 0.081-0.348-0.738 0.682-3.346 3.137-3.162 2.663-0.921 1.714 0.17 0.313 0.246-0.218 0.465 1.08 0.599 1.998-0.214 0.199 0.169-0.552 0.47z"/>
   <path transform="matrix(.0050693 0 0 .0050693 .39721 290.61)" d="m809.32 106.04-0.54-0.08-0.504-0.443-1.267 0.013-1.112 0.175-1.888 1.189-1.445 0.148-0.111-1.266-9e-3 -0.107 2.254 0.206 0.942-1.003 3.233 0.135 1.01-0.402 0.4-0.635 0.257-1.307 0.685 0.618 0.164 0.147 0.158 0.528z"/>
   <path transform="matrix(.0050693 0 0 .0050693 .39721 290.61)" d="m799.59 106.08-0.692 0.17-0.835 0.788-0.515 0.107-0.221-0.282-0.117-0.147 0.325-0.752 1.849-0.375 1.625 0.192 0.116 0.527-0.044-4e-3z"/>
   <path transform="matrix(.0050693 0 0 .0050693 .39721 290.61)" d="m770.66 109.44 2.003-1.664 1.566 0.312 2.176 0.837 0.117 0.613-0.522 0.433-1.628-0.599-3.166 0.55z"/>
   <path transform="matrix(.0050693 0 0 .0050693 .39721 290.61)" d="m776.52 111.66-0.933 0.08-0.516-0.331 0.614-0.868 0.763-0.134 0.847 0.21 0.018 0.658z"/>
   <path transform="matrix(.0050693 0 0 .0050693 .39721 290.61)" d="m610.66 93.678 0.737 0.921 2.752 1.033 0.757 4e-3 1.711 1.419 1.172 3.711 1.706 1.454 0.28 0.827 0.48 0.318 0.322 1.418 0.552 0.912 0.277 0.461 0.874 0.711 0.53 0.8 0.191 1.486 0.433 0.429 0.19 0.858 0.63 0.622-0.042 1.176-3.292-0.437-3.372-1.065-2.743-0.443-3.131 0.899-0.185-0.38 0.23-0.282 0.73 0.018 0.489 0.014 0.313-0.868-0.757-5e-3 -1.309-0.55-0.737 0.331-0.962-0.054-0.695 0.921 0.134 0.488 1.082 0.627 0.582-0.349-0.746 1.059-0.9 0.247-5.4-0.323-0.448-0.411-0.065-0.058-0.399-0.152-1.363-0.528-0.331-0.716 0.292-0.576-0.369-0.756 0.339-0.582 0.373-0.635-0.065-0.85-1.131 0.014-0.587-0.515 1.392-0.326-0.28-0.823-0.51 0.085-0.387-0.501-0.731-0.035-0.337 0.415-0.259-0.635-0.692-0.366-1.061 0.165-0.618 1.037-0.521-0.393-1.238 0.264-0.361 0.389-1.297-1.14-0.435 0.031-0.134 0.156 1.025 0.908 0.084 0.747 0.949 0.192 0.894 1.078-0.752-0.076-2.713-1.578-0.387-0.497 0.265-3.985 0.125-1.851 0.441-1.562 1.551-3.05 0.34-0.057 0.417-0.569 0.143-0.876 0.475-0.783 2.567-1.82 4.222 0.55 4.529 0.885 2.665 0.523z"/>
   <path transform="matrix(.0050693 0 0 .0050693 .39721 290.61)" d="m862.91 124.96-0.88 0.733-0.429 1.436-0.39-0.278-0.493-0.652 0.668-0.376 0.725-1.261 1.166-1.087h0.423l-0.134 0.465 0.367 0.881z"/>
   <path transform="matrix(.0050693 0 0 .0050693 .39721 290.61)" d="m631.65 177.36 2.234-1.533 1.705-0.569 2.996-1.673 2.66-0.473 1.992 0.469 0.775 0.98-0.313 0.867 0.086 0.523-0.366 1.047-0.972 0.166-0.34 0.089 0.086 2.808-0.793 0.618-0.414 1.118-1.533 2.196-0.504 0.045-0.516-0.322-0.331-1.199 0.522-1.333 0.042-0.112-0.289-3.479-1.607 2.084-0.126 2.867 0.403 0.76-0.674 0.107-0.766-0.335-0.647-0.814-1.029-0.17-0.856-0.818-0.411 0.492 0.498 0.555 1.046 0.2 0.138 0.367-1.071 0.156-0.635-0.249-1.041-1.49-0.325-0.465-0.28-1.306 0.12-1.1z"/>
   <path transform="matrix(.0050693 0 0 .0050693 .39721 290.61)" d="m818.53 89.469-0.861 0.461-0.057-1.244 0.874-0.031z"/>
   <path transform="matrix(.0050693 0 0 .0050693 .39721 290.61)" d="m823.25 95.274-0.435 0.689-0.304 0.089-0.448-0.59-0.086-0.818 0.707-0.166z"/>
   <path transform="matrix(.0050693 0 0 .0050693 .39721 290.61)" d="m818.15 126.5 0.148 0.166 0.647 0.707-0.623 0.764-0.545-4e-3 -0.555-0.76-0.092-0.126 0.167-0.631 0.775-0.107z"/>
   <path transform="matrix(.0050693 0 0 .0050693 .39721 290.61)" d="m849.62 148.85 1.032 1.377-0.45 0.296-0.361 0.903-0.486-1.382-0.722-0.166-0.87-1.694z"/>
   <path transform="matrix(.0050693 0 0 .0050693 .39721 290.61)" d="m935.24 198.89-0.916-0.121-0.563-0.532-1.373-0.385-3.133 0.152-3.483 0.175-0.825 0.295-3.152-0.836-0.936 0.174-1.461 0.756-2.144-0.93-0.82-0.112-1.643 0.926-0.641 0.129-1.243 1.812-0.999 0.353-0.394 0.93-1.097-0.245-0.919 0.219-3.738 0.885-0.88-0.336-0.185-0.572 1.783 0.045 0.599-0.501 0.43-0.885-0.227-0.945-0.62-0.425-1.175-0.286-0.489-0.822-0.22 0.093-0.188 1.682-0.841 1.592-0.092 0.842-1.068 0.607-1.577 0.345-0.823-0.072-0.316 0.228-0.209-0.125-0.495-0.304-1.631-0.291-0.432-0.388-0.477-0.43-0.561-0.193-2.072-0.071-0.492-0.819 0.611-0.648 0.352-1.038 0.206-0.612 0.396-0.229 2.031 0.103 1.804-0.876 1.619 0.031 0.927-0.474 0.611-1.02 1.321-0.255 0.951-0.693 0.641-1.19 0.251-0.469-0.137-1.011 0.539-0.729-0.769-2.062 0.2-1.793-0.993-2.344-2.311-1.717-0.352-0.582-0.023-1.297 0.721-1.968 0.907-1.033 2.224 0.268 1.106-0.568 0.236 0.041 1.568 0.268 0.34 0.322 0.34 1.069-0.48 1.655 1.177 0.291-2.116 1.771 0.572 1.234-0.68 1.235 0.224 1.717 0.796-0.04-0.108-0.895 1.08-1.829-0.569-0.863 0.283-0.309 1.732-0.55 0.558 0.237 0.22-0.062 0.597-0.161 1.013 0.273 1.041-0.354 0.742 0.067-0.012 0.479-1.362 0.621-0.173 0.43 0.724 0.948 2.505 1.109 0.382-0.447-0.197-0.828-0.656-0.098 9e-3 -0.81 1.053-1.57-0.29-1.135 0.596-1.942-0.229-1.279 0.301-0.823-0.343-1.028-0.122-0.058-0.275-0.125-0.149-2.009-0.798-0.702-0.901-0.152-0.406-0.478-0.42 0.035v0.738l-0.477 0.881-0.76 0.08-0.278-2.352-0.411-0.443 0.48-0.549-0.48-0.559-0.021-0.927-2.162-2.701 0.051-0.25 0.045-0.224-0.289-0.085-0.442-0.125-0.673 0.787-1.736-0.188-0.355-0.38-0.092-0.103-1.067 0.206-1.903-0.206-0.355 2.818 0.447 0.112 0.618 0.827 0.125 0.751-1.512 1.57-0.983 2.093-1.429 0.063-0.498 0.362-0.82-0.148-0.283 0.309-0.68 0.09-0.429 0.483-9e-3 0.85-0.683-0.247-0.415-0.774-0.021-0.965 0.35-0.519 1.353-2.03-0.197-0.868 0.555-0.47 0.325 0.841 0.722-0.859-0.174-1.825 0.403-1.002 2.093-0.778-0.047-0.335-0.662-0.058-2.01 0.782-0.298 0.421 0.05 1.954-0.28 0.081-0.152-0.479-0.614-0.496-0.856-0.188-0.948 0.25-0.104 0.586-0.406 0.13-2.284 0.747-0.399 0.59-0.808 0.524-0.877 1.882-1.381 0.032-0.548 0.434-0.767-0.622-0.724 0.125-0.486-1.301 0.784-1.928 0.835 0.107 1.017-2.017-0.033-0.823v-0.031l0.841-0.814 0.024-0.09 0.477-1.788 0.405-0.667 0.513-0.845-0.149-0.935 0.531-1.024-0.632-2.236-0.51-0.305-1.237-0.178-0.868-1.257-0.838-0.366-9e-3 -0.305-0.039-1.176-1.103-1.391-0.516 0.514-0.42-0.317-0.254-1.181-0.435-0.631 0.069-1.399 0.53-1.025 1.771-1.252 0.141-0.022 2.716-0.403 0.635 0.318 0.829 0.845 1.863 4.777 1.432 2.562 2.171 2.331 0.557 0.272 0.635 1.051 3.119 1.919 0.268 0.166 1.509 0.93 0.041 0.013 1.861 0.559 0.883 0.703 4.776 1.417 2.287 1.239 6.405 6.566 0.855 0.881 1.703 1.185 3.864 3.453 2.764 3.068 0.552 0.612 0.161 0.18 1.78 1.976 0.182 0.116 0.674 0.43 0.423 0.268 3.146 1.999"/>
   <path transform="matrix(.0050693 0 0 .0050693 .39721 290.61)" d="m941.28 224.3 0.164 0.237-0.244 0.416-0.588-0.049-1.052 0.492-0.29-0.729 1.107-0.6 0.712-0.044z"/>
   <path transform="matrix(.0050693 0 0 .0050693 .39721 290.61)" d="m936.47 188.95-0.99 0.823-0.943 0.796-2.569 0.247 1.496 0.764 1.312 1.266 0.426 1.369 0.036 0.577 0.051 0.872-0.015 0.684-0.051 2.545"/>
   <path transform="matrix(.0050693 0 0 .0050693 .39721 290.61)" d="m340.27 1193.4-0.218-0.215 0.314-0.759 0.065-0.157 0.265-0.958-0.116-0.667 0.104-1.229 0.201-0.063 0.554-0.174 0.894-0.05 0.704-0.017 1.073 0.067 0.585 0.594 0.259 0.944 0.656 1.323 0.108 0.216 0.038 0.295-0.939 0.098-0.993-0.487-0.76-0.054-1.249 0.579-0.605 0.279z"/>
   <path d="m2.5811 296.7c0.00229 9e-3 0.00963 0.0147 0.010447 0.0239 8.025e-4 7e-3 0.00942 7e-3 0.012679 0.0129 0.00633 4e-3 0.013449-1e-3 0.019648-6.1e-4 0.00811-5.8e-4 0.00712 0.0157 0.016326 0.0143 0.0085 2.9e-4 0.012162 0.011 0.021066 0.0112 0.00813-2e-3 0.012154 3e-3 0.012916 9e-3 0.00369-2e-3 0.011273-5e-3 0.01685-2e-3 0.00373 6e-3 0.00744 0.0124 0.014123 0.0161 0.00727 4e-3 0.00367 0.0177-0.00517 0.0154-0.00626 1e-3 -0.014409-2e-3 -0.019272-5.8e-4 0.00466 0.0115-0.00499-2e-3 -0.00641 7e-3 2.696e-4 9e-3 -0.0064 0.0108-0.013076 7e-3 -0.00538 5e-3 -0.014857-7e-3 -0.00752-0.0104 0.00182-8e-3 -0.012059 1e-3 -0.011272 6e-3 -0.00549 2e-3 -0.00934 8e-3 -0.016473 7e-3 -0.0062-3e-3 -0.014043-5e-3 -0.01426-0.0128-0.00596 2e-3 0.00264 0.0129-0.0063 4e-3 -0.00156 0.0102-0.011942 0.015-0.02142 0.0144-0.00762 1e-3 -0.016739 1e-3 -0.021585-6e-3 -0.00782-4e-3 -0.014197-0.01-0.02106-0.0148-0.00562 1.3e-4 0.00266-0.0108-0.00851-0.012-0.00687-5e-3 -0.012878-0.0107-0.019311-0.0155-0.00636-5e-3 -0.00301-0.0132-0.00316-0.0196-0.0034-8e-3 -0.013517-9e-3 -0.019892-0.014-0.013825-6e-3 -0.022806-0.0193-0.036225-0.0263-0.0072-3e-3 -0.014509-6e-3 -0.021427-0.01-0.00848-1e-3 -0.012808-0.0103-0.021617-0.011-0.00686-1e-3 -0.00819-9e-3 -0.011845-0.0128-0.00566-6e-3 -0.012559-3e-3 -0.019021-2e-3 -0.01058-2e-3 -0.023651 8.1e-4 -0.031856-8e-3 -0.00607 1e-3 -0.012628 8.7e-4 -0.019474-1e-3 -0.00515 2e-3 -0.012209 1e-3 -0.018837 2e-3 -0.00757 2.4e-4 -0.012913 6e-3 -0.020214 8e-3 -0.00411 6e-3 -0.011283 7e-3 -0.017872 9e-3 -0.010085 9.2e-4 -0.020937 0.0112-0.030643 5e-3 -0.00451-5e-3 -0.012618-3e-3 -0.017151-9e-3 -0.0089-2e-3 -0.010868-0.0132-0.020335-0.0134-0.011393-2e-3 0.00506-4e-3 0.00857-1.8e-4 0.00669 8e-3 0.015355 0.0161 0.026551 0.0148 0.00713 3e-3 0.01582 1e-3 0.022057-3e-3 0.00801 3e-3 0.014682-5e-3 0.020669-9e-3 0.00587-2e-3 0.010856-8e-3 0.016932-0.0105 0.00795-2e-3 0.00789-0.0111 0.00168-0.0155-0.00639-5e-3 -0.014618-7e-3 -0.020615-0.0131-0.00653 1e-3 -0.015165-9e-3 -0.00556-0.0105 0.010952-4e-3 0.021587 4e-3 0.031124 9e-3 0.00902 6e-3 -0.00294-7e-3 -0.00704-9e-3 -0.00597-9e-3 0.00677-5e-3 0.00931 8.1e-4 0.011661 7e-3 0.025406 0.0106 0.035748 0.02 0.00729 4.3e-4 0.012697 4e-3 0.016614 0.0101 0.00473 8e-3 -0.00904 2e-3 -0.012724 5e-3 -0.0045-3e-3 -0.00944-0.0104-0.015156-0.0108-0.00537-8e-3 -0.00983 1e-3 -0.00507 6e-3 0.00901 8e-3 0.022285 8e-3 0.033827 8e-3 0.00682 1e-3 0.00821 0.0135 0.016965 0.0124 0.00778 3e-4 0.016028-2e-3 0.022814 3e-3 0.00517 1e-3 0.016939 3e-3 0.017282-4e-3 -0.00131-6e-3 2.702e-4 -0.0133-0.00693-0.0165-0.012328-3e-3 7.602e-4 -7e-3 -0.00192-0.01-0.00891 3e-3 -0.011014-4e-3 -0.010033-0.0109 3.053e-4 -8e-3 -0.00506-0.0145-0.011469-0.0193-0.00408-7e-3 -0.012741-3e-3 -0.017418-9e-3 -0.00879-7e-3 -0.019801-0.0107-0.028227-0.0184-0.00437-4e-3 -0.013812-9e-3 -0.011413-0.0152-0.00451-3e-3 -0.013855-9e-3 -0.00737-0.0145 0.00352-3e-3 0.014113 8.5e-4 0.016828 6e-3 0.00383 6e-3 0.010394 9e-3 0.016685 0.0111 0.00649 6e-3 0.014365 0.0102 0.019953 0.0174 0.012644 3e-3 0.023611 0.0106 0.03361 0.0189 0.00792 6.3e-4 0.012931 6e-3 0.016981 0.0121 0.00114 7e-3 1.761e-4 0.0142 0.00686 0.0188 0.00675 9e-3 0.017566 0.0144 0.027503 0.0193 0.00592 5e-3 0.011196 0.0104 0.018725 0.0119 0.00546 2e-3 0.00858 0.01 0.014767 6e-3 0.00656-1e-3 0.012185-3e-3 0.018439-3e-3 0.00735-4e-3 0.017442-3e-3 0.021779 5e-3 0.00911 2e-3 0.017085 9e-3 0.026939 6e-3 0.00794-2e-3 0.015174 5e-3 0.018914 0.0114z"/>
  </g>
 </g>
</svg>
