<?xml version="1.0" encoding="UTF-8"?>
<svg width="74" height="74" version="1.1" viewBox="0 0 19.579 19.579" xmlns="http://www.w3.org/2000/svg">
 <g transform="translate(0 -277.42)">
  <circle cx="9.7896" cy="286.15" r="8.7312" fill="#e5eef8" stroke-width=".37042"/>
 </g>
 <g fill="none" stroke="#004f80">
  <g stroke-width=".365">
   <path d="m10.461 18.847h-2.4789c-0.15547 0-0.28063-0.12516-0.28063-0.28063v-10.056c0-0.15547 0.12516-0.28063 0.28063-0.28063h2.4789c0.15547 0 0.28063 0.12516 0.28063 0.28063v7.892"/>
   <path d="m8.4104 18.847h-2.506m-0.28063-2.1147v-4.293c0-0.15547 0.12516-0.28063 0.28063-0.28063h1.7773"/>
   <path d="m4.1723 16.835h1.7773c0.15547 0 0.28063 0.12516 0.28063 0.28063v1.4499c0 0.15547-0.12516 0.28063-0.28063 0.28063h-3.3648l1.3186-0.01072-0.011693-1.6868c-0.00108-0.15547 0.12516-0.31371 0.28063-0.3137z"/>
   <path d="m13.822 18.847h-3.6778m0.60804-7.6706h2.8804c0.15547 0 0.28063 0.12516 0.28063 0.28063v2.4103"/>
  </g>
  <path d="m13.732 13.844 1.6752-0.0015c0.15547-1.36e-4 0.28063 0.12516 0.28063 0.28063v4.7123l1.3069 0.01169h-3.5519" stroke-width=".365"/>
  <g stroke-width=".265">
   <path d="m11.466 11.197-2.58e-4 -0.57295c-5.2e-5 -0.11502 0.0933-0.20762 0.2092-0.20762h1.3249c0.1159 0 0.20914 0.0926 0.2092 0.20762l2.58e-4 0.57295"/>
   <path d="m11.581 16.447c-0.4608 5.52e-4 -0.85556 0.1594-0.93831 0.80505-0.60527 0.14279-1.034 0.89901-1.0346 1.5311h1.9092s0.57806-4.83e-4 0.91643 0h1.3746c-5.84e-4 -0.71203-0.36936-1.1654-1.2744-1.1471-0.02254-0.7265-0.44245-1.1886-0.95302-1.1891z"/>
   <path d="m9.8404 10.98v4.8642h-1.2382v-6.0937h1.2382z"/>
  </g>
  <path d="m14.077 15.732h-2.4561v-0.67689h3.0769v0.67689z" stroke-width=".265"/>
 </g>
</svg>
