<svg height="63" viewBox="0 0 123 63" width="123" xmlns="http://www.w3.org/2000/svg"><g fill="#fff" fill-rule="evenodd" transform="translate(.5 .5)"><path d="m44.748 2.883c0 .286-.036.536-.107.75-.072.214-.169.399-.292.553-.123.155-.266.28-.428.375-.163.095-.331.167-.506.214v.024c.214.04.415.115.601.226s.349.25.488.417.25.363.333.589c.084.226.125.474.125.744 0 .325-.055.622-.167.892-.111.27-.283.504-.517.702-.234.199-.53.353-.887.464-.357.112-.781.167-1.273.167h-1.678v-8.211h1.583c.484 0 .898.05 1.243.149s.629.24.851.422c.222.183.383.403.482.661s.149.545.149.862zm-1.047.036c0-.381-.135-.694-.405-.94s-.694-.369-1.273-.369h-.548v2.832h.536c.555 0 .976-.135 1.261-.404.286-.27.429-.643.429-1.119zm.154 3.784c0-.444-.144-.795-.434-1.053-.289-.258-.704-.387-1.244-.387h-.702v2.88h.643c.611 0 1.053-.121 1.327-.363s.41-.601.41-1.077zm6.379 2.297h-.881v-.643h-.024c-.023.048-.075.117-.154.209-.08.091-.181.178-.304.261-.123.084-.272.157-.446.221-.175.063-.369.095-.583.095-.254 0-.482-.038-.684-.113-.203-.076-.375-.197-.518-.363-.143-.167-.252-.383-.327-.649-.076-.265-.113-.593-.113-.982v-3.748h.964v3.677c0 .476.077.815.232 1.018.154.202.394.303.72.303.277 0 .511-.069.702-.208.19-.139.341-.276.452-.411v-4.379h.964zm4.593 0v-3.677c0-.484-.081-.831-.244-1.041-.162-.211-.41-.316-.743-.316-.286 0-.524.072-.715.214-.19.143-.341.282-.452.417v4.403h-.964v-5.712h.881v.643h.024c.024-.048.075-.117.155-.209.079-.091.182-.178.309-.261.127-.084.278-.157.452-.221.175-.063.373-.095.595-.095.254 0 .484.038.69.113.207.076.381.197.524.363.143.167.254.383.333.649s.119.593.119.982v3.748zm2.142-2.773c0-.579.076-1.063.226-1.452.151-.388.345-.702.583-.94s.508-.406.81-.505c.301-.1.602-.149.904-.149.182 0 .341.014.476.042.135.027.246.061.333.101v-2.737l.964-.107v8.52h-.881v-.607h-.023c-.024.048-.068.113-.131.196-.064.084-.151.167-.262.25-.111.084-.25.155-.417.215-.166.059-.361.089-.583.089-.269 0-.525-.054-.767-.161s-.454-.278-.637-.512c-.182-.234-.327-.535-.434-.904s-.161-.815-.161-1.339zm2.261 2.059c.151 0 .286-.02.405-.059.119-.04.222-.09.309-.149.087-.06.161-.121.22-.185.06-.063.106-.119.137-.166v-3.523c-.087-.055-.188-.103-.303-.142-.115-.04-.26-.06-.435-.06-.222 0-.43.038-.624.113-.195.075-.363.2-.506.375-.143.174-.256.401-.339.678-.084.278-.125.619-.125 1.024 0 .396.033.727.101.993.067.266.161.48.28.643s.253.279.404.351c.151.071.31.107.476.107zm7.176-3.07c0 .246-.008.458-.024.636-.016.179-.032.336-.047.471h-2.916c.032.674.176 1.17.434 1.487s.629.476 1.113.476c.167 0 .317-.02.452-.059.135-.04.252-.088.351-.143.099-.056.183-.111.25-.167.068-.055.117-.099.149-.131l.357.679c-.04.039-.099.097-.179.172-.079.075-.186.151-.321.226s-.301.141-.5.197c-.198.055-.432.083-.702.083-.357 0-.68-.06-.97-.179-.289-.119-.535-.303-.737-.553-.203-.25-.359-.567-.471-.952-.111-.385-.166-.847-.166-1.386 0-.508.057-.946.172-1.315.116-.369.272-.673.47-.911.199-.238.429-.414.691-.529s.543-.173.845-.173c.547 0 .975.173 1.285.518.309.345.464.863.464 1.553zm-1.809-1.285c-.341 0-.615.142-.821.428s-.325.698-.357 1.238h2.083c.007-.04.013-.098.017-.173s.006-.157.006-.244c0-.397-.079-.704-.238-.922-.158-.218-.388-.327-.69-.327zm5.557.511c-.063-.071-.178-.168-.345-.291-.166-.123-.385-.185-.654-.185-.254 0-.448.06-.583.179s-.203.262-.203.428c0 .214.062.391.185.53s.311.287.565.446l.357.214c.389.23.694.478.916.744.223.266.334.609.334 1.029 0 .453-.157.833-.47 1.143-.314.309-.764.464-1.351.464-.23 0-.433-.024-.607-.072-.175-.047-.327-.103-.458-.166-.131-.064-.24-.133-.327-.208-.088-.076-.159-.145-.215-.209l.464-.761c.048.047.106.103.173.166.068.064.149.125.244.185.095.059.202.109.321.149.119.039.258.059.417.059.285 0 .504-.063.654-.19.151-.127.226-.282.226-.464 0-.135-.017-.252-.053-.352-.036-.099-.089-.188-.161-.267-.071-.08-.159-.155-.262-.226-.103-.072-.222-.151-.357-.238l-.357-.226c-.357-.231-.636-.472-.838-.726-.203-.254-.304-.579-.304-.976 0-.214.042-.411.125-.589.083-.179.2-.333.351-.464s.327-.234.53-.31c.202-.075.418-.113.648-.113.222 0 .413.022.571.066.159.043.296.099.411.166.115.068.21.135.285.202.076.068.137.125.185.173zm4.701 4.558v-3.677c0-.468-.068-.805-.202-1.012-.135-.206-.353-.309-.655-.309-.159 0-.299.02-.422.06-.123.039-.232.089-.328.148-.095.06-.178.125-.25.197-.071.071-.13.134-.178.19v4.403h-.964v-5.712h.881v.643h.023c.04-.064.1-.141.179-.232.079-.092.178-.179.297-.262.119-.084.258-.153.417-.208.159-.056.337-.084.535-.084.651 0 1.111.254 1.381.762.055-.08.131-.165.226-.256s.206-.175.333-.25.27-.137.429-.184c.158-.048.333-.072.523-.072 1.159 0 1.738.675 1.738 2.023v3.832h-.964v-3.677c0-.468-.084-.805-.25-1.012-.167-.206-.413-.309-.738-.309-.27 0-.494.065-.672.196-.179.131-.32.256-.423.375.016.087.028.181.036.28s.012.204.012.315v3.832zm5.402 0h.964v-5.712h-.964zm.488-7.092c-.198 0-.357-.064-.476-.191s-.178-.293-.178-.5c0-.198.059-.361.178-.488.119-.126.278-.19.476-.19.191 0 .345.064.464.19.119.127.179.29.179.488 0 .207-.06.373-.179.5s-.273.191-.464.191zm5.07 7.092v-3.677c0-.484-.082-.831-.244-1.041-.163-.211-.411-.316-.744-.316-.286 0-.524.072-.714.214-.19.143-.341.282-.452.417v4.403h-.964v-5.712h.881v.643h.023c.024-.048.076-.117.155-.209.079-.091.183-.178.309-.261.127-.084.278-.157.453-.221.174-.063.373-.095.595-.095.254 0 .484.038.69.113.206.076.381.197.523.363.143.167.254.383.334.649.079.266.119.593.119.982v3.748zm2.404 0h.964v-5.712h-.964zm.487-7.092c-.198 0-.356-.064-.476-.191-.119-.127-.178-.293-.178-.5 0-.198.059-.361.178-.488.12-.126.278-.19.476-.19.191 0 .346.064.465.19.119.127.178.29.178.488 0 .207-.059.373-.178.5s-.274.191-.465.191zm4.415 2.534c-.063-.071-.178-.168-.345-.291-.166-.123-.384-.185-.654-.185-.254 0-.448.06-.583.179s-.203.262-.203.428c0 .214.062.391.185.53s.311.287.565.446l.357.214c.389.23.694.478.916.744s.334.609.334 1.029c0 .453-.157.833-.47 1.143-.314.309-.764.464-1.351.464-.23 0-.433-.024-.607-.072-.175-.047-.327-.103-.458-.166-.131-.064-.24-.133-.327-.208-.088-.076-.159-.145-.215-.209l.464-.761c.048.047.106.103.173.166.067.064.149.125.244.185.095.059.202.109.321.149.119.039.258.059.417.059.285 0 .504-.063.654-.19.151-.127.226-.282.226-.464 0-.135-.017-.252-.053-.352-.036-.099-.089-.188-.161-.267-.071-.08-.158-.155-.262-.226-.103-.072-.222-.151-.357-.238l-.357-.226c-.357-.231-.636-.472-.839-.726-.202-.254-.303-.579-.303-.976 0-.214.042-.411.125-.589.083-.179.2-.333.351-.464s.327-.234.53-.31c.202-.075.418-.113.648-.113.222 0 .413.022.571.066.159.043.296.099.411.166.115.068.21.135.286.202.075.068.136.125.184.173zm4.142-.369h-1.25v3.166c0 .404.052.68.155.827s.277.22.523.22c.143 0 .266-.02.369-.059.103-.04.179-.076.226-.108l.131.774c-.039.032-.135.081-.285.149-.151.067-.353.101-.607.101-.492 0-.861-.137-1.107-.411-.246-.273-.369-.728-.369-1.362v-3.297h-.69v-.642l.69-.143.107-1.595h.857v1.595h1.369zm4.676 1.143c0 .246-.008.458-.024.636-.015.179-.031.336-.047.471h-2.916c.032.674.177 1.17.435 1.487s.629.476 1.112.476c.167 0 .318-.02.453-.059.135-.04.252-.088.351-.143.099-.056.182-.111.25-.167.067-.055.117-.099.148-.131l.357.679c-.039.039-.099.097-.178.172-.08.075-.187.151-.322.226-.134.075-.301.141-.499.197-.199.055-.433.083-.702.083-.357 0-.681-.06-.97-.179-.29-.119-.536-.303-.738-.553s-.359-.567-.47-.952-.167-.847-.167-1.386c0-.508.058-.946.173-1.315s.272-.673.47-.911.428-.414.69-.529.543-.173.845-.173c.547 0 .976.173 1.285.518.31.345.464.863.464 1.553zm-1.808-1.285c-.342 0-.615.142-.822.428-.206.286-.325.698-.357 1.238h2.083c.008-.04.014-.098.018-.173s.006-.157.006-.244c0-.397-.08-.704-.238-.922-.159-.218-.389-.327-.69-.327zm5.604.202c-.023-.016-.075-.036-.154-.06-.08-.023-.187-.035-.322-.035-.301 0-.537.081-.708.244-.17.162-.291.339-.363.529v4.189h-.963v-5.712h.88v.774h.024c.04-.112.091-.221.155-.328.063-.107.142-.202.238-.285.095-.084.208-.149.339-.197.131-.047.287-.071.47-.071.135 0 .244.012.327.036.083.023.149.043.196.059zm.952 4.867h.964v-5.712h-.964zm.488-7.092c-.198 0-.357-.064-.476-.191s-.178-.293-.178-.5c0-.198.059-.361.178-.488.119-.126.278-.19.476-.19.191 0 .345.064.464.19.119.127.179.29.179.488 0 .207-.06.373-.179.5s-.273.191-.464.191zm5.95 7.092h-.88v-.643h-.024c-.024.048-.076.117-.155.209-.079.091-.18.178-.303.261-.123.084-.272.157-.447.221-.174.063-.368.095-.583.095-.253 0-.482-.038-.684-.113-.202-.076-.375-.197-.518-.363-.142-.167-.251-.383-.327-.649-.075-.265-.113-.593-.113-.982v-3.748h.964v3.677c0 .476.078.815.232 1.018.155.202.395.303.72.303.278 0 .512-.069.702-.208.191-.139.341-.276.452-.411v-4.379h.964zm4.475 0v-3.677c0-.468-.068-.805-.203-1.012-.135-.206-.353-.309-.654-.309-.159 0-.3.02-.423.06-.123.039-.232.089-.327.148-.095.06-.178.125-.25.197-.071.071-.131.134-.178.19v4.403h-.964v-5.712h.88v.643h.024c.04-.064.099-.141.179-.232.079-.092.178-.179.297-.262.119-.084.258-.153.417-.208.159-.056.337-.084.535-.084.651 0 1.111.254 1.381.762.055-.08.131-.165.226-.256s.206-.175.333-.25.27-.137.428-.184c.159-.048.334-.072.524-.072 1.158 0 1.737.675 1.737 2.023v3.832h-.964v-3.677c0-.468-.083-.805-.249-1.012-.167-.206-.413-.309-.738-.309-.27 0-.494.065-.672.196-.179.131-.32.256-.423.375.016.087.028.181.036.28s.012.204.012.315v3.832zm-74.958 7.073h-1.167v4.927h-.963v-4.927h-.691v-.642l.691-.131v-1.142c0-.31.043-.576.13-.798.088-.222.203-.404.345-.547.143-.143.31-.246.5-.31.191-.063.393-.095.607-.095.206 0 .381.028.524.084.143.055.238.099.285.13l-.202.798c-.048-.032-.115-.066-.202-.102-.088-.035-.195-.053-.322-.053-.23 0-.404.071-.523.214s-.179.405-.179.786v1.023h1.286zm4.95 4.927h-.881v-.643h-.023c-.024.048-.076.117-.155.209-.079.091-.181.178-.304.261-.123.084-.271.157-.446.221-.174.063-.369.095-.583.095-.254 0-.482-.038-.684-.113-.202-.076-.375-.197-.518-.363-.143-.167-.252-.383-.327-.649s-.113-.593-.113-.982v-3.748h.964v3.677c0 .476.077.815.232 1.018.155.202.394.303.72.303.278 0 .511-.069.702-.208.19-.139.341-.276.452-.411v-4.379h.964zm-2.368-7.354c0 .182-.056.329-.167.44s-.246.167-.404.167c-.159 0-.294-.056-.405-.167s-.167-.258-.167-.44c0-.183.056-.329.167-.441.111-.111.246-.166.405-.166.158 0 .293.055.404.166.111.112.167.258.167.441zm1.833 0c0 .182-.056.329-.167.44s-.246.167-.405.167c-.158 0-.293-.056-.404-.167s-.167-.258-.167-.44c0-.183.056-.329.167-.441.111-.111.246-.166.404-.166.159 0 .294.055.405.166.111.112.167.258.167.441zm4.521 2.487c-.023-.016-.075-.036-.154-.06-.08-.023-.187-.035-.322-.035-.301 0-.537.081-.708.244-.17.162-.291.339-.362.529v4.189h-.964v-5.712h.88v.774h.024c.04-.112.091-.221.155-.328.063-.107.143-.202.238-.285.095-.084.208-.149.339-.197.131-.047.287-.071.47-.071.135 0 .244.012.327.036.083.023.149.043.197.059zm8.449 4.32c-.055.047-.138.109-.249.184-.112.075-.256.151-.435.226-.178.075-.391.141-.636.197-.246.055-.528.083-.845.083-.468 0-.903-.074-1.303-.22-.401-.147-.746-.387-1.036-.72-.289-.333-.515-.776-.678-1.327s-.244-1.232-.244-2.041c0-.77.101-1.42.304-1.952.202-.531.468-.963.797-1.297.329-.333.702-.573 1.119-.72.416-.146.842-.22 1.279-.22.309 0 .573.028.791.083.218.056.405.123.559.203.155.079.28.158.375.238.095.079.175.147.238.202l-.488.726c-.039-.04-.099-.093-.178-.161-.08-.067-.181-.133-.304-.196-.123-.064-.269-.119-.44-.167-.171-.047-.371-.071-.601-.071-.309 0-.605.056-.886.167-.282.111-.53.297-.744.559s-.387.605-.518 1.029c-.131.425-.196.95-.196 1.577 0 .619.047 1.144.143 1.577.095.432.238.785.428 1.059.19.273.424.472.702.595s.603.184.976.184c.206 0 .4-.02.583-.059.182-.04.345-.087.488-.143v-2.392h-1.309v-.821h2.308zm5.082-3.237c0 .246-.008.458-.024.636-.016.179-.032.336-.048.471h-2.915c.032.674.176 1.17.434 1.487s.629.476 1.113.476c.166 0 .317-.02.452-.059.135-.04.252-.088.351-.143.099-.056.183-.111.25-.167.067-.055.117-.099.149-.131l.357.679c-.04.039-.099.097-.179.172-.079.075-.186.151-.321.226s-.302.141-.5.197c-.198.055-.432.083-.702.083-.357 0-.68-.06-.97-.179-.289-.119-.535-.303-.738-.553-.202-.25-.358-.567-.47-.952-.111-.385-.166-.847-.166-1.386 0-.508.057-.946.172-1.315s.272-.673.47-.911c.199-.238.429-.414.691-.529.261-.115.543-.173.844-.173.548 0 .976.173 1.286.518.309.345.464.863.464 1.553zm-1.809-1.285c-.341 0-.615.142-.821.428s-.325.698-.357 1.238h2.082c.008-.04.014-.098.018-.173s.006-.157.006-.244c0-.397-.079-.704-.238-.922s-.389-.327-.69-.327zm5.557.511c-.063-.071-.178-.168-.345-.291-.166-.123-.385-.185-.654-.185-.254 0-.448.06-.583.179s-.203.262-.203.428c0 .214.062.391.185.53s.311.287.565.446l.357.214c.389.23.694.478.916.744s.333.609.333 1.029c0 .452-.156.833-.469 1.143-.314.309-.764.464-1.351.464-.23 0-.433-.024-.607-.072-.175-.047-.327-.103-.458-.166-.131-.064-.24-.133-.328-.208-.087-.076-.158-.145-.214-.209l.464-.761c.048.047.106.103.173.166.067.064.149.125.244.185.095.059.202.109.321.149.119.039.258.059.417.059.285 0 .503-.064.654-.19.151-.127.226-.282.226-.464 0-.135-.018-.252-.053-.352-.036-.099-.09-.188-.161-.267-.071-.08-.159-.155-.262-.226-.103-.072-.222-.151-.357-.238l-.357-.226c-.357-.231-.636-.472-.839-.726-.202-.254-.303-.579-.303-.976 0-.214.042-.411.125-.589.083-.179.2-.333.351-.464s.327-.234.529-.31c.203-.075.419-.113.649-.113.222 0 .412.022.571.066.159.043.296.099.411.166.115.068.21.135.285.202.076.068.137.125.185.173zm5.7 4.558h-.88v-.643h-.024c-.024.048-.075.117-.155.209-.079.091-.18.178-.303.261-.123.084-.272.157-.446.221-.175.063-.369.095-.584.095-.253 0-.481-.038-.684-.113-.202-.076-.375-.197-.517-.363-.143-.167-.252-.383-.328-.649-.075-.266-.113-.593-.113-.982v-3.748h.964v3.677c0 .476.078.815.232 1.018.155.202.395.303.72.303.278 0 .512-.069.702-.208.191-.139.341-.276.452-.411v-4.379h.964zm4.594 0v-3.677c0-.484-.081-.831-.244-1.041-.163-.211-.411-.316-.744-.316-.285 0-.524.072-.714.214-.19.143-.341.282-.452.417v4.403h-.964v-5.712h.881v.643h.023c.024-.048.076-.117.155-.209.079-.091.183-.178.309-.261.127-.084.278-.157.453-.221.174-.063.373-.095.595-.095.254 0 .484.038.69.113.206.076.381.197.523.363.143.167.254.383.334.649.079.266.119.593.119.982v3.748zm2.142-2.773c0-.579.075-1.063.226-1.452.151-.388.345-.702.583-.94s.508-.406.809-.505c.302-.1.603-.149.905-.149.182 0 .341.014.476.042.134.027.245.061.333.101v-2.737l.964-.107v8.52h-.881v-.607h-.024c-.024.048-.067.113-.131.196-.063.084-.15.167-.261.25-.112.084-.25.155-.417.215-.167.059-.361.089-.583.089-.27 0-.526-.054-.768-.161s-.454-.278-.636-.512c-.183-.234-.327-.535-.435-.904-.107-.369-.16-.815-.16-1.339zm2.261 2.059c.15 0 .285-.02.404-.059.119-.04.222-.09.31-.149.087-.06.16-.121.22-.185.06-.063.105-.119.137-.166v-3.523c-.088-.055-.189-.103-.304-.142-.115-.04-.26-.06-.434-.06-.222 0-.43.038-.625.113-.194.075-.363.2-.505.375-.143.174-.256.401-.34.678-.083.278-.125.619-.125 1.024 0 .396.034.728.102.993.067.266.16.48.279.643.119.162.254.279.405.351.151.071.309.107.476.107zm6.628.714v-3.677c0-.484-.081-.831-.244-1.041-.163-.211-.41-.316-.744-.316-.285 0-.523.072-.714.214-.19.143-.341.282-.452.417v4.403h-.964v-8.413l.964-.107v3.391h.024c.032-.047.081-.111.149-.19.067-.08.16-.159.279-.238.119-.08.264-.149.435-.209.17-.059.371-.089.601-.089.5 0 .896.163 1.19.488.293.325.44.865.44 1.619v3.748zm6.069-3.784c0 .246-.008.458-.024.636-.016.179-.031.336-.047.471h-2.916c.032.674.177 1.17.435 1.487.257.317.628.476 1.112.476.167 0 .318-.02.452-.059.135-.04.252-.088.352-.143.099-.056.182-.111.249-.167.068-.055.117-.099.149-.131l.357.679c-.04.039-.099.097-.178.172-.08.075-.187.151-.322.226s-.301.141-.5.197c-.198.055-.432.083-.702.083-.357 0-.68-.06-.969-.179-.29-.119-.536-.303-.738-.553-.203-.25-.359-.567-.47-.952s-.167-.847-.167-1.386c0-.508.058-.946.173-1.315s.271-.673.47-.911c.198-.238.428-.414.69-.529s.543-.173.845-.173c.547 0 .976.173 1.285.518s.464.863.464 1.553zm-1.809-1.285c-.341 0-.615.142-.821.428s-.325.698-.357 1.238h2.083c.008-.04.014-.098.018-.173.003-.075.005-.157.005-.244 0-.397-.079-.704-.238-.922-.158-.218-.388-.327-.69-.327zm3.094 5.069h.964v-5.712h-.964zm.488-7.092c-.198 0-.357-.064-.476-.191s-.178-.293-.178-.5c0-.198.059-.361.178-.488.119-.126.278-.19.476-.19.191 0 .345.064.464.19.119.127.179.29.179.488 0 .207-.06.373-.179.5s-.273.191-.464.191zm4.391 2.165h-1.249v3.166c0 .404.051.68.154.827.104.147.278.22.524.22.143 0 .266-.02.369-.059.103-.04.179-.076.226-.108l.131.774c-.04.032-.135.081-.286.149-.15.067-.353.101-.607.101-.491 0-.86-.137-1.106-.411-.246-.273-.369-.728-.369-1.362v-3.297h-.69v-.642l.69-.143.107-1.595h.857v1.595h1.368z"/><path d="m31.5 1h1.5v20h-3.5v-20z"/><path d="m31.5 60.625h1.5v.375h-3.5v-.375z"/><path d="m31.5 39.75h1.5v1.25h-3.5v-1.25z"/><path d="m31.5 58.625h1.5v.375h-3.5v-.375z"/><path d="m31.5 56.625h1.5v.375h-3.5v-.375z"/><path d="m31.5 54.625h1.5v.375h-3.5v-.375z"/><path d="m31.5 52.625h1.5v.375h-3.5v-.375z"/><path d="m31.5 50.625h1.5v.375h-3.5v-.375z"/><path d="m31.5 48.625h1.5v.375h-3.5v-.375z"/><path d="m31.5 46.625h1.5v.375h-3.5v-.375z"/><path d="m31.5 44.625h1.5v.375h-3.5v-.375z"/><path d="m31.5 42.625h1.5v.375h-3.5v-.375z"/><path d="m31.5 37.25h1.5v1.25h-3.5v-1.25z"/><path d="m31.5 34.75h1.5v1.25h-3.5v-1.25z"/><path d="m31.5 32.25h1.5v1.25h-3.5v-1.25z"/><path d="m31.5 29.75h1.5v1.25h-3.5v-1.25z"/><path d="m31.5 27.25h1.5v1.25h-3.5v-1.25z"/><path d="m31.5 24.75h1.5v1.25h-3.5v-1.25z"/><path d="m31.5 22.25h1.5v1.25h-3.5v-1.25z"/><path d="m20.392 7.991c1.023 1.619 1.825 1.592 3.035 1.592-1.001-.768-1.663-1.75-1.979-2.252l-1.87-2.992c-.183-.924-.661-1.788-1.376-2.431.24-.091.441-.187.561-.278-1.221 0-2.431-.62-3.097-.62-.428 0-.704.256-.704.594.028.376.416.76 1.133.76.162 0 .37-.021.598-.059.388.541.701 1.03.701 1.728 0 1.31-1.566 2.331-3.147 2.331-.09 0-.175-.004-.264-.01-.144-.325-.62-.871-.62-1.49 0-1.041.679-1.891.679-2.923 0-.64-.313-1.037-.433-1.202.195-.18.407-.402.456-.553-.112.048-.246.055-.442.055-.757 0-1.375-.197-1.978-.197-.343 0-.436.106-.436.207 0 .037.006.075.016.093-.128-.05-.248-.083-.392-.11-.177-.033-.369-.05-.572-.05-.732 0-.992.307-.992.569 0 .223.175.629.374.938.285-.143.627-.24.784-.24.388 0 .734.37.917.808-.261.031-.311.043-.575.043-.713 0-1.198-.255-1.298-.255-.01 0-.029.005-.029.02 0 .101.202.365.601.51.524.192 1.311.272 1.442.294 0 .023-.133.271-.282.318-.032.011-.056.012-.093.004-.548-.108-.701-.154-1.396-.419-.022-.007-.034.006-.034.028 0 .275.712.882 1.35 1.114-.533.681-1.199 1.377-1.512 2.438-.089.006-.175.01-.264.01-1.581 0-3.148-1.021-3.148-2.331 0-.698.314-1.187.702-1.728.228.038.435.059.598.059.717 0 1.105-.384 1.133-.76 0-.338-.275-.594-.705-.594-.666 0-1.875.62-3.097.62.121.091.321.187.561.278-.715.643-1.193 1.507-1.376 2.431l-1.869 2.992c-.315.502-.979 1.484-1.98 2.252 1.21 0 2.012.027 3.036-1.592l.958-1.534c.072.199.159.393.262.583l-1.907 3.051c-.318.506-.975 1.48-1.98 2.252 1.21 0 2.012.028 3.035-1.59l1.642-2.628c.123.131.252.259.388.381l-2.316 3.708c-.318.507-.972 1.478-1.98 2.25 1.21 0 2.013.029 3.036-1.59l2.258-3.615c.149.094.301.185.458.271l-2.756 4.41c-.318.508-.972 1.477-1.979 2.25 1.21 0 2.012.029 3.036-1.589l2.838-4.543c.167.064.338.126.511.181l-3.207 5.133c-.313.5-.982 1.486-1.978 2.25 1.209 0 2.011.027 3.035-1.59l3.418-5.47c.034.005.069.011.103.018.093.296.158.571.158.847 0 1.719-1.128 3.237-2.482 4.409.087.038.237.051.377.051.279 0 .46-.015.586-.037-.313.713-.987 1.633-1.327 2.11-.444-.08-1.088-.143-1.51-.143-.442 0-.492.259-.492.49 0 .401.187.72.406.898.082-.205.247-.479 1.063-.479.016 0 .044.002.082.004-.239.266-.986.87-.986 1.356 0 .322.354.805.819.805-.028-.104-.024-.2-.024-.271 0-.394.349-.855.644-1.177-.009.096-.005.086-.005.198 0 .931.085 1.359.676 1.359.29 0 .49-.159.559-.207-.384-.353-.404-.631-.404-1.153.001-.136.001-.269.003-.452.002-.12 0-.278-.02-.392.212-.029.298-.029.46-.029 0 0 .84-.067 1.042.37.228-.209.559-.504.559-.829 0-.215-.102-.458-.534-.458-.164 0-.679.1-1.11.1.116-.258.631-1.012 1.078-1.558.067.212.173.441.407.629.032-.352.239-1.465.789-2.116.064.44.15.891.15 1.842 0 2.313-.556 4.023-1.737 4.349.154.267.478.508.816.508.431 0 .667-.489.907-.95.125.34.47 1.174.816 1.174s.691-.834.816-1.174c.24.461.475.95.908.95.337 0 .662-.241.816-.508-1.181-.326-1.738-2.036-1.738-4.349 0-.951.086-1.402.15-1.842.55.651.757 1.764.789 2.116.235-.188.34-.417.408-.629.446.546.962 1.3 1.078 1.558-.432 0-.947-.1-1.11-.1-.432 0-.535.243-.535.458 0 .325.332.62.56.829.201-.437 1.042-.37 1.042-.37.162 0 .248 0 .46.029-.02.114-.021.272-.02.392.001.183.002.316.002.452 0 .522-.019.8-.403 1.153.069.048.269.207.559.207.591 0 .675-.428.675-1.359 0-.112.004-.102-.004-.198.295.322.644.783.644 1.177 0 .071.004.167-.025.271.466 0 .82-.483.82-.805 0-.486-.748-1.09-.987-1.356.039-.002.067-.004.082-.004.817 0 .982.274 1.064.479.218-.178.405-.497.405-.898 0-.231-.049-.49-.491-.49-.422 0-1.067.063-1.51.143-.341-.477-1.014-1.397-1.328-2.11.126.022.308.037.586.037.14 0 .291-.013.378-.051-1.354-1.172-2.483-2.69-2.483-4.409 0-.276.066-.551.159-.847.033-.007.068-.013.103-.018l3.418 5.47c1.023 1.617 1.826 1.59 3.035 1.59-.996-.764-1.665-1.75-1.978-2.25l-3.208-5.133c.174-.055.344-.117.512-.181l2.838 4.543c1.024 1.618 1.825 1.589 3.036 1.589-1.007-.773-1.661-1.742-1.979-2.25l-2.756-4.41c.156-.086.309-.177.457-.271l2.259 3.615c1.024 1.619 1.825 1.59 3.035 1.59-1.007-.772-1.661-1.743-1.979-2.25l-2.316-3.708c.136-.122.266-.25.387-.381l1.642 2.628c1.024 1.618 1.826 1.59 3.036 1.59-1.006-.772-1.662-1.746-1.98-2.252l-1.907-3.051c.103-.19.19-.384.262-.583zm-15.306-3.513c0-1.14.829-2.041 1.12-2.295.071.017.141.033.211.048-.311.378-.858 1.013-.858 1.853 0 1.668 1.782 3.116 3.8 3.116-.013.143-.02.293-.02.447 0 .247.013.476.038.692-2.282-.014-4.291-1.866-4.291-3.861zm3.092 13.673-.013.039h.04c.64 0 .952-.045 1.159-.076.108-.013.186-.025.27-.025.165 0 .292.015.292.219 0 .137-.16.354-.316.48-.236-.223-.563-.267-1.043-.267-.224 0-.518.041-.675.063l-.025.003-.028.004.009.075c.019.133.042.298.042.521l-.003.202-.003.251c0 .544.075.854.265 1.089-.049.018-.129.033-.18.033-.338 0-.436-.148-.436-1.121 0-.196-.011-.379-.017-.501l-.01-.181-.043.033c-.502.383-1.019 1.067-1.05 1.578-.151-.097-.315-.316-.315-.484 0-.279.42-.698.905-1.184l.28-.279.035-.036-.091-.023c-.105-.027-.299-.076-.464-.076-.545 0-.886.103-1.096.332-.076-.109-.139-.364-.139-.513 0-.097.019-.165.057-.204.048-.046.122-.046.187-.046h.014c.6 0 1.317.108 1.598.153l.016.004.011-.014c.048-.065 1.193-1.59 1.49-2.398.069-.026.128-.045.247-.045.226 0 .288.152.353.385-.715.869-1.161 1.545-1.323 2.009zm6.174-2.394c.12 0 .178.019.248.045.297.808 1.441 2.333 1.489 2.398l.011.014.017-.004c.28-.045.998-.153 1.598-.153h.013c.066 0 .14 0 .187.046.039.039.058.107.058.204 0 .149-.063.404-.139.513-.21-.229-.551-.332-1.097-.332-.164 0-.358.049-.463.076l-.043.01-.049.013.315.315c.486.486.906.905.906 1.184 0 .168-.164.387-.315.484-.032-.511-.548-1.195-1.051-1.578l-.043-.032-.008.18c-.008.122-.018.305-.018.501 0 .973-.099 1.121-.436 1.121-.052 0-.131-.015-.18-.033.19-.235.265-.545.265-1.089l-.003-.251-.003-.202c0-.223.023-.388.041-.521l.01-.075-.053-.007c-.158-.022-.451-.063-.675-.063-.481 0-.807.044-1.043.267-.156-.126-.316-.343-.316-.48 0-.204.126-.219.292-.219.084 0 .162.012.27.025.207.031.518.076 1.159.076h.039l-.012-.039c-.162-.464-.608-1.14-1.324-2.009.065-.233.128-.385.353-.385zm-2.65-13.301c-.072-.295-.223-.6-.416-.829-.176-.207-.467-.454-.859-.454-.179 0-.479.084-.67.164-.072-.129-.211-.442-.211-.584 0-.145.246-.292.715-.292 1.031 0 1.648.467 1.648 1.249 0 .274-.109.525-.207.746zm.463-1.017c-.037-.22-.121-.42-.249-.592.006-.202.089-.395.415-.236-.176.18-.041.498-.041.498s.36-.167.286-.404c.534.128.15.845-.411.734zm2.008 6.9c.027-.224.043-.455.043-.692 0-.128.001-.278-.015-.448 1.993-.028 3.741-1.464 3.741-3.115 0-.84-.548-1.475-.858-1.853.07-.015.14-.031.21-.048.292.254 1.121 1.155 1.121 2.295 0 1.981-1.98 3.82-4.242 3.861z"/></g></svg>