<?xml version="1.0" encoding="UTF-8" standalone="no"?>
<!DOCTYPE svg PUBLIC "-//W3C//DTD SVG 1.1//EN" "http://www.w3.org/Graphics/SVG/1.1/DTD/svg11.dtd">
<svg width="100%" height="100%" viewBox="0 0 213 107" version="1.1" xmlns="http://www.w3.org/2000/svg" xmlns:xlink="http://www.w3.org/1999/xlink" xml:space="preserve" xmlns:serif="http://www.serif.com/" style="fill-rule:evenodd;clip-rule:evenodd;stroke-linejoin:round;stroke-miterlimit:2;">
    <g transform="matrix(1,0,0,1,-40.4451,-36.8904)">
        <g>
            <path d="M118.76,41.871c0,0.5 -0.063,0.938 -0.188,1.313c-0.124,0.374 -0.292,0.699 -0.511,0.968c-0.215,0.274 -0.465,0.492 -0.75,0.657c-0.285,0.167 -0.582,0.292 -0.887,0.378l0,0.039c0.375,0.071 0.727,0.204 1.055,0.399c0.328,0.195 0.609,0.437 0.855,0.73c0.242,0.293 0.438,0.637 0.582,1.032c0.149,0.398 0.223,0.832 0.223,1.304c0,0.571 -0.102,1.09 -0.297,1.563c-0.191,0.472 -0.496,0.883 -0.906,1.234c-0.41,0.344 -0.926,0.617 -1.555,0.813c-0.625,0.195 -1.367,0.289 -2.23,0.289l-2.942,0l0,-14.391l2.774,0c0.847,0 1.578,0.086 2.179,0.258c0.606,0.175 1.106,0.421 1.492,0.742c0.391,0.32 0.672,0.707 0.844,1.156c0.176,0.453 0.262,0.957 0.262,1.516m-1.836,0.058c0,-0.664 -0.234,-1.215 -0.707,-1.644c-0.473,-0.434 -1.219,-0.649 -2.234,-0.649l-0.957,0l0,4.965l0.937,0c0.973,0 1.711,-0.234 2.211,-0.711c0.5,-0.469 0.75,-1.125 0.75,-1.961m0.273,6.637c0,-0.781 -0.253,-1.395 -0.761,-1.848c-0.508,-0.453 -1.235,-0.676 -2.18,-0.676l-1.23,0l0,5.047l1.125,0c1.07,0 1.847,-0.211 2.328,-0.636c0.476,-0.422 0.718,-1.051 0.718,-1.887m11.18,4.023l-1.543,0l0,-1.125l-0.043,0c-0.039,0.082 -0.132,0.207 -0.269,0.367c-0.141,0.161 -0.317,0.313 -0.531,0.457c-0.215,0.145 -0.477,0.278 -0.786,0.387c-0.304,0.11 -0.644,0.168 -1.019,0.168c-0.445,0 -0.848,-0.066 -1.199,-0.199c-0.356,-0.133 -0.66,-0.344 -0.91,-0.637c-0.25,-0.293 -0.442,-0.672 -0.575,-1.136c-0.129,-0.465 -0.195,-1.04 -0.195,-1.723l0,-6.57l1.688,0l0,6.445c0,0.836 0.136,1.43 0.41,1.785c0.269,0.355 0.687,0.531 1.261,0.531c0.485,0 0.895,-0.121 1.231,-0.363c0.332,-0.246 0.598,-0.484 0.793,-0.723l0,-7.675l1.687,0m8.055,10.012l0,-6.446c0,-0.847 -0.144,-1.453 -0.43,-1.824c-0.285,-0.367 -0.718,-0.555 -1.304,-0.555c-0.5,0 -0.918,0.125 -1.25,0.379c-0.336,0.25 -0.598,0.492 -0.793,0.731l0,7.715l-1.692,0l0,-10.012l1.543,0l0,1.128l0.043,0c0.043,-0.086 0.133,-0.207 0.274,-0.367c0.136,-0.16 0.32,-0.312 0.543,-0.457c0.218,-0.148 0.484,-0.277 0.789,-0.387c0.308,-0.113 0.656,-0.167 1.043,-0.167c0.445,0 0.851,0.066 1.211,0.199c0.363,0.133 0.668,0.343 0.918,0.636c0.25,0.29 0.445,0.668 0.586,1.137c0.136,0.465 0.207,1.039 0.207,1.719l0,6.57m2.066,-4.859c0,-1.016 0.133,-1.863 0.395,-2.543c0.265,-0.684 0.605,-1.231 1.023,-1.649c0.418,-0.418 0.891,-0.714 1.418,-0.886c0.527,-0.176 1.059,-0.262 1.586,-0.262c0.32,0 0.598,0.023 0.836,0.074c0.234,0.047 0.429,0.106 0.582,0.176l0,-4.797l1.691,-0.187l0,14.934l-1.547,0l0,-1.063l-0.039,0c-0.043,0.086 -0.117,0.199 -0.23,0.344c-0.11,0.148 -0.262,0.293 -0.457,0.437c-0.196,0.149 -0.442,0.274 -0.731,0.375c-0.293,0.106 -0.633,0.161 -1.023,0.161c-0.473,0 -0.922,-0.094 -1.348,-0.286c-0.422,-0.187 -0.793,-0.484 -1.113,-0.894c-0.32,-0.41 -0.574,-0.942 -0.762,-1.586c-0.187,-0.649 -0.281,-1.43 -0.281,-2.348m3.965,3.61c0.261,0 0.5,-0.036 0.707,-0.106c0.207,-0.066 0.39,-0.156 0.543,-0.258c0.152,-0.105 0.281,-0.214 0.386,-0.324c0.106,-0.113 0.184,-0.207 0.239,-0.293l0,-6.176c-0.153,-0.097 -0.328,-0.179 -0.532,-0.25c-0.203,-0.066 -0.457,-0.101 -0.761,-0.101c-0.391,0 -0.754,0.066 -1.094,0.195c-0.344,0.133 -0.637,0.352 -0.887,0.656c-0.25,0.309 -0.449,0.703 -0.597,1.192c-0.145,0.488 -0.219,1.086 -0.219,1.793c0,0.695 0.058,1.277 0.179,1.742c0.118,0.465 0.282,0.84 0.489,1.125c0.211,0.289 0.445,0.492 0.711,0.617c0.261,0.125 0.543,0.188 0.836,0.188m12.578,-5.383c0,0.433 -0.016,0.805 -0.043,1.117c-0.028,0.313 -0.055,0.586 -0.082,0.824l-5.114,0c0.055,1.184 0.309,2.051 0.762,2.606c0.453,0.558 1.102,0.836 1.949,0.836c0.293,0 0.559,-0.035 0.793,-0.106c0.238,-0.066 0.446,-0.152 0.617,-0.25c0.172,-0.097 0.321,-0.195 0.438,-0.289c0.117,-0.097 0.207,-0.176 0.262,-0.23l0.625,1.187c-0.071,0.071 -0.172,0.172 -0.313,0.305c-0.141,0.129 -0.328,0.262 -0.562,0.394c-0.239,0.133 -0.528,0.247 -0.875,0.344c-0.352,0.098 -0.762,0.149 -1.235,0.149c-0.625,0 -1.191,-0.106 -1.699,-0.313c-0.508,-0.211 -0.937,-0.535 -1.293,-0.973c-0.355,-0.437 -0.629,-0.992 -0.824,-1.668c-0.196,-0.675 -0.293,-1.484 -0.293,-2.429c0,-0.891 0.101,-1.66 0.305,-2.305c0.203,-0.648 0.476,-1.18 0.824,-1.598c0.347,-0.418 0.75,-0.726 1.211,-0.929c0.457,-0.2 0.949,-0.301 1.48,-0.301c0.957,0 1.711,0.301 2.25,0.906c0.543,0.606 0.817,1.516 0.817,2.723m-3.172,-2.25c-0.598,0 -1.078,0.25 -1.442,0.75c-0.359,0.5 -0.57,1.223 -0.625,2.168l3.653,0c0.011,-0.07 0.023,-0.168 0.031,-0.301c0.008,-0.133 0.011,-0.277 0.011,-0.43c0,-0.695 -0.14,-1.234 -0.418,-1.617c-0.281,-0.379 -0.683,-0.57 -1.21,-0.57m9.742,0.894c-0.113,-0.125 -0.313,-0.296 -0.606,-0.511c-0.293,-0.215 -0.675,-0.325 -1.148,-0.325c-0.445,0 -0.785,0.106 -1.02,0.317c-0.238,0.207 -0.355,0.457 -0.355,0.75c0,0.375 0.105,0.683 0.324,0.926c0.215,0.246 0.543,0.507 0.988,0.785l0.629,0.375c0.68,0.402 1.215,0.836 1.606,1.305c0.387,0.464 0.582,1.066 0.582,1.804c0,0.793 -0.274,1.461 -0.824,2c-0.547,0.543 -1.336,0.817 -2.368,0.817c-0.402,0 -0.757,-0.043 -1.062,-0.125c-0.305,-0.086 -0.574,-0.184 -0.805,-0.293c-0.226,-0.114 -0.418,-0.235 -0.574,-0.368c-0.152,-0.132 -0.277,-0.253 -0.375,-0.363l0.816,-1.336c0.082,0.086 0.184,0.18 0.301,0.293c0.117,0.11 0.262,0.219 0.426,0.324c0.168,0.102 0.356,0.192 0.566,0.258c0.207,0.071 0.45,0.106 0.727,0.106c0.504,0 0.887,-0.114 1.148,-0.332c0.266,-0.223 0.399,-0.496 0.399,-0.817c0,-0.234 -0.031,-0.441 -0.094,-0.613c-0.062,-0.176 -0.156,-0.332 -0.285,-0.469c-0.125,-0.14 -0.277,-0.273 -0.457,-0.398c-0.18,-0.125 -0.391,-0.262 -0.625,-0.418l-0.625,-0.395c-0.629,-0.402 -1.117,-0.828 -1.473,-1.273c-0.351,-0.445 -0.531,-1.016 -0.531,-1.711c0,-0.375 0.074,-0.719 0.219,-1.031c0.144,-0.313 0.351,-0.586 0.617,-0.813c0.262,-0.23 0.57,-0.41 0.926,-0.543c0.355,-0.132 0.734,-0.199 1.137,-0.199c0.39,0 0.722,0.039 1.003,0.117c0.278,0.075 0.516,0.172 0.719,0.289c0.203,0.118 0.367,0.239 0.5,0.356c0.133,0.117 0.238,0.219 0.324,0.301m7.508,9.199l0,-6.445c0,-0.821 -0.117,-1.411 -0.351,-1.774c-0.239,-0.359 -0.621,-0.539 -1.149,-0.539c-0.277,0 -0.523,0.035 -0.742,0.102c-0.215,0.07 -0.406,0.156 -0.57,0.261c-0.168,0.106 -0.317,0.219 -0.442,0.344c-0.125,0.125 -0.226,0.238 -0.312,0.336l0,7.715l-1.688,0l0,-10.012l1.543,0l0,1.129l0.039,0c0.071,-0.114 0.176,-0.25 0.317,-0.41c0.137,-0.161 0.312,-0.313 0.519,-0.457c0.207,-0.145 0.454,-0.27 0.731,-0.368c0.277,-0.093 0.59,-0.144 0.937,-0.144c1.141,0 1.95,0.445 2.422,1.336c0.098,-0.141 0.231,-0.289 0.395,-0.449c0.168,-0.161 0.363,-0.305 0.586,-0.438c0.222,-0.133 0.472,-0.242 0.75,-0.324c0.277,-0.082 0.586,-0.125 0.918,-0.125c2.031,0 3.047,1.183 3.047,3.547l0,6.715l-1.692,-0.001l0,-6.445c0,-0.82 -0.144,-1.41 -0.437,-1.773c-0.293,-0.36 -0.723,-0.539 -1.293,-0.539c-0.473,0 -0.868,0.113 -1.18,0.343c-0.313,0.231 -0.559,0.45 -0.738,0.657c0.027,0.152 0.047,0.316 0.062,0.492c0.012,0.172 0.02,0.355 0.02,0.551l0,6.715m9.468,0l-1.687,0l0,-10.012l1.688,0l0,10.012Zm-0.833,-12.43c-0.347,0 -0.625,-0.114 -0.835,-0.336c-0.207,-0.223 -0.313,-0.516 -0.313,-0.875c0,-0.348 0.106,-0.633 0.313,-0.856c0.21,-0.223 0.488,-0.336 0.835,-0.336c0.333,0 0.606,0.113 0.813,0.336c0.211,0.223 0.312,0.508 0.312,0.856c0,0.359 -0.101,0.652 -0.312,0.875c-0.207,0.222 -0.48,0.336 -0.813,0.336m8.887,12.43l0,-6.446c0,-0.847 -0.144,-1.453 -0.43,-1.824c-0.285,-0.367 -0.718,-0.555 -1.3,-0.555c-0.504,0 -0.918,0.125 -1.254,0.379c-0.332,0.25 -0.598,0.492 -0.793,0.731l0,7.714l-1.688,0l0,-10.012l1.543,0l0,1.129l0.039,0c0.043,-0.086 0.133,-0.207 0.274,-0.367c0.14,-0.16 0.32,-0.312 0.543,-0.457c0.222,-0.148 0.484,-0.277 0.793,-0.387c0.304,-0.113 0.652,-0.168 1.043,-0.168c0.445,0 0.847,0.067 1.211,0.2c0.359,0.133 0.664,0.343 0.918,0.636c0.25,0.289 0.441,0.668 0.582,1.137c0.14,0.465 0.207,1.039 0.207,1.719l0,6.57m4.215,0l-1.692,0l0,-10.012l1.692,0l0,10.012Zm-0.833,-12.43c-0.347,0 -0.628,-0.113 -0.835,-0.336c-0.207,-0.222 -0.313,-0.515 -0.313,-0.875c0,-0.347 0.106,-0.633 0.313,-0.855c0.207,-0.223 0.488,-0.336 0.835,-0.336c0.333,0 0.602,0.113 0.813,0.336c0.207,0.222 0.313,0.508 0.313,0.855c0,0.36 -0.106,0.653 -0.313,0.875c-0.211,0.223 -0.48,0.336 -0.813,0.336m7.739,4.442c-0.113,-0.125 -0.313,-0.297 -0.606,-0.512c-0.293,-0.215 -0.675,-0.324 -1.148,-0.324c-0.445,0 -0.785,0.105 -1.02,0.316c-0.238,0.207 -0.355,0.457 -0.355,0.75c0,0.375 0.105,0.684 0.32,0.926c0.219,0.246 0.547,0.508 0.992,0.785l0.625,0.375c0.684,0.402 1.219,0.836 1.61,1.305c0.387,0.465 0.582,1.066 0.582,1.804c0,0.793 -0.274,1.461 -0.824,2c-0.547,0.543 -1.336,0.817 -2.368,0.817c-0.402,0 -0.757,-0.043 -1.062,-0.125c-0.309,-0.086 -0.574,-0.184 -0.805,-0.293c-0.23,-0.113 -0.422,-0.235 -0.574,-0.367c-0.152,-0.133 -0.277,-0.254 -0.375,-0.364l0.813,-1.335c0.085,0.085 0.183,0.179 0.304,0.292c0.117,0.11 0.262,0.219 0.426,0.325c0.168,0.101 0.356,0.191 0.563,0.258c0.21,0.07 0.453,0.105 0.73,0.105c0.504,0 0.887,-0.113 1.148,-0.332c0.266,-0.223 0.399,-0.496 0.399,-0.816c0,-0.235 -0.031,-0.442 -0.098,-0.614c-0.058,-0.176 -0.152,-0.332 -0.277,-0.468c-0.125,-0.141 -0.281,-0.274 -0.461,-0.399c-0.18,-0.125 -0.391,-0.262 -0.625,-0.418l-0.625,-0.394c-0.629,-0.403 -1.117,-0.829 -1.473,-1.274c-0.355,-0.445 -0.531,-1.015 -0.531,-1.711c0,-0.375 0.074,-0.718 0.219,-1.031c0.144,-0.312 0.351,-0.586 0.617,-0.812c0.262,-0.231 0.57,-0.411 0.926,-0.543c0.355,-0.133 0.734,-0.2 1.136,-0.2c0.391,0 0.723,0.039 1,0.118c0.282,0.074 0.52,0.171 0.723,0.289c0.199,0.117 0.367,0.238 0.5,0.355c0.133,0.117 0.238,0.219 0.324,0.301m6.528,0.566l-2.192,0l0,5.547c0,0.711 0.094,1.195 0.274,1.449c0.179,0.258 0.488,0.387 0.918,0.387c0.25,0 0.464,-0.035 0.644,-0.105c0.184,-0.067 0.317,-0.133 0.399,-0.188l0.23,1.36c-0.07,0.054 -0.238,0.14 -0.504,0.257c-0.262,0.121 -0.617,0.18 -1.062,0.18c-0.864,0 -1.508,-0.242 -1.942,-0.723c-0.429,-0.48 -0.644,-1.273 -0.644,-2.386l0,-5.778l-1.211,0l0,-1.129l1.211,-0.25l0.187,-2.793l1.5,0l0,2.793l2.403,0m7.988,3.379c0,0.434 -0.016,0.805 -0.043,1.118c-0.027,0.312 -0.055,0.586 -0.082,0.824l-5.11,0c0.055,1.183 0.309,2.051 0.758,2.605c0.453,0.559 1.106,0.836 1.953,0.836c0.293,0 0.555,-0.035 0.793,-0.105c0.235,-0.067 0.442,-0.153 0.614,-0.25c0.175,-0.098 0.32,-0.196 0.437,-0.289c0.121,-0.098 0.207,-0.176 0.262,-0.231l0.625,1.188c-0.067,0.07 -0.172,0.172 -0.313,0.304c-0.136,0.129 -0.324,0.262 -0.562,0.395c-0.235,0.133 -0.528,0.246 -0.875,0.344c-0.348,0.097 -0.758,0.148 -1.231,0.148c-0.625,0 -1.195,-0.105 -1.703,-0.312c-0.504,-0.211 -0.937,-0.536 -1.293,-0.973c-0.351,-0.438 -0.629,-0.992 -0.824,-1.668c-0.191,-0.676 -0.289,-1.484 -0.289,-2.43c0,-0.89 0.101,-1.66 0.301,-2.304c0.203,-0.649 0.476,-1.18 0.824,-1.598c0.348,-0.418 0.75,-0.727 1.211,-0.93c0.457,-0.199 0.953,-0.301 1.48,-0.301c0.961,0 1.711,0.301 2.254,0.907c0.543,0.605 0.813,1.515 0.813,2.722m-3.172,-2.25c-0.598,0 -1.078,0.25 -1.438,0.75c-0.363,0.5 -0.57,1.223 -0.625,2.168l3.649,0c0.015,-0.07 0.023,-0.168 0.031,-0.3c0.008,-0.133 0.012,-0.278 0.012,-0.43c0,-0.695 -0.141,-1.235 -0.418,-1.617c-0.278,-0.379 -0.68,-0.571 -1.211,-0.571m9.824,0.352c-0.039,-0.027 -0.129,-0.063 -0.27,-0.102c-0.136,-0.043 -0.328,-0.066 -0.562,-0.066c-0.527,0 -0.941,0.145 -1.242,0.43c-0.297,0.285 -0.512,0.593 -0.637,0.929l0,7.34l-1.688,0l0,-10.012l1.543,0l0,1.356l0.043,0c0.067,-0.196 0.161,-0.387 0.27,-0.575c0.113,-0.187 0.25,-0.351 0.418,-0.5c0.168,-0.144 0.363,-0.261 0.594,-0.343c0.23,-0.082 0.504,-0.125 0.824,-0.125c0.238,0 0.43,0.019 0.574,0.062c0.145,0.043 0.262,0.078 0.344,0.106m3.148,10.031l-1.687,0l0,-10.012l1.687,0l0,10.012Zm-0.832,-12.43c-0.347,0 -0.625,-0.114 -0.836,-0.336c-0.207,-0.223 -0.312,-0.516 -0.312,-0.875c0,-0.348 0.105,-0.633 0.312,-0.856c0.211,-0.222 0.489,-0.336 0.836,-0.336c0.332,0 0.606,0.114 0.813,0.336c0.207,0.223 0.312,0.508 0.312,0.856c0,0.359 -0.105,0.652 -0.312,0.875c-0.207,0.222 -0.481,0.336 -0.813,0.336m10.43,12.43l-1.543,0l0,-1.125l-0.043,0c-0.043,0.082 -0.133,0.207 -0.269,0.367c-0.141,0.16 -0.317,0.312 -0.535,0.457c-0.215,0.144 -0.473,0.277 -0.782,0.387c-0.304,0.109 -0.644,0.168 -1.019,0.168c-0.445,0 -0.848,-0.067 -1.199,-0.2c-0.356,-0.132 -0.661,-0.343 -0.911,-0.636c-0.25,-0.293 -0.441,-0.672 -0.574,-1.137c-0.133,-0.465 -0.195,-1.039 -0.195,-1.723l0,-6.57l1.687,0l0,6.445c0,0.836 0.137,1.43 0.407,1.785c0.273,0.356 0.691,0.532 1.261,0.532c0.489,0 0.899,-0.121 1.235,-0.364c0.332,-0.246 0.594,-0.484 0.789,-0.722l0,-7.676l1.691,0m7.844,10.012l0,-6.445c0,-0.821 -0.117,-1.411 -0.355,-1.774c-0.239,-0.359 -0.618,-0.539 -1.149,-0.539c-0.277,0 -0.523,0.035 -0.738,0.102c-0.215,0.07 -0.406,0.156 -0.574,0.261c-0.168,0.106 -0.313,0.219 -0.438,0.344c-0.125,0.125 -0.23,0.238 -0.312,0.336l0,7.715l-1.692,0l0,-10.012l1.543,0l0,1.129l0.043,0c0.071,-0.113 0.176,-0.25 0.313,-0.41c0.14,-0.16 0.312,-0.313 0.523,-0.457c0.207,-0.145 0.449,-0.27 0.731,-0.368c0.277,-0.093 0.59,-0.144 0.937,-0.144c1.141,0 1.946,0.445 2.418,1.336c0.098,-0.141 0.231,-0.289 0.399,-0.449c0.164,-0.161 0.359,-0.305 0.582,-0.438c0.222,-0.133 0.472,-0.242 0.754,-0.324c0.277,-0.082 0.582,-0.125 0.918,-0.125c2.027,0 3.043,1.183 3.043,3.547l0,6.715l-1.688,0l0,-6.446c0,-0.82 -0.148,-1.41 -0.441,-1.773c-0.289,-0.359 -0.723,-0.539 -1.293,-0.539c-0.473,0 -0.864,0.113 -1.176,0.344c-0.313,0.23 -0.563,0.449 -0.742,0.656c0.027,0.152 0.05,0.316 0.062,0.492c0.016,0.172 0.02,0.355 0.02,0.551l0,6.715m-133.09,12.402l-2.043,0l0,8.636l-1.692,0l0,-8.636l-1.211,0l0,-1.125l1.211,-0.231l0,-2.004c0,-0.543 0.078,-1.008 0.231,-1.398c0.152,-0.391 0.355,-0.707 0.605,-0.957c0.25,-0.25 0.539,-0.434 0.875,-0.543c0.332,-0.113 0.688,-0.168 1.063,-0.168c0.363,0 0.668,0.051 0.918,0.144c0.25,0.098 0.418,0.176 0.504,0.231l-0.356,1.398c-0.086,-0.054 -0.203,-0.117 -0.355,-0.176c-0.153,-0.066 -0.34,-0.093 -0.563,-0.093c-0.402,0 -0.711,0.125 -0.918,0.375c-0.211,0.25 -0.312,0.707 -0.312,1.375l0,1.793l2.25,0m8.472,10.016l-1.547,0l0,-1.129l-0.039,0c-0.043,0.086 -0.132,0.207 -0.273,0.367c-0.137,0.16 -0.316,0.313 -0.531,0.457c-0.215,0.148 -0.477,0.277 -0.782,0.387c-0.304,0.113 -0.648,0.168 -1.023,0.168c-0.445,0 -0.844,-0.067 -1.199,-0.199c-0.356,-0.133 -0.656,-0.344 -0.906,-0.637c-0.25,-0.293 -0.442,-0.672 -0.575,-1.137c-0.132,-0.465 -0.199,-1.039 -0.199,-1.723l0,-6.57l1.692,0l0,6.445c0,0.836 0.132,1.43 0.406,1.786c0.269,0.355 0.691,0.531 1.261,0.531c0.489,0 0.899,-0.121 1.231,-0.363c0.336,-0.247 0.598,-0.485 0.793,-0.719l0,-7.68l1.691,0m-4.152,-2.879c0,0.321 -0.098,0.578 -0.293,0.774c-0.195,0.195 -0.43,0.293 -0.711,0.293c-0.277,0 -0.512,-0.098 -0.707,-0.293c-0.195,-0.196 -0.293,-0.453 -0.293,-0.774c0,-0.316 0.098,-0.574 0.293,-0.769c0.195,-0.196 0.43,-0.293 0.707,-0.293c0.281,0 0.516,0.097 0.711,0.293c0.195,0.195 0.293,0.453 0.293,0.769m3.211,0c0,0.321 -0.098,0.578 -0.289,0.774c-0.195,0.195 -0.434,0.293 -0.711,0.293c-0.277,0 -0.516,-0.098 -0.711,-0.293c-0.191,-0.196 -0.289,-0.453 -0.289,-0.774c0,-0.316 0.098,-0.574 0.289,-0.769c0.195,-0.196 0.434,-0.293 0.711,-0.293c0.277,0 0.516,0.097 0.711,0.293c0.191,0.195 0.289,0.453 0.289,0.769m7.93,4.36c-0.043,-0.028 -0.133,-0.059 -0.274,-0.102c-0.137,-0.043 -0.324,-0.062 -0.562,-0.062c-0.528,0 -0.942,0.14 -1.242,0.425c-0.297,0.286 -0.512,0.598 -0.637,0.93l0,7.344l-1.688,0l0,-10.016l1.543,0l0,1.355l0.043,0c0.067,-0.191 0.16,-0.382 0.27,-0.57c0.109,-0.187 0.25,-0.355 0.418,-0.5c0.168,-0.148 0.363,-0.262 0.594,-0.348c0.23,-0.082 0.503,-0.125 0.824,-0.125c0.238,0 0.429,0.024 0.574,0.063c0.145,0.043 0.262,0.078 0.344,0.105m14.602,9.075c-0.098,0.082 -0.242,0.191 -0.438,0.324c-0.195,0.133 -0.449,0.261 -0.761,0.394c-0.313,0.133 -0.684,0.25 -1.114,0.348c-0.433,0.094 -0.926,0.144 -1.484,0.144c-0.82,0 -1.582,-0.128 -2.285,-0.386c-0.7,-0.258 -1.305,-0.676 -1.813,-1.262c-0.508,-0.582 -0.906,-1.359 -1.191,-2.324c-0.285,-0.969 -0.426,-2.16 -0.426,-3.578c0,-1.352 0.176,-2.492 0.531,-3.422c0.356,-0.934 0.82,-1.692 1.399,-2.274c0.578,-0.585 1.23,-1.007 1.96,-1.261c0.731,-0.258 1.477,-0.387 2.243,-0.387c0.543,0 1.004,0.047 1.386,0.145c0.383,0.097 0.711,0.214 0.981,0.355c0.273,0.141 0.492,0.277 0.66,0.418c0.164,0.137 0.305,0.258 0.414,0.355l-0.855,1.27c-0.067,-0.066 -0.172,-0.16 -0.313,-0.281c-0.137,-0.117 -0.316,-0.231 -0.531,-0.344c-0.215,-0.109 -0.473,-0.207 -0.77,-0.293c-0.3,-0.082 -0.652,-0.125 -1.054,-0.125c-0.543,0 -1.063,0.098 -1.555,0.293c-0.496,0.195 -0.93,0.523 -1.305,0.98c-0.375,0.461 -0.676,1.063 -0.906,1.805c-0.231,0.742 -0.344,1.664 -0.344,2.766c0,1.082 0.082,2.004 0.25,2.761c0.168,0.758 0.418,1.379 0.75,1.86c0.336,0.476 0.742,0.824 1.231,1.043c0.488,0.215 1.058,0.32 1.711,0.32c0.363,0 0.703,-0.031 1.023,-0.101c0.32,-0.071 0.605,-0.157 0.855,-0.25l0,-4.196l-2.296,0l0,-1.437l4.046,0m8.911,0.668c0,0.429 -0.016,0.801 -0.043,1.113c-0.028,0.313 -0.055,0.59 -0.082,0.824l-5.114,0c0.055,1.184 0.309,2.051 0.762,2.61c0.453,0.554 1.102,0.832 1.953,0.832c0.289,0 0.555,-0.035 0.789,-0.102c0.239,-0.07 0.442,-0.152 0.617,-0.25c0.176,-0.098 0.321,-0.195 0.438,-0.293c0.117,-0.097 0.207,-0.176 0.262,-0.23l0.625,1.191c-0.071,0.067 -0.176,0.168 -0.313,0.301c-0.14,0.133 -0.328,0.262 -0.562,0.394c-0.239,0.133 -0.532,0.25 -0.879,0.348c-0.348,0.094 -0.758,0.145 -1.231,0.145c-0.625,0 -1.191,-0.106 -1.699,-0.313c-0.508,-0.211 -0.937,-0.531 -1.293,-0.973c-0.355,-0.437 -0.629,-0.992 -0.824,-1.668c-0.195,-0.671 -0.293,-1.484 -0.293,-2.429c0,-0.891 0.101,-1.66 0.305,-2.305c0.199,-0.648 0.476,-1.18 0.824,-1.598c0.347,-0.418 0.75,-0.726 1.207,-0.925c0.461,-0.204 0.953,-0.305 1.484,-0.305c0.957,0 1.711,0.305 2.25,0.91c0.543,0.602 0.817,1.512 0.817,2.723m-3.172,-2.254c-0.598,0 -1.078,0.25 -1.442,0.75c-0.359,0.5 -0.57,1.223 -0.625,2.168l3.653,0c0.011,-0.067 0.023,-0.168 0.031,-0.301c0.008,-0.133 0.008,-0.273 0.008,-0.43c0,-0.691 -0.137,-1.23 -0.414,-1.613c-0.282,-0.383 -0.684,-0.574 -1.211,-0.574m9.742,0.894c-0.113,-0.125 -0.312,-0.293 -0.605,-0.507c-0.293,-0.219 -0.676,-0.325 -1.149,-0.325c-0.445,0 -0.785,0.106 -1.023,0.313c-0.235,0.207 -0.352,0.457 -0.352,0.75c0,0.375 0.106,0.683 0.321,0.93c0.218,0.242 0.546,0.503 0.992,0.781l0.625,0.375c0.683,0.406 1.218,0.84 1.609,1.304c0.387,0.465 0.582,1.067 0.582,1.805c0,0.793 -0.273,1.461 -0.824,2.004c-0.547,0.543 -1.336,0.813 -2.367,0.813c-0.403,0 -0.758,-0.043 -1.063,-0.125c-0.308,-0.086 -0.574,-0.18 -0.804,-0.293c-0.231,-0.114 -0.422,-0.235 -0.575,-0.364c-0.152,-0.132 -0.277,-0.254 -0.375,-0.367l0.813,-1.336c0.086,0.086 0.187,0.184 0.304,0.293c0.118,0.114 0.262,0.219 0.426,0.324c0.168,0.106 0.356,0.192 0.563,0.262c0.211,0.067 0.453,0.102 0.73,0.102c0.504,0 0.887,-0.11 1.149,-0.332c0.265,-0.223 0.398,-0.496 0.398,-0.817c0,-0.234 -0.031,-0.437 -0.094,-0.613c-0.062,-0.172 -0.156,-0.328 -0.281,-0.469c-0.129,-0.14 -0.281,-0.269 -0.461,-0.398c-0.18,-0.125 -0.39,-0.262 -0.625,-0.414l-0.625,-0.399c-0.629,-0.402 -1.117,-0.828 -1.473,-1.273c-0.355,-0.445 -0.531,-1.012 -0.531,-1.707c0,-0.379 0.071,-0.723 0.219,-1.035c0.145,-0.313 0.352,-0.582 0.617,-0.813c0.262,-0.23 0.57,-0.41 0.926,-0.543c0.355,-0.133 0.734,-0.199 1.137,-0.199c0.39,0 0.722,0.039 1,0.117c0.281,0.074 0.519,0.172 0.722,0.293c0.2,0.117 0.367,0.235 0.5,0.352c0.133,0.121 0.239,0.218 0.325,0.304m9.261,9.2l-1.543,0l0,-1.129l-0.043,0c-0.043,0.086 -0.133,0.207 -0.269,0.367c-0.141,0.16 -0.321,0.312 -0.535,0.457c-0.215,0.148 -0.477,0.277 -0.782,0.387c-0.304,0.113 -0.644,0.168 -1.023,0.168c-0.445,0 -0.844,-0.067 -1.199,-0.2c-0.352,-0.132 -0.657,-0.343 -0.907,-0.636c-0.25,-0.293 -0.441,-0.672 -0.574,-1.137c-0.129,-0.465 -0.199,-1.039 -0.199,-1.723l0,-6.57l1.691,0l0,6.445c0,0.836 0.137,1.43 0.407,1.786c0.273,0.355 0.691,0.531 1.261,0.531c0.489,0 0.899,-0.121 1.231,-0.364c0.336,-0.246 0.598,-0.484 0.793,-0.718l0,-7.68l1.691,0m8.051,10.016l0,-6.449c0,-0.848 -0.141,-1.453 -0.426,-1.824c-0.285,-0.368 -0.722,-0.551 -1.304,-0.551c-0.5,0 -0.918,0.125 -1.254,0.375c-0.332,0.25 -0.598,0.492 -0.789,0.73l0,7.719l-1.692,0l0,-10.016l1.543,0l0,1.129l0.043,0c0.043,-0.086 0.133,-0.207 0.27,-0.367c0.14,-0.16 0.32,-0.313 0.543,-0.457c0.222,-0.145 0.488,-0.278 0.793,-0.387c0.308,-0.109 0.652,-0.168 1.043,-0.168c0.445,0 0.847,0.067 1.211,0.199c0.359,0.133 0.667,0.344 0.917,0.637c0.25,0.293 0.446,0.672 0.583,1.137c0.14,0.465 0.21,1.039 0.21,1.719l0,6.574m2.063,-4.864c0,-1.011 0.133,-1.863 0.398,-2.543c0.266,-0.679 0.606,-1.23 1.024,-1.648c0.414,-0.418 0.887,-0.711 1.418,-0.887c0.527,-0.175 1.055,-0.261 1.586,-0.261c0.32,0 0.597,0.027 0.832,0.074c0.238,0.047 0.433,0.109 0.586,0.176l0,-4.797l1.687,-0.188l0,14.938l-1.543,0l0,-1.062l-0.039,0c-0.043,0.082 -0.121,0.195 -0.23,0.343c-0.114,0.145 -0.266,0.29 -0.461,0.438c-0.192,0.144 -0.438,0.269 -0.731,0.375c-0.289,0.105 -0.633,0.156 -1.019,0.156c-0.473,0 -0.922,-0.094 -1.348,-0.281c-0.422,-0.188 -0.797,-0.488 -1.117,-0.898c-0.317,-0.411 -0.571,-0.938 -0.758,-1.586c-0.191,-0.645 -0.285,-1.43 -0.285,-2.348m3.965,3.609c0.265,0 0.5,-0.035 0.711,-0.101c0.207,-0.071 0.39,-0.156 0.543,-0.262c0.152,-0.105 0.281,-0.211 0.382,-0.324c0.106,-0.11 0.188,-0.207 0.243,-0.293l0,-6.172c-0.153,-0.098 -0.332,-0.184 -0.532,-0.254c-0.203,-0.066 -0.457,-0.102 -0.761,-0.102c-0.391,0 -0.754,0.067 -1.098,0.2c-0.34,0.129 -0.633,0.347 -0.887,0.656c-0.25,0.305 -0.445,0.699 -0.594,1.187c-0.144,0.489 -0.218,1.086 -0.218,1.793c0,0.7 0.058,1.278 0.175,1.743c0.122,0.468 0.286,0.843 0.493,1.129c0.207,0.285 0.445,0.488 0.711,0.613c0.261,0.125 0.539,0.187 0.832,0.187m11.621,1.254l0,-6.449c0,-0.848 -0.145,-1.453 -0.43,-1.824c-0.285,-0.367 -0.719,-0.551 -1.305,-0.551c-0.5,0 -0.918,0.125 -1.25,0.375c-0.332,0.25 -0.597,0.492 -0.793,0.731l0,7.718l-1.687,0l0,-14.75l1.687,-0.187l0,5.945l0.043,0c0.055,-0.082 0.141,-0.195 0.262,-0.332c0.117,-0.141 0.281,-0.277 0.488,-0.418c0.207,-0.141 0.465,-0.262 0.762,-0.367c0.301,-0.102 0.648,-0.156 1.055,-0.156c0.875,0 1.57,0.285 2.086,0.855c0.511,0.57 0.769,1.516 0.769,2.836l0,6.574m8.949,-6.633c0,0.43 -0.011,0.801 -0.039,1.114c-0.027,0.312 -0.058,0.59 -0.086,0.824l-5.109,0c0.055,1.184 0.308,2.051 0.762,2.609c0.453,0.555 1.101,0.832 1.949,0.832c0.293,0 0.554,-0.035 0.793,-0.101c0.234,-0.07 0.441,-0.153 0.617,-0.25c0.172,-0.098 0.316,-0.195 0.437,-0.293c0.118,-0.098 0.204,-0.176 0.258,-0.231l0.629,1.192c-0.07,0.066 -0.176,0.168 -0.312,0.301c-0.141,0.132 -0.328,0.261 -0.567,0.394c-0.234,0.133 -0.527,0.25 -0.875,0.348c-0.347,0.094 -0.758,0.144 -1.23,0.144c-0.625,0 -1.192,-0.105 -1.699,-0.312c-0.508,-0.211 -0.942,-0.531 -1.293,-0.973c-0.356,-0.437 -0.629,-0.992 -0.825,-1.668c-0.195,-0.672 -0.293,-1.484 -0.293,-2.43c0,-0.89 0.102,-1.66 0.301,-2.304c0.203,-0.649 0.477,-1.18 0.824,-1.598c0.348,-0.418 0.754,-0.727 1.211,-0.926c0.461,-0.203 0.953,-0.304 1.481,-0.304c0.961,0 1.711,0.304 2.254,0.91c0.543,0.601 0.812,1.511 0.812,2.722m-3.168,-2.253c-0.597,0 -1.078,0.25 -1.441,0.75c-0.36,0.5 -0.571,1.222 -0.625,2.168l3.648,0c0.016,-0.067 0.027,-0.168 0.031,-0.301c0.008,-0.133 0.012,-0.274 0.012,-0.43c0,-0.691 -0.137,-1.23 -0.418,-1.613c-0.277,-0.383 -0.68,-0.574 -1.207,-0.574m7.113,8.886l-1.691,0l0,-10.016l1.691,0l0,10.016Zm-0.836,-12.434c-0.347,0 -0.625,-0.113 -0.835,-0.332c-0.207,-0.226 -0.313,-0.515 -0.313,-0.879c0,-0.347 0.106,-0.633 0.313,-0.855c0.21,-0.223 0.488,-0.332 0.835,-0.332c0.333,0 0.606,0.109 0.813,0.332c0.211,0.222 0.312,0.508 0.312,0.855c0,0.364 -0.101,0.653 -0.312,0.879c-0.207,0.219 -0.48,0.332 -0.813,0.332m7.7,3.797l-2.192,0l0,5.547c0,0.711 0.09,1.195 0.27,1.453c0.183,0.254 0.488,0.383 0.918,0.383c0.25,0 0.469,-0.035 0.648,-0.102c0.18,-0.07 0.313,-0.132 0.395,-0.187l0.23,1.355c-0.07,0.055 -0.234,0.141 -0.5,0.262c-0.266,0.117 -0.621,0.176 -1.062,0.176c-0.864,0 -1.512,-0.242 -1.942,-0.719c-0.429,-0.48 -0.648,-1.277 -0.648,-2.39l0,-5.778l-1.207,0l0,-1.125l1.207,-0.254l0.187,-2.793l1.504,0l0,2.793l2.399,0" style="fill-rule:nonzero;"/>
            <path d="M95.539,108.69l2.629,0l0,35.059l-6.137,0l0,-35.059" style="fill:rgb(248,209,0);fill-rule:nonzero;"/>
            <path d="M95.539,73.453l2.629,0l0,35.234l-6.137,0l0,-35.234" style="fill:rgb(227,5,17);fill-rule:nonzero;"/>
            <path d="M76.066,50.824c1.793,2.836 3.199,2.789 5.32,2.789c-1.754,-1.344 -2.914,-3.066 -3.468,-3.945l-3.278,-5.246c-0.32,-1.621 -1.16,-3.137 -2.414,-4.262c0.422,-0.16 0.774,-0.328 0.984,-0.488c-2.14,0 -4.261,-1.086 -5.429,-1.086c-0.75,0 -1.231,0.449 -1.231,1.039c0.047,0.66 0.727,1.336 1.985,1.336c0.285,0 0.648,-0.039 1.047,-0.106c0.679,0.95 1.23,1.805 1.23,3.028c0,2.297 -2.746,4.086 -5.519,4.086c-0.157,0 -0.305,-0.004 -0.461,-0.016c-0.254,-0.57 -1.086,-1.527 -1.086,-2.613c0,-1.825 1.187,-3.313 1.187,-5.121c0,-1.125 -0.547,-1.817 -0.758,-2.11c0.34,-0.316 0.715,-0.703 0.801,-0.969c-0.199,0.086 -0.433,0.098 -0.773,0.098c-1.332,0 -2.414,-0.348 -3.469,-0.348c-0.602,0 -0.766,0.188 -0.766,0.364c0,0.066 0.012,0.132 0.028,0.164c-0.223,-0.09 -0.434,-0.145 -0.684,-0.192c-0.312,-0.058 -0.648,-0.09 -1.004,-0.09c-1.285,0 -1.742,0.54 -1.742,1c0,0.391 0.309,1.102 0.656,1.645c0.5,-0.25 1.102,-0.422 1.375,-0.422c0.68,0 1.289,0.649 1.61,1.418c-0.461,0.055 -0.547,0.074 -1.012,0.074c-1.246,0 -2.098,-0.449 -2.273,-0.449c-0.016,0 -0.051,0.008 -0.051,0.035c0,0.176 0.355,0.641 1.054,0.895c0.918,0.336 2.297,0.476 2.528,0.515c0,0.039 -0.235,0.477 -0.496,0.559c-0.055,0.016 -0.098,0.02 -0.16,0.008c-0.961,-0.192 -1.231,-0.274 -2.45,-0.735c-0.039,-0.015 -0.058,0.008 -0.058,0.047c0,0.481 1.246,1.547 2.367,1.953c-0.934,1.192 -2.102,2.414 -2.652,4.274c-0.157,0.011 -0.305,0.015 -0.461,0.015c-2.774,0 -5.52,-1.789 -5.52,-4.085c0,-1.223 0.551,-2.079 1.231,-3.028c0.398,0.067 0.761,0.106 1.047,0.106c1.257,0 1.937,-0.676 1.988,-1.336c0,-0.59 -0.484,-1.039 -1.235,-1.039c-1.168,0 -3.289,1.086 -5.429,1.086c0.211,0.16 0.562,0.328 0.98,0.488c-1.25,1.125 -2.09,2.64 -2.41,4.262l-3.277,5.246c-0.551,0.879 -1.715,2.601 -3.473,3.945c2.121,0 3.531,0.047 5.324,-2.789l1.68,-2.692c0.125,0.352 0.277,0.692 0.457,1.024l-3.34,5.348c-0.558,0.886 -1.711,2.593 -3.473,3.949c2.122,0 3.528,0.047 5.321,-2.789l2.879,-4.606c0.215,0.231 0.441,0.453 0.679,0.668l-4.058,6.5c-0.559,0.887 -1.707,2.59 -3.473,3.945c2.121,0 3.531,0.051 5.324,-2.789l3.957,-6.336c0.262,0.164 0.528,0.325 0.805,0.477l-4.832,7.73c-0.559,0.887 -1.707,2.586 -3.469,3.942c2.121,0 3.527,0.051 5.32,-2.785l4.977,-7.965c0.293,0.113 0.59,0.223 0.895,0.32l-5.621,8.996c-0.551,0.875 -1.723,2.606 -3.469,3.946c2.121,0 3.527,0.046 5.32,-2.79l5.992,-9.589c0.059,0.011 0.121,0.019 0.18,0.035c0.164,0.515 0.277,1 0.277,1.484c0,3.012 -1.976,5.676 -4.351,7.727c0.152,0.066 0.418,0.09 0.664,0.09c0.488,0 0.804,-0.028 1.027,-0.067c-0.551,1.25 -1.731,2.867 -2.328,3.699c-0.777,-0.136 -1.906,-0.25 -2.649,-0.25c-0.773,0 -0.859,0.458 -0.859,0.86c0,0.703 0.328,1.262 0.711,1.574c0.141,-0.359 0.43,-0.84 1.863,-0.84c0.028,0 0.075,0.004 0.145,0.008c-0.418,0.469 -1.731,1.523 -1.731,2.379c0,0.562 0.621,1.41 1.438,1.41c-0.051,-0.183 -0.043,-0.351 -0.043,-0.476c0,-0.692 0.613,-1.5 1.129,-2.063c-0.016,0.168 -0.008,0.152 -0.008,0.348c0,1.633 0.148,2.383 1.184,2.383c0.507,0 0.859,-0.282 0.98,-0.364c-0.676,-0.621 -0.707,-1.105 -0.707,-2.023c0,-0.238 0,-0.469 0.004,-0.793c0.004,-0.207 0,-0.484 -0.035,-0.684c0.371,-0.054 0.523,-0.054 0.808,-0.054c0,0 1.469,-0.114 1.825,0.652c0.402,-0.367 0.98,-0.887 0.98,-1.453c0,-0.379 -0.18,-0.805 -0.937,-0.805c-0.286,0 -1.188,0.176 -1.946,0.176c0.203,-0.453 1.106,-1.773 1.891,-2.731c0.117,0.372 0.301,0.774 0.715,1.102c0.054,-0.617 0.418,-2.566 1.379,-3.707c0.113,0.77 0.265,1.559 0.265,3.227c0,4.054 -0.976,7.05 -3.047,7.625c0.27,0.468 0.84,0.886 1.434,0.886c0.754,0 1.168,-0.855 1.59,-1.66c0.218,0.594 0.824,2.055 1.429,2.055c0.606,0 1.211,-1.461 1.43,-2.055c0.422,0.805 0.832,1.66 1.59,1.66c0.594,0 1.164,-0.418 1.433,-0.886c-2.07,-0.575 -3.046,-3.571 -3.046,-7.625c0,-1.668 0.148,-2.457 0.261,-3.227c0.965,1.141 1.328,3.09 1.383,3.707c0.414,-0.328 0.598,-0.73 0.715,-1.102c0.785,0.957 1.687,2.278 1.891,2.731c-0.758,0 -1.661,-0.176 -1.946,-0.176c-0.758,0 -0.937,0.426 -0.937,0.805c0,0.566 0.582,1.086 0.98,1.453c0.352,-0.766 1.824,-0.652 1.824,-0.652c0.286,0 0.438,0 0.809,0.054c-0.035,0.2 -0.035,0.477 -0.035,0.684c0.004,0.324 0.004,0.555 0.004,0.793c0,0.918 -0.035,1.402 -0.707,2.023c0.121,0.082 0.472,0.364 0.98,0.364c1.035,0 1.184,-0.75 1.184,-2.383c0,-0.196 0.008,-0.18 -0.008,-0.348c0.516,0.563 1.129,1.371 1.129,2.063c0,0.125 0.008,0.293 -0.043,0.476c0.816,0 1.437,-0.848 1.437,-1.41c0,-0.856 -1.308,-1.91 -1.73,-2.379c0.07,-0.004 0.117,-0.008 0.144,-0.008c1.434,0 1.723,0.481 1.864,0.84c0.383,-0.312 0.711,-0.871 0.711,-1.574c0,-0.402 -0.086,-0.86 -0.86,-0.86c-0.742,0 -1.871,0.114 -2.648,0.25c-0.598,-0.832 -1.777,-2.449 -2.328,-3.699c0.222,0.039 0.539,0.067 1.027,0.067c0.246,0 0.512,-0.024 0.664,-0.09c-2.375,-2.051 -4.351,-4.715 -4.351,-7.727c0,-0.484 0.113,-0.968 0.277,-1.484c0.059,-0.016 0.121,-0.024 0.18,-0.035l5.992,9.59c1.793,2.835 3.199,2.789 5.32,2.789c-1.746,-1.34 -2.918,-3.071 -3.469,-3.946l-5.621,-8.996c0.305,-0.097 0.602,-0.207 0.899,-0.32l4.972,7.965c1.793,2.836 3.2,2.785 5.321,2.785c-1.766,-1.356 -2.91,-3.055 -3.469,-3.942l-4.832,-7.73c0.277,-0.152 0.543,-0.313 0.805,-0.477l3.957,6.336c1.797,2.84 3.199,2.789 5.32,2.789c-1.766,-1.355 -2.91,-3.058 -3.469,-3.945l-4.058,-6.5c0.238,-0.215 0.464,-0.437 0.679,-0.668l2.879,4.606c1.793,2.836 3.199,2.789 5.321,2.789c-1.766,-1.356 -2.915,-3.063 -3.473,-3.949l-3.34,-5.348c0.18,-0.332 0.332,-0.672 0.457,-1.024m-25.152,-3.468c0,-1.996 1.453,-3.578 1.965,-4.024c0.125,0.032 0.246,0.059 0.367,0.086c-0.543,0.664 -1.5,1.774 -1.5,3.246c0,2.926 3.121,5.465 6.66,5.465c-0.023,0.25 -0.035,0.512 -0.035,0.781c0,0.434 0.024,0.836 0.066,1.215c-4,-0.023 -7.523,-3.269 -7.523,-6.769m5.422,23.969l-0.023,0.07l0.07,0c1.121,0 1.668,-0.082 2.031,-0.133c0.191,-0.023 0.324,-0.047 0.473,-0.047c0.289,0 0.511,0.028 0.511,0.387c0,0.238 -0.281,0.621 -0.55,0.84c-0.418,-0.391 -0.989,-0.465 -1.828,-0.465c-0.395,0 -0.911,0.066 -1.188,0.105l-0.043,0.008l-0.047,0.008l0.016,0.129c0.031,0.234 0.07,0.523 0.07,0.914l-0.004,0.356l-0.004,0.437c0,0.953 0.133,1.5 0.465,1.91c-0.086,0.031 -0.226,0.059 -0.316,0.059c-0.594,0 -0.766,-0.258 -0.766,-1.965c0,-0.344 -0.015,-0.664 -0.031,-0.879l-0.016,-0.316l-0.074,0.058c-0.879,0.672 -1.785,1.867 -1.84,2.766c-0.265,-0.172 -0.551,-0.555 -0.551,-0.848c0,-0.492 0.735,-1.226 1.586,-2.078l0.551,-0.551l-0.16,-0.039c-0.184,-0.051 -0.523,-0.136 -0.812,-0.136c-0.958,0 -1.555,0.183 -1.922,0.582c-0.133,-0.188 -0.243,-0.637 -0.243,-0.899c0,-0.168 0.032,-0.289 0.098,-0.359c0.086,-0.078 0.215,-0.078 0.328,-0.078l0.024,0c1.054,0 2.312,0.191 2.8,0.269l0.032,0.004l0.019,-0.023c0.082,-0.114 2.09,-2.786 2.614,-4.203c0.117,-0.047 0.222,-0.079 0.429,-0.079c0.395,0 0.508,0.266 0.621,0.676c-1.254,1.52 -2.035,2.707 -2.32,3.52m10.824,-4.196c0.207,0 0.309,0.032 0.434,0.079c0.519,1.418 2.527,4.089 2.609,4.203l0.02,0.023l0.031,-0.004c0.488,-0.078 1.746,-0.269 2.801,-0.269l0.023,0c0.113,0 0.242,0 0.328,0.078c0.067,0.07 0.098,0.191 0.098,0.359c0,0.262 -0.11,0.711 -0.242,0.899c-0.368,-0.399 -0.965,-0.582 -1.922,-0.582c-0.289,0 -0.629,0.085 -0.813,0.136l-0.074,0.016l-0.086,0.023l0.551,0.551c0.851,0.852 1.59,1.586 1.59,2.078c0,0.293 -0.289,0.676 -0.551,0.848c-0.059,-0.899 -0.965,-2.094 -1.844,-2.766l-0.078,-0.058l-0.012,0.316c-0.015,0.215 -0.031,0.535 -0.031,0.879c0,1.707 -0.176,1.965 -0.766,1.965c-0.09,0 -0.23,-0.028 -0.316,-0.059c0.332,-0.41 0.465,-0.957 0.465,-1.91l-0.004,-0.438l-0.004,-0.355c0,-0.391 0.039,-0.68 0.07,-0.914l0.016,-0.129l-0.09,-0.016c-0.277,-0.039 -0.793,-0.105 -1.187,-0.105c-0.84,0 -1.415,0.074 -1.829,0.465c-0.269,-0.219 -0.55,-0.602 -0.55,-0.84c0,-0.359 0.222,-0.387 0.511,-0.387c0.145,0 0.282,0.024 0.473,0.047c0.363,0.051 0.91,0.133 2.031,0.133l0.071,0l-0.024,-0.07c-0.285,-0.813 -1.066,-2 -2.32,-3.52c0.113,-0.41 0.222,-0.676 0.621,-0.676m-4.648,-23.316c-0.125,-0.519 -0.391,-1.05 -0.731,-1.453c-0.309,-0.363 -0.816,-0.797 -1.504,-0.797c-0.312,0 -0.84,0.149 -1.172,0.289c-0.129,-0.226 -0.371,-0.777 -0.371,-1.023c0,-0.254 0.43,-0.512 1.254,-0.512c1.805,0 2.887,0.817 2.887,2.188c0,0.48 -0.188,0.922 -0.364,1.308m0.813,-1.781c-0.066,-0.387 -0.211,-0.738 -0.438,-1.039c0.012,-0.355 0.157,-0.691 0.727,-0.414c-0.309,0.316 -0.07,0.871 -0.07,0.871c0,0 0.633,-0.293 0.504,-0.707c0.933,0.227 0.261,1.481 -0.723,1.289m3.519,12.094c0.051,-0.394 0.075,-0.797 0.075,-1.215c0,-0.222 0.004,-0.484 -0.024,-0.785c3.492,-0.047 6.559,-2.562 6.559,-5.461c0,-1.472 -0.961,-2.582 -1.504,-3.246c0.121,-0.027 0.242,-0.054 0.367,-0.086c0.512,0.446 1.965,2.028 1.965,4.024c0,3.472 -3.473,6.699 -7.438,6.769" style="fill-rule:nonzero;"/>
            <path d="M98.168,38.57l0,35.059l-6.137,0l0,-35.059" style="fill-rule:nonzero;"/>
        </g>
    </g>
</svg>
